<?xml version="1.0" encoding="utf-8"?>
<!-- Generator: Adobe Illustrator 21.0.2, SVG Export Plug-In . SVG Version: 6.00 Build 0)  -->
<svg version="1.1" id="Capa_1" xmlns="http://www.w3.org/2000/svg" xmlns:xlink="http://www.w3.org/1999/xlink" x="0px" y="0px"
	 viewBox="0 0 2304 1554" style="enable-background:new 0 0 2304 1554;" xml:space="preserve">
<style type="text/css">
	.st0{fill:#DFDEE2;}
	.st1{enable-background:new    ;}
	.st2{fill:#F0A968;}
</style>
<image style="overflow:visible;" width="2304" height="1554" xlink:href="BACKGROUND_large.jpg"  transform="matrix(1 0 0 1 2696 0)">
</image>
<rect x="-143" y="-119" class="st0" width="2588" height="1824"/>
<g>
	<g class="st1">
		<path d="M1097,674.2h12.9V699c-3.3,2.5-7.2,4.4-11.5,5.8c-4.4,1.3-8.8,2-13.2,2c-6.3,0-12-1.4-17.1-4.1c-5.1-2.7-9-6.5-11.9-11.3
			c-2.9-4.8-4.3-10.2-4.3-16.3c0-6,1.4-11.5,4.3-16.3c2.9-4.8,6.9-8.5,12-11.3c5.1-2.7,10.9-4.1,17.3-4.1c5.4,0,10.2,0.9,14.6,2.7
			c4.4,1.8,8,4.4,11,7.9l-9.1,8.4c-4.4-4.6-9.6-6.9-15.8-6.9c-3.9,0-7.4,0.8-10.4,2.4c-3,1.6-5.4,3.9-7.1,6.9
			c-1.7,3-2.5,6.4-2.5,10.2c0,3.8,0.8,7.2,2.5,10.1c1.7,3,4,5.3,7,6.9c3,1.7,6.4,2.5,10.3,2.5c4.1,0,7.7-0.9,11-2.6V674.2z"/>
		<path d="M1152.3,684v21.6h-14.1v-21.8l-23.6-39.3h15l16.3,27.1l16.3-27.1h13.9L1152.3,684z"/>
		<path d="M1236.9,705.7l-0.1-36.6l-18,30.2h-6.4l-17.9-29.4v35.9h-13.3v-61.1h11.7l22.9,37.9l22.5-37.9h11.6l0.2,61.1H1236.9z"/>
	</g>
	<g>
		<g>
			<path class="st2" d="M1128.4,712.8c0.1-0.7,0.4-1.2,0.8-1.8s0.8-0.8,1.2-1c0.4,0,0.7,0.1,1,0.7c0.3,0.4,0.3,1.4-0.1,2.9
				c-1.5,5.5-2.9,10.4-4.1,14.2c-1.4,3.9-2.5,7.2-3.7,9.8c-1.1,2.6-2.2,4.6-3.2,6.1s-1.9,2.6-2.6,3.2c-0.8,0.7-1.5,1.1-2.2,1.2
				s-1.2,0.1-1.8,0c-1.5-0.1-2.8-1.2-3.7-3.3s-1.8-4.6-2.3-7.5s-1-6.1-1.1-9.4c-0.3-3.3-0.4-6.5-0.6-9.3c-0.1-2.9-0.3-5.3-0.4-7.2
				c-0.1-1.9-0.4-2.9-0.8-2.9c-0.6,0-1,0.7-1.2,1.9c-0.3,1.2-0.6,2.9-0.7,4.7c-0.3,1.9-0.4,4-0.7,6.2c-0.3,2.2-0.6,4.3-1,6.2
				s-0.8,3.5-1.5,4.8c-0.6,1.2-1.4,1.9-2.3,2.1c-2.1,0.1-3.7-0.4-5.1-1.5c-1.2-1.2-2.2-2.6-2.9-4.6c-0.7-1.8-1.1-3.9-1.4-6.1
				s-0.4-4.3-0.4-6.1c0-1.8-0.1-3.5-0.1-4.7c0-1.2-0.1-1.9-0.4-1.8c-0.4,0-0.7,0.7-0.8,1.9s-0.3,2.9-0.3,5c0,1.9-0.1,4.1-0.3,6.5
				c-0.1,2.3-0.3,4.6-0.6,6.5s-0.8,3.7-1.4,5.3c-0.7,1.5-1.5,2.3-2.8,2.6c-1.5,0.4-2.9,0.1-4-0.6s-1.9-1.8-2.6-3.2s-1.1-3-1.4-4.8
				c-0.3-1.9-0.4-3.9-0.6-5.8c0-2.1,0-4,0.1-5.9c0.1-1.9,0.3-3.7,0.6-5.4c0.1-0.7,0.4-1.2,1.1-1.7c0.7-0.4,1.4-0.6,2.1-0.6
				s1.4,0.3,2.1,0.7s1,1.2,1,2.2c0,0.4,0,1.4,0.1,2.6c0,1.2,0.1,2.6,0.1,4.3c0,1.5,0.1,3.2,0.1,4.8c0,1.7,0.1,3.2,0.3,4.6
				c0.1,1.4,0.3,2.5,0.4,3.5c0.1,0.8,0.4,1.4,0.7,1.2c0.4,0,0.7-0.8,0.8-2.2c0.1-1.5,0.3-3.3,0.4-5.4c0.1-2.2,0.3-4.6,0.4-7
				c0.1-2.5,0.6-4.8,1-6.9s1.1-3.9,1.8-5.3c0.8-1.4,1.8-2.1,3.2-2.1c1.7,0.1,3,0.7,4.1,1.9c1,1.2,1.8,2.8,2.3,4.6
				c0.6,1.8,1,3.7,1.2,5.9c0.3,2.1,0.4,4,0.6,5.8c0.1,1.8,0.3,3.3,0.4,4.4c0.1,1.2,0.4,1.8,0.8,1.8c0.1,0,0.4-0.7,0.6-1.9
				c0.1-1.2,0.3-2.9,0.6-4.7c0.3-1.9,0.6-4,0.8-6.2s0.8-4.3,1.4-6.2c0.6-1.9,1.2-3.6,2.1-4.8c0.8-1.4,1.8-2.1,3-2.2
				c2.1-0.1,3.6,0.7,4.8,2.6c1.2,1.9,2.1,4.4,2.6,7.5c0.6,3,1,6.4,1.2,9.8c0.1,3.6,0.3,6.8,0.3,9.8c0,3,0,5.5,0.1,7.6
				c0,1.9,0.3,2.9,0.6,2.9c0.7-0.1,1.5-1.1,2.5-2.8c1-1.7,2.1-3.9,3.2-6.5c1.1-2.8,2.2-5.9,3.5-9.5
				C1126.5,720.7,1127.6,716.8,1128.4,712.8z"/>
			<path class="st2" d="M1175.7,707.7c0.4,0.1,0.8,0.3,1.1,0.6s0.4,0.6,0.6,1v0.1c-0.4,1.4-1.1,3.5-2.1,6.1
				c-0.8,2.8-1.9,5.7-3.3,8.8c-1.2,3.2-2.8,6.2-4.3,9.3c-1.5,3-3.2,5.5-4.8,7.5c-0.7,0.8-1.7,1.4-2.8,1.8c-1.1,0.4-2.1,0.7-2.8,0.8
				c-1.4,0.1-2.6-0.3-3.6-1.1c-1-0.8-1.8-1.9-2.3-3.5c-0.6-1.4-1-3-1.2-4.8c-0.3-1.8-0.4-3.6-0.6-5.4c-0.1-1.2-0.1-2.5-0.1-3.6
				c0-1.1,0-2.2-0.1-3.2c-0.4,1.4-1.1,2.8-1.8,4.1s-1.7,2.6-2.6,3.7c-1,1.1-2.1,2.1-3.3,2.8s-2.5,1.1-3.9,1.2h-0.6
				c-2.1-0.1-4-1.7-5.8-4.4c-1.7-2.8-2.8-6.5-3-11.2c-0.1-2.3,0-4.6,0.4-6.6c0.4-2.1,1-3.9,1.8-5.5c0.8-1.5,1.8-2.9,2.9-3.9
				c1.1-1,2.3-1.5,3.7-1.5c1.4-0.1,2.6,0.3,3.9,1c1.2,0.7,2.3,1.7,3.3,2.9c1,1.1,1.9,2.5,2.6,3.7c0.8,1.4,1.4,2.5,1.8,3.6
				c0.3-1.5,0.6-3.2,0.8-4.8c0.3-1.7,0.6-3.5,0.7-5.3c0-0.6,0.4-1,1-1.2c0.6-0.3,1.2-0.4,1.9-0.4c1.2-0.1,2.6,0.1,3.9,0.4
				c1.2,0.4,1.9,0.8,1.9,1.5v0.1c-0.1,0.8-0.3,2.2-0.4,4.1c-0.1,1.9-0.3,4.1-0.3,6.8c-0.1,2.5-0.1,5.1-0.1,7.9s0,5.3,0.1,7.5
				c0.1,2.5,0.4,4.4,0.7,6.1c0.3,1.5,0.7,2.3,1.2,2.3c0.6,0,1.4-0.8,2.2-2.2c1-1.4,1.9-3.2,2.9-5.3c1-2.1,2.1-4.3,3-6.8
				c1-2.5,1.9-4.7,2.8-6.8c0.8-2.1,1.7-4.4,2.6-7.2c0-0.3,0.1-0.6,0.3-0.8c0.3-0.1,0.6-0.3,0.8-0.3H1175.7z M1145.3,723.2
				c1-1.9,1.8-4.3,2.5-6.9c-1.4-2.6-2.5-4.6-3.3-6.1c-0.8-1.5-1.5-2.5-1.9-3.2c-0.6-0.7-0.8-1-1.1-1.1c-0.3-0.1-0.6-0.1-0.8-0.1
				s-0.7,0.3-1.1,1c-0.4,0.6-0.8,1.5-1.1,2.5c-0.4,1.1-0.7,2.3-0.8,3.9c-0.1,1.5-0.3,3.2-0.1,5.1c0.3,4,0.7,6.8,1.5,8.4
				c0.8,1.7,1.5,2.5,1.9,2.3c0.7,0,1.4-0.6,2.1-1.7C1143.7,726.5,1144.5,725,1145.3,723.2z"/>
			<path class="st2" d="M1202.3,705.6c0.4,0,0.8,0.1,1.2,0.4s0.7,0.6,0.7,1v0.3c-1,5.9-2.2,11.6-3.7,16.9
				c-1.4,5.4-2.9,10.2-4.6,14.2c-1.7,4.1-3.3,7.5-5.1,10c-1.8,2.5-3.5,3.9-5.1,3.9c-1.9,0.1-3.6-0.6-5-1.9c-1.2-1.4-2.3-3.7-3.2-7
				c-0.8-3.3-1.5-7.6-2.1-13c-0.6-5.4-1-11.9-1.5-19.8c-0.4-6.4-0.6-11.7-0.7-16c0-4.3,0.1,1-0.1-1.8c-1.5,0.3-2.9,0.3-4.1,0.3
				s-2.3,0-3.5,0s-2.1,0-3,0s-1.9,0.1-2.9,0.3c-0.7,0.1-1.2,0.1-1.8-0.3c-0.4-0.4-0.7-0.8-0.8-1.2c-0.1-0.6,0-1,0.3-1.5
				c0.3-0.4,0.8-0.8,1.5-0.8c2.1-0.4,4.1-0.6,6.4-0.4c2.2,0,4.8-0.1,7.6-0.7c-0.1-1.4-0.3-2.5-0.4-3.5c-0.1-1-0.1-1.8-0.3-2.5
				c-0.1-0.7-0.1-1.5-0.1-2.2c0-0.8,0-1.8-0.1-2.9v-0.6c-0.1-1.2,0.1-2.1,0.7-2.6c0.6-0.6,1.2-0.8,2.1-0.8c1.2-0.1,2.5,0.3,3.7,0.8
				s1.9,1.5,2.2,2.6l0.1,0.3c0.1,1,0.3,1.8,0.3,2.6c0.1,0.8,0.1,1.7,0.3,2.5c0.1,0.8,0.1,1.7,0.1,2.6c0,0.8,0,1.9,0.1,3
				c0.8,0.3,1.9,0.4,3.3,0.4s2.8-0.1,4.4-0.3s3.3-0.3,5.3-0.6c1.8-0.3,3.7-0.4,5.7-0.6c0.6,0,1.1,0.1,1.4,0.6c0.3,0.4,0.6,1,0.6,1.5
				c0,0.6-0.1,1.1-0.4,1.5c-0.3,0.4-0.7,0.7-1.2,0.8c-3.3,0.1-6.5,0.4-9.5,0.8c-3,0.4-6.1,0.4-8.8,0.1c0.1,2.8-0.1-3.6,0-1.2
				c0.1,2.3,0.1,4.6,0.3,6.5c0.1,2.1,0.1,4,0.3,5.8c0.1,1.8,0.3,3.7,0.3,5.5c0.8,11.7,1.5,20.6,2.1,26.4s1.4,8.8,2.6,8.8
				c0.7,0,1.5-0.7,2.5-2.2s1.8-3.5,2.6-5.7c0.8-2.3,1.8-5,2.6-7.7c0.8-2.9,1.7-5.7,2.5-8.4c0.7-2.8,1.4-5.4,2.1-7.7
				c0.6-2.3,1-4.3,1.4-5.7C1201.2,706,1201.4,705.6,1202.3,705.6z"/>
			<path class="st2" d="M1209.4,738.1c-2.9,0.1-5.3-0.7-6.9-2.8c-1.7-1.9-2.9-4.6-3.6-7.6c-0.7-3-0.8-6.4-0.6-10.1s1-7,1.9-10.2
				c1.1-3.2,2.5-5.8,4.1-8c1.8-2.2,3.7-3.3,5.9-3.5c1.8-0.1,3.2,0.3,4.1,1.2c1,1,1.7,2.2,2.1,3.7s0.4,3.2,0,5
				c-0.3,1.8-1,3.5-1.8,5.1c-0.8,1.5-1.9,2.9-3.3,4.1c-1.4,1.1-2.9,1.8-4.7,1.9c0,1,0.1,2.3,0.1,4.1c0,1.8,0.1,3.7,0.3,5.7
				c0.3,1.9,0.6,3.6,1.2,5c0.6,1.4,1.4,2.1,2.6,1.9c1,0,2.1-0.7,3.3-1.9c1.4-1.2,2.6-2.8,4.1-4.7c1.4-1.9,2.8-4,4.3-6.4
				c1.4-2.3,2.8-4.6,3.9-6.6c1.1-2.2,2.2-4.1,3-5.9c0.8-1.8,1.4-3,1.5-4c0.3-0.8,0.7-1.2,1.5-1c0.8,0.1,1.2,0.7,1.2,1.5
				c0,0-0.3,1-0.8,2.6c-0.6,1.7-1.5,3.7-2.6,6.1c-1.1,2.5-2.5,5.1-4,7.9c-1.5,2.9-3.2,5.5-5,7.9c-1.8,2.5-3.9,4.4-5.9,6.2
				C1213.7,737,1211.7,738,1209.4,738.1z M1207,714.2c1.8-0.3,3.3-1.2,4.4-2.8c1.1-1.5,1.8-3,2.2-4.8c0.4-1.7,0.4-3.2,0.1-4.6
				c-0.3-1.4-1-1.9-1.8-1.9c-1,0-1.8,0.7-2.3,1.8c-0.6,1.1-1.1,2.3-1.5,3.9c-0.4,1.5-0.7,3-0.8,4.6
				C1207.1,711.8,1207,713.2,1207,714.2z"/>
		</g>
	</g>
</g>
</svg>
