<?xml version="1.0" encoding="utf-8"?>
<!-- Generator: Adobe Illustrator 21.0.2, SVG Export Plug-In . SVG Version: 6.00 Build 0)  -->
<svg version="1.1" id="Capa_1" xmlns="http://www.w3.org/2000/svg" xmlns:xlink="http://www.w3.org/1999/xlink" x="0px" y="0px"
	 viewBox="0 0 641 961" style="enable-background:new 0 0 641 961;" xml:space="preserve">
<style type="text/css">
	.st0{fill:#DEDEE2;}
	.st1{enable-background:new    ;}
	.st2{fill:#F0A968;}
</style>
<image style="overflow:visible;" width="641" height="961" xlink:href="BACKGROUND.png"  transform="matrix(1 0 0 1 -752.9623 0)">
</image>
<rect x="-50.4" y="-7.4" class="st0" width="735" height="988.5"/>
<g>
	<g class="st1">
		<path d="M269.6,381.3h12.9v24.8c-3.3,2.5-7.2,4.4-11.5,5.8c-4.4,1.3-8.8,2-13.2,2c-6.3,0-12-1.4-17.1-4.1
			c-5.1-2.7-9-6.5-11.9-11.3c-2.9-4.8-4.3-10.2-4.3-16.3c0-6,1.4-11.5,4.3-16.3c2.9-4.8,6.9-8.5,12-11.3c5.1-2.7,10.9-4.1,17.3-4.1
			c5.4,0,10.2,0.9,14.6,2.7c4.4,1.8,8,4.4,11,7.9l-9.1,8.4c-4.4-4.6-9.6-6.9-15.8-6.9c-3.9,0-7.4,0.8-10.4,2.4
			c-3,1.6-5.4,3.9-7.1,6.9c-1.7,3-2.5,6.4-2.5,10.2c0,3.8,0.8,7.2,2.5,10.1c1.7,3,4,5.3,7,6.9c3,1.7,6.4,2.5,10.3,2.5
			c4.1,0,7.7-0.9,11-2.6V381.3z"/>
		<path d="M324.9,391.2v21.6h-14.1V391l-23.6-39.3h15l16.3,27.1l16.3-27.1h13.9L324.9,391.2z"/>
		<path d="M409.5,412.8l-0.1-36.6l-18,30.2h-6.4L367.2,377v35.9h-13.3v-61.1h11.7l22.9,37.9l22.5-37.9h11.6l0.2,61.1H409.5z"/>
	</g>
	<g>
		<g>
			<path class="st2" d="M301.1,419.9c0.1-0.7,0.4-1.2,0.8-1.8c0.4-0.6,0.8-0.8,1.2-1c0.4,0,0.7,0.1,1,0.7c0.3,0.4,0.3,1.4-0.1,2.9
				c-1.5,5.5-2.9,10.4-4.1,14.2c-1.4,3.9-2.5,7.2-3.7,9.8c-1.1,2.6-2.2,4.6-3.2,6.1s-1.9,2.6-2.6,3.2c-0.8,0.7-1.5,1.1-2.2,1.2
				c-0.7,0.1-1.2,0.1-1.8,0c-1.5-0.1-2.8-1.2-3.7-3.3s-1.8-4.6-2.3-7.5c-0.6-2.9-1-6.1-1.1-9.4c-0.3-3.3-0.4-6.5-0.6-9.3
				c-0.1-2.9-0.3-5.3-0.4-7.2c-0.1-1.9-0.4-2.9-0.8-2.9c-0.6,0-1,0.7-1.2,1.9s-0.6,2.9-0.7,4.7c-0.3,1.9-0.4,4-0.7,6.2
				c-0.3,2.2-0.6,4.3-1,6.2s-0.8,3.5-1.5,4.8c-0.6,1.2-1.4,1.9-2.3,2.1c-2.1,0.1-3.7-0.4-5.1-1.5c-1.2-1.2-2.2-2.6-2.9-4.6
				c-0.7-1.8-1.1-3.9-1.4-6.1s-0.4-4.3-0.4-6.1s-0.1-3.5-0.1-4.7s-0.1-1.9-0.4-1.8c-0.4,0-0.7,0.7-0.8,1.9c-0.1,1.2-0.3,2.9-0.3,5
				c0,1.9-0.1,4.1-0.3,6.5c-0.1,2.3-0.3,4.6-0.6,6.5c-0.3,1.9-0.8,3.7-1.4,5.3c-0.7,1.5-1.5,2.3-2.8,2.6c-1.5,0.4-2.9,0.1-4-0.6
				c-1.1-0.7-1.9-1.8-2.6-3.2c-0.7-1.4-1.1-3-1.4-4.8c-0.3-1.9-0.4-3.9-0.6-5.8c0-2.1,0-4,0.1-5.9c0.1-1.9,0.3-3.7,0.6-5.4
				c0.1-0.7,0.4-1.2,1.1-1.7s1.4-0.6,2.1-0.6c0.7,0,1.4,0.3,2.1,0.7c0.7,0.4,1,1.2,1,2.2c0,0.4,0,1.4,0.1,2.6c0,1.2,0.1,2.6,0.1,4.3
				c0,1.5,0.1,3.2,0.1,4.8c0,1.7,0.1,3.2,0.3,4.6c0.1,1.4,0.3,2.5,0.4,3.5c0.1,0.8,0.4,1.4,0.7,1.2c0.4,0,0.7-0.8,0.8-2.2
				c0.1-1.5,0.3-3.3,0.4-5.4c0.1-2.2,0.3-4.6,0.4-7s0.6-4.8,1-6.9s1.1-3.9,1.8-5.3c0.8-1.4,1.8-2.1,3.2-2.1c1.7,0.1,3,0.7,4.1,1.9
				c1,1.2,1.8,2.8,2.3,4.6c0.6,1.8,1,3.7,1.2,5.9c0.3,2.1,0.4,4,0.6,5.8c0.1,1.8,0.3,3.3,0.4,4.4c0.1,1.2,0.4,1.8,0.8,1.8
				c0.1,0,0.4-0.7,0.6-1.9c0.1-1.2,0.3-2.9,0.6-4.7c0.3-1.9,0.6-4,0.8-6.2s0.8-4.3,1.4-6.2c0.6-1.9,1.2-3.6,2.1-4.8
				c0.8-1.4,1.8-2.1,3-2.2c2.1-0.1,3.6,0.7,4.8,2.6c1.2,1.9,2.1,4.4,2.6,7.5c0.6,3,1,6.4,1.2,9.8c0.1,3.6,0.3,6.8,0.3,9.8
				c0,3,0,5.5,0.1,7.6c0,1.9,0.3,2.9,0.6,2.9c0.7-0.1,1.5-1.1,2.5-2.8s2.1-3.9,3.2-6.5c1.1-2.8,2.2-5.9,3.5-9.5
				C299.1,427.8,300.2,424,301.1,419.9z"/>
			<path class="st2" d="M348.3,414.8c0.4,0.1,0.8,0.3,1.1,0.6c0.3,0.3,0.4,0.6,0.6,1v0.1c-0.4,1.4-1.1,3.5-2.1,6.1
				c-0.8,2.8-1.9,5.7-3.3,8.8c-1.2,3.2-2.8,6.2-4.3,9.3c-1.5,3-3.2,5.5-4.8,7.5c-0.7,0.8-1.7,1.4-2.8,1.8s-2.1,0.7-2.8,0.8
				c-1.4,0.1-2.6-0.3-3.6-1.1c-1-0.8-1.8-1.9-2.3-3.5c-0.6-1.4-1-3-1.2-4.8s-0.4-3.6-0.6-5.4c-0.1-1.2-0.1-2.5-0.1-3.6
				s0-2.2-0.1-3.2c-0.4,1.4-1.1,2.8-1.8,4.1c-0.7,1.4-1.7,2.6-2.6,3.7c-1,1.1-2.1,2.1-3.3,2.8c-1.2,0.7-2.5,1.1-3.9,1.2h-0.6
				c-2.1-0.1-4-1.7-5.8-4.4c-1.7-2.8-2.8-6.5-3-11.2c-0.1-2.3,0-4.6,0.4-6.6s1-3.9,1.8-5.5c0.8-1.5,1.8-2.9,2.9-3.9
				c1.1-1,2.3-1.5,3.7-1.5c1.4-0.1,2.6,0.3,3.9,1c1.2,0.7,2.3,1.7,3.3,2.9c1,1.1,1.9,2.5,2.6,3.7c0.8,1.4,1.4,2.5,1.8,3.6
				c0.3-1.5,0.6-3.2,0.8-4.8c0.3-1.7,0.6-3.5,0.7-5.3c0-0.6,0.4-1,1-1.2c0.6-0.3,1.2-0.4,1.9-0.4c1.2-0.1,2.6,0.1,3.9,0.4
				c1.2,0.4,1.9,0.8,1.9,1.5v0.1c-0.1,0.8-0.3,2.2-0.4,4.1c-0.1,1.9-0.3,4.1-0.3,6.8c-0.1,2.5-0.1,5.1-0.1,7.9c0,2.8,0,5.3,0.1,7.5
				c0.1,2.5,0.4,4.4,0.7,6.1c0.3,1.5,0.7,2.3,1.2,2.3c0.6,0,1.4-0.8,2.2-2.2c1-1.4,1.9-3.2,2.9-5.3s2.1-4.3,3-6.8
				c1-2.5,1.9-4.7,2.8-6.8c0.8-2.1,1.7-4.4,2.6-7.2c0-0.3,0.1-0.6,0.3-0.8c0.3-0.1,0.6-0.3,0.8-0.3H348.3z M317.9,430.3
				c1-1.9,1.8-4.3,2.5-6.9c-1.4-2.6-2.5-4.6-3.3-6.1c-0.8-1.5-1.5-2.5-1.9-3.2c-0.6-0.7-0.8-1-1.1-1.1c-0.3-0.1-0.6-0.1-0.8-0.1
				s-0.7,0.3-1.1,1c-0.4,0.6-0.8,1.5-1.1,2.5c-0.4,1.1-0.7,2.3-0.8,3.9c-0.1,1.5-0.3,3.2-0.1,5.1c0.3,4,0.7,6.8,1.5,8.4
				c0.8,1.7,1.5,2.5,1.9,2.3c0.7,0,1.4-0.6,2.1-1.7C316.3,433.6,317.1,432.1,317.9,430.3z"/>
			<path class="st2" d="M374.9,412.8c0.4,0,0.8,0.1,1.2,0.4c0.4,0.3,0.7,0.6,0.7,1v0.3c-1,5.9-2.2,11.6-3.7,16.9
				c-1.4,5.4-2.9,10.2-4.6,14.2c-1.7,4.1-3.3,7.5-5.1,10c-1.8,2.5-3.5,3.9-5.1,3.9c-1.9,0.1-3.6-0.6-5-1.9c-1.2-1.4-2.3-3.7-3.2-7
				c-0.8-3.3-1.5-7.6-2.1-13c-0.6-5.4-1-11.9-1.5-19.8c-0.4-6.4-0.6-11.7-0.7-16c0-4.3,0.1,1-0.1-1.8c-1.5,0.3-2.9,0.3-4.1,0.3
				c-1.2,0-2.3,0-3.5,0s-2.1,0-3,0c-1,0-1.9,0.1-2.9,0.3c-0.7,0.1-1.2,0.1-1.8-0.3c-0.4-0.4-0.7-0.8-0.8-1.2c-0.1-0.6,0-1,0.3-1.5
				c0.3-0.4,0.8-0.8,1.5-0.8c2.1-0.4,4.1-0.6,6.4-0.4c2.2,0,4.8-0.1,7.6-0.7c-0.1-1.4-0.3-2.5-0.4-3.5c-0.1-1-0.1-1.8-0.3-2.5
				c-0.1-0.7-0.1-1.5-0.1-2.2c0-0.8,0-1.8-0.1-2.9v-0.6c-0.1-1.2,0.1-2.1,0.7-2.6c0.6-0.6,1.2-0.8,2.1-0.8c1.2-0.1,2.5,0.3,3.7,0.8
				c1.2,0.6,1.9,1.5,2.2,2.6l0.1,0.3c0.1,1,0.3,1.8,0.3,2.6c0.1,0.8,0.1,1.7,0.3,2.5c0.1,0.8,0.1,1.7,0.1,2.6c0,0.8,0,1.9,0.1,3
				c0.8,0.3,1.9,0.4,3.3,0.4c1.4,0,2.8-0.1,4.4-0.3s3.3-0.3,5.3-0.6c1.8-0.3,3.7-0.4,5.7-0.6c0.6,0,1.1,0.1,1.4,0.6s0.6,1,0.6,1.5
				s-0.1,1.1-0.4,1.5c-0.3,0.4-0.7,0.7-1.2,0.8c-3.3,0.1-6.5,0.4-9.5,0.8c-3,0.4-6.1,0.4-8.8,0.1c0.1,2.8-0.1-3.6,0-1.2
				c0.1,2.3,0.1,4.6,0.3,6.5c0.1,2.1,0.1,4,0.3,5.8c0.1,1.8,0.3,3.7,0.3,5.5c0.8,11.7,1.5,20.6,2.1,26.4c0.6,5.8,1.4,8.8,2.6,8.8
				c0.7,0,1.5-0.7,2.5-2.2c1-1.5,1.8-3.5,2.6-5.7c0.8-2.3,1.8-5,2.6-7.7c0.8-2.9,1.7-5.7,2.5-8.4c0.7-2.8,1.4-5.4,2.1-7.7
				c0.6-2.3,1-4.3,1.4-5.7C373.8,413.2,374,412.8,374.9,412.8z"/>
			<path class="st2" d="M382.1,445.2c-2.9,0.1-5.3-0.7-6.9-2.8c-1.7-1.9-2.9-4.6-3.6-7.6c-0.7-3-0.8-6.4-0.6-10.1
				c0.3-3.7,1-7,1.9-10.2c1.1-3.2,2.5-5.8,4.1-8c1.8-2.2,3.7-3.3,5.9-3.5c1.8-0.1,3.2,0.3,4.1,1.2c1,1,1.7,2.2,2.1,3.7
				c0.4,1.5,0.4,3.2,0,5c-0.3,1.8-1,3.5-1.8,5.1c-0.8,1.5-1.9,2.9-3.3,4.1c-1.4,1.1-2.9,1.8-4.7,1.9c0,1,0.1,2.3,0.1,4.1
				s0.1,3.7,0.3,5.7c0.3,1.9,0.6,3.6,1.2,5c0.6,1.4,1.4,2.1,2.6,1.9c1,0,2.1-0.7,3.3-1.9c1.4-1.2,2.6-2.8,4.1-4.7
				c1.4-1.9,2.8-4,4.3-6.4c1.4-2.3,2.8-4.6,3.9-6.6c1.1-2.2,2.2-4.1,3-5.9c0.8-1.8,1.4-3,1.5-4c0.3-0.8,0.7-1.2,1.5-1
				c0.8,0.1,1.2,0.7,1.2,1.5c0,0-0.3,1-0.8,2.6c-0.6,1.7-1.5,3.7-2.6,6.1c-1.1,2.5-2.5,5.1-4,7.9c-1.5,2.9-3.2,5.5-5,7.9
				c-1.8,2.5-3.9,4.4-5.9,6.2C386.3,444.1,384.3,445.1,382.1,445.2z M379.6,421.3c1.8-0.3,3.3-1.2,4.4-2.8c1.1-1.5,1.8-3,2.2-4.8
				c0.4-1.7,0.4-3.2,0.1-4.6c-0.3-1.4-1-1.9-1.8-1.9c-1,0-1.8,0.7-2.3,1.8c-0.6,1.1-1.1,2.3-1.5,3.9c-0.4,1.5-0.7,3-0.8,4.6
				C379.7,419,379.6,420.4,379.6,421.3z"/>
		</g>
	</g>
</g>
</svg>
