<?xml version="1.0" encoding="utf-8"?>
<!-- Generator: Adobe Illustrator 21.0.2, SVG Export Plug-In . SVG Version: 6.00 Build 0)  -->
<svg version="1.1" id="Capa_1" xmlns="http://www.w3.org/2000/svg" xmlns:xlink="http://www.w3.org/1999/xlink" x="0px" y="0px"
	 viewBox="0 0 324 61" style="enable-background:new 0 0 324 61;" xml:space="preserve">
<style type="text/css">
	.st0{opacity:0.1;}
	.st1{fill:url(#SVGID_1_);}
	.st2{fill:#F9F9FF;}
	.st3{font-family:'NotoSans-Bold';}
	.st4{font-size:27.0295px;}
</style>
<path class="st0" d="M0.1,32.3c0,15.4,11.5,28,25.8,28h272.2c14.2,0,25.8-12.5,25.8-28l0,0c0-15.4-11.5-28-25.8-28H25.9
	C11.7,4.4,0.1,16.9,0.1,32.3L0.1,32.3z"/>
<linearGradient id="SVGID_1_" gradientUnits="userSpaceOnUse" x1="101.4992" y1="152.1631" x2="246.5853" y2="-144.7905">
	<stop  offset="0" style="stop-color:#F0A868"/>
	<stop  offset="0.7004" style="stop-color:#EFC167"/>
	<stop  offset="0.9604" style="stop-color:#EFC967"/>
	<stop  offset="1" style="stop-color:#EFCB67"/>
</linearGradient>
<path class="st1" d="M0.1,28.3c0,15.4,11.5,28,25.8,28h272.2c14.2,0,25.8-12.5,25.8-28l0,0c0-15.4-11.5-28-25.8-28H25.9
	C11.7,0.4,0.1,12.9,0.1,28.3L0.1,28.3z"/>
<text transform="matrix(1 0 0 1 129.6714 37.4111)" class="st2 st3 st4">Llest</text>
</svg>
