<?xml version="1.0" encoding="utf-8"?>
<!-- Generator: Adobe Illustrator 21.0.2, SVG Export Plug-In . SVG Version: 6.00 Build 0)  -->
<svg version="1.1" id="Capa_1" xmlns="http://www.w3.org/2000/svg" xmlns:xlink="http://www.w3.org/1999/xlink" x="0px" y="0px"
	 viewBox="0 0 100 100" style="enable-background:new 0 0 100 100;" xml:space="preserve">
<style type="text/css">
	.st0{fill:#C5C9F7;}
	.st1{fill:#A8AFF1;}
	.st2{fill:#1689FC;}
	.st3{fill:#17ACE8;}
	.st4{fill:#136EF1;}
</style>
<g>
	<g>
		<path class="st0" d="M84.2,26.7c-0.8,0-1.5-0.3-2.1-0.8l-8.1-8.1c-0.5-0.5-0.8-1.3-0.8-2c0-0.8,0.3-1.5,0.8-2.1l8.1-8.1
			c1.1-1.1,3-1.1,4,0l8.1,8.1c0.5,0.5,0.8,1.3,0.8,2c0,0.8-0.3,1.5-0.8,2l-8.1,8.1C85.7,26.4,85,26.7,84.2,26.7z"/>
		
			<rect x="25.5" y="42.1" transform="matrix(0.7071 -0.7072 0.7072 0.7071 -21.4319 49.6812)" class="st0" width="47.5" height="17.1"/>
		<path class="st0" d="M14.3,96.6c-0.7,0-1.5-0.3-2-0.8l-8.1-8.1c-0.5-0.5-0.8-1.3-0.8-2c0-0.8,0.3-1.5,0.8-2l8.1-8.1
			c1.1-1.1,2.9-1.1,4,0l8.1,8.1c1.1,1.1,1.1,2.9,0,4l-8.1,8.1C15.8,96.3,15.1,96.6,14.3,96.6z"/>
	</g>
	<g>
		<path class="st1" d="M12.3,95.8c0.6,0.6,1.3,0.8,2,0.8c0.7,0,1.5-0.3,2-0.8l8.1-8.1c1.1-1.1,1.1-2.9,0-4l-4.1-4.1L8.2,91.7
			L12.3,95.8z"/>
		<path class="st1" d="M82.2,25.8c0.5,0.5,1.3,0.8,2.1,0.8c0.8,0,1.5-0.3,2-0.8l8.1-8.1c0.5-0.5,0.8-1.3,0.8-2c0-0.8-0.3-1.5-0.8-2
			l-4.1-4.1L78.1,21.8L82.2,25.8z"/>
		
			<rect x="28.5" y="49.5" transform="matrix(0.7071 -0.7071 0.7071 0.7071 -22.6871 52.7077)" class="st1" width="47.5" height="8.6"/>
	</g>
	<path class="st2" d="M90.3,46L53.9,9.7L60,3.6c2.2-2.2,5.8-2.2,8.1,0l28.3,28.3c2.2,2.2,2.2,5.8,0,8.1L90.3,46z"/>
	<path class="st3" d="M82.2,58.2L41.8,17.8c-1.1-1.1-1.1-2.9,0-4l4-4c2.2-2.2,5.9-2.2,8.1,0L90.3,46c2.2,2.2,2.2,5.8,0,8.1l-4,4
		C85.1,59.3,83.3,59.3,82.2,58.2z"/>
	<path class="st2" d="M8.2,55.4l36.4,36.4l-6.1,6.1c-2.2,2.2-5.8,2.2-8.1,0L2.2,69.5c-2.2-2.2-2.2-5.8,0-8.1L8.2,55.4z"/>
	<path class="st3" d="M16.3,43.3l40.4,40.4c1.1,1.1,1.1,2.9,0,4l-4,4c-2.2,2.2-5.8,2.2-8.1,0L8.2,55.4c-2.2-2.2-2.2-5.8,0-8.1l4-4
		C13.4,42.1,15.2,42.1,16.3,43.3z"/>
	<g>
		<path class="st4" d="M30.4,97.8c2.2,2.2,5.8,2.2,8.1,0l6.1-6.1L26.4,73.5L16.3,83.6L30.4,97.8z"/>
		<path class="st4" d="M72.1,27.9L90.3,46l6.1-6.1c2.2-2.2,2.2-5.8,0-8.1L82.2,17.8L72.1,27.9z"/>
	</g>
	<g>
		<path class="st2" d="M44.6,91.7c2.2,2.2,5.8,2.2,8.1,0l4-4c1.1-1.1,1.1-2.9,0-4L36.5,63.4L26.4,73.5L44.6,91.7z"/>
		<path class="st2" d="M82.2,58.2c1.1,1.1,2.9,1.1,4,0l4-4c2.2-2.2,2.2-5.8,0-8.1L72.1,27.9L62,38L82.2,58.2z"/>
	</g>
</g>
</svg>
