<?xml version="1.0" encoding="utf-8"?>
<!-- Generator: Adobe Illustrator 21.0.2, SVG Export Plug-In . SVG Version: 6.00 Build 0)  -->
<svg version="1.1" id="Capa_1" xmlns="http://www.w3.org/2000/svg" xmlns:xlink="http://www.w3.org/1999/xlink" x="0px" y="0px"
	 viewBox="0 0 326 61" style="enable-background:new 0 0 326 61;" xml:space="preserve">
<style type="text/css">
	.st0{opacity:0.1;}
	.st1{fill:url(#SVGID_1_);stroke:#F9F9FF;stroke-miterlimit:10;}
	.st2{fill:#F9F9FF;}
</style>
<path class="st0" d="M1.1,33.3c0,15.4,11.5,28,25.8,28h272.2c14.2,0,25.8-12.5,25.8-28l0,0c0-15.4-11.5-28-25.8-28H26.9
	C12.7,5.4,1.1,17.9,1.1,33.3L1.1,33.3z"/>
<linearGradient id="SVGID_1_" gradientUnits="userSpaceOnUse" x1="102.4992" y1="153.1631" x2="247.5853" y2="-143.7905">
	<stop  offset="0" style="stop-color:#F0A868"/>
	<stop  offset="0.7004" style="stop-color:#EFC167"/>
	<stop  offset="0.9604" style="stop-color:#EFC967"/>
	<stop  offset="1" style="stop-color:#EFCB67"/>
</linearGradient>
<path class="st1" d="M1.1,29.3c0,15.4,11.5,28,25.8,28h272.2c14.2,0,25.8-12.5,25.8-28l0,0c0-15.4-11.5-28-25.8-28H26.9
	C12.7,1.4,1.1,13.9,1.1,29.3L1.1,29.3z"/>
<g>
	<path class="st2" d="M102.2,38.4l-4.6-15.1h-0.1c0.2,3.1,0.2,5.1,0.2,6.2v9H94V19.1h5.6l4.6,14.8h0.1l4.8-14.8h5.6v19.3h-3.8v-9.1
		c0-0.4,0-0.9,0-1.5c0-0.6,0.1-2.1,0.2-4.5h-0.1l-5,15.1H102.2z"/>
	<path class="st2" d="M124.7,19c-0.1,0.5-0.3,1-0.4,1.5c-0.2,0.5-0.4,1.1-0.6,1.6c-0.2,0.5-0.4,1.1-0.6,1.6
		c-0.2,0.5-0.4,1.1-0.7,1.5h-2.9c0.1-0.5,0.2-1.1,0.4-1.7c0.1-0.6,0.3-1.2,0.4-1.7c0.1-0.6,0.2-1.1,0.3-1.7c0.1-0.5,0.2-1.1,0.3-1.5
		h3.7L124.7,19z"/>
	<path class="st2" d="M137.6,38.4l-0.8-2h-0.1c-0.7,0.9-1.4,1.4-2.1,1.8c-0.7,0.3-1.7,0.5-2.8,0.5c-1.4,0-2.5-0.4-3.3-1.2
		c-0.8-0.8-1.2-2-1.2-3.5c0-1.6,0.5-2.7,1.6-3.5c1.1-0.7,2.7-1.2,5-1.2l2.6-0.1v-0.6c0-1.5-0.8-2.2-2.3-2.2c-1.2,0-2.6,0.4-4.2,1.1
		l-1.3-2.7c1.7-0.9,3.6-1.3,5.6-1.3c2,0,3.5,0.4,4.6,1.3s1.6,2.2,1.6,3.9v9.8H137.6z M136.4,31.6l-1.6,0.1c-1.2,0-2,0.2-2.6,0.6
		c-0.6,0.4-0.9,1-0.9,1.8c0,1.1,0.7,1.7,2,1.7c0.9,0,1.7-0.3,2.2-0.8c0.6-0.5,0.8-1.2,0.8-2.1V31.6z"/>
	<path class="st2" d="M152.7,38.7c-1.7,0-3.1-0.6-4.1-1.9h-0.2c0.1,1.2,0.2,1.9,0.2,2.1v6h-4V23.7h3.3l0.6,1.9h0.2
		c0.9-1.5,2.3-2.2,4.2-2.2c1.7,0,3.1,0.7,4.1,2c1,1.3,1.5,3.2,1.5,5.6c0,1.6-0.2,2.9-0.7,4.1c-0.5,1.2-1.1,2-2,2.7
		C154.8,38.4,153.8,38.7,152.7,38.7z M151.5,26.6c-1,0-1.7,0.3-2.2,0.9c-0.5,0.6-0.7,1.6-0.7,3V31c0,1.6,0.2,2.7,0.7,3.4
		s1.2,1,2.2,1c1.8,0,2.7-1.5,2.7-4.5c0-1.5-0.2-2.5-0.7-3.3C153.1,27,152.4,26.6,151.5,26.6z"/>
	<path class="st2" d="M172.1,38.4l-0.5-1.9h-0.2c-0.4,0.7-1,1.2-1.8,1.6s-1.7,0.6-2.7,0.6c-1.7,0-3-0.5-3.9-1.4
		c-0.9-0.9-1.3-2.3-1.3-4v-9.6h4v8.6c0,1.1,0.2,1.9,0.6,2.4c0.4,0.5,1,0.8,1.8,0.8c1.1,0,1.9-0.4,2.4-1.1c0.5-0.8,0.8-2,0.8-3.7
		v-6.9h4v14.8H172.1z"/>
	<path class="st2" d="M193,38.4h-4v-8.6c0-1.1-0.2-1.9-0.6-2.4c-0.4-0.5-1-0.8-1.8-0.8c-1.1,0-1.9,0.4-2.4,1.1
		c-0.5,0.8-0.8,2-0.8,3.7v6.9h-4V23.7h3.1l0.5,1.9h0.2c0.4-0.7,1.1-1.3,1.9-1.6s1.7-0.5,2.7-0.5c1.7,0,3,0.5,3.9,1.4
		c0.9,0.9,1.3,2.3,1.3,4V38.4z"/>
	<path class="st2" d="M203.4,35.5c0.7,0,1.5-0.2,2.5-0.5v3c-1,0.4-2.2,0.7-3.7,0.7c-1.6,0-2.8-0.4-3.5-1.2c-0.7-0.8-1.1-2-1.1-3.7
		v-7.1h-1.9V25l2.2-1.3l1.2-3.1h2.6v3.1h4.1v3h-4.1v7.1c0,0.6,0.2,1,0.5,1.3C202.4,35.3,202.9,35.5,203.4,35.5z"/>
	<path class="st2" d="M222.3,31c0,2.4-0.6,4.3-1.9,5.6c-1.3,1.4-3,2-5.3,2c-1.4,0-2.7-0.3-3.7-0.9c-1.1-0.6-1.9-1.5-2.5-2.7
		c-0.6-1.2-0.9-2.5-0.9-4.1c0-2.4,0.6-4.3,1.9-5.6c1.3-1.3,3-2,5.3-2c1.4,0,2.7,0.3,3.7,0.9s1.9,1.5,2.5,2.7
		C222,28.1,222.3,29.5,222.3,31z M212.1,31c0,1.5,0.2,2.6,0.7,3.3c0.5,0.7,1.3,1.1,2.3,1.1c1.1,0,1.8-0.4,2.3-1.1
		c0.5-0.7,0.7-1.8,0.7-3.3c0-1.5-0.2-2.6-0.7-3.3c-0.5-0.7-1.3-1.1-2.3-1.1c-1.1,0-1.8,0.4-2.3,1.1C212.4,28.4,212.1,29.5,212.1,31z
		"/>
	<path class="st2" d="M227.1,36.5c0-0.4,0.1-0.8,0.2-1s0.3-0.5,0.5-0.7c0.2-0.2,0.5-0.3,0.7-0.4c0.3-0.1,0.6-0.1,0.9-0.1
		c0.3,0,0.6,0,0.9,0.1c0.3,0.1,0.5,0.2,0.7,0.4c0.2,0.2,0.4,0.4,0.5,0.7c0.1,0.3,0.2,0.6,0.2,1c0,0.4-0.1,0.7-0.2,1
		c-0.1,0.3-0.3,0.5-0.5,0.7c-0.2,0.2-0.5,0.3-0.7,0.4c-0.3,0.1-0.6,0.1-0.9,0.1c-0.3,0-0.6,0-0.9-0.1c-0.3-0.1-0.5-0.2-0.7-0.4
		c-0.2-0.2-0.4-0.4-0.5-0.7S227.1,36.9,227.1,36.5z M231.1,32h-3.2l-0.7-12.9h4.6L231.1,32z"/>
</g>
</svg>
