<?xml version="1.0" encoding="utf-8"?>
<!-- Generator: Adobe Illustrator 21.0.2, SVG Export Plug-In . SVG Version: 6.00 Build 0)  -->
<svg version="1.1" id="Capa_1" xmlns="http://www.w3.org/2000/svg" xmlns:xlink="http://www.w3.org/1999/xlink" x="0px" y="0px"
	 viewBox="0 0 64 100" style="enable-background:new 0 0 64 100;" xml:space="preserve">
<style type="text/css">
	.st0{fill:#A8D3AE;}
	.st1{fill:#93BFA9;}
	.st2{fill:#E66650;}
	.st3{fill:#CC5143;}
	.st4{fill:#FFD400;}
	.st5{fill:#FDC700;}
</style>
<g>
	<path class="st0" d="M43.2,66.1l-0.3-0.1H32.1L21,66.1C9,68.6,1.2,74.8,1.2,81.9c0,9.4,13.6,16.8,30.9,16.8
		c17.3,0,30.9-7.4,30.9-16.8C63,74.8,55.2,68.5,43.2,66.1z"/>
	<path class="st1" d="M63,81.9c0,9.4-13.6,16.8-30.9,16.8V66.1h10.8l0.3,0.1C55.2,68.5,63,74.8,63,81.9z"/>
	<path class="st2" d="M32.1,2.9C15.1,2.9,1.2,17,1.2,34c0,5.9,1.7,11.7,4.8,16.6l26,39.1L56,53.5c4.5-5.5,7-12.4,7-19.5
		C63,17,49.1,2.9,32.1,2.9z"/>
	<path class="st3" d="M63,34c0,7.1-2.5,14-7,19.5L32.1,89.8V2.9C49.1,2.9,63,17,63,34z"/>
	<path class="st4" d="M52.2,28.9l-13.9-2l-6.2-12.5l-6.2,12.5l-13.9,2l10,9.8l-2.4,13.8l12.4-6.5l12.3,6.5l-2.4-13.8L52.2,28.9z"/>
	<path class="st5" d="M44.5,52.4l-12.3-6.5V14.3l6.2,12.5l13.9,2l-10,9.8L44.5,52.4z"/>
</g>
</svg>
