<?xml version="1.0" encoding="utf-8"?>
<!-- Generator: Adobe Illustrator 21.0.2, SVG Export Plug-In . SVG Version: 6.00 Build 0)  -->
<svg version="1.1" id="Capa_1" xmlns="http://www.w3.org/2000/svg" xmlns:xlink="http://www.w3.org/1999/xlink" x="0px" y="0px"
	 viewBox="0 0 324 61" style="enable-background:new 0 0 324 61;" xml:space="preserve">
<style type="text/css">
	.st0{opacity:0.1;enable-background:new    ;}
	.st1{fill:url(#SVGID_1_);}
	.st2{enable-background:new    ;}
	.st3{fill:#F9F9FF;}
</style>
<path class="st0" d="M0.1,32.3c0,15.4,11.5,28,25.8,28h272.2c14.2,0,25.8-12.5,25.8-28l0,0c0-15.4-11.5-28-25.8-28H25.9
	C11.7,4.4,0.1,16.9,0.1,32.3L0.1,32.3z"/>
<linearGradient id="SVGID_1_" gradientUnits="userSpaceOnUse" x1="101.4985" y1="-90.1627" x2="246.5846" y2="206.7909" gradientTransform="matrix(1 0 0 -1 0 62)">
	<stop  offset="0" style="stop-color:#F0A868"/>
	<stop  offset="0.7004" style="stop-color:#EFC167"/>
	<stop  offset="0.9604" style="stop-color:#EFC967"/>
	<stop  offset="1" style="stop-color:#EFCB67"/>
</linearGradient>
<path class="st1" d="M0.1,28.3c0,15.4,11.5,28,25.8,28h272.2c14.2,0,25.8-12.5,25.8-28l0,0c0-15.4-11.5-28-25.8-28H25.9
	C11.7,0.4,0.1,12.9,0.1,28.3L0.1,28.3z"/>
<g class="st2">
	<path class="st3" d="M132.1,37.4V18.1h4.1V34h7.8v3.4H132.1z"/>
	<path class="st3" d="M151.1,37.4h-4V16.9h4V37.4z"/>
	<path class="st3" d="M162,37.7c-2.4,0-4.2-0.7-5.6-2c-1.3-1.3-2-3.2-2-5.6c0-2.5,0.6-4.4,1.9-5.7s2.9-2,5.1-2
		c2.1,0,3.7,0.6,4.9,1.8c1.2,1.2,1.7,2.8,1.7,4.9v2h-9.5c0,1.1,0.4,2,1,2.7c0.6,0.6,1.5,1,2.7,1c0.9,0,1.7-0.1,2.5-0.3
		c0.8-0.2,1.6-0.5,2.5-0.9v3.1c-0.7,0.4-1.5,0.6-2.3,0.8C164.1,37.6,163.1,37.7,162,37.7z M161.4,25.2c-0.9,0-1.5,0.3-2,0.8
		c-0.5,0.5-0.8,1.3-0.8,2.3h5.6c0-1-0.3-1.8-0.8-2.3C162.9,25.5,162.3,25.2,161.4,25.2z"/>
	<path class="st3" d="M181.6,33c0,1.5-0.5,2.7-1.6,3.5c-1.1,0.8-2.6,1.2-4.7,1.2c-1.1,0-2-0.1-2.7-0.2c-0.8-0.1-1.5-0.4-2.1-0.6
		v-3.3c0.7,0.4,1.6,0.6,2.5,0.9c0.9,0.2,1.8,0.4,2.5,0.4c1.5,0,2.2-0.4,2.2-1.3c0-0.3-0.1-0.6-0.3-0.8c-0.2-0.2-0.5-0.4-1-0.7
		c-0.5-0.3-1.1-0.5-1.9-0.9c-1.1-0.5-2-0.9-2.5-1.3c-0.5-0.4-0.9-0.9-1.2-1.4c-0.2-0.5-0.4-1.2-0.4-1.9c0-1.3,0.5-2.3,1.5-3
		c1-0.7,2.5-1.1,4.3-1.1c1.8,0,3.5,0.4,5.2,1.2l-1.2,2.9c-0.7-0.3-1.4-0.6-2.1-0.8s-1.3-0.3-2-0.3c-1.2,0-1.8,0.3-1.8,1
		c0,0.4,0.2,0.7,0.6,0.9s1.2,0.7,2.5,1.2c1.2,0.5,2,0.9,2.5,1.3c0.5,0.4,0.9,0.9,1.2,1.4C181.4,31.7,181.6,32.3,181.6,33z"/>
	<path class="st3" d="M190.9,34.5c0.7,0,1.5-0.2,2.5-0.5v3c-1,0.4-2.2,0.7-3.7,0.7c-1.6,0-2.8-0.4-3.5-1.2c-0.7-0.8-1.1-2-1.1-3.7
		v-7.1h-1.9V24l2.2-1.3l1.2-3.1h2.6v3.1h4.1v3h-4.1v7.1c0,0.6,0.2,1,0.5,1.3C190,34.3,190.4,34.5,190.9,34.5z"/>
</g>
</svg>
