<?xml version="1.0" encoding="utf-8"?>
<!-- Generator: Adobe Illustrator 21.0.2, SVG Export Plug-In . SVG Version: 6.00 Build 0)  -->
<svg version="1.1" id="Capa_1" xmlns="http://www.w3.org/2000/svg" xmlns:xlink="http://www.w3.org/1999/xlink" x="0px" y="0px"
	 viewBox="0 0 106 121" style="enable-background:new 0 0 106 121;" xml:space="preserve">
<style type="text/css">
	.st0{fill:#FEDFC5;}
	.st1{fill:#FECBAA;}
	.st2{fill:#7F7CE8;}
	.st3{fill:#FD82AC;}
	.st4{fill:#FD6096;}
	.st5{fill:#6666D3;}
</style>
<g>
	<path class="st0" d="M31.9,119.1h-9.5c-1.4,0-2.6-1.2-2.6-2.6l-0.2-16.1l-0.4-35.1c0-0.8,0.1-1.5,0.2-2.3c0.4-2.1,1.5-4,3-5.4
		c1.9-1.8,4.4-2.9,7.2-2.9h3.2l-1.5,11.8v0l-4.3,33.8l-1.4,11.1c-0.1,1.1,0.5,2.2,1.5,2.6l5.5,2.3C33.9,117.1,33.4,119.1,31.9,119.1
		z"/>
	<path class="st0" d="M104,51.4l-1.4,2.6c-1.3,1.6-3.3,2.6-5.4,2.8l-27,1.7L57,59.2l-1.8,2c-3.5,4.6-7.2,5.3-13,5.3H31.4l0.9-6.8
		l0.5-3.9l0.1-1.1h0.5c5.5,0,9.9-4.4,9.9-9.9l-4.8-5.9L22.4,19l-2-2.5l5-2l1.2,1.3l17.9,18.6h0l11.7,12.2c2.1,2.3,5,3.7,8.2,3.7
		l5.7,0.1L104,51.4z"/>
	<path class="st1" d="M26.6,15.8l0,1c0,1-0.8,1.8-1.8,1.8h-1.2c-0.5,0-0.9,0.1-1.3,0.4l-2-2.5l5-2L26.6,15.8z"/>
	<g>
		<path class="st0" d="M32.9,54.7l-7.1,10.4c-1.6-0.3-4.2-1-6.3-2.1c-1.1-0.6-2-1.3-2.6-2L3.6,42.2c-2.2-2.8-2.3-6.7-0.2-9.5
			l10.1-14.1L24,3.8c0.3-0.4,1-0.2,1,0.3l0.4,10.5c0,1-0.8,1.8-1.8,1.8h-1.2c-0.9,0-1.6,0.5-2,1.3L18,22.1l-6.2,11.6
			c-0.6,1.2-0.2,2.7,0.8,3.6c3.4,3,8.8,7.5,8.8,7.5C32.3,54.2,32.8,54.7,32.9,54.7L32.9,54.7z"/>
		<path class="st0" d="M34.1,57l-1.9,2.8l0.5-3.9C34,56.8,34.1,56.9,34.1,57L34.1,57z"/>
		<path class="st0" d="M55.3,37.5l4-4c2.5-2.5,6.6-2.5,9.1,0c2.5,2.5,2.5,6.6,0,9.1l-4,4c-2.5,2.5-6.6,2.5-9.1,0
			C52.8,44.1,52.8,40,55.3,37.5z"/>
	</g>
	<path class="st1" d="M68.5,33.5c-1.9-1.9-4.6-2.4-6.9-1.5c0.8,0.3,1.6,0.8,2.2,1.5c2.5,2.5,2.5,6.6,0,9.1l-4,4
		c-0.7,0.7-1.4,1.1-2.2,1.5c2.3,0.9,5,0.4,6.9-1.5l4-4C71,40.1,71,36,68.5,33.5z"/>
	<path class="st2" d="M32.9,54.7l0.9,6.6l-2.4,5.2v0l-4.3,33.8h-7.5l-0.4-35.1c0-0.8,0.1-1.5,0.2-2.3c-0.6-0.3-1.1-0.7-1.6-1
		c-0.4-0.3-0.7-0.6-1-1L3.6,42.2c-2.2-2.8-2.3-6.7-0.2-9.5l10.1-14.1l3.9,3.1l0.7,0.4l-6.2,11.6c-0.6,1.2-0.2,2.7,0.8,3.6
		c3.4,3,8.8,7.5,8.8,7.5C32.3,54.2,32.8,54.7,32.9,54.7L32.9,54.7z"/>
	<path class="st3" d="M70.2,58.4L70.2,58.4L57,59.2l-1.8,2c-3.5,4.6-7.2,5.3-13,5.3H31.4l1.5-11.8h0.5c5.5,0,9.9-4.4,9.9-9.9
		l-4.8-5.9l0-0.1l5.9-4.3h0l11.7,12.2c2.1,2.3,5,3.7,8.2,3.7l5.7,0.2L70.2,58.4z"/>
	<path class="st4" d="M57,59.2l-1.8,2c-3.5,4.6-7.2,5.3-13,5.3h-5.9c2.9,0,5.3-0.2,7.3-0.9c2.1-0.7,3.9-2.1,5.6-4.4
		c1.1-1.3,2.8-2.1,4.5-2.2L57,59.2z"/>
	<path class="st5" d="M30,54.7c-2.8,0-5.4,1.1-7.2,2.9c-1.5,1.4-2.9,3.3-3.3,5.4c-0.6-0.3-1.1-0.7-1.6-1c0.5-1.7,1.5-3.2,2.7-4.4
		c1.9-1.8,4.4-2.9,7.2-2.9H30z"/>
</g>
</svg>
