<?xml version="1.0" encoding="utf-8"?>
<!-- Generator: Adobe Illustrator 16.0.3, SVG Export Plug-In . SVG Version: 6.00 Build 0)  -->
<!DOCTYPE svg PUBLIC "-//W3C//DTD SVG 1.1//EN" "http://www.w3.org/Graphics/SVG/1.1/DTD/svg11.dtd">
<svg version="1.1" id="Capa_1" xmlns="http://www.w3.org/2000/svg" xmlns:xlink="http://www.w3.org/1999/xlink" x="0px" y="0px"
	 width="65px" height="65px" viewBox="0 0 65 65" enable-background="new 0 0 65 65" xml:space="preserve">
<ellipse display="none" fill="#A8FF17" cx="34.125" cy="33.875" rx="50.625" ry="48.25"/>
<g>
	<path fill="#FFFFFF" d="M38.567,52.325c0-0.405,0.026-0.805,0.061-1.201c-0.587,0.067-1.181,0.111-1.786,0.111
		c-2.188,0-4.27-0.451-6.16-1.265c3.534-0.463,6.77-1.883,9.442-3.988c1.065-2.047,2.625-3.797,4.529-5.078
		c1.82-2.951,2.875-6.423,2.875-10.138c0-2.847-0.623-5.55-1.73-7.989c4.041,2.829,6.683,7.514,6.683,12.818
		c0,1.02-0.102,2.014-0.288,2.979c0.044-0.001,0.088-0.007,0.133-0.007c3.64,0,6.939,1.424,9.4,3.731
		c1.026-3.113,1.589-6.438,1.589-9.894c0-17.45-14.145-31.595-31.595-31.595c-17.448,0-31.595,14.145-31.595,31.595
		S14.271,64,31.72,64c3.829,0,7.499-0.682,10.896-1.93C40.115,59.579,38.567,56.133,38.567,52.325z M18.973,45.301l-7.829,2.098
		l2.144-7.998c-1.478-2.539-2.328-5.486-2.328-8.636c0-9.494,7.695-17.191,17.192-17.191c9.493,0,17.19,7.698,17.19,17.191
		c0,9.496-7.697,17.193-17.19,17.193C24.774,47.958,21.629,46.981,18.973,45.301z"/>
</g>
<path fill="#FFFFFF" d="M52.325,40.443c-6.563,0-11.882,5.319-11.882,11.882c0,6.562,5.319,11.882,11.882,11.882
	c6.562,0,11.882-5.32,11.882-11.882C64.207,45.763,58.887,40.443,52.325,40.443z M58.249,53.3h-4.962v4.949h-1.924V53.3h-4.962
	v-1.924h4.962v-4.975h1.924v4.975h4.962V53.3z"/>
</svg>
