<?xml version="1.0" encoding="utf-8"?>
<!-- Generator: Adobe Illustrator 21.0.2, SVG Export Plug-In . SVG Version: 6.00 Build 0)  -->
<svg version="1.1" id="Capa_1" xmlns="http://www.w3.org/2000/svg" xmlns:xlink="http://www.w3.org/1999/xlink" x="0px" y="0px"
	 viewBox="0 0 407 226" style="enable-background:new 0 0 407 226;" xml:space="preserve">
<style type="text/css">
	.st0{fill:#333333;}
	.st1{fill:url(#SVGID_1_);}
	.st2{fill:url(#SVGID_4_);}
	.st3{fill:#F9F9FF;}
</style>
<g>
	<g>
		<path class="st0" d="M57.2,188.4l-1.1-3.5h-5.4l-1.1,3.5h-3.4l5.2-14.8h3.8l5.2,14.8H57.2z M55.4,182.3c-1-3.2-1.5-5-1.7-5.4
			s-0.2-0.7-0.3-1c-0.2,0.9-0.9,3-1.9,6.4H55.4z"/>
		<path class="st0" d="M65.7,188.6c-1.3,0-2.4-0.5-3.1-1.5c-0.8-1-1.1-2.5-1.1-4.3c0-1.9,0.4-3.3,1.2-4.3s1.8-1.5,3.2-1.5
			c1.4,0,2.5,0.6,3.3,1.7h0.1c-0.2-0.8-0.2-1.6-0.2-2.3v-3.6H72v15.7h-2.4l-0.6-1.5h-0.1C68.2,188.1,67.2,188.6,65.7,188.6z
			 M66.8,186.2c0.8,0,1.4-0.2,1.7-0.7s0.6-1.2,0.6-2.3v-0.3c0-1.2-0.2-2.1-0.6-2.6c-0.4-0.5-1-0.8-1.8-0.8c-0.7,0-1.2,0.3-1.6,0.9
			s-0.6,1.4-0.6,2.5s0.2,1.9,0.6,2.5C65.6,185.9,66.1,186.2,66.8,186.2z"/>
		<path class="st0" d="M81.6,176.9c0.4,0,0.8,0,1,0.1l-0.2,2.9c-0.2-0.1-0.6-0.1-0.9-0.1c-1,0-1.7,0.3-2.3,0.8
			c-0.5,0.5-0.8,1.2-0.8,2.1v5.7h-3.1v-11.3h2.3L78,179h0.2c0.3-0.6,0.8-1.1,1.4-1.5C80.2,177.1,80.9,176.9,81.6,176.9z"/>
		<path class="st0" d="M84.5,174.2c0-1,0.6-1.5,1.7-1.5s1.7,0.5,1.7,1.5c0,0.5-0.1,0.8-0.4,1.1c-0.3,0.3-0.7,0.4-1.3,0.4
			C85.1,175.7,84.5,175.2,84.5,174.2z M87.7,188.4h-3.1v-11.3h3.1V188.4z"/>
		<path class="st0" d="M98.1,188.4l-0.6-1.5h-0.1c-0.5,0.7-1.1,1.1-1.6,1.4c-0.5,0.3-1.3,0.4-2.1,0.4c-1.1,0-1.9-0.3-2.6-0.9
			s-0.9-1.5-0.9-2.6c0-1.2,0.4-2.1,1.3-2.6s2.1-0.9,3.8-0.9l2-0.1v-0.5c0-1.1-0.6-1.7-1.8-1.7c-0.9,0-2,0.3-3.2,0.8l-1-2.1
			c1.3-0.7,2.7-1,4.3-1c1.5,0,2.7,0.3,3.5,1c0.8,0.7,1.2,1.7,1.2,3v7.5H98.1z M97.2,183.2l-1.2,0c-0.9,0-1.6,0.2-2,0.5
			c-0.4,0.3-0.7,0.7-0.7,1.4c0,0.9,0.5,1.3,1.5,1.3c0.7,0,1.3-0.2,1.7-0.6c0.4-0.4,0.6-1,0.6-1.6V183.2z M93.8,175.9v-0.3
			c1.2-1.3,1.9-2.4,2.4-3h3.5v0.2c-0.4,0.3-0.9,0.9-1.8,1.6c-0.8,0.7-1.5,1.2-2,1.5H93.8z"/>
		<path class="st0" d="M113.9,188.4h-3.1v-6.6c0-0.8-0.1-1.4-0.4-1.8c-0.3-0.4-0.8-0.6-1.4-0.6c-0.9,0-1.5,0.3-1.9,0.9
			c-0.4,0.6-0.6,1.5-0.6,2.9v5.3h-3.1v-11.3h2.4l0.4,1.4h0.2c0.3-0.5,0.8-1,1.4-1.2c0.6-0.3,1.3-0.4,2.1-0.4c1.3,0,2.3,0.4,3,1.1
			s1,1.7,1,3.1V188.4z"/>
	</g>
</g>
<g>
	<g>
		<path class="st0" d="M54.7,217.6h-1.5v-10.8h-3.8v-1.3h9.1v1.3h-3.8V217.6z"/>
		<path class="st0" d="M63.4,217.8c-1.4,0-2.4-0.4-3.2-1.2c-0.8-0.8-1.2-2-1.2-3.4c0-1.5,0.4-2.6,1.1-3.5s1.7-1.3,2.9-1.3
			c1.1,0,2.1,0.4,2.7,1.1c0.7,0.7,1,1.7,1,3v0.9h-6.3c0,1,0.3,1.8,0.8,2.4c0.5,0.5,1.2,0.8,2.1,0.8c0.5,0,1,0,1.4-0.1
			c0.4-0.1,1-0.3,1.5-0.5v1.3c-0.5,0.2-1,0.4-1.4,0.5S64,217.8,63.4,217.8z M63,209.5c-0.7,0-1.3,0.2-1.7,0.7s-0.7,1.1-0.7,1.9h4.6
			c0-0.9-0.2-1.5-0.6-1.9S63.7,209.5,63,209.5z"/>
		<path class="st0" d="M74.7,217.6l-0.3-1.3h-0.1c-0.5,0.6-0.9,1-1.4,1.2c-0.5,0.2-1,0.3-1.7,0.3c-0.9,0-1.6-0.2-2.1-0.7
			c-0.5-0.5-0.8-1.1-0.8-2c0-1.9,1.5-2.8,4.4-2.9l1.5-0.1v-0.5c0-0.7-0.1-1.2-0.4-1.5c-0.3-0.3-0.8-0.5-1.4-0.5
			c-0.5,0-0.9,0.1-1.4,0.2c-0.4,0.1-0.8,0.3-1.2,0.5l-0.5-1.1c0.5-0.2,1-0.4,1.5-0.6s1.1-0.2,1.6-0.2c1.1,0,1.9,0.2,2.5,0.7
			s0.8,1.3,0.8,2.3v6.2H74.7z M71.7,216.6c0.8,0,1.5-0.2,2-0.7c0.5-0.5,0.7-1.1,0.7-1.9v-0.8l-1.3,0.1c-1,0-1.8,0.2-2.3,0.5
			c-0.5,0.3-0.7,0.8-0.7,1.4c0,0.5,0.1,0.8,0.4,1.1S71.1,216.6,71.7,216.6z"/>
		<path class="st0" d="M82.3,217.8c-1.3,0-2.3-0.4-3.1-1.2c-0.7-0.8-1.1-2-1.1-3.5c0-1.5,0.4-2.7,1.1-3.5c0.7-0.8,1.8-1.2,3.2-1.2
			c0.4,0,0.9,0,1.3,0.1c0.4,0.1,0.8,0.2,1.1,0.4l-0.5,1.2c-0.8-0.3-1.4-0.4-2-0.4c-0.9,0-1.6,0.3-2,0.9c-0.4,0.6-0.7,1.4-0.7,2.6
			c0,1.1,0.2,1.9,0.7,2.5c0.4,0.6,1.1,0.9,1.9,0.9c0.8,0,1.6-0.2,2.4-0.5v1.3C84,217.6,83.3,217.8,82.3,217.8z"/>
		<path class="st0" d="M93,217.6v-5.8c0-0.7-0.2-1.3-0.5-1.7c-0.3-0.4-0.8-0.5-1.6-0.5c-0.9,0-1.6,0.3-2,0.8
			c-0.4,0.5-0.6,1.4-0.6,2.6v4.7h-1.5v-12.9h1.5v3.8c0,0.5,0,0.9-0.1,1.3h0.1c0.3-0.4,0.7-0.8,1.2-1c0.5-0.2,1.1-0.4,1.7-0.4
			c1.1,0,1.9,0.3,2.5,0.8c0.6,0.5,0.8,1.4,0.8,2.5v5.9H93z"/>
		<path class="st0" d="M101.2,217.8c-1.4,0-2.4-0.4-3.2-1.2c-0.8-0.8-1.2-2-1.2-3.4c0-1.5,0.4-2.6,1.1-3.5s1.7-1.3,2.9-1.3
			c1.1,0,2.1,0.4,2.7,1.1c0.7,0.7,1,1.7,1,3v0.9h-6.3c0,1,0.3,1.8,0.8,2.4c0.5,0.5,1.2,0.8,2.1,0.8c0.5,0,1,0,1.4-0.1
			c0.4-0.1,1-0.3,1.5-0.5v1.3c-0.5,0.2-1,0.4-1.4,0.5S101.8,217.8,101.2,217.8z M100.9,209.5c-0.7,0-1.3,0.2-1.7,0.7
			s-0.7,1.1-0.7,1.9h4.6c0-0.9-0.2-1.5-0.6-1.9S101.6,209.5,100.9,209.5z"/>
		<path class="st0" d="M111.2,208.3c0.4,0,0.8,0,1.1,0.1l-0.2,1.4c-0.3-0.1-0.7-0.1-1-0.1c-0.5,0-0.9,0.1-1.3,0.4
			c-0.4,0.3-0.7,0.6-1,1.1c-0.2,0.5-0.3,1-0.3,1.6v4.9H107v-9.1h1.2l0.2,1.7h0.1c0.3-0.6,0.8-1.1,1.2-1.4
			C110.1,208.5,110.7,208.3,111.2,208.3z"/>
	</g>
</g>
<linearGradient id="SVGID_1_" gradientUnits="userSpaceOnUse" x1="20.248" y1="141.0128" x2="225.4536" y2="-68.9184">
	<stop  offset="0" style="stop-color:#F0A868"/>
	<stop  offset="1" style="stop-color:#EFCB67"/>
</linearGradient>
<circle class="st1" cx="80.9" cy="79" r="77.9"/>
<g>
	<defs>
		<circle id="SVGID_2_" cx="80.9" cy="78.9" r="70.9"/>
	</defs>
	<clipPath id="SVGID_3_">
		<use xlink:href="#SVGID_2_"  style="overflow:visible;"/>
	</clipPath>
	<g transform="matrix(1 0 0 1 0 4.768372e-07)" style="clip-path:url(#SVGID_3_);">
		<image style="overflow:visible;" width="570" height="390" xlink:href="teacher.jpg"  transform="matrix(0.4769 0 0 0.4769 9 8)">
		</image>
	</g>
</g>
<linearGradient id="SVGID_4_" gradientUnits="userSpaceOnUse" x1="275.8484" y1="163.1825" x2="433.7035" y2="-95.8524">
	<stop  offset="0" style="stop-color:#F0A868"/>
	<stop  offset="0.7004" style="stop-color:#EFC167"/>
	<stop  offset="1" style="stop-color:#EFCB67"/>
</linearGradient>
<circle class="st2" cx="327.1" cy="79" r="77.9"/>
<g>
	<path class="st3" d="M313.8,98.5h-12.7V63.8c0-0.7,0-1.6,0-2.6c0-1,0-2,0.1-3.1c0-1.1,0.1-2.2,0.1-3.3c0-1.1,0.1-2.1,0.1-3
		c-0.1,0.2-0.4,0.4-0.7,0.7c-0.3,0.3-0.7,0.7-1.1,1.1c-0.4,0.4-0.8,0.8-1.3,1.2c-0.4,0.4-0.9,0.8-1.3,1.1l-6.9,5.5l-6.2-7.6
		l19.3-15.4h10.4V98.5z"/>
	<path class="st3" d="M370.2,98.5H330v-8.8l14.1-15.2c1.8-1.9,3.4-3.7,4.8-5.3c1.4-1.6,2.7-3.2,3.7-4.7c1-1.5,1.8-3.1,2.4-4.7
		c0.6-1.6,0.9-3.3,0.9-5.1c0-2-0.6-3.6-1.8-4.7c-1.2-1.1-2.8-1.7-4.9-1.7c-2.2,0-4.2,0.5-6.2,1.6c-2,1.1-4.1,2.6-6.3,4.6l-6.9-8.2
		c1.2-1.1,2.5-2.2,3.9-3.2c1.3-1,2.8-1.9,4.4-2.7c1.6-0.8,3.4-1.4,5.3-1.9c1.9-0.5,4.1-0.7,6.5-0.7c2.9,0,5.4,0.4,7.7,1.2
		c2.3,0.8,4.2,1.9,5.8,3.4c1.6,1.5,2.8,3.2,3.7,5.3c0.9,2.1,1.3,4.4,1.3,7c0,2.4-0.4,4.6-1.2,6.7c-0.8,2.1-1.9,4.3-3.4,6.3
		c-1.4,2.1-3.1,4.1-4.9,6.2c-1.9,2-3.9,4.1-6,6.2l-7.2,7.3v0.6h24.4V98.5z"/>
</g>
<g>
	<g>
		<path class="st3" d="M280.8,121.6l-0.5-1.8h-2.7l-0.5,1.8h-1.7l2.6-7.4h1.9l2.6,7.4H280.8z M279.9,118.6c-0.5-1.6-0.8-2.5-0.8-2.7
			c-0.1-0.2-0.1-0.4-0.1-0.5c-0.1,0.4-0.4,1.5-1,3.2H279.9z"/>
		<path class="st3" d="M284.8,121.6h-1.5v-7.9h1.5V121.6z"/>
		<path class="st3" d="M290.4,121.6l-0.2-0.7h-0.1c-0.2,0.3-0.4,0.5-0.7,0.6c-0.3,0.1-0.6,0.2-1,0.2c-0.7,0-1.2-0.2-1.5-0.5
			c-0.3-0.4-0.5-0.9-0.5-1.5V116h1.5v3.3c0,0.4,0.1,0.7,0.2,0.9c0.1,0.2,0.4,0.3,0.7,0.3c0.4,0,0.7-0.1,0.9-0.4s0.3-0.8,0.3-1.4V116
			h1.5v5.7H290.4z"/>
		<path class="st3" d="M298.3,121.6h-1.5v-3.3c0-0.4-0.1-0.7-0.2-0.9c-0.1-0.2-0.4-0.3-0.6-0.3c-0.4,0-0.7,0.1-0.9,0.4
			s-0.3,0.8-0.3,1.4v2.7h-1.5V116h1.2l0.2,0.7h0.1c0.2-0.3,0.4-0.5,0.7-0.6c0.3-0.1,0.6-0.2,1-0.2c0.8,0,1.4,0.3,1.7,0.8h0.1
			c0.2-0.3,0.4-0.5,0.7-0.6c0.3-0.1,0.6-0.2,1-0.2c0.6,0,1.1,0.2,1.5,0.5c0.3,0.3,0.5,0.9,0.5,1.6v3.7h-1.5v-3.3
			c0-0.4-0.1-0.7-0.2-0.9c-0.1-0.2-0.4-0.3-0.6-0.3c-0.4,0-0.7,0.1-0.8,0.4c-0.2,0.3-0.3,0.7-0.3,1.3V121.6z"/>
		<path class="st3" d="M308.6,121.6h-1.5v-3.3c0-0.4-0.1-0.7-0.2-0.9c-0.1-0.2-0.4-0.3-0.7-0.3c-0.4,0-0.7,0.1-0.9,0.4
			s-0.3,0.8-0.3,1.4v2.7h-1.5V116h1.2l0.2,0.7h0.1c0.2-0.3,0.4-0.5,0.7-0.6s0.6-0.2,1-0.2c0.7,0,1.2,0.2,1.5,0.5
			c0.3,0.4,0.5,0.9,0.5,1.5V121.6z"/>
		<path class="st3" d="M315.4,118.8c0,0.9-0.2,1.6-0.7,2.2c-0.5,0.5-1.2,0.8-2,0.8c-0.5,0-1-0.1-1.4-0.4c-0.4-0.2-0.7-0.6-1-1
			c-0.2-0.4-0.3-1-0.3-1.6c0-0.9,0.2-1.6,0.7-2.2c0.5-0.5,1.2-0.8,2-0.8c0.5,0,1,0.1,1.4,0.4c0.4,0.2,0.7,0.6,1,1
			S315.4,118.2,315.4,118.8z M311.5,118.8c0,0.6,0.1,1,0.3,1.3c0.2,0.3,0.5,0.4,0.9,0.4c0.4,0,0.7-0.1,0.9-0.4s0.3-0.7,0.3-1.3
			c0-0.6-0.1-1-0.3-1.3c-0.2-0.3-0.5-0.4-0.9-0.4c-0.4,0-0.7,0.1-0.9,0.4C311.5,117.8,311.5,118.2,311.5,118.8z"/>
		<path class="st3" d="M320.6,120c0,0.6-0.2,1-0.6,1.3c-0.4,0.3-1,0.5-1.8,0.5c-0.4,0-0.8,0-1.1-0.1s-0.6-0.1-0.8-0.2v-1.3
			c0.3,0.1,0.6,0.2,1,0.3c0.4,0.1,0.7,0.1,0.9,0.1c0.6,0,0.8-0.2,0.8-0.5c0-0.1,0-0.2-0.1-0.3c-0.1-0.1-0.2-0.2-0.4-0.3
			c-0.2-0.1-0.4-0.2-0.7-0.3c-0.4-0.2-0.8-0.4-1-0.5c-0.2-0.2-0.4-0.3-0.4-0.5c-0.1-0.2-0.1-0.4-0.1-0.7c0-0.5,0.2-0.9,0.6-1.2
			c0.4-0.3,0.9-0.4,1.7-0.4c0.7,0,1.3,0.1,2,0.4l-0.5,1.1c-0.3-0.1-0.5-0.2-0.8-0.3s-0.5-0.1-0.8-0.1c-0.5,0-0.7,0.1-0.7,0.4
			c0,0.1,0.1,0.3,0.2,0.4c0.1,0.1,0.5,0.3,1,0.5c0.4,0.2,0.8,0.3,1,0.5c0.2,0.2,0.4,0.3,0.5,0.5C320.5,119.4,320.6,119.7,320.6,120z
			"/>
		<path class="st3" d="M328.1,121.6l-0.3-0.8h0c-0.3,0.3-0.5,0.6-0.8,0.7c-0.3,0.1-0.6,0.2-1.1,0.2c-0.5,0-1-0.2-1.3-0.5
			c-0.3-0.3-0.5-0.8-0.5-1.3c0-0.6,0.2-1,0.6-1.3s1.1-0.4,1.9-0.5l1,0v-0.2c0-0.6-0.3-0.9-0.9-0.9c-0.5,0-1,0.1-1.6,0.4l-0.5-1
			c0.7-0.3,1.4-0.5,2.2-0.5c0.8,0,1.3,0.2,1.7,0.5c0.4,0.3,0.6,0.8,0.6,1.5v3.8H328.1z M327.6,119l-0.6,0c-0.4,0-0.8,0.1-1,0.2
			c-0.2,0.1-0.3,0.4-0.3,0.7c0,0.4,0.2,0.7,0.7,0.7c0.4,0,0.6-0.1,0.9-0.3c0.2-0.2,0.3-0.5,0.3-0.8V119z"/>
		<path class="st3" d="M333.8,121.7c-0.7,0-1.2-0.2-1.6-0.7h-0.1c0.1,0.5,0.1,0.7,0.1,0.8v2.3h-1.5V116h1.3l0.2,0.7h0.1
			c0.4-0.6,0.9-0.8,1.6-0.8c0.7,0,1.2,0.3,1.6,0.8c0.4,0.5,0.6,1.2,0.6,2.1c0,0.6-0.1,1.1-0.3,1.6c-0.2,0.4-0.4,0.8-0.8,1
			S334.3,121.7,333.8,121.7z M333.4,117.1c-0.4,0-0.7,0.1-0.8,0.4c-0.2,0.2-0.3,0.6-0.3,1.2v0.2c0,0.6,0.1,1,0.3,1.3
			c0.2,0.3,0.5,0.4,0.9,0.4c0.7,0,1-0.6,1-1.7c0-0.6-0.1-1-0.3-1.3S333.8,117.1,333.4,117.1z"/>
		<path class="st3" d="M341.3,121.6l-0.2-0.7H341c-0.2,0.3-0.4,0.5-0.7,0.6c-0.3,0.1-0.6,0.2-1,0.2c-0.7,0-1.2-0.2-1.5-0.5
			c-0.3-0.4-0.5-0.9-0.5-1.5V116h1.5v3.3c0,0.4,0.1,0.7,0.2,0.9c0.1,0.2,0.4,0.3,0.7,0.3c0.4,0,0.7-0.1,0.9-0.4s0.3-0.8,0.3-1.4V116
			h1.5v5.7H341.3z"/>
		<path class="st3" d="M349.3,121.6h-1.5v-3.3c0-0.4-0.1-0.7-0.2-0.9c-0.1-0.2-0.4-0.3-0.7-0.3c-0.4,0-0.7,0.1-0.9,0.4
			s-0.3,0.8-0.3,1.4v2.7h-1.5V116h1.2l0.2,0.7h0.1c0.2-0.3,0.4-0.5,0.7-0.6s0.6-0.2,1-0.2c0.7,0,1.2,0.2,1.5,0.5
			c0.3,0.4,0.5,0.9,0.5,1.5V121.6z"/>
		<path class="st3" d="M353.3,120.5c0.3,0,0.6-0.1,1-0.2v1.1c-0.4,0.2-0.9,0.3-1.4,0.3c-0.6,0-1.1-0.2-1.3-0.5
			c-0.3-0.3-0.4-0.8-0.4-1.4v-2.7h-0.7v-0.7l0.9-0.5l0.4-1.2h1v1.2h1.6v1.2h-1.6v2.7c0,0.2,0.1,0.4,0.2,0.5S353.1,120.5,353.3,120.5
			z"/>
		<path class="st3" d="M359,121.6l-0.3-0.8h0c-0.3,0.3-0.5,0.6-0.8,0.7c-0.3,0.1-0.6,0.2-1.1,0.2c-0.5,0-1-0.2-1.3-0.5
			c-0.3-0.3-0.5-0.8-0.5-1.3c0-0.6,0.2-1,0.6-1.3s1.1-0.4,1.9-0.5l1,0v-0.2c0-0.6-0.3-0.9-0.9-0.9c-0.5,0-1,0.1-1.6,0.4l-0.5-1
			c0.7-0.3,1.4-0.5,2.2-0.5c0.8,0,1.3,0.2,1.7,0.5c0.4,0.3,0.6,0.8,0.6,1.5v3.8H359z M358.5,119l-0.6,0c-0.4,0-0.8,0.1-1,0.2
			c-0.2,0.1-0.3,0.4-0.3,0.7c0,0.4,0.2,0.7,0.7,0.7c0.4,0,0.6-0.1,0.9-0.3c0.2-0.2,0.3-0.5,0.3-0.8V119z"/>
		<path class="st3" d="M363.5,121.7c-0.7,0-1.2-0.3-1.6-0.8c-0.4-0.5-0.6-1.2-0.6-2.1c0-0.9,0.2-1.7,0.6-2.2
			c0.4-0.5,0.9-0.8,1.6-0.8c0.7,0,1.3,0.3,1.6,0.8h0.1c-0.1-0.4-0.1-0.8-0.1-1.1v-1.8h1.5v7.9h-1.2l-0.3-0.7h-0.1
			C364.7,121.5,364.2,121.7,363.5,121.7z M364,120.5c0.4,0,0.7-0.1,0.9-0.3s0.3-0.6,0.3-1.2v-0.2c0-0.6-0.1-1-0.3-1.3
			c-0.2-0.3-0.5-0.4-0.9-0.4c-0.3,0-0.6,0.1-0.8,0.4s-0.3,0.7-0.3,1.3c0,0.6,0.1,1,0.3,1.3C363.4,120.4,363.6,120.5,364,120.5z"/>
		<path class="st3" d="M373.4,118.8c0,0.9-0.2,1.6-0.7,2.2c-0.5,0.5-1.2,0.8-2,0.8c-0.5,0-1-0.1-1.4-0.4c-0.4-0.2-0.7-0.6-1-1
			c-0.2-0.4-0.3-1-0.3-1.6c0-0.9,0.2-1.6,0.7-2.2c0.5-0.5,1.2-0.8,2-0.8c0.5,0,1,0.1,1.4,0.4c0.4,0.2,0.7,0.6,1,1
			S373.4,118.2,373.4,118.8z M369.4,118.8c0,0.6,0.1,1,0.3,1.3c0.2,0.3,0.5,0.4,0.9,0.4c0.4,0,0.7-0.1,0.9-0.4s0.3-0.7,0.3-1.3
			c0-0.6-0.1-1-0.3-1.3c-0.2-0.3-0.5-0.4-0.9-0.4c-0.4,0-0.7,0.1-0.9,0.4C369.5,117.8,369.4,118.2,369.4,118.8z"/>
		<path class="st3" d="M378.6,120c0,0.6-0.2,1-0.6,1.3c-0.4,0.3-1,0.5-1.8,0.5c-0.4,0-0.8,0-1.1-0.1s-0.6-0.1-0.8-0.2v-1.3
			c0.3,0.1,0.6,0.2,1,0.3c0.4,0.1,0.7,0.1,0.9,0.1c0.6,0,0.8-0.2,0.8-0.5c0-0.1,0-0.2-0.1-0.3c-0.1-0.1-0.2-0.2-0.4-0.3
			c-0.2-0.1-0.4-0.2-0.7-0.3c-0.4-0.2-0.8-0.4-1-0.5c-0.2-0.2-0.4-0.3-0.4-0.5c-0.1-0.2-0.1-0.4-0.1-0.7c0-0.5,0.2-0.9,0.6-1.2
			c0.4-0.3,0.9-0.4,1.7-0.4c0.7,0,1.3,0.1,2,0.4l-0.5,1.1c-0.3-0.1-0.5-0.2-0.8-0.3s-0.5-0.1-0.8-0.1c-0.5,0-0.7,0.1-0.7,0.4
			c0,0.1,0.1,0.3,0.2,0.4c0.1,0.1,0.5,0.3,1,0.5c0.4,0.2,0.8,0.3,1,0.5c0.2,0.2,0.4,0.3,0.5,0.5C378.5,119.4,378.6,119.7,378.6,120z
			"/>
	</g>
</g>
</svg>
