<?xml version="1.0" encoding="utf-8"?>
<!-- Generator: Adobe Illustrator 21.0.2, SVG Export Plug-In . SVG Version: 6.00 Build 0)  -->
<svg version="1.1" id="Capa_1" xmlns="http://www.w3.org/2000/svg" xmlns:xlink="http://www.w3.org/1999/xlink" x="0px" y="0px"
	 viewBox="0 0 407 228" style="enable-background:new 0 0 407 228;" xml:space="preserve">
<style type="text/css">
	.st0{fill:url(#SVGID_1_);}
	.st1{fill:url(#SVGID_4_);}
	.st2{display:none;}
	.st3{display:inline;fill:#F9F9FF;}
	.st4{fill:#333333;}
	.st5{fill:url(#SVGID_5_);}
	.st6{fill:url(#SVGID_8_);}
	.st7{fill:url(#SVGID_11_);}
	.st8{fill:#F9F9FF;}
</style>
<linearGradient id="SVGID_1_" gradientUnits="userSpaceOnUse" x1="19.248" y1="143.0128" x2="224.4536" y2="-66.9184">
	<stop  offset="0" style="stop-color:#F0A868"/>
	<stop  offset="1" style="stop-color:#EFCB67"/>
</linearGradient>
<circle class="st0" cx="79.9" cy="81" r="77.9"/>
<g>
	<defs>
		<circle id="SVGID_2_" cx="79.9" cy="80.9" r="70.9"/>
	</defs>
	<clipPath id="SVGID_3_">
		<use xlink:href="#SVGID_2_"  style="overflow:visible;"/>
	</clipPath>
	<g style="clip-path:url(#SVGID_3_);">
		
			<image style="overflow:visible;" width="845" height="423" xlink:href="teacher03.jpg"  transform="matrix(0.357 0 0 0.357 -67.9645 8)">
		</image>
	</g>
</g>
<linearGradient id="SVGID_4_" gradientUnits="userSpaceOnUse" x1="274.8484" y1="165.1825" x2="432.7035" y2="-93.8524">
	<stop  offset="0" style="stop-color:#F0A868"/>
	<stop  offset="0.7004" style="stop-color:#EFC167"/>
	<stop  offset="1" style="stop-color:#EFCB67"/>
</linearGradient>
<circle class="st1" cx="326.1" cy="81" r="77.9"/>
<g class="st2">
	<path class="st3" d="M312.8,100.5h-12.7V65.8c0-0.7,0-1.6,0-2.6c0-1,0-2,0.1-3.1c0-1.1,0.1-2.2,0.1-3.3c0-1.1,0.1-2.1,0.1-3
		c-0.1,0.2-0.4,0.4-0.7,0.7c-0.3,0.3-0.7,0.7-1.1,1.1c-0.4,0.4-0.8,0.8-1.3,1.2c-0.4,0.4-0.9,0.8-1.3,1.1l-6.9,5.5l-6.2-7.6
		l19.3-15.4h10.4V100.5z"/>
	<path class="st3" d="M369.2,100.5H329v-8.8l14.1-15.2c1.8-1.9,3.4-3.7,4.8-5.3c1.4-1.6,2.7-3.2,3.7-4.7c1-1.5,1.8-3.1,2.4-4.7
		c0.6-1.6,0.9-3.3,0.9-5.1c0-2-0.6-3.6-1.8-4.7c-1.2-1.1-2.8-1.7-4.9-1.7c-2.2,0-4.2,0.5-6.2,1.6c-2,1.1-4.1,2.6-6.3,4.6l-6.9-8.2
		c1.2-1.1,2.5-2.2,3.9-3.2c1.3-1,2.8-1.9,4.4-2.7c1.6-0.8,3.4-1.4,5.3-1.9c1.9-0.5,4.1-0.7,6.5-0.7c2.9,0,5.4,0.4,7.7,1.2
		c2.3,0.8,4.2,1.9,5.8,3.4c1.6,1.5,2.8,3.2,3.7,5.3c0.9,2.1,1.3,4.4,1.3,7c0,2.4-0.4,4.6-1.2,6.7c-0.8,2.1-1.9,4.3-3.4,6.3
		c-1.4,2.1-3.1,4.1-4.9,6.2c-1.9,2-3.9,4.1-6,6.2l-7.2,7.3v0.6h24.4V100.5z"/>
</g>
<g>
	<g>
		<path class="st4" d="M-268.8,83.4l-0.9-3h-4.6l-0.9,3h-2.9l4.4-12.6h3.3l4.4,12.6H-268.8z M-270.3,78.2c-0.8-2.7-1.3-4.2-1.4-4.6
			s-0.2-0.6-0.2-0.8c-0.2,0.7-0.7,2.5-1.6,5.4H-270.3z"/>
		<path class="st4" d="M-261.5,83.6c-1.1,0-2-0.4-2.7-1.3c-0.6-0.9-1-2.1-1-3.6c0-1.6,0.3-2.8,1-3.7c0.7-0.9,1.6-1.3,2.7-1.3
			c1.2,0,2.1,0.5,2.8,1.4h0.1c-0.1-0.7-0.2-1.4-0.2-1.9v-3.1h2.6v13.3h-2l-0.5-1.2h-0.1C-259.4,83.1-260.3,83.6-261.5,83.6z
			 M-260.6,81.5c0.7,0,1.2-0.2,1.5-0.6c0.3-0.4,0.5-1,0.5-2v-0.3c0-1-0.2-1.8-0.5-2.2c-0.3-0.4-0.8-0.7-1.5-0.7
			c-0.6,0-1,0.2-1.4,0.7c-0.3,0.5-0.5,1.2-0.5,2.2c0,0.9,0.2,1.7,0.5,2.1C-261.7,81.3-261.2,81.5-260.6,81.5z"/>
		<path class="st4" d="M-247.3,83.4l-0.5-1.3h-0.1c-0.4,0.6-0.9,0.9-1.4,1.2c-0.5,0.2-1.1,0.3-1.8,0.3c-0.9,0-1.6-0.3-2.2-0.8
			c-0.5-0.5-0.8-1.3-0.8-2.2c0-1,0.4-1.8,1.1-2.3c0.7-0.5,1.8-0.8,3.2-0.8l1.7-0.1V77c0-1-0.5-1.5-1.5-1.5c-0.8,0-1.7,0.2-2.7,0.7
			l-0.9-1.8c1.1-0.6,2.3-0.9,3.7-0.9c1.3,0,2.3,0.3,3,0.8c0.7,0.6,1,1.4,1,2.6v6.4H-247.3z M-248.1,79l-1,0c-0.8,0-1.3,0.2-1.7,0.4
			c-0.4,0.3-0.6,0.6-0.6,1.1c0,0.7,0.4,1.1,1.3,1.1c0.6,0,1.1-0.2,1.5-0.5c0.4-0.3,0.5-0.8,0.5-1.4V79z"/>
		<path class="st4" d="M-234.2,83.4h-2.6v-5.6c0-0.7-0.1-1.2-0.3-1.6c-0.2-0.3-0.6-0.5-1.1-0.5c-0.7,0-1.2,0.2-1.5,0.7
			c-0.3,0.5-0.5,1.3-0.5,2.4v4.5h-2.6v-9.6h2l0.4,1.2h0.1c0.3-0.4,0.6-0.8,1.1-1c0.5-0.2,1-0.4,1.7-0.4c1.4,0,2.4,0.5,2.9,1.4h0.2
			c0.3-0.4,0.6-0.8,1.1-1c0.5-0.2,1.1-0.4,1.7-0.4c1.1,0,1.9,0.3,2.5,0.8c0.6,0.6,0.8,1.5,0.8,2.7v6.3h-2.6v-5.6
			c0-0.7-0.1-1.2-0.3-1.6c-0.2-0.3-0.6-0.5-1.1-0.5c-0.6,0-1.1,0.2-1.4,0.7c-0.3,0.5-0.5,1.2-0.5,2.2V83.4z"/>
	</g>
</g>
<g>
	<g>
		<path class="st4" d="M-272.3,107.9h-5.2l2.2-10.2h5.2l-0.2,1.1h-3.9l-0.7,3.2h3.6l-0.2,1.1h-3.7l-0.8,3.6h3.9L-272.3,107.9z"/>
		<path class="st4" d="M-269,107.9h-1.3l2.3-10.8h1.3L-269,107.9z"/>
		<path class="st4" d="M-259.8,108.1c-0.9,0-1.6-0.2-2.1-0.7c-0.5-0.5-0.7-1.2-0.7-2.1c0-0.9,0.2-1.8,0.5-2.6
			c0.3-0.8,0.8-1.4,1.4-1.8s1.3-0.7,2.1-0.7c0.7,0,1.3,0.1,1.9,0.4l-0.4,1c-0.5-0.2-1-0.4-1.5-0.4c-0.5,0-1,0.2-1.4,0.5
			c-0.4,0.4-0.7,0.8-1,1.5c-0.2,0.6-0.3,1.3-0.3,2c0,0.6,0.1,1,0.4,1.3c0.3,0.3,0.7,0.5,1.2,0.5c0.3,0,0.7,0,1-0.1
			c0.3-0.1,0.6-0.2,0.9-0.3v1.1C-258.4,107.9-259.1,108.1-259.8,108.1z"/>
		<path class="st4" d="M-249.5,103.1c0,0.9-0.2,1.7-0.5,2.5s-0.8,1.4-1.4,1.8s-1.2,0.6-2,0.6c-0.9,0-1.6-0.3-2.1-0.8
			c-0.5-0.5-0.8-1.2-0.8-2.1c0-0.9,0.2-1.7,0.5-2.5c0.3-0.8,0.8-1.4,1.4-1.8s1.2-0.6,1.9-0.6c0.9,0,1.6,0.3,2.1,0.8
			C-249.7,101.5-249.5,102.2-249.5,103.1z M-250.8,103c0-0.5-0.1-1-0.4-1.3c-0.3-0.3-0.7-0.5-1.1-0.5c-0.5,0-0.9,0.2-1.3,0.5
			c-0.4,0.3-0.7,0.8-0.9,1.4c-0.2,0.6-0.3,1.3-0.3,2c0,0.6,0.1,1.1,0.4,1.4c0.3,0.3,0.7,0.5,1.2,0.5c0.5,0,0.9-0.2,1.3-0.5
			c0.4-0.3,0.7-0.8,0.9-1.4C-250.9,104.5-250.8,103.8-250.8,103z"/>
		<path class="st4" d="M-243.4,100.2c0.5,0,0.9,0.1,1.2,0.4c0.3,0.3,0.5,0.7,0.5,1.3h0.1c0.8-1.1,1.7-1.7,2.6-1.7
			c0.6,0,1.1,0.2,1.4,0.5c0.3,0.3,0.5,0.8,0.5,1.4c0,0.4-0.1,0.8-0.2,1.3l-1,4.7h-1.3l1-4.8c0.1-0.4,0.1-0.8,0.1-1
			c0-0.3-0.1-0.5-0.2-0.7c-0.2-0.2-0.4-0.3-0.7-0.3c-0.4,0-0.7,0.1-1.1,0.4s-0.7,0.6-0.9,1.1c-0.3,0.5-0.5,1.1-0.6,1.7l-0.7,3.5
			h-1.3l1-4.8c0.1-0.4,0.1-0.8,0.1-0.9c0-0.7-0.3-1-0.9-1c-0.4,0-0.8,0.1-1.1,0.4c-0.4,0.3-0.7,0.7-1,1.2s-0.5,1.1-0.6,1.8l-0.7,3.3
			h-1.3l1.6-7.7h1l-0.2,1.4h0.1c0.3-0.4,0.6-0.7,0.8-0.9s0.5-0.3,0.8-0.5C-244,100.2-243.7,100.2-243.4,100.2z"/>
		<path class="st4" d="M-230.8,100.2c0.7,0,1.2,0.2,1.5,0.7c0.4,0.5,0.5,1.1,0.5,1.9c0,1-0.2,1.9-0.5,2.7c-0.3,0.8-0.8,1.5-1.3,1.9
			c-0.6,0.5-1.2,0.7-1.9,0.7c-0.9,0-1.5-0.4-2-1.3h-0.1c-0.1,0.6-0.1,1.1-0.2,1.3l-0.7,3.3h-1.2l2.3-11.1h1l-0.2,1.4h0.1
			c0.4-0.5,0.9-0.9,1.3-1.2C-231.7,100.3-231.3,100.2-230.8,100.2z M-231.2,101.2c-0.4,0-0.9,0.2-1.3,0.6c-0.4,0.4-0.8,1-1.1,1.6
			s-0.4,1.3-0.4,2c0,0.5,0.1,0.9,0.4,1.1s0.6,0.4,1.1,0.4c0.5,0,0.9-0.2,1.3-0.6c0.4-0.4,0.7-0.9,0.9-1.6c0.2-0.7,0.3-1.4,0.3-2.1
			C-230,101.7-230.4,101.2-231.2,101.2z"/>
		<path class="st4" d="M-225.3,108.1c-0.6,0-1.1-0.2-1.5-0.7c-0.4-0.5-0.6-1.1-0.6-1.9c0-1,0.2-1.8,0.5-2.7s0.8-1.5,1.4-1.9
			c0.6-0.5,1.2-0.7,1.9-0.7c0.4,0,0.8,0.1,1.1,0.3c0.3,0.2,0.6,0.6,0.8,1h0.1l0.5-1.2h1l-1.6,7.7h-1l0.2-1.4h-0.1
			C-223.5,107.6-224.4,108.1-225.3,108.1z M-224.9,107c0.4,0,0.9-0.2,1.3-0.6c0.4-0.4,0.8-1,1.1-1.6s0.4-1.4,0.4-2.1
			c0-0.5-0.1-0.8-0.4-1.1c-0.3-0.3-0.6-0.4-1-0.4c-0.5,0-0.9,0.2-1.3,0.6s-0.7,0.9-0.9,1.6c-0.2,0.7-0.3,1.4-0.3,2.1
			c0,0.5,0.1,0.9,0.3,1.2S-225.3,107-224.9,107z"/>
		<path class="st4" d="M-213.6,107.9h-1.3l1-4.8c0.1-0.5,0.1-0.8,0.1-1c0-0.3-0.1-0.5-0.2-0.7c-0.2-0.2-0.4-0.3-0.8-0.3
			c-0.4,0-0.8,0.1-1.2,0.4c-0.4,0.3-0.7,0.7-1,1.2c-0.3,0.5-0.5,1.1-0.7,1.8l-0.7,3.3h-1.3l1.6-7.7h1l-0.2,1.4h0.1
			c0.3-0.4,0.6-0.7,0.8-0.9s0.5-0.4,0.8-0.5c0.3-0.1,0.6-0.2,0.9-0.2c0.6,0,1.1,0.2,1.4,0.5c0.3,0.3,0.5,0.8,0.5,1.4
			c0,0.4-0.1,0.8-0.2,1.3L-213.6,107.9z"/>
		<path class="st4" d="M-211,100.3h1.3l0.5,3.8c0.1,0.3,0.1,0.8,0.1,1.4s0.1,1.1,0.1,1.5h0c0.1-0.3,0.3-0.7,0.5-1.2
			c0.2-0.5,0.4-0.9,0.6-1.2l2.2-4.2h1.3l-4.9,8.9c-0.4,0.8-0.8,1.3-1.3,1.7c-0.4,0.3-1,0.5-1.6,0.5c-0.4,0-0.7,0-1-0.1v-1
			c0.3,0.1,0.6,0.1,0.9,0.1c0.4,0,0.7-0.1,1-0.4c0.3-0.2,0.5-0.6,0.8-1l0.5-0.9L-211,100.3z"/>
		<path class="st4" d="M-201.6,108.1c-0.9,0-1.5-0.3-2-0.8c-0.5-0.5-0.7-1.2-0.7-2.1c0-0.9,0.2-1.7,0.5-2.5c0.3-0.8,0.8-1.4,1.4-1.9
			c0.6-0.5,1.2-0.7,1.9-0.7c0.7,0,1.3,0.2,1.6,0.5c0.4,0.3,0.6,0.8,0.6,1.3c0,0.8-0.4,1.5-1.2,2c-0.8,0.5-1.9,0.7-3.3,0.7h-0.2
			l0,0.5c0,0.6,0.1,1,0.4,1.4c0.3,0.3,0.7,0.5,1.3,0.5c0.4,0,0.7-0.1,1-0.2c0.3-0.1,0.7-0.2,1.1-0.4v1.1c-0.5,0.2-0.9,0.4-1.2,0.4
			C-200.8,108-201.2,108.1-201.6,108.1z M-200.6,101.2c-0.5,0-0.9,0.2-1.4,0.7s-0.7,1-0.9,1.8h0.1c1,0,1.8-0.1,2.4-0.4
			c0.6-0.3,0.8-0.7,0.8-1.2c0-0.2-0.1-0.4-0.3-0.6C-200,101.3-200.2,101.2-200.6,101.2z"/>
		<path class="st4" d="M-192.6,100.2c0.3,0,0.6,0,0.8,0.1l-0.3,1.1c-0.3-0.1-0.5-0.1-0.7-0.1c-0.4,0-0.8,0.1-1.2,0.4
			c-0.4,0.3-0.7,0.7-1,1.1c-0.3,0.5-0.5,1-0.6,1.6l-0.7,3.5h-1.3l1.6-7.7h1l-0.2,1.4h0.1c0.3-0.4,0.6-0.8,0.8-1
			c0.2-0.2,0.4-0.3,0.7-0.4C-193.2,100.2-192.9,100.2-192.6,100.2z"/>
		<path class="st4" d="M-190.6,107.9h-1.3l1.6-7.7h1.3L-190.6,107.9z M-189.9,98.4c0-0.3,0.1-0.5,0.2-0.7s0.4-0.3,0.6-0.3
			c0.4,0,0.7,0.2,0.7,0.6c0,0.3-0.1,0.5-0.2,0.7c-0.2,0.2-0.4,0.3-0.6,0.3c-0.2,0-0.4-0.1-0.5-0.2
			C-189.8,98.7-189.9,98.6-189.9,98.4z"/>
		<path class="st4" d="M-183.4,105.7c0,0.7-0.3,1.3-0.8,1.7c-0.5,0.4-1.2,0.6-2.2,0.6c-0.8,0-1.5-0.2-2.1-0.5v-1.2
			c0.3,0.2,0.6,0.3,1,0.4c0.4,0.1,0.7,0.2,1.1,0.2c0.6,0,1-0.1,1.3-0.3c0.3-0.2,0.4-0.5,0.4-0.9c0-0.3-0.1-0.5-0.2-0.7
			s-0.5-0.4-1-0.7c-0.6-0.3-1-0.7-1.3-1c-0.2-0.3-0.4-0.7-0.4-1.2c0-0.7,0.2-1.2,0.7-1.6c0.5-0.4,1.1-0.6,1.9-0.6
			c0.8,0,1.6,0.2,2.3,0.5l-0.4,1c-0.2-0.1-0.5-0.2-0.8-0.3c-0.3-0.1-0.7-0.1-1.1-0.1c-0.4,0-0.7,0.1-1,0.3c-0.2,0.2-0.4,0.4-0.4,0.8
			c0,0.3,0.1,0.5,0.3,0.7c0.2,0.2,0.5,0.4,1,0.7c0.5,0.3,0.9,0.6,1.1,0.8c0.2,0.2,0.3,0.4,0.5,0.6S-183.4,105.4-183.4,105.7z"/>
		<path class="st4" d="M-177,100.2c0.5,0,0.9,0.1,1.2,0.4c0.3,0.3,0.5,0.7,0.5,1.3h0.1c0.8-1.1,1.7-1.7,2.6-1.7
			c0.6,0,1.1,0.2,1.4,0.5c0.3,0.3,0.5,0.8,0.5,1.4c0,0.4-0.1,0.8-0.2,1.3l-1,4.7h-1.3l1-4.8c0.1-0.4,0.1-0.8,0.1-1
			c0-0.3-0.1-0.5-0.2-0.7c-0.2-0.2-0.4-0.3-0.7-0.3c-0.4,0-0.7,0.1-1.1,0.4c-0.4,0.3-0.7,0.6-0.9,1.1c-0.3,0.5-0.5,1.1-0.6,1.7
			l-0.7,3.5h-1.3l1-4.8c0.1-0.4,0.1-0.8,0.1-0.9c0-0.7-0.3-1-0.9-1c-0.4,0-0.8,0.1-1.1,0.4c-0.4,0.3-0.7,0.7-1,1.2s-0.5,1.1-0.6,1.8
			l-0.7,3.3h-1.3l1.6-7.7h1l-0.2,1.4h0.1c0.3-0.4,0.6-0.7,0.8-0.9c0.2-0.2,0.5-0.3,0.8-0.5C-177.6,100.2-177.3,100.2-177,100.2z"/>
		<path class="st4" d="M-166.4,108.1c-0.9,0-1.5-0.3-2-0.8c-0.5-0.5-0.7-1.2-0.7-2.1c0-0.9,0.2-1.7,0.5-2.5c0.3-0.8,0.8-1.4,1.4-1.9
			c0.6-0.5,1.2-0.7,1.9-0.7c0.7,0,1.3,0.2,1.6,0.5c0.4,0.3,0.6,0.8,0.6,1.3c0,0.8-0.4,1.5-1.2,2s-1.9,0.7-3.3,0.7h-0.2l0,0.5
			c0,0.6,0.1,1,0.4,1.4s0.7,0.5,1.3,0.5c0.4,0,0.7-0.1,1-0.2c0.3-0.1,0.7-0.2,1.1-0.4v1.1c-0.5,0.2-0.9,0.4-1.2,0.4
			S-166,108.1-166.4,108.1z M-165.4,101.2c-0.5,0-0.9,0.2-1.4,0.7s-0.7,1-0.9,1.8h0.1c1,0,1.8-0.1,2.4-0.4c0.6-0.3,0.8-0.7,0.8-1.2
			c0-0.2-0.1-0.4-0.2-0.6C-164.8,101.3-165.1,101.2-165.4,101.2z"/>
		<path class="st4" d="M-155.6,108.1c-0.9,0-1.5-0.3-2-0.8c-0.5-0.5-0.7-1.2-0.7-2.1c0-0.9,0.2-1.7,0.5-2.5c0.3-0.8,0.8-1.4,1.4-1.9
			c0.6-0.5,1.2-0.7,1.9-0.7c0.7,0,1.3,0.2,1.6,0.5c0.4,0.3,0.6,0.8,0.6,1.3c0,0.8-0.4,1.5-1.2,2s-1.9,0.7-3.3,0.7h-0.2l0,0.5
			c0,0.6,0.1,1,0.4,1.4s0.7,0.5,1.3,0.5c0.4,0,0.7-0.1,1-0.2c0.3-0.1,0.7-0.2,1.1-0.4v1.1c-0.5,0.2-0.9,0.4-1.2,0.4
			S-155.2,108.1-155.6,108.1z M-154.6,101.2c-0.5,0-0.9,0.2-1.4,0.7s-0.7,1-0.9,1.8h0.1c1,0,1.8-0.1,2.4-0.4
			c0.6-0.3,0.8-0.7,0.8-1.2c0-0.2-0.1-0.4-0.2-0.6C-154,101.3-154.3,101.2-154.6,101.2z M-155,99.1c0.2-0.3,0.5-0.6,0.8-1
			c0.3-0.4,0.6-0.8,0.8-1.1h1.4v0.1c-0.2,0.3-0.6,0.6-1,1.1c-0.5,0.5-0.9,0.8-1.2,1.1h-0.8V99.1z"/>
		<path class="st4" d="M-146.8,105.7c0,0.7-0.3,1.3-0.8,1.7c-0.5,0.4-1.2,0.6-2.2,0.6c-0.8,0-1.5-0.2-2.1-0.5v-1.2
			c0.3,0.2,0.6,0.3,1,0.4c0.4,0.1,0.7,0.2,1.1,0.2c0.6,0,1-0.1,1.3-0.3c0.3-0.2,0.4-0.5,0.4-0.9c0-0.3-0.1-0.5-0.2-0.7
			s-0.5-0.4-1-0.7c-0.6-0.3-1-0.7-1.3-1c-0.2-0.3-0.4-0.7-0.4-1.2c0-0.7,0.2-1.2,0.7-1.6c0.5-0.4,1.1-0.6,1.9-0.6
			c0.8,0,1.6,0.2,2.3,0.5l-0.4,1c-0.2-0.1-0.5-0.2-0.8-0.3c-0.3-0.1-0.7-0.1-1.1-0.1c-0.4,0-0.7,0.1-1,0.3c-0.2,0.2-0.4,0.4-0.4,0.8
			c0,0.3,0.1,0.5,0.3,0.7c0.2,0.2,0.5,0.4,1,0.7c0.5,0.3,0.9,0.6,1.1,0.8c0.2,0.2,0.3,0.4,0.5,0.6S-146.8,105.4-146.8,105.7z"/>
		<path class="st4" d="M-139.3,108.1c-0.6,0-1.1-0.2-1.5-0.7c-0.4-0.5-0.6-1.1-0.6-1.9c0-1,0.2-1.9,0.5-2.7c0.3-0.8,0.8-1.5,1.3-1.9
			c0.6-0.5,1.2-0.7,1.9-0.7c0.9,0,1.5,0.4,1.9,1.3h0.1c0.1-0.8,0.2-1.4,0.3-1.9l0.5-2.5h1.2l-2.3,10.8h-1l0.2-1.4h-0.1
			c-0.4,0.6-0.9,1-1.3,1.2C-138.4,108-138.9,108.1-139.3,108.1z M-138.9,107c0.4,0,0.9-0.2,1.3-0.7c0.4-0.4,0.8-1,1.1-1.6
			c0.3-0.7,0.4-1.3,0.4-2c0-0.5-0.1-0.9-0.4-1.1c-0.2-0.3-0.6-0.4-1.1-0.4c-0.5,0-0.9,0.2-1.3,0.6c-0.4,0.4-0.7,0.9-0.9,1.6
			c-0.2,0.7-0.3,1.4-0.3,2.1C-140.1,106.5-139.7,107-138.9,107z"/>
		<path class="st4" d="M-130.3,108.1c-0.9,0-1.5-0.3-2-0.8c-0.5-0.5-0.7-1.2-0.7-2.1c0-0.9,0.2-1.7,0.5-2.5c0.3-0.8,0.8-1.4,1.4-1.9
			c0.6-0.5,1.2-0.7,1.9-0.7c0.7,0,1.3,0.2,1.6,0.5c0.4,0.3,0.6,0.8,0.6,1.3c0,0.8-0.4,1.5-1.2,2s-1.9,0.7-3.3,0.7h-0.2l0,0.5
			c0,0.6,0.1,1,0.4,1.4s0.7,0.5,1.3,0.5c0.4,0,0.7-0.1,1-0.2c0.3-0.1,0.7-0.2,1.1-0.4v1.1c-0.5,0.2-0.9,0.4-1.2,0.4
			S-129.9,108.1-130.3,108.1z M-129.4,101.2c-0.5,0-0.9,0.2-1.4,0.7s-0.7,1-0.9,1.8h0.1c1,0,1.8-0.1,2.4-0.4
			c0.6-0.3,0.8-0.7,0.8-1.2c0-0.2-0.1-0.4-0.2-0.6C-128.7,101.3-129,101.2-129.4,101.2z"/>
		<path class="st4" d="M-121.3,107.9h-1.3l2.3-10.8h1.3L-121.3,107.9z"/>
		<path class="st4" d="M-111.9,103.1c0,0.9-0.2,1.7-0.5,2.5c-0.3,0.8-0.8,1.4-1.4,1.8s-1.2,0.6-2,0.6c-0.9,0-1.6-0.3-2.1-0.8
			c-0.5-0.5-0.8-1.2-0.8-2.1c0-0.9,0.2-1.7,0.5-2.5c0.3-0.8,0.8-1.4,1.4-1.8c0.6-0.4,1.2-0.6,1.9-0.6c0.9,0,1.6,0.3,2.1,0.8
			S-111.9,102.2-111.9,103.1z M-113.2,103c0-0.5-0.1-1-0.4-1.3c-0.3-0.3-0.7-0.5-1.1-0.5c-0.5,0-0.9,0.2-1.3,0.5
			c-0.4,0.3-0.7,0.8-0.9,1.4c-0.2,0.6-0.3,1.3-0.3,2c0,0.6,0.1,1.1,0.4,1.4c0.3,0.3,0.7,0.5,1.2,0.5c0.5,0,0.9-0.2,1.3-0.5
			c0.4-0.3,0.7-0.8,0.9-1.4C-113.3,104.5-113.2,103.8-113.2,103z"/>
		<path class="st4" d="M-102.1,100.2c0.5,0,0.9,0.1,1.2,0.4c0.3,0.3,0.5,0.7,0.5,1.3h0.1c0.8-1.1,1.7-1.7,2.6-1.7
			c0.6,0,1.1,0.2,1.4,0.5c0.3,0.3,0.5,0.8,0.5,1.4c0,0.4-0.1,0.8-0.2,1.3l-1,4.7h-1.3l1-4.8c0.1-0.4,0.1-0.8,0.1-1
			c0-0.3-0.1-0.5-0.2-0.7c-0.2-0.2-0.4-0.3-0.7-0.3c-0.4,0-0.7,0.1-1.1,0.4c-0.4,0.3-0.7,0.6-0.9,1.1c-0.3,0.5-0.5,1.1-0.6,1.7
			l-0.7,3.5h-1.3l1-4.8c0.1-0.4,0.1-0.8,0.1-0.9c0-0.7-0.3-1-0.9-1c-0.4,0-0.8,0.1-1.1,0.4c-0.4,0.3-0.7,0.7-1,1.2s-0.5,1.1-0.6,1.8
			l-0.7,3.3h-1.3l1.6-7.7h1l-0.2,1.4h0.1c0.3-0.4,0.6-0.7,0.8-0.9c0.2-0.2,0.5-0.3,0.8-0.5C-102.7,100.2-102.4,100.2-102.1,100.2z"
			/>
		<path class="st4" d="M-93.4,107.9h-1.3l1.6-7.7h1.3L-93.4,107.9z M-92.7,98.4c0-0.3,0.1-0.5,0.2-0.7s0.4-0.3,0.6-0.3
			c0.4,0,0.7,0.2,0.7,0.6c0,0.3-0.1,0.5-0.2,0.7c-0.2,0.2-0.4,0.3-0.6,0.3c-0.2,0-0.4-0.1-0.5-0.2C-92.6,98.7-92.7,98.6-92.7,98.4z"
			/>
		<path class="st4" d="M-89.7,107.9H-91l2.3-10.8h1.3L-89.7,107.9z"/>
		<path class="st4" d="M-86.1,107.9h-1.3l2.3-10.8h1.3L-86.1,107.9z"/>
		<path class="st4" d="M-76.7,103.1c0,0.9-0.2,1.7-0.5,2.5c-0.3,0.8-0.8,1.4-1.4,1.8s-1.2,0.6-2,0.6c-0.9,0-1.6-0.3-2.1-0.8
			c-0.5-0.5-0.8-1.2-0.8-2.1c0-0.9,0.2-1.7,0.5-2.5c0.3-0.8,0.8-1.4,1.4-1.8c0.6-0.4,1.2-0.6,1.9-0.6c0.9,0,1.6,0.3,2.1,0.8
			S-76.7,102.2-76.7,103.1z M-77.9,103c0-0.5-0.1-1-0.4-1.3c-0.3-0.3-0.7-0.5-1.1-0.5c-0.5,0-0.9,0.2-1.3,0.5
			c-0.4,0.3-0.7,0.8-0.9,1.4c-0.2,0.6-0.3,1.3-0.3,2c0,0.6,0.1,1.1,0.4,1.4c0.3,0.3,0.7,0.5,1.2,0.5c0.5,0,0.9-0.2,1.3-0.5
			c0.4-0.3,0.7-0.8,0.9-1.4C-78,104.5-77.9,103.8-77.9,103z"/>
		<path class="st4" d="M-70.7,100.2c0.3,0,0.6,0,0.8,0.1l-0.3,1.1c-0.3-0.1-0.5-0.1-0.7-0.1c-0.4,0-0.8,0.1-1.2,0.4
			c-0.4,0.3-0.7,0.7-1,1.1c-0.3,0.5-0.5,1-0.6,1.6l-0.7,3.5h-1.3l1.6-7.7h1l-0.2,1.4h0.1c0.3-0.4,0.6-0.8,0.8-1
			c0.2-0.2,0.4-0.3,0.7-0.4C-71.2,100.2-71,100.2-70.7,100.2z"/>
		<path class="st4" d="M-68.1,106.3l0.1,0.2c-0.5,1-1.1,2.1-1.9,3.3h-1c0.4-1,0.9-2.1,1.4-3.5H-68.1z"/>
		<path class="st4" d="M-275.3,125.2c-0.6,0-1.1-0.2-1.5-0.7c-0.4-0.5-0.6-1.1-0.6-1.9c0-1,0.2-1.8,0.5-2.7c0.3-0.8,0.8-1.5,1.4-1.9
			c0.6-0.5,1.2-0.7,1.9-0.7c0.4,0,0.8,0.1,1.1,0.3c0.3,0.2,0.6,0.6,0.8,1h0.1l0.5-1.2h1l-1.6,7.7h-1l0.2-1.4h-0.1
			C-273.5,124.7-274.3,125.2-275.3,125.2z M-274.9,124.2c0.4,0,0.9-0.2,1.3-0.6s0.8-1,1.1-1.6c0.3-0.7,0.4-1.4,0.4-2.1
			c0-0.5-0.1-0.8-0.4-1.1c-0.3-0.3-0.6-0.4-1-0.4c-0.5,0-0.9,0.2-1.3,0.6s-0.7,0.9-0.9,1.6s-0.3,1.4-0.3,2.1c0,0.5,0.1,0.9,0.3,1.2
			S-275.2,124.2-274.9,124.2z"/>
		<path class="st4" d="M-267.2,125.2c-0.7,0-1.2-0.2-1.5-0.7c-0.4-0.5-0.6-1.1-0.6-1.9c0-1,0.2-1.9,0.5-2.7c0.3-0.8,0.8-1.5,1.3-1.9
			c0.6-0.5,1.2-0.7,1.9-0.7c0.4,0,0.8,0.1,1.1,0.3s0.6,0.6,0.8,1h0.1l0.5-1.2h0.9l-2.4,11.1h-1.2l0.7-3.3c0.1-0.5,0.2-1,0.4-1.6
			h-0.1c-0.4,0.5-0.8,0.9-1.3,1.2C-266.3,125.1-266.7,125.2-267.2,125.2z M-266.7,124.2c0.4,0,0.8-0.2,1.3-0.6
			c0.4-0.4,0.8-1,1.1-1.6c0.3-0.7,0.4-1.4,0.4-2c0-0.5-0.1-0.9-0.4-1.1c-0.2-0.3-0.6-0.4-1-0.4c-0.5,0-0.9,0.2-1.3,0.6
			c-0.4,0.4-0.7,0.9-0.9,1.6s-0.4,1.4-0.4,2.2C-268,123.7-267.5,124.2-266.7,124.2z"/>
		<path class="st4" d="M-259.7,117.4h1.3l-1,4.8c-0.1,0.4-0.1,0.7-0.1,1c0,0.7,0.3,1,1,1c0.4,0,0.8-0.1,1.2-0.4
			c0.4-0.3,0.7-0.7,1-1.2s0.5-1.1,0.7-1.9l0.7-3.3h1.2l-1.6,7.7h-1l0.2-1.4h-0.1c-0.4,0.5-0.8,0.9-1.3,1.2c-0.4,0.2-0.9,0.4-1.3,0.4
			c-0.6,0-1.1-0.2-1.4-0.5c-0.3-0.3-0.5-0.8-0.5-1.4c0-0.3,0.1-0.7,0.2-1.2L-259.7,117.4z"/>
		<path class="st4" d="M-249.9,125.2c-0.9,0-1.5-0.3-2-0.8c-0.5-0.5-0.7-1.2-0.7-2.1c0-0.9,0.2-1.7,0.5-2.5c0.3-0.8,0.8-1.4,1.4-1.9
			c0.6-0.5,1.2-0.7,1.9-0.7c0.7,0,1.3,0.2,1.6,0.5c0.4,0.3,0.6,0.8,0.6,1.3c0,0.8-0.4,1.5-1.2,2c-0.8,0.5-1.9,0.7-3.3,0.7h-0.2
			l0,0.5c0,0.6,0.1,1,0.4,1.4c0.3,0.3,0.7,0.5,1.3,0.5c0.4,0,0.7-0.1,1-0.2c0.3-0.1,0.7-0.2,1.1-0.4v1.1c-0.5,0.2-0.9,0.4-1.2,0.4
			C-249.2,125.2-249.5,125.2-249.9,125.2z M-249,118.3c-0.5,0-0.9,0.2-1.4,0.7s-0.7,1-0.9,1.8h0.1c1,0,1.8-0.1,2.4-0.4
			c0.6-0.3,0.8-0.7,0.8-1.2c0-0.2-0.1-0.4-0.3-0.6C-248.4,118.4-248.6,118.3-249,118.3z"/>
		<path class="st4" d="M-241.1,122.9c0,0.7-0.3,1.3-0.8,1.7c-0.5,0.4-1.2,0.6-2.2,0.6c-0.8,0-1.5-0.2-2.1-0.5v-1.2
			c0.3,0.2,0.6,0.3,1,0.4c0.4,0.1,0.7,0.2,1.1,0.2c0.6,0,1-0.1,1.3-0.3c0.3-0.2,0.4-0.5,0.4-0.9c0-0.3-0.1-0.5-0.2-0.7
			c-0.2-0.2-0.5-0.4-1-0.7c-0.6-0.3-1-0.7-1.3-1s-0.4-0.7-0.4-1.2c0-0.7,0.2-1.2,0.7-1.6c0.5-0.4,1.1-0.6,1.9-0.6
			c0.8,0,1.6,0.2,2.3,0.5l-0.4,1c-0.2-0.1-0.5-0.2-0.8-0.3c-0.3-0.1-0.7-0.1-1.1-0.1c-0.4,0-0.7,0.1-1,0.3c-0.2,0.2-0.4,0.4-0.4,0.8
			c0,0.3,0.1,0.5,0.3,0.7c0.2,0.2,0.5,0.4,1,0.7c0.5,0.3,0.9,0.6,1.1,0.8c0.2,0.2,0.3,0.4,0.5,0.6
			C-241.1,122.3-241.1,122.6-241.1,122.9z"/>
		<path class="st4" d="M-237.3,124.2c0.3,0,0.6-0.1,1-0.2v1c-0.1,0.1-0.3,0.1-0.6,0.2c-0.2,0.1-0.5,0.1-0.6,0.1
			c-0.6,0-1-0.1-1.4-0.4c-0.3-0.3-0.5-0.7-0.5-1.2c0-0.3,0-0.6,0.1-1l0.9-4.2h-1.2l0.1-0.6l1.3-0.5l0.9-1.6h0.7l-0.4,1.7h1.9l-0.2,1
			h-1.9l-0.9,4.2c-0.1,0.4-0.1,0.7-0.1,0.8c0,0.2,0.1,0.4,0.2,0.6C-237.7,124.1-237.6,124.2-237.3,124.2z"/>
		<path class="st4" d="M-232.6,125.2c-0.6,0-1.1-0.2-1.5-0.7c-0.4-0.5-0.6-1.1-0.6-1.9c0-1,0.2-1.8,0.5-2.7c0.3-0.8,0.8-1.5,1.4-1.9
			c0.6-0.5,1.2-0.7,1.9-0.7c0.4,0,0.8,0.1,1.1,0.3c0.3,0.2,0.6,0.6,0.8,1h0.1l0.5-1.2h1l-1.6,7.7h-1l0.2-1.4h-0.1
			C-230.8,124.7-231.7,125.2-232.6,125.2z M-232.2,124.2c0.4,0,0.9-0.2,1.3-0.6s0.8-1,1.1-1.6c0.3-0.7,0.4-1.4,0.4-2.1
			c0-0.5-0.1-0.8-0.4-1.1c-0.3-0.3-0.6-0.4-1-0.4c-0.5,0-0.9,0.2-1.3,0.6s-0.7,0.9-0.9,1.6s-0.3,1.4-0.3,2.1c0,0.5,0.1,0.9,0.3,1.2
			S-232.6,124.2-232.2,124.2z"/>
		<path class="st4" d="M-220,125.2c-0.9,0-1.6-0.2-2.1-0.7c-0.5-0.5-0.7-1.2-0.7-2.1c0-0.9,0.2-1.8,0.5-2.6c0.3-0.8,0.8-1.4,1.4-1.8
			s1.3-0.7,2.1-0.7c0.7,0,1.3,0.1,1.9,0.4l-0.4,1c-0.5-0.2-1-0.4-1.5-0.4c-0.5,0-1,0.2-1.4,0.5c-0.4,0.4-0.7,0.8-1,1.5
			c-0.2,0.6-0.3,1.3-0.3,2c0,0.6,0.1,1,0.4,1.3s0.7,0.5,1.2,0.5c0.3,0,0.7,0,1-0.1c0.3-0.1,0.6-0.2,0.9-0.3v1.1
			C-218.7,125.1-219.3,125.2-220,125.2z"/>
		<path class="st4" d="M-215.4,125.1h-1.3l2.3-10.8h1.3L-215.4,125.1z"/>
		<path class="st4" d="M-210.7,125.2c-0.6,0-1.1-0.2-1.5-0.7c-0.4-0.5-0.6-1.1-0.6-1.9c0-1,0.2-1.8,0.5-2.7c0.3-0.8,0.8-1.5,1.4-1.9
			c0.6-0.5,1.2-0.7,1.9-0.7c0.4,0,0.8,0.1,1.1,0.3c0.3,0.2,0.6,0.6,0.8,1h0.1l0.5-1.2h1l-1.6,7.7h-1l0.2-1.4h-0.1
			C-208.9,124.7-209.7,125.2-210.7,125.2z M-210.2,124.2c0.4,0,0.9-0.2,1.3-0.6s0.8-1,1.1-1.6c0.3-0.7,0.4-1.4,0.4-2.1
			c0-0.5-0.1-0.8-0.4-1.1c-0.3-0.3-0.6-0.4-1-0.4c-0.5,0-0.9,0.2-1.3,0.6s-0.7,0.9-0.9,1.6s-0.3,1.4-0.3,2.1c0,0.5,0.1,0.9,0.3,1.2
			S-210.6,124.2-210.2,124.2z"/>
		<path class="st4" d="M-200.1,122.9c0,0.7-0.3,1.3-0.8,1.7c-0.5,0.4-1.2,0.6-2.2,0.6c-0.8,0-1.5-0.2-2.1-0.5v-1.2
			c0.3,0.2,0.6,0.3,1,0.4c0.4,0.1,0.7,0.2,1.1,0.2c0.6,0,1-0.1,1.3-0.3c0.3-0.2,0.4-0.5,0.4-0.9c0-0.3-0.1-0.5-0.2-0.7
			c-0.2-0.2-0.5-0.4-1-0.7c-0.6-0.3-1-0.7-1.3-1s-0.4-0.7-0.4-1.2c0-0.7,0.2-1.2,0.7-1.6c0.5-0.4,1.1-0.6,1.9-0.6
			c0.8,0,1.6,0.2,2.3,0.5l-0.4,1c-0.2-0.1-0.5-0.2-0.8-0.3c-0.3-0.1-0.7-0.1-1.1-0.1c-0.4,0-0.7,0.1-1,0.3c-0.2,0.2-0.4,0.4-0.4,0.8
			c0,0.3,0.1,0.5,0.3,0.7c0.2,0.2,0.5,0.4,1,0.7c0.5,0.3,0.9,0.6,1.1,0.8c0.2,0.2,0.3,0.4,0.5,0.6
			C-200.2,122.3-200.1,122.6-200.1,122.9z"/>
		<path class="st4" d="M-194,122.9c0,0.7-0.3,1.3-0.8,1.7c-0.5,0.4-1.2,0.6-2.2,0.6c-0.8,0-1.5-0.2-2.1-0.5v-1.2
			c0.3,0.2,0.6,0.3,1,0.4c0.4,0.1,0.7,0.2,1.1,0.2c0.6,0,1-0.1,1.3-0.3c0.3-0.2,0.4-0.5,0.4-0.9c0-0.3-0.1-0.5-0.2-0.7
			c-0.2-0.2-0.5-0.4-1-0.7c-0.6-0.3-1-0.7-1.3-1s-0.4-0.7-0.4-1.2c0-0.7,0.2-1.2,0.7-1.6c0.5-0.4,1.1-0.6,1.9-0.6
			c0.8,0,1.6,0.2,2.3,0.5l-0.4,1c-0.2-0.1-0.5-0.2-0.8-0.3c-0.3-0.1-0.7-0.1-1.1-0.1c-0.4,0-0.7,0.1-1,0.3c-0.2,0.2-0.4,0.4-0.4,0.8
			c0,0.3,0.1,0.5,0.3,0.7c0.2,0.2,0.5,0.4,1,0.7c0.5,0.3,0.9,0.6,1.1,0.8c0.2,0.2,0.3,0.4,0.5,0.6C-194,122.3-194,122.6-194,122.9z"
			/>
		<path class="st4" d="M-189.5,125.2c-0.9,0-1.5-0.3-2-0.8c-0.5-0.5-0.7-1.2-0.7-2.1c0-0.9,0.2-1.7,0.5-2.5c0.3-0.8,0.8-1.4,1.4-1.9
			c0.6-0.5,1.2-0.7,1.9-0.7c0.7,0,1.3,0.2,1.6,0.5c0.4,0.3,0.6,0.8,0.6,1.3c0,0.8-0.4,1.5-1.2,2s-1.9,0.7-3.3,0.7h-0.2l0,0.5
			c0,0.6,0.1,1,0.4,1.4c0.3,0.3,0.7,0.5,1.3,0.5c0.4,0,0.7-0.1,1-0.2c0.3-0.1,0.7-0.2,1.1-0.4v1.1c-0.5,0.2-0.9,0.4-1.2,0.4
			C-188.8,125.2-189.1,125.2-189.5,125.2z M-188.5,118.3c-0.5,0-0.9,0.2-1.4,0.7s-0.7,1-0.9,1.8h0.1c1,0,1.8-0.1,2.4-0.4
			c0.6-0.3,0.8-0.7,0.8-1.2c0-0.2-0.1-0.4-0.2-0.6C-187.9,118.4-188.2,118.3-188.5,118.3z"/>
		<path class="st4" d="M-178.7,125.2c-0.9,0-1.5-0.3-2-0.8c-0.5-0.5-0.7-1.2-0.7-2.1c0-0.9,0.2-1.7,0.5-2.5c0.3-0.8,0.8-1.4,1.4-1.9
			c0.6-0.5,1.2-0.7,1.9-0.7c0.7,0,1.3,0.2,1.6,0.5c0.4,0.3,0.6,0.8,0.6,1.3c0,0.8-0.4,1.5-1.2,2s-1.9,0.7-3.3,0.7h-0.2l0,0.5
			c0,0.6,0.1,1,0.4,1.4c0.3,0.3,0.7,0.5,1.3,0.5c0.4,0,0.7-0.1,1-0.2c0.3-0.1,0.7-0.2,1.1-0.4v1.1c-0.5,0.2-0.9,0.4-1.2,0.4
			C-177.9,125.2-178.3,125.2-178.7,125.2z M-177.7,118.3c-0.5,0-0.9,0.2-1.4,0.7s-0.7,1-0.9,1.8h0.1c1,0,1.8-0.1,2.4-0.4
			c0.6-0.3,0.8-0.7,0.8-1.2c0-0.2-0.1-0.4-0.2-0.6C-177.1,118.4-177.4,118.3-177.7,118.3z M-178.1,116.2c0.2-0.3,0.5-0.6,0.8-1
			c0.3-0.4,0.6-0.8,0.8-1.1h1.4v0.1c-0.2,0.3-0.6,0.6-1,1.1c-0.5,0.5-0.9,0.8-1.2,1.1h-0.8V116.2z"/>
		<path class="st4" d="M-169.8,122.9c0,0.7-0.3,1.3-0.8,1.7c-0.5,0.4-1.2,0.6-2.2,0.6c-0.8,0-1.5-0.2-2.1-0.5v-1.2
			c0.3,0.2,0.6,0.3,1,0.4c0.4,0.1,0.7,0.2,1.1,0.2c0.6,0,1-0.1,1.3-0.3c0.3-0.2,0.4-0.5,0.4-0.9c0-0.3-0.1-0.5-0.2-0.7
			s-0.5-0.4-1-0.7c-0.6-0.3-1-0.7-1.3-1c-0.2-0.3-0.4-0.7-0.4-1.2c0-0.7,0.2-1.2,0.7-1.6c0.5-0.4,1.1-0.6,1.9-0.6
			c0.8,0,1.6,0.2,2.3,0.5l-0.4,1c-0.2-0.1-0.5-0.2-0.8-0.3c-0.3-0.1-0.7-0.1-1.1-0.1c-0.4,0-0.7,0.1-1,0.3c-0.2,0.2-0.4,0.4-0.4,0.8
			c0,0.3,0.1,0.5,0.3,0.7c0.2,0.2,0.5,0.4,1,0.7c0.5,0.3,0.9,0.6,1.1,0.8c0.2,0.2,0.3,0.4,0.5,0.6
			C-169.9,122.3-169.8,122.6-169.8,122.9z"/>
		<path class="st4" d="M-163.5,125.1h-1.3l2.3-10.8h1.3L-163.5,125.1z"/>
		<path class="st4" d="M-158.7,125.2c-0.6,0-1.1-0.2-1.5-0.7c-0.4-0.5-0.6-1.1-0.6-1.9c0-1,0.2-1.8,0.5-2.7c0.3-0.8,0.8-1.5,1.4-1.9
			c0.6-0.5,1.2-0.7,1.9-0.7c0.4,0,0.8,0.1,1.1,0.3c0.3,0.2,0.6,0.6,0.8,1h0.1l0.5-1.2h1l-1.6,7.7h-1l0.2-1.4h-0.1
			C-156.9,124.7-157.8,125.2-158.7,125.2z M-158.3,124.2c0.4,0,0.9-0.2,1.3-0.6c0.4-0.4,0.8-1,1.1-1.6c0.3-0.7,0.4-1.4,0.4-2.1
			c0-0.5-0.1-0.8-0.4-1.1c-0.2-0.3-0.6-0.4-1-0.4c-0.5,0-0.9,0.2-1.3,0.6c-0.4,0.4-0.7,0.9-0.9,1.6s-0.3,1.4-0.3,2.1
			c0,0.5,0.1,0.9,0.3,1.2C-159,124-158.7,124.2-158.3,124.2z"/>
		<path class="st4" d="M-146.9,125.2c-0.7,0-1.2-0.2-1.5-0.7c-0.4-0.5-0.6-1.1-0.6-1.9c0-1,0.2-1.9,0.5-2.7c0.3-0.8,0.8-1.5,1.3-1.9
			c0.6-0.5,1.2-0.7,1.9-0.7c0.4,0,0.8,0.1,1.1,0.3c0.3,0.2,0.6,0.6,0.8,1h0.1l0.5-1.2h0.9l-2.4,11.1h-1.2l0.7-3.3
			c0.1-0.5,0.2-1,0.4-1.6h-0.1c-0.4,0.5-0.8,0.9-1.3,1.2C-146,125.1-146.5,125.2-146.9,125.2z M-146.5,124.2c0.4,0,0.8-0.2,1.3-0.6
			c0.4-0.4,0.8-1,1.1-1.6c0.3-0.7,0.4-1.4,0.4-2c0-0.5-0.1-0.9-0.4-1.1c-0.2-0.3-0.6-0.4-1-0.4c-0.5,0-0.9,0.2-1.3,0.6
			c-0.4,0.4-0.7,0.9-0.9,1.6s-0.4,1.4-0.4,2.2C-147.7,123.7-147.3,124.2-146.5,124.2z"/>
		<path class="st4" d="M-139.4,117.4h1.3l-1,4.8c-0.1,0.4-0.1,0.7-0.1,1c0,0.7,0.3,1,1,1c0.4,0,0.8-0.1,1.2-0.4
			c0.4-0.3,0.7-0.7,1-1.2c0.3-0.5,0.5-1.1,0.7-1.9l0.7-3.3h1.2l-1.6,7.7h-1l0.2-1.4h-0.1c-0.4,0.5-0.8,0.9-1.3,1.2s-0.9,0.4-1.3,0.4
			c-0.6,0-1.1-0.2-1.4-0.5c-0.3-0.3-0.5-0.8-0.5-1.4c0-0.3,0.1-0.7,0.2-1.2L-139.4,117.4z"/>
		<path class="st4" d="M-129.7,125.2c-0.9,0-1.5-0.3-2-0.8c-0.5-0.5-0.7-1.2-0.7-2.1c0-0.9,0.2-1.7,0.5-2.5c0.3-0.8,0.8-1.4,1.4-1.9
			c0.6-0.5,1.2-0.7,1.9-0.7c0.7,0,1.3,0.2,1.6,0.5c0.4,0.3,0.6,0.8,0.6,1.3c0,0.8-0.4,1.5-1.2,2s-1.9,0.7-3.3,0.7h-0.2l0,0.5
			c0,0.6,0.1,1,0.4,1.4c0.3,0.3,0.7,0.5,1.3,0.5c0.4,0,0.7-0.1,1-0.2c0.3-0.1,0.7-0.2,1.1-0.4v1.1c-0.5,0.2-0.9,0.4-1.2,0.4
			C-128.9,125.2-129.3,125.2-129.7,125.2z M-128.7,118.3c-0.5,0-0.9,0.2-1.4,0.7s-0.7,1-0.9,1.8h0.1c1,0,1.8-0.1,2.4-0.4
			c0.6-0.3,0.8-0.7,0.8-1.2c0-0.2-0.1-0.4-0.2-0.6C-128.1,118.4-128.3,118.3-128.7,118.3z"/>
		<path class="st4" d="M-116.9,117.3c0.5,0,0.9,0.2,1.2,0.4c0.3,0.3,0.5,0.7,0.5,1.3h0.1c0.8-1.1,1.7-1.7,2.6-1.7
			c0.6,0,1.1,0.2,1.4,0.5c0.3,0.3,0.5,0.8,0.5,1.4c0,0.4-0.1,0.8-0.2,1.3l-1,4.7h-1.3l1-4.8c0.1-0.4,0.1-0.8,0.1-1
			c0-0.3-0.1-0.5-0.2-0.7c-0.2-0.2-0.4-0.3-0.7-0.3c-0.4,0-0.7,0.1-1.1,0.4c-0.4,0.3-0.7,0.6-0.9,1.1c-0.3,0.5-0.5,1.1-0.6,1.7
			l-0.7,3.5h-1.3l1-4.8c0.1-0.4,0.1-0.8,0.1-0.9c0-0.7-0.3-1-0.9-1c-0.4,0-0.8,0.1-1.1,0.4c-0.4,0.3-0.7,0.7-1,1.2
			c-0.3,0.5-0.5,1.1-0.6,1.8l-0.7,3.3h-1.3l1.6-7.7h1l-0.2,1.4h0.1c0.3-0.4,0.6-0.7,0.8-0.9c0.2-0.2,0.5-0.3,0.8-0.5
			C-117.5,117.3-117.2,117.3-116.9,117.3z"/>
		<path class="st4" d="M-106.4,125.2c-0.9,0-1.5-0.3-2-0.8c-0.5-0.5-0.7-1.2-0.7-2.1c0-0.9,0.2-1.7,0.5-2.5c0.3-0.8,0.8-1.4,1.4-1.9
			c0.6-0.5,1.2-0.7,1.9-0.7c0.7,0,1.3,0.2,1.6,0.5c0.4,0.3,0.6,0.8,0.6,1.3c0,0.8-0.4,1.5-1.2,2s-1.9,0.7-3.3,0.7h-0.2l0,0.5
			c0,0.6,0.1,1,0.4,1.4c0.3,0.3,0.7,0.5,1.3,0.5c0.4,0,0.7-0.1,1-0.2c0.3-0.1,0.7-0.2,1.1-0.4v1.1c-0.5,0.2-0.9,0.4-1.2,0.4
			C-105.6,125.2-106,125.2-106.4,125.2z M-105.4,118.3c-0.5,0-0.9,0.2-1.4,0.7s-0.7,1-0.9,1.8h0.1c1,0,1.8-0.1,2.4-0.4
			c0.6-0.3,0.8-0.7,0.8-1.2c0-0.2-0.1-0.4-0.2-0.6C-104.8,118.4-105,118.3-105.4,118.3z M-105.8,116.2c0.2-0.3,0.5-0.6,0.8-1
			c0.3-0.4,0.6-0.8,0.8-1.1h1.4v0.1c-0.2,0.3-0.6,0.6-1,1.1c-0.5,0.5-0.9,0.8-1.2,1.1h-0.8V116.2z"/>
		<path class="st4" d="M-97.5,122.9c0,0.7-0.3,1.3-0.8,1.7c-0.5,0.4-1.2,0.6-2.2,0.6c-0.8,0-1.5-0.2-2.1-0.5v-1.2
			c0.3,0.2,0.6,0.3,1,0.4c0.4,0.1,0.7,0.2,1.1,0.2c0.6,0,1-0.1,1.3-0.3c0.3-0.2,0.4-0.5,0.4-0.9c0-0.3-0.1-0.5-0.2-0.7
			s-0.5-0.4-1-0.7c-0.6-0.3-1-0.7-1.3-1c-0.2-0.3-0.4-0.7-0.4-1.2c0-0.7,0.2-1.2,0.7-1.6c0.5-0.4,1.1-0.6,1.9-0.6
			c0.8,0,1.6,0.2,2.3,0.5l-0.4,1c-0.2-0.1-0.5-0.2-0.8-0.3c-0.3-0.1-0.7-0.1-1.1-0.1c-0.4,0-0.7,0.1-1,0.3c-0.2,0.2-0.4,0.4-0.4,0.8
			c0,0.3,0.1,0.5,0.3,0.7c0.2,0.2,0.5,0.4,1,0.7c0.5,0.3,0.9,0.6,1.1,0.8c0.2,0.2,0.3,0.4,0.5,0.6
			C-97.6,122.3-97.5,122.6-97.5,122.9z"/>
		<path class="st4" d="M-87.4,117.3c0.5,0,0.9,0.2,1.2,0.4c0.3,0.3,0.5,0.7,0.5,1.3h0.1c0.8-1.1,1.7-1.7,2.6-1.7
			c0.6,0,1.1,0.2,1.4,0.5c0.3,0.3,0.5,0.8,0.5,1.4c0,0.4-0.1,0.8-0.2,1.3l-1,4.7h-1.3l1-4.8c0.1-0.4,0.1-0.8,0.1-1
			c0-0.3-0.1-0.5-0.2-0.7c-0.2-0.2-0.4-0.3-0.7-0.3c-0.4,0-0.7,0.1-1.1,0.4c-0.4,0.3-0.7,0.6-0.9,1.1c-0.3,0.5-0.5,1.1-0.6,1.7
			l-0.7,3.5H-88l1-4.8c0.1-0.4,0.1-0.8,0.1-0.9c0-0.7-0.3-1-0.9-1c-0.4,0-0.8,0.1-1.1,0.4c-0.4,0.3-0.7,0.7-1,1.2
			c-0.3,0.5-0.5,1.1-0.6,1.8l-0.7,3.3h-1.3l1.6-7.7h1l-0.2,1.4h0.1c0.3-0.4,0.6-0.7,0.8-0.9c0.2-0.2,0.5-0.3,0.8-0.5
			C-88,117.3-87.7,117.3-87.4,117.3z"/>
		<path class="st4" d="M-76.8,114.9l0.1,0.2c-0.2,0.4-0.4,0.9-0.8,1.5c-0.3,0.6-0.7,1.2-1.1,1.8h-1c0.6-1.4,1.1-2.5,1.4-3.5H-76.8z"
			/>
		<path class="st4" d="M-75.2,125.2c-0.6,0-1.1-0.2-1.5-0.7c-0.4-0.5-0.6-1.1-0.6-1.9c0-1,0.2-1.8,0.5-2.7c0.3-0.8,0.8-1.5,1.4-1.9
			c0.6-0.5,1.2-0.7,1.9-0.7c0.4,0,0.8,0.1,1.1,0.3c0.3,0.2,0.6,0.6,0.8,1h0.1l0.5-1.2h1l-1.6,7.7h-1l0.2-1.4h-0.1
			C-73.4,124.7-74.2,125.2-75.2,125.2z M-74.7,124.2c0.4,0,0.9-0.2,1.3-0.6c0.4-0.4,0.8-1,1.1-1.6c0.3-0.7,0.4-1.4,0.4-2.1
			c0-0.5-0.1-0.8-0.4-1.1c-0.2-0.3-0.6-0.4-1-0.4c-0.5,0-0.9,0.2-1.3,0.6c-0.4,0.4-0.7,0.9-0.9,1.6s-0.3,1.4-0.3,2.1
			c0,0.5,0.1,0.9,0.3,1.2C-75.4,124-75.1,124.2-74.7,124.2z"/>
		<path class="st4" d="M-67.2,128.5c-0.9,0-1.7-0.2-2.3-0.5v-1.2c0.3,0.2,0.7,0.3,1.1,0.4c0.4,0.1,0.8,0.2,1.2,0.2
			c0.6,0,1.1-0.1,1.5-0.4c0.4-0.3,0.6-0.8,0.8-1.4l0.4-1.5l0.1-0.5h-0.1c-0.4,0.5-0.8,0.9-1.3,1.2c-0.4,0.2-0.8,0.4-1.3,0.4
			c-0.6,0-1.2-0.2-1.5-0.7c-0.4-0.5-0.6-1.1-0.6-1.9c0-1,0.2-1.9,0.5-2.7s0.8-1.5,1.4-1.9s1.2-0.7,1.9-0.7c0.9,0,1.5,0.4,1.9,1.3
			h0.1l0.5-1.2h1l-1.7,8.1c-0.2,1-0.6,1.8-1.2,2.3C-65.4,128.3-66.2,128.5-67.2,128.5z M-66.6,124.2c0.4,0,0.8-0.2,1.3-0.6
			s0.8-1,1.1-1.6c0.3-0.7,0.4-1.3,0.4-2c0-1-0.5-1.5-1.4-1.5c-0.5,0-0.9,0.2-1.3,0.6s-0.7,0.9-0.9,1.6c-0.2,0.7-0.3,1.4-0.3,2.1
			C-67.8,123.7-67.4,124.2-66.6,124.2z"/>
		<path class="st4" d="M-56.2,117.3c0.3,0,0.6,0,0.8,0.1l-0.3,1.1c-0.3-0.1-0.5-0.1-0.7-0.1c-0.4,0-0.8,0.1-1.2,0.4s-0.7,0.7-1,1.1
			c-0.3,0.5-0.5,1-0.6,1.6l-0.7,3.5h-1.3l1.6-7.7h1l-0.2,1.4h0.1c0.3-0.4,0.6-0.8,0.8-1c0.2-0.2,0.4-0.3,0.7-0.4
			C-56.8,117.3-56.5,117.3-56.2,117.3z"/>
		<path class="st4" d="M-53.1,125.2c-0.6,0-1.1-0.2-1.5-0.7c-0.4-0.5-0.6-1.1-0.6-1.9c0-1,0.2-1.8,0.5-2.7c0.3-0.8,0.8-1.5,1.4-1.9
			c0.6-0.5,1.2-0.7,1.9-0.7c0.4,0,0.8,0.1,1.1,0.3c0.3,0.2,0.6,0.6,0.8,1h0.1l0.5-1.2h1l-1.6,7.7h-1l0.2-1.4h-0.1
			C-51.3,124.7-52.2,125.2-53.1,125.2z M-52.7,124.2c0.4,0,0.9-0.2,1.3-0.6c0.4-0.4,0.8-1,1.1-1.6c0.3-0.7,0.4-1.4,0.4-2.1
			c0-0.5-0.1-0.8-0.4-1.1c-0.2-0.3-0.6-0.4-1-0.4c-0.5,0-0.9,0.2-1.3,0.6c-0.4,0.4-0.7,0.9-0.9,1.6s-0.3,1.4-0.3,2.1
			c0,0.5,0.1,0.9,0.3,1.2C-53.4,124-53.1,124.2-52.7,124.2z"/>
		<path class="st4" d="M-45,125.2c-0.6,0-1.1-0.2-1.5-0.7c-0.4-0.5-0.6-1.1-0.6-1.9c0-1,0.2-1.9,0.5-2.7c0.3-0.8,0.8-1.5,1.3-1.9
			c0.6-0.5,1.2-0.7,1.9-0.7c0.9,0,1.5,0.4,1.9,1.3h0.1c0.1-0.8,0.2-1.4,0.3-1.9l0.5-2.5h1.2l-2.3,10.8h-1l0.2-1.4h-0.1
			c-0.4,0.6-0.9,1-1.3,1.2C-44.1,125.1-44.6,125.2-45,125.2z M-44.6,124.2c0.4,0,0.9-0.2,1.3-0.7c0.4-0.4,0.8-1,1.1-1.6
			c0.3-0.7,0.4-1.3,0.4-2c0-0.5-0.1-0.9-0.4-1.2c-0.2-0.3-0.6-0.4-1.1-0.4c-0.5,0-0.9,0.2-1.3,0.6c-0.4,0.4-0.7,0.9-0.9,1.6
			c-0.2,0.7-0.3,1.4-0.3,2.1C-45.8,123.7-45.4,124.2-44.6,124.2z"/>
		<path class="st4" d="M-36.7,125.2c-0.6,0-1.1-0.2-1.5-0.7c-0.4-0.5-0.6-1.1-0.6-1.9c0-1,0.2-1.8,0.5-2.7c0.3-0.8,0.8-1.5,1.4-1.9
			c0.6-0.5,1.2-0.7,1.9-0.7c0.4,0,0.8,0.1,1.1,0.3c0.3,0.2,0.6,0.6,0.8,1h0.1l0.5-1.2h1l-1.6,7.7h-1l0.2-1.4h-0.1
			C-34.9,124.7-35.8,125.2-36.7,125.2z M-36.3,124.2c0.4,0,0.9-0.2,1.3-0.6c0.4-0.4,0.8-1,1.1-1.6c0.3-0.7,0.4-1.4,0.4-2.1
			c0-0.5-0.1-0.8-0.4-1.1c-0.2-0.3-0.6-0.4-1-0.4c-0.5,0-0.9,0.2-1.3,0.6c-0.4,0.4-0.7,0.9-0.9,1.6s-0.3,1.4-0.3,2.1
			c0,0.5,0.1,0.9,0.3,1.2C-37,124-36.7,124.2-36.3,124.2z"/>
		<path class="st4" d="M-31.1,124.5c0-0.4,0.1-0.6,0.3-0.9c0.2-0.2,0.5-0.3,0.8-0.3c0.2,0,0.4,0.1,0.5,0.2c0.1,0.1,0.2,0.3,0.2,0.6
			c0,0.3-0.1,0.6-0.3,0.8c-0.2,0.2-0.4,0.3-0.8,0.3c-0.2,0-0.4-0.1-0.5-0.2S-31.1,124.8-31.1,124.5z"/>
	</g>
</g>
<g>
	<g>
		<path class="st4" d="M-272.5,217.1l4.5-8.3h2l-2.1,10.2h-1.3l1.3-6c0.3-1.3,0.5-2.3,0.7-2.9h0l-4.9,8.9h-1l-1.1-8.9h-0.1
			c-0.1,0.7-0.2,1.7-0.5,2.8l-1.3,6.1h-1.2l2.2-10.2h1.8L-272.5,217.1L-272.5,217.1z"/>
		<path class="st4" d="M-258.7,214.2c0,0.9-0.2,1.7-0.5,2.5s-0.8,1.4-1.4,1.8c-0.6,0.4-1.2,0.6-2,0.6c-0.9,0-1.6-0.3-2.1-0.8
			s-0.8-1.2-0.8-2.1c0-0.9,0.2-1.7,0.5-2.5s0.8-1.4,1.4-1.8s1.2-0.6,1.9-0.6c0.9,0,1.6,0.3,2.1,0.8
			C-258.9,212.5-258.7,213.2-258.7,214.2z M-260,214c0-0.5-0.1-1-0.4-1.3c-0.3-0.3-0.7-0.5-1.1-0.5c-0.5,0-0.9,0.2-1.3,0.5
			c-0.4,0.3-0.7,0.8-0.9,1.4c-0.2,0.6-0.3,1.3-0.3,2c0,0.6,0.1,1.1,0.4,1.4s0.7,0.5,1.2,0.5c0.5,0,0.9-0.2,1.3-0.5
			c0.4-0.3,0.7-0.8,0.9-1.4C-260.1,215.5-260,214.8-260,214z"/>
		<path class="st4" d="M-256.4,218.9h-1.3l2.3-10.8h1.3L-256.4,218.9z"/>
		<path class="st4" d="M-251.5,218.1c0.3,0,0.6-0.1,1-0.2v1c-0.1,0.1-0.3,0.1-0.6,0.2c-0.2,0.1-0.5,0.1-0.6,0.1
			c-0.6,0-1-0.1-1.4-0.4c-0.3-0.3-0.5-0.7-0.5-1.2c0-0.3,0-0.6,0.1-1l0.9-4.2h-1.2l0.1-0.6l1.3-0.5l0.9-1.6h0.7l-0.4,1.7h1.9l-0.2,1
			h-1.9l-0.9,4.2c-0.1,0.4-0.1,0.7-0.1,0.8c0,0.2,0.1,0.4,0.2,0.6C-252,218-251.8,218.1-251.5,218.1z"/>
		<path class="st4" d="M-242,219.1c-0.4,0-0.8-0.1-1.2-0.3s-0.6-0.6-0.8-1h-0.1l-0.5,1.2h-0.9l2.3-10.8h1.3l-0.5,2.6
			c-0.1,0.4-0.2,0.8-0.3,1.3c-0.1,0.4-0.2,0.7-0.2,0.8h0.1c0.5-0.6,0.9-1,1.3-1.2c0.4-0.2,0.8-0.3,1.2-0.3c0.7,0,1.2,0.2,1.5,0.7
			c0.4,0.5,0.6,1.1,0.6,1.9c0,1-0.2,1.9-0.5,2.7s-0.8,1.5-1.3,1.9C-240.7,218.8-241.3,219.1-242,219.1z M-240.8,212.2
			c-0.4,0-0.9,0.2-1.3,0.7c-0.4,0.4-0.8,1-1.1,1.7s-0.4,1.3-0.4,2c0,0.5,0.1,0.9,0.4,1.1s0.6,0.4,1.1,0.4c0.5,0,0.9-0.2,1.3-0.6
			c0.4-0.4,0.7-0.9,0.9-1.6c0.2-0.7,0.3-1.4,0.3-2.1C-239.6,212.7-240,212.2-240.8,212.2z"/>
		<path class="st4" d="M-230.2,214.2c0,0.9-0.2,1.7-0.5,2.5s-0.8,1.4-1.4,1.8c-0.6,0.4-1.2,0.6-2,0.6c-0.9,0-1.6-0.3-2.1-0.8
			s-0.8-1.2-0.8-2.1c0-0.9,0.2-1.7,0.5-2.5s0.8-1.4,1.4-1.8s1.2-0.6,1.9-0.6c0.9,0,1.6,0.3,2.1,0.8
			C-230.5,212.5-230.2,213.2-230.2,214.2z M-231.5,214c0-0.5-0.1-1-0.4-1.3c-0.3-0.3-0.7-0.5-1.1-0.5c-0.5,0-0.9,0.2-1.3,0.5
			c-0.4,0.3-0.7,0.8-0.9,1.4c-0.2,0.6-0.3,1.3-0.3,2c0,0.6,0.1,1.1,0.4,1.4s0.7,0.5,1.2,0.5c0.5,0,0.9-0.2,1.3-0.5
			c0.4-0.3,0.7-0.8,0.9-1.4C-231.6,215.5-231.5,214.8-231.5,214z"/>
		<path class="st4" d="M-223.3,218.9h-1.3l1-4.8c0.1-0.5,0.1-0.8,0.1-1c0-0.3-0.1-0.5-0.2-0.7c-0.2-0.2-0.4-0.3-0.8-0.3
			c-0.4,0-0.8,0.1-1.2,0.4c-0.4,0.3-0.7,0.7-1,1.2c-0.3,0.5-0.5,1.1-0.7,1.8l-0.7,3.3h-1.3l1.6-7.7h1l-0.2,1.4h0.1
			c0.3-0.4,0.6-0.7,0.8-0.9s0.5-0.4,0.8-0.5c0.3-0.1,0.6-0.2,0.9-0.2c0.6,0,1.1,0.2,1.4,0.5c0.3,0.3,0.5,0.8,0.5,1.4
			c0,0.4-0.1,0.8-0.2,1.3L-223.3,218.9z"/>
		<path class="st4" d="M-212.1,211.2c0.7,0,1.2,0.2,1.5,0.7c0.4,0.5,0.5,1.1,0.5,1.9c0,1-0.2,1.9-0.5,2.7c-0.3,0.8-0.8,1.5-1.3,1.9
			c-0.6,0.5-1.2,0.7-1.9,0.7c-0.9,0-1.5-0.4-2-1.3h-0.1c-0.1,0.6-0.1,1.1-0.2,1.3l-0.7,3.3h-1.2l2.3-11.1h1l-0.2,1.4h0.1
			c0.4-0.5,0.9-0.9,1.3-1.2C-213,211.3-212.5,211.2-212.1,211.2z M-212.5,212.2c-0.4,0-0.9,0.2-1.3,0.6c-0.4,0.4-0.8,1-1.1,1.6
			s-0.4,1.3-0.4,2c0,0.5,0.1,0.9,0.4,1.1s0.6,0.4,1.1,0.4c0.5,0,0.9-0.2,1.3-0.6c0.4-0.4,0.7-0.9,0.9-1.6c0.2-0.7,0.3-1.4,0.3-2.1
			C-211.3,212.7-211.7,212.2-212.5,212.2z"/>
		<path class="st4" d="M-204,211.2c0.3,0,0.6,0,0.8,0.1l-0.3,1.1c-0.3-0.1-0.5-0.1-0.7-0.1c-0.4,0-0.8,0.1-1.2,0.4
			c-0.4,0.3-0.7,0.7-1,1.1c-0.3,0.5-0.5,1-0.6,1.6l-0.7,3.5h-1.3l1.6-7.7h1l-0.2,1.4h0.1c0.3-0.4,0.6-0.8,0.8-1s0.4-0.3,0.7-0.4
			C-204.6,211.2-204.3,211.2-204,211.2z"/>
		<path class="st4" d="M-195.9,214.2c0,0.9-0.2,1.7-0.5,2.5s-0.8,1.4-1.4,1.8c-0.6,0.4-1.2,0.6-2,0.6c-0.9,0-1.6-0.3-2.1-0.8
			s-0.8-1.2-0.8-2.1c0-0.9,0.2-1.7,0.5-2.5s0.8-1.4,1.4-1.8s1.2-0.6,1.9-0.6c0.9,0,1.6,0.3,2.1,0.8
			C-196.2,212.5-195.9,213.2-195.9,214.2z M-197.2,214c0-0.5-0.1-1-0.4-1.3c-0.3-0.3-0.7-0.5-1.1-0.5c-0.5,0-0.9,0.2-1.3,0.5
			c-0.4,0.3-0.7,0.8-0.9,1.4c-0.2,0.6-0.3,1.3-0.3,2c0,0.6,0.1,1.1,0.4,1.4s0.7,0.5,1.2,0.5c0.5,0,0.9-0.2,1.3-0.5
			c0.4-0.3,0.7-0.8,0.9-1.4C-197.3,215.5-197.2,214.8-197.2,214z"/>
		<path class="st4" d="M-196,222.4c-0.3,0-0.6,0-0.9-0.1v-1.1c0.3,0.1,0.6,0.2,0.8,0.2c0.3,0,0.6-0.1,0.8-0.4s0.4-0.7,0.5-1.2
			l1.6-7.5h-1.3l0.1-0.5l1.4-0.5l0.2-0.7c0.2-0.9,0.5-1.6,0.9-2c0.4-0.4,1-0.6,1.7-0.6c0.5,0,0.9,0.1,1.3,0.3l-0.3,1
			c-0.3-0.1-0.7-0.2-1-0.2c-0.4,0-0.7,0.1-0.9,0.3c-0.2,0.2-0.4,0.6-0.5,1.2l-0.2,0.7h1.6l-0.2,1h-1.6l-1.6,7.6
			c-0.2,0.9-0.5,1.5-0.9,1.9C-194.8,222.2-195.3,222.4-196,222.4z"/>
		<path class="st4" d="M-187.3,219.1c-0.9,0-1.5-0.3-2-0.8c-0.5-0.5-0.7-1.2-0.7-2.1c0-0.9,0.2-1.7,0.5-2.5c0.3-0.8,0.8-1.4,1.4-1.9
			c0.6-0.5,1.2-0.7,1.9-0.7c0.7,0,1.3,0.2,1.6,0.5s0.6,0.8,0.6,1.3c0,0.8-0.4,1.5-1.2,2s-1.9,0.7-3.3,0.7h-0.2l0,0.5
			c0,0.6,0.1,1,0.4,1.4c0.3,0.3,0.7,0.5,1.3,0.5c0.4,0,0.7-0.1,1-0.2c0.3-0.1,0.7-0.2,1.1-0.4v1.1c-0.5,0.2-0.9,0.4-1.2,0.4
			S-186.9,219.1-187.3,219.1z M-186.3,212.2c-0.5,0-0.9,0.2-1.4,0.7s-0.7,1-0.9,1.8h0.1c1,0,1.8-0.1,2.4-0.4s0.8-0.7,0.8-1.2
			c0-0.2-0.1-0.4-0.2-0.6C-185.7,212.3-185.9,212.2-186.3,212.2z"/>
		<path class="st4" d="M-178.4,216.7c0,0.7-0.3,1.3-0.8,1.7c-0.5,0.4-1.2,0.6-2.2,0.6c-0.8,0-1.5-0.2-2.1-0.5v-1.2
			c0.3,0.2,0.6,0.3,1,0.4c0.4,0.1,0.7,0.2,1.1,0.2c0.6,0,1-0.1,1.3-0.3c0.3-0.2,0.4-0.5,0.4-0.9c0-0.3-0.1-0.5-0.2-0.7
			s-0.5-0.4-1-0.7c-0.6-0.3-1-0.7-1.3-1c-0.2-0.3-0.4-0.7-0.4-1.2c0-0.7,0.2-1.2,0.7-1.6s1.1-0.6,1.9-0.6c0.8,0,1.6,0.2,2.3,0.5
			l-0.4,1c-0.2-0.1-0.5-0.2-0.8-0.3s-0.7-0.2-1.1-0.2c-0.4,0-0.7,0.1-1,0.3s-0.4,0.4-0.4,0.8c0,0.3,0.1,0.5,0.3,0.7
			c0.2,0.2,0.5,0.4,1,0.7c0.5,0.3,0.9,0.6,1.1,0.8c0.2,0.2,0.3,0.4,0.5,0.6S-178.4,216.4-178.4,216.7z"/>
		<path class="st4" d="M-172.3,216.7c0,0.7-0.3,1.3-0.8,1.7c-0.5,0.4-1.2,0.6-2.2,0.6c-0.8,0-1.5-0.2-2.1-0.5v-1.2
			c0.3,0.2,0.6,0.3,1,0.4c0.4,0.1,0.7,0.2,1.1,0.2c0.6,0,1-0.1,1.3-0.3c0.3-0.2,0.4-0.5,0.4-0.9c0-0.3-0.1-0.5-0.2-0.7
			s-0.5-0.4-1-0.7c-0.6-0.3-1-0.7-1.3-1c-0.2-0.3-0.4-0.7-0.4-1.2c0-0.7,0.2-1.2,0.7-1.6s1.1-0.6,1.9-0.6c0.8,0,1.6,0.2,2.3,0.5
			l-0.4,1c-0.2-0.1-0.5-0.2-0.8-0.3s-0.7-0.2-1.1-0.2c-0.4,0-0.7,0.1-1,0.3s-0.4,0.4-0.4,0.8c0,0.3,0.1,0.5,0.3,0.7
			c0.2,0.2,0.5,0.4,1,0.7c0.5,0.3,0.9,0.6,1.1,0.8c0.2,0.2,0.3,0.4,0.5,0.6S-172.3,216.4-172.3,216.7z"/>
		<path class="st4" d="M-163.9,214.2c0,0.9-0.2,1.7-0.5,2.5c-0.3,0.8-0.8,1.4-1.4,1.8c-0.6,0.4-1.2,0.6-2,0.6
			c-0.9,0-1.6-0.3-2.1-0.8c-0.5-0.5-0.8-1.2-0.8-2.1c0-0.9,0.2-1.7,0.5-2.5s0.8-1.4,1.4-1.8c0.6-0.4,1.2-0.6,1.9-0.6
			c0.9,0,1.6,0.3,2.1,0.8S-163.9,213.2-163.9,214.2z M-165.2,214c0-0.5-0.1-1-0.4-1.3c-0.3-0.3-0.7-0.5-1.1-0.5
			c-0.5,0-0.9,0.2-1.3,0.5c-0.4,0.3-0.7,0.8-0.9,1.4c-0.2,0.6-0.3,1.3-0.3,2c0,0.6,0.1,1.1,0.4,1.4s0.7,0.5,1.2,0.5
			c0.5,0,0.9-0.2,1.3-0.5c0.4-0.3,0.7-0.8,0.9-1.4C-165.3,215.5-165.2,214.8-165.2,214z"/>
		<path class="st4" d="M-157.9,211.2c0.3,0,0.6,0,0.8,0.1l-0.3,1.1c-0.3-0.1-0.5-0.1-0.7-0.1c-0.4,0-0.8,0.1-1.2,0.4
			c-0.4,0.3-0.7,0.7-1,1.1c-0.3,0.5-0.5,1-0.6,1.6l-0.7,3.5h-1.3l1.6-7.7h1l-0.2,1.4h0.1c0.3-0.4,0.6-0.8,0.8-1
			c0.2-0.2,0.4-0.3,0.7-0.4C-158.5,211.2-158.2,211.2-157.9,211.2z"/>
		<path class="st4" d="M-155.4,217.3l0.1,0.2c-0.5,1-1.1,2.1-1.9,3.3h-1c0.4-1,0.9-2.1,1.4-3.5H-155.4z"/>
		<path class="st4" d="M-144.9,211.2c0.3,0,0.6,0,0.8,0.1l-0.3,1.1c-0.3-0.1-0.5-0.1-0.7-0.1c-0.4,0-0.8,0.1-1.2,0.4
			c-0.4,0.3-0.7,0.7-1,1.1c-0.3,0.5-0.5,1-0.6,1.6l-0.7,3.5h-1.3l1.6-7.7h1l-0.2,1.4h0.1c0.3-0.4,0.6-0.8,0.8-1
			c0.2-0.2,0.4-0.3,0.7-0.4C-145.5,211.2-145.2,211.2-144.9,211.2z"/>
		<path class="st4" d="M-140.7,219.1c-0.9,0-1.5-0.3-2-0.8c-0.5-0.5-0.7-1.2-0.7-2.1c0-0.9,0.2-1.7,0.5-2.5c0.3-0.8,0.8-1.4,1.4-1.9
			c0.6-0.5,1.2-0.7,1.9-0.7c0.7,0,1.3,0.2,1.6,0.5s0.6,0.8,0.6,1.3c0,0.8-0.4,1.5-1.2,2s-1.9,0.7-3.3,0.7h-0.2l0,0.5
			c0,0.6,0.1,1,0.4,1.4c0.3,0.3,0.7,0.5,1.3,0.5c0.4,0,0.7-0.1,1-0.2c0.3-0.1,0.7-0.2,1.1-0.4v1.1c-0.5,0.2-0.9,0.4-1.2,0.4
			S-140.3,219.1-140.7,219.1z M-139.7,212.2c-0.5,0-0.9,0.2-1.4,0.7s-0.7,1-0.9,1.8h0.1c1,0,1.8-0.1,2.4-0.4s0.8-0.7,0.8-1.2
			c0-0.2-0.1-0.4-0.2-0.6C-139.1,212.3-139.4,212.2-139.7,212.2z"/>
		<path class="st4" d="M-133.5,219.1c-0.9,0-1.6-0.2-2.1-0.7c-0.5-0.5-0.7-1.2-0.7-2.1c0-0.9,0.2-1.8,0.5-2.6
			c0.3-0.8,0.8-1.4,1.4-1.8c0.6-0.4,1.3-0.7,2.1-0.7c0.7,0,1.3,0.1,1.9,0.4l-0.4,1c-0.5-0.2-1-0.4-1.5-0.4c-0.5,0-1,0.2-1.4,0.5
			c-0.4,0.4-0.7,0.8-1,1.5s-0.3,1.3-0.3,2c0,0.6,0.1,1,0.4,1.3c0.3,0.3,0.7,0.5,1.2,0.5c0.3,0,0.7,0,1-0.1c0.3-0.1,0.6-0.2,0.9-0.3
			v1.1C-132.2,218.9-132.8,219.1-133.5,219.1z"/>
		<path class="st4" d="M-123.2,214.2c0,0.9-0.2,1.7-0.5,2.5c-0.3,0.8-0.8,1.4-1.4,1.8c-0.6,0.4-1.2,0.6-2,0.6
			c-0.9,0-1.6-0.3-2.1-0.8c-0.5-0.5-0.8-1.2-0.8-2.1c0-0.9,0.2-1.7,0.5-2.5s0.8-1.4,1.4-1.8c0.6-0.4,1.2-0.6,1.9-0.6
			c0.9,0,1.6,0.3,2.1,0.8S-123.2,213.2-123.2,214.2z M-124.5,214c0-0.5-0.1-1-0.4-1.3c-0.3-0.3-0.7-0.5-1.1-0.5
			c-0.5,0-0.9,0.2-1.3,0.5c-0.4,0.3-0.7,0.8-0.9,1.4c-0.2,0.6-0.3,1.3-0.3,2c0,0.6,0.1,1.1,0.4,1.4s0.7,0.5,1.2,0.5
			c0.5,0,0.9-0.2,1.3-0.5c0.4-0.3,0.7-0.8,0.9-1.4C-124.6,215.5-124.5,214.8-124.5,214z"/>
		<path class="st4" d="M-117.1,211.2c0.5,0,0.9,0.1,1.2,0.5c0.3,0.3,0.5,0.7,0.5,1.2h0.1c0.8-1.1,1.7-1.7,2.6-1.7
			c0.6,0,1.1,0.2,1.4,0.5c0.3,0.3,0.5,0.8,0.5,1.4c0,0.4-0.1,0.8-0.2,1.3l-1,4.7h-1.3l1-4.8c0.1-0.4,0.1-0.8,0.1-1
			c0-0.3-0.1-0.5-0.2-0.7c-0.2-0.2-0.4-0.3-0.7-0.3c-0.4,0-0.7,0.1-1.1,0.4c-0.4,0.3-0.7,0.6-0.9,1.1s-0.5,1.1-0.6,1.7l-0.7,3.5
			h-1.3l1-4.8c0.1-0.4,0.1-0.8,0.1-0.9c0-0.7-0.3-1-0.9-1c-0.4,0-0.8,0.1-1.1,0.4c-0.4,0.3-0.7,0.7-1,1.2c-0.3,0.5-0.5,1.1-0.6,1.8
			l-0.7,3.3h-1.3l1.6-7.7h1l-0.2,1.4h0.1c0.3-0.4,0.6-0.7,0.8-0.9c0.2-0.2,0.5-0.3,0.8-0.5S-117.4,211.2-117.1,211.2z"/>
		<path class="st4" d="M-107.3,219.1c-0.6,0-1.1-0.2-1.5-0.7c-0.4-0.5-0.6-1.1-0.6-1.9c0-1,0.2-1.8,0.5-2.7c0.3-0.8,0.8-1.5,1.4-1.9
			s1.2-0.7,1.9-0.7c0.4,0,0.8,0.1,1.1,0.3c0.3,0.2,0.6,0.6,0.8,1h0.1l0.5-1.2h1l-1.6,7.7h-1l0.2-1.4h-0.1
			C-105.5,218.6-106.4,219.1-107.3,219.1z M-106.9,218c0.4,0,0.9-0.2,1.3-0.6c0.4-0.4,0.8-1,1.1-1.6s0.4-1.4,0.4-2.1
			c0-0.5-0.1-0.8-0.4-1.1c-0.2-0.3-0.6-0.4-1-0.4c-0.5,0-0.9,0.2-1.3,0.6c-0.4,0.4-0.7,0.9-0.9,1.6c-0.2,0.7-0.3,1.4-0.3,2.1
			c0,0.5,0.1,0.9,0.3,1.2C-107.6,217.9-107.3,218-106.9,218z"/>
		<path class="st4" d="M-95.7,218.9h-1.3l1-4.8c0.1-0.5,0.1-0.8,0.1-1c0-0.3-0.1-0.5-0.2-0.7c-0.2-0.2-0.4-0.3-0.8-0.3
			c-0.4,0-0.8,0.1-1.2,0.4c-0.4,0.3-0.7,0.7-1,1.2c-0.3,0.5-0.5,1.1-0.7,1.8l-0.7,3.3h-1.3l1.6-7.7h1l-0.2,1.4h0.1
			c0.3-0.4,0.6-0.7,0.8-0.9c0.2-0.2,0.5-0.4,0.8-0.5c0.3-0.1,0.6-0.2,0.9-0.2c0.6,0,1.1,0.2,1.4,0.5c0.3,0.3,0.5,0.8,0.5,1.4
			c0,0.4-0.1,0.8-0.2,1.3L-95.7,218.9z"/>
		<path class="st4" d="M-86.3,214.2c0,0.9-0.2,1.7-0.5,2.5c-0.3,0.8-0.8,1.4-1.4,1.8c-0.6,0.4-1.2,0.6-2,0.6c-0.9,0-1.6-0.3-2.1-0.8
			c-0.5-0.5-0.8-1.2-0.8-2.1c0-0.9,0.2-1.7,0.5-2.5s0.8-1.4,1.4-1.8c0.6-0.4,1.2-0.6,1.9-0.6c0.9,0,1.6,0.3,2.1,0.8
			S-86.3,213.2-86.3,214.2z M-87.6,214c0-0.5-0.1-1-0.4-1.3c-0.3-0.3-0.7-0.5-1.1-0.5c-0.5,0-0.9,0.2-1.3,0.5
			c-0.4,0.3-0.7,0.8-0.9,1.4c-0.2,0.6-0.3,1.3-0.3,2c0,0.6,0.1,1.1,0.4,1.4s0.7,0.5,1.2,0.5c0.5,0,0.9-0.2,1.3-0.5
			c0.4-0.3,0.7-0.8,0.9-1.4C-87.7,215.5-87.6,214.8-87.6,214z"/>
		<path class="st4" d="M-79.2,219.1c-0.6,0-1.1-0.2-1.5-0.7c-0.4-0.5-0.6-1.1-0.6-1.9c0-1,0.2-1.8,0.5-2.7c0.3-0.8,0.8-1.5,1.4-1.9
			s1.2-0.7,1.9-0.7c0.4,0,0.8,0.1,1.1,0.3c0.3,0.2,0.6,0.6,0.8,1h0.1l0.5-1.2h1l-1.6,7.7h-1l0.2-1.4h-0.1
			C-77.4,218.6-78.3,219.1-79.2,219.1z M-78.8,218c0.4,0,0.9-0.2,1.3-0.6c0.4-0.4,0.8-1,1.1-1.6s0.4-1.4,0.4-2.1
			c0-0.5-0.1-0.8-0.4-1.1c-0.2-0.3-0.6-0.4-1-0.4c-0.5,0-0.9,0.2-1.3,0.6c-0.4,0.4-0.7,0.9-0.9,1.6c-0.2,0.7-0.3,1.4-0.3,2.1
			c0,0.5,0.1,0.9,0.3,1.2C-79.5,217.9-79.2,218-78.8,218z"/>
		<path class="st4" d="M-71.1,219.1c-0.7,0-1.2-0.2-1.5-0.7s-0.6-1.1-0.6-1.9c0-1,0.2-1.9,0.5-2.7c0.3-0.8,0.8-1.5,1.3-1.9
			c0.6-0.5,1.2-0.7,1.9-0.7c0.4,0,0.8,0.1,1.1,0.3c0.3,0.2,0.6,0.6,0.8,1h0.1l0.5-1.2h0.9l-2.4,11.1h-1.2l0.7-3.3
			c0.1-0.5,0.2-1,0.4-1.6h-0.1c-0.4,0.5-0.8,0.9-1.3,1.2S-70.7,219.1-71.1,219.1z M-70.7,218c0.4,0,0.8-0.2,1.3-0.6
			c0.4-0.4,0.8-1,1.1-1.6c0.3-0.7,0.4-1.4,0.4-2c0-0.5-0.1-0.9-0.4-1.1s-0.6-0.4-1-0.4c-0.5,0-0.9,0.2-1.3,0.6
			c-0.4,0.4-0.7,0.9-0.9,1.6c-0.2,0.7-0.4,1.4-0.4,2.2C-71.9,217.5-71.5,218-70.7,218z"/>
		<path class="st4" d="M-63.6,211.3h1.3l-1,4.8c-0.1,0.4-0.1,0.7-0.1,1c0,0.7,0.3,1,1,1c0.4,0,0.8-0.1,1.2-0.4
			c0.4-0.3,0.7-0.7,1-1.2c0.3-0.5,0.5-1.1,0.7-1.9l0.7-3.3h1.2l-1.6,7.7h-1l0.2-1.4h-0.1c-0.4,0.5-0.8,0.9-1.3,1.2
			c-0.4,0.2-0.9,0.4-1.3,0.4c-0.6,0-1.1-0.2-1.4-0.5s-0.5-0.8-0.5-1.4c0-0.3,0.1-0.7,0.2-1.2L-63.6,211.3z"/>
		<path class="st4" d="M-53.9,219.1c-0.9,0-1.5-0.3-2-0.8c-0.5-0.5-0.7-1.2-0.7-2.1c0-0.9,0.2-1.7,0.5-2.5c0.3-0.8,0.8-1.4,1.4-1.9
			c0.6-0.5,1.2-0.7,1.9-0.7c0.7,0,1.3,0.2,1.6,0.5s0.6,0.8,0.6,1.3c0,0.8-0.4,1.5-1.2,2s-1.9,0.7-3.3,0.7h-0.2l0,0.5
			c0,0.6,0.1,1,0.4,1.4c0.3,0.3,0.7,0.5,1.3,0.5c0.4,0,0.7-0.1,1-0.2c0.3-0.1,0.7-0.2,1.1-0.4v1.1c-0.5,0.2-0.9,0.4-1.2,0.4
			S-53.5,219.1-53.9,219.1z M-52.9,212.2c-0.5,0-0.9,0.2-1.4,0.7s-0.7,1-0.9,1.8h0.1c1,0,1.8-0.1,2.4-0.4s0.8-0.7,0.8-1.2
			c0-0.2-0.1-0.4-0.2-0.6C-52.3,212.3-52.5,212.2-52.9,212.2z"/>
		<path class="st4" d="M-45,216.7c0,0.7-0.3,1.3-0.8,1.7c-0.5,0.4-1.2,0.6-2.2,0.6c-0.8,0-1.5-0.2-2.1-0.5v-1.2
			c0.3,0.2,0.6,0.3,1,0.4c0.4,0.1,0.7,0.2,1.1,0.2c0.6,0,1-0.1,1.3-0.3c0.3-0.2,0.4-0.5,0.4-0.9c0-0.3-0.1-0.5-0.2-0.7
			s-0.5-0.4-1-0.7c-0.6-0.3-1-0.7-1.3-1c-0.2-0.3-0.4-0.7-0.4-1.2c0-0.7,0.2-1.2,0.7-1.6s1.1-0.6,1.9-0.6c0.8,0,1.6,0.2,2.3,0.5
			l-0.4,1c-0.2-0.1-0.5-0.2-0.8-0.3s-0.7-0.2-1.1-0.2c-0.4,0-0.7,0.1-1,0.3s-0.4,0.4-0.4,0.8c0,0.3,0.1,0.5,0.3,0.7
			c0.2,0.2,0.5,0.4,1,0.7c0.5,0.3,0.9,0.6,1.1,0.8c0.2,0.2,0.3,0.4,0.5,0.6S-45,216.4-45,216.7z"/>
		<path class="st4" d="M-41.2,218.1c0.3,0,0.6-0.1,1-0.2v1c-0.1,0.1-0.3,0.1-0.6,0.2c-0.2,0.1-0.5,0.1-0.6,0.1c-0.6,0-1-0.1-1.4-0.4
			c-0.3-0.3-0.5-0.7-0.5-1.2c0-0.3,0-0.6,0.1-1l0.9-4.2h-1.2l0.1-0.6l1.3-0.5l0.9-1.6h0.7l-0.4,1.7h1.9l-0.2,1H-41l-0.9,4.2
			c-0.1,0.4-0.1,0.7-0.1,0.8c0,0.2,0.1,0.4,0.2,0.6S-41.5,218.1-41.2,218.1z"/>
		<path class="st4" d="M-36.5,219.1c-0.6,0-1.1-0.2-1.5-0.7c-0.4-0.5-0.6-1.1-0.6-1.9c0-1,0.2-1.8,0.5-2.7c0.3-0.8,0.8-1.5,1.4-1.9
			s1.2-0.7,1.9-0.7c0.4,0,0.8,0.1,1.1,0.3c0.3,0.2,0.6,0.6,0.8,1h0.1l0.5-1.2h1l-1.6,7.7h-1l0.2-1.4h-0.1
			C-34.7,218.6-35.6,219.1-36.5,219.1z M-36.1,218c0.4,0,0.9-0.2,1.3-0.6c0.4-0.4,0.8-1,1.1-1.6s0.4-1.4,0.4-2.1
			c0-0.5-0.1-0.8-0.4-1.1c-0.2-0.3-0.6-0.4-1-0.4c-0.5,0-0.9,0.2-1.3,0.6c-0.4,0.4-0.7,0.9-0.9,1.6c-0.2,0.7-0.3,1.4-0.3,2.1
			c0,0.5,0.1,0.9,0.3,1.2C-36.8,217.9-36.5,218-36.1,218z"/>
		<path class="st4" d="M-274.5,236.2c-0.9,0-1.6-0.2-2.1-0.7c-0.5-0.5-0.7-1.2-0.7-2.1c0-0.9,0.2-1.8,0.5-2.6
			c0.3-0.8,0.8-1.4,1.4-1.8s1.3-0.7,2.1-0.7c0.7,0,1.3,0.1,1.9,0.4l-0.4,1c-0.5-0.2-1-0.4-1.5-0.4c-0.5,0-1,0.2-1.4,0.5
			c-0.4,0.4-0.7,0.8-1,1.5c-0.2,0.6-0.3,1.3-0.3,2c0,0.6,0.1,1,0.4,1.3s0.7,0.5,1.2,0.5c0.3,0,0.7,0,1-0.1c0.3-0.1,0.6-0.2,0.9-0.3
			v1.1C-273.1,236.1-273.8,236.2-274.5,236.2z"/>
		<path class="st4" d="M-269.9,236.1h-1.3l2.3-10.8h1.3L-269.9,236.1z"/>
		<path class="st4" d="M-265.1,236.2c-0.6,0-1.1-0.2-1.5-0.7c-0.4-0.5-0.6-1.1-0.6-1.9c0-1,0.2-1.8,0.5-2.7c0.3-0.8,0.8-1.5,1.4-1.9
			c0.6-0.5,1.2-0.7,1.9-0.7c0.4,0,0.8,0.1,1.1,0.3c0.3,0.2,0.6,0.6,0.8,1h0.1l0.5-1.2h1l-1.6,7.7h-1l0.2-1.4h-0.1
			C-263.3,235.7-264.2,236.2-265.1,236.2z M-264.7,235.2c0.4,0,0.9-0.2,1.3-0.6s0.8-1,1.1-1.6c0.3-0.7,0.4-1.4,0.4-2.1
			c0-0.5-0.1-0.8-0.4-1.1c-0.3-0.3-0.6-0.4-1-0.4c-0.5,0-0.9,0.2-1.3,0.6s-0.7,0.9-0.9,1.6s-0.3,1.4-0.3,2.1c0,0.5,0.1,0.9,0.3,1.2
			S-265.1,235.2-264.7,235.2z"/>
		<path class="st4" d="M-254.6,233.9c0,0.7-0.3,1.3-0.8,1.7c-0.5,0.4-1.2,0.6-2.2,0.6c-0.8,0-1.5-0.2-2.1-0.5v-1.2
			c0.3,0.2,0.6,0.3,1,0.4c0.4,0.1,0.7,0.2,1.1,0.2c0.6,0,1-0.1,1.3-0.3c0.3-0.2,0.4-0.5,0.4-0.9c0-0.3-0.1-0.5-0.2-0.7
			c-0.2-0.2-0.5-0.4-1-0.7c-0.6-0.3-1-0.7-1.3-1s-0.4-0.7-0.4-1.2c0-0.7,0.2-1.2,0.7-1.6c0.5-0.4,1.1-0.6,1.9-0.6
			c0.8,0,1.6,0.2,2.3,0.5l-0.4,1c-0.2-0.1-0.5-0.2-0.8-0.3c-0.3-0.1-0.7-0.1-1.1-0.1c-0.4,0-0.7,0.1-1,0.3c-0.2,0.2-0.4,0.4-0.4,0.8
			c0,0.3,0.1,0.5,0.3,0.7c0.2,0.2,0.5,0.4,1,0.7c0.5,0.3,0.9,0.6,1.1,0.8c0.2,0.2,0.3,0.4,0.5,0.6
			C-254.7,233.3-254.6,233.6-254.6,233.9z"/>
		<path class="st4" d="M-248.4,233.9c0,0.7-0.3,1.3-0.8,1.7c-0.5,0.4-1.2,0.6-2.2,0.6c-0.8,0-1.5-0.2-2.1-0.5v-1.2
			c0.3,0.2,0.6,0.3,1,0.4c0.4,0.1,0.7,0.2,1.1,0.2c0.6,0,1-0.1,1.3-0.3c0.3-0.2,0.4-0.5,0.4-0.9c0-0.3-0.1-0.5-0.2-0.7
			c-0.2-0.2-0.5-0.4-1-0.7c-0.6-0.3-1-0.7-1.3-1s-0.4-0.7-0.4-1.2c0-0.7,0.2-1.2,0.7-1.6c0.5-0.4,1.1-0.6,1.9-0.6
			c0.8,0,1.6,0.2,2.3,0.5l-0.4,1c-0.2-0.1-0.5-0.2-0.8-0.3c-0.3-0.1-0.7-0.1-1.1-0.1c-0.4,0-0.7,0.1-1,0.3c-0.2,0.2-0.4,0.4-0.4,0.8
			c0,0.3,0.1,0.5,0.3,0.7c0.2,0.2,0.5,0.4,1,0.7c0.5,0.3,0.9,0.6,1.1,0.8c0.2,0.2,0.3,0.4,0.5,0.6
			C-248.5,233.3-248.4,233.6-248.4,233.9z"/>
		<path class="st4" d="M-244,236.2c-0.9,0-1.5-0.3-2-0.8c-0.5-0.5-0.7-1.2-0.7-2.1c0-0.9,0.2-1.7,0.5-2.5c0.3-0.8,0.8-1.4,1.4-1.9
			c0.6-0.5,1.2-0.7,1.9-0.7c0.7,0,1.3,0.2,1.6,0.5c0.4,0.3,0.6,0.8,0.6,1.3c0,0.8-0.4,1.5-1.2,2c-0.8,0.5-1.9,0.7-3.3,0.7h-0.2
			l0,0.5c0,0.6,0.1,1,0.4,1.4c0.3,0.3,0.7,0.5,1.3,0.5c0.4,0,0.7-0.1,1-0.2c0.3-0.1,0.7-0.2,1.1-0.4v1.1c-0.5,0.2-0.9,0.4-1.2,0.4
			C-243.2,236.2-243.6,236.2-244,236.2z M-243,229.3c-0.5,0-0.9,0.2-1.4,0.7s-0.7,1-0.9,1.8h0.1c1,0,1.8-0.1,2.4-0.4
			c0.6-0.3,0.8-0.7,0.8-1.2c0-0.2-0.1-0.4-0.3-0.6C-242.4,229.4-242.7,229.3-243,229.3z"/>
		<path class="st4" d="M-233.9,236.2c-0.6,0-1.1-0.2-1.5-0.7c-0.4-0.5-0.6-1.1-0.6-1.9c0-1,0.2-1.8,0.5-2.7c0.3-0.8,0.8-1.5,1.4-1.9
			c0.6-0.5,1.2-0.7,1.9-0.7c0.4,0,0.8,0.1,1.1,0.3c0.3,0.2,0.6,0.6,0.8,1h0.1l0.5-1.2h1l-1.6,7.7h-1l0.2-1.4h-0.1
			C-232.1,235.7-232.9,236.2-233.9,236.2z M-233.4,235.2c0.4,0,0.9-0.2,1.3-0.6s0.8-1,1.1-1.6c0.3-0.7,0.4-1.4,0.4-2.1
			c0-0.5-0.1-0.8-0.4-1.1c-0.3-0.3-0.6-0.4-1-0.4c-0.5,0-0.9,0.2-1.3,0.6s-0.7,0.9-0.9,1.6s-0.3,1.4-0.3,2.1c0,0.5,0.1,0.9,0.3,1.2
			S-233.8,235.2-233.4,235.2z"/>
		<path class="st4" d="M-222,235.2c0.3,0,0.6-0.1,1-0.2v1c-0.1,0.1-0.3,0.1-0.6,0.2c-0.2,0.1-0.5,0.1-0.6,0.1c-0.6,0-1-0.1-1.4-0.4
			c-0.3-0.3-0.5-0.7-0.5-1.2c0-0.3,0-0.6,0.1-1l0.9-4.2h-1.2l0.1-0.6l1.3-0.5l0.9-1.6h0.7l-0.4,1.7h1.9l-0.2,1h-1.9l-0.9,4.2
			c-0.1,0.4-0.1,0.7-0.1,0.8c0,0.2,0.1,0.4,0.2,0.6C-222.4,235.1-222.2,235.2-222,235.2z"/>
		<path class="st4" d="M-212.7,231.3c0,0.9-0.2,1.7-0.5,2.5c-0.3,0.8-0.8,1.4-1.4,1.8c-0.6,0.4-1.2,0.6-2,0.6
			c-0.9,0-1.6-0.3-2.1-0.8c-0.5-0.5-0.8-1.2-0.8-2.1c0-0.9,0.2-1.7,0.5-2.5c0.3-0.8,0.8-1.4,1.4-1.8s1.2-0.6,1.9-0.6
			c0.9,0,1.6,0.3,2.1,0.8C-213,229.6-212.7,230.4-212.7,231.3z M-214,231.1c0-0.5-0.1-1-0.4-1.3c-0.3-0.3-0.7-0.5-1.1-0.5
			c-0.5,0-0.9,0.2-1.3,0.5c-0.4,0.3-0.7,0.8-0.9,1.4c-0.2,0.6-0.3,1.3-0.3,2c0,0.6,0.1,1.1,0.4,1.4c0.3,0.3,0.7,0.5,1.2,0.5
			c0.5,0,0.9-0.2,1.3-0.5c0.4-0.3,0.7-0.8,0.9-1.4C-214.1,232.6-214,231.9-214,231.1z"/>
		<path class="st4" d="M-209.2,235.2c0.3,0,0.6-0.1,1-0.2v1c-0.1,0.1-0.3,0.1-0.6,0.2c-0.2,0.1-0.5,0.1-0.6,0.1
			c-0.6,0-1-0.1-1.4-0.4c-0.3-0.3-0.5-0.7-0.5-1.2c0-0.3,0-0.6,0.1-1l0.9-4.2h-1.2l0.1-0.6l1.3-0.5l0.9-1.6h0.7l-0.4,1.7h1.9l-0.2,1
			h-1.9l-0.9,4.2c-0.1,0.4-0.1,0.7-0.1,0.8c0,0.2,0.1,0.4,0.2,0.6C-209.7,235.1-209.5,235.2-209.2,235.2z"/>
		<path class="st4" d="M-201,236.1h-1.3l1-4.8c0.1-0.4,0.1-0.7,0.1-0.9c0-0.7-0.3-1-1-1c-0.4,0-0.8,0.1-1.2,0.4
			c-0.4,0.3-0.7,0.7-1,1.2c-0.3,0.5-0.5,1.1-0.7,1.8l-0.7,3.3h-1.3l2.3-10.8h1.3l-0.6,2.8c-0.1,0.3-0.1,0.6-0.2,0.9
			c-0.1,0.3-0.2,0.6-0.2,0.9h0.1c0.4-0.5,0.8-0.9,1.3-1.2c0.4-0.2,0.9-0.4,1.3-0.4c0.6,0,1.1,0.2,1.4,0.5c0.3,0.3,0.5,0.8,0.5,1.5
			c0,0.3-0.1,0.7-0.2,1.2L-201,236.1z"/>
		<path class="st4" d="M-191.7,231.3c0,0.9-0.2,1.7-0.5,2.5c-0.3,0.8-0.8,1.4-1.4,1.8c-0.6,0.4-1.2,0.6-2,0.6
			c-0.9,0-1.6-0.3-2.1-0.8c-0.5-0.5-0.8-1.2-0.8-2.1c0-0.9,0.2-1.7,0.5-2.5c0.3-0.8,0.8-1.4,1.4-1.8s1.2-0.6,1.9-0.6
			c0.9,0,1.6,0.3,2.1,0.8S-191.7,230.4-191.7,231.3z M-193,231.1c0-0.5-0.1-1-0.4-1.3c-0.3-0.3-0.7-0.5-1.1-0.5
			c-0.5,0-0.9,0.2-1.3,0.5c-0.4,0.3-0.7,0.8-0.9,1.4c-0.2,0.6-0.3,1.3-0.3,2c0,0.6,0.1,1.1,0.4,1.4c0.3,0.3,0.7,0.5,1.2,0.5
			c0.5,0,0.9-0.2,1.3-0.5c0.4-0.3,0.7-0.8,0.9-1.4C-193.1,232.6-193,231.9-193,231.1z"/>
		<path class="st4" d="M-185.6,228.3c0.5,0,0.9,0.2,1.2,0.4c0.3,0.3,0.5,0.7,0.5,1.3h0.1c0.8-1.1,1.7-1.7,2.6-1.7
			c0.6,0,1.1,0.2,1.4,0.5c0.3,0.3,0.5,0.8,0.5,1.4c0,0.4-0.1,0.8-0.2,1.3l-1,4.7h-1.3l1-4.8c0.1-0.4,0.1-0.8,0.1-1
			c0-0.3-0.1-0.5-0.2-0.7c-0.2-0.2-0.4-0.3-0.7-0.3c-0.4,0-0.7,0.1-1.1,0.4c-0.4,0.3-0.7,0.6-0.9,1.1c-0.3,0.5-0.5,1.1-0.6,1.7
			l-0.7,3.5h-1.3l1-4.8c0.1-0.4,0.1-0.8,0.1-0.9c0-0.7-0.3-1-0.9-1c-0.4,0-0.8,0.1-1.1,0.4c-0.4,0.3-0.7,0.7-1,1.2
			c-0.3,0.5-0.5,1.1-0.6,1.8l-0.7,3.3h-1.3l1.6-7.7h1l-0.2,1.4h0.1c0.3-0.4,0.6-0.7,0.8-0.9c0.2-0.2,0.5-0.3,0.8-0.5
			C-186.2,228.3-185.9,228.3-185.6,228.3z"/>
		<path class="st4" d="M-178.2,235.5c0-0.4,0.1-0.6,0.3-0.9c0.2-0.2,0.5-0.3,0.8-0.3c0.2,0,0.4,0.1,0.5,0.2c0.1,0.1,0.2,0.3,0.2,0.6
			c0,0.3-0.1,0.6-0.3,0.8c-0.2,0.2-0.4,0.3-0.8,0.3c-0.2,0-0.4-0.1-0.5-0.2S-178.2,235.8-178.2,235.5z"/>
	</g>
</g>
<g>
	<g>
		<path class="st4" d="M-361.4,19.7V26h-3.5V9.6h4.8c2.2,0,3.9,0.4,4.9,1.2c1.1,0.8,1.6,2,1.6,3.7c0,1-0.3,1.8-0.8,2.6
			c-0.5,0.8-1.3,1.3-2.3,1.8l4.8,7.1h-3.9l-3.9-6.3H-361.4z M-361.4,16.9h1.1c1.1,0,1.9-0.2,2.4-0.5c0.5-0.4,0.8-0.9,0.8-1.7
			c0-0.8-0.3-1.3-0.8-1.7c-0.5-0.3-1.4-0.5-2.5-0.5h-1.1V16.9z"/>
		<path class="st4" d="M-344.4,26.2c-2,0-3.6-0.6-4.7-1.7c-1.1-1.1-1.7-2.7-1.7-4.7c0-2.1,0.5-3.7,1.6-4.9s2.5-1.7,4.4-1.7
			c1.8,0,3.1,0.5,4.1,1.5c1,1,1.5,2.4,1.5,4.2v1.7h-8.1c0,1,0.3,1.7,0.9,2.3c0.5,0.5,1.3,0.8,2.3,0.8c0.8,0,1.5-0.1,2.1-0.2
			s1.4-0.4,2.1-0.8v2.6c-0.6,0.3-1.2,0.5-1.9,0.7C-342.5,26.1-343.4,26.2-344.4,26.2z M-344.8,15.6c-0.7,0-1.3,0.2-1.7,0.7
			c-0.4,0.5-0.6,1.1-0.7,2h4.8c0-0.8-0.2-1.5-0.7-2C-343.5,15.9-344.1,15.6-344.8,15.6z"/>
		<path class="st4" d="M-327.7,22.3c0,1.3-0.4,2.3-1.3,2.9c-0.9,0.7-2.2,1-4,1c-0.9,0-1.7-0.1-2.3-0.2c-0.6-0.1-1.2-0.3-1.8-0.5
			v-2.8c0.6,0.3,1.3,0.5,2.1,0.8c0.8,0.2,1.5,0.3,2.1,0.3c1.2,0,1.9-0.4,1.9-1.1c0-0.3-0.1-0.5-0.2-0.7c-0.2-0.2-0.4-0.4-0.9-0.6
			c-0.4-0.2-0.9-0.5-1.6-0.7c-1-0.4-1.7-0.8-2.1-1.1s-0.8-0.7-1-1.2c-0.2-0.4-0.3-1-0.3-1.6c0-1.1,0.4-2,1.3-2.6s2.1-0.9,3.7-0.9
			c1.5,0,3,0.3,4.4,1l-1,2.5c-0.6-0.3-1.2-0.5-1.8-0.7c-0.5-0.2-1.1-0.3-1.7-0.3c-1,0-1.5,0.3-1.5,0.8c0,0.3,0.2,0.6,0.5,0.8
			c0.3,0.2,1,0.6,2.1,1c1,0.4,1.7,0.8,2.1,1.1c0.5,0.3,0.8,0.7,1,1.2C-327.8,21.1-327.7,21.6-327.7,22.3z"/>
		<path class="st4" d="M-316.3,22.3c0,1.3-0.4,2.3-1.3,2.9c-0.9,0.7-2.2,1-4,1c-0.9,0-1.7-0.1-2.3-0.2c-0.6-0.1-1.2-0.3-1.8-0.5
			v-2.8c0.6,0.3,1.3,0.5,2.1,0.8c0.8,0.2,1.5,0.3,2.1,0.3c1.2,0,1.9-0.4,1.9-1.1c0-0.3-0.1-0.5-0.2-0.7c-0.2-0.2-0.4-0.4-0.9-0.6
			c-0.4-0.2-0.9-0.5-1.6-0.7c-1-0.4-1.7-0.8-2.1-1.1s-0.8-0.7-1-1.2c-0.2-0.4-0.3-1-0.3-1.6c0-1.1,0.4-2,1.3-2.6s2.1-0.9,3.7-0.9
			c1.5,0,3,0.3,4.4,1l-1,2.5c-0.6-0.3-1.2-0.5-1.8-0.7c-0.5-0.2-1.1-0.3-1.7-0.3c-1,0-1.5,0.3-1.5,0.8c0,0.3,0.2,0.6,0.5,0.8
			c0.3,0.2,1,0.6,2.1,1c1,0.4,1.7,0.8,2.1,1.1c0.5,0.3,0.8,0.7,1,1.2C-316.4,21.1-316.3,21.6-316.3,22.3z"/>
		<path class="st4" d="M-308,26.2c-2,0-3.6-0.6-4.7-1.7c-1.1-1.1-1.7-2.7-1.7-4.7c0-2.1,0.5-3.7,1.6-4.9s2.5-1.7,4.4-1.7
			c1.8,0,3.1,0.5,4.1,1.5c1,1,1.5,2.4,1.5,4.2v1.7h-8.1c0,1,0.3,1.7,0.9,2.3c0.5,0.5,1.3,0.8,2.3,0.8c0.8,0,1.5-0.1,2.1-0.2
			s1.4-0.4,2.1-0.8v2.6c-0.6,0.3-1.2,0.5-1.9,0.7C-306.2,26.1-307,26.2-308,26.2z M-308.5,15.6c-0.7,0-1.3,0.2-1.7,0.7
			c-0.4,0.5-0.6,1.1-0.7,2h4.8c0-0.8-0.2-1.5-0.7-2C-307.2,15.9-307.8,15.6-308.5,15.6z"/>
		<path class="st4" d="M-288.6,26h-3.4v-7.3c0-0.9-0.2-1.6-0.5-2c-0.3-0.5-0.8-0.7-1.5-0.7c-1,0-1.6,0.3-2.1,1
			c-0.4,0.6-0.6,1.7-0.6,3.2V26h-3.4V13.5h2.6l0.5,1.6h0.2c0.4-0.6,0.9-1.1,1.6-1.4c0.7-0.3,1.4-0.5,2.3-0.5c1.5,0,2.6,0.4,3.3,1.2
			c0.8,0.8,1.1,1.9,1.1,3.4V26z"/>
		<path class="st4" d="M-286.8,13.5h3.7l2.4,7c0.2,0.6,0.3,1.3,0.4,2.2h0.1c0.1-0.8,0.2-1.5,0.5-2.2l2.3-7h3.7l-5.3,14.1
			c-0.5,1.3-1.2,2.3-2.1,2.9c-0.9,0.6-2,1-3.2,1c-0.6,0-1.2-0.1-1.7-0.2v-2.7c0.4,0.1,0.9,0.1,1.3,0.1c0.6,0,1.1-0.2,1.6-0.6
			c0.5-0.4,0.8-0.9,1.1-1.7l0.2-0.6L-286.8,13.5z"/>
		<path class="st4" d="M-266.3,26.2c-2,0-3.6-0.6-4.7-1.7c-1.1-1.1-1.7-2.7-1.7-4.7c0-2.1,0.5-3.7,1.6-4.9s2.5-1.7,4.4-1.7
			c1.8,0,3.1,0.5,4.1,1.5c1,1,1.5,2.4,1.5,4.2v1.7h-8.1c0,1,0.3,1.7,0.9,2.3c0.5,0.5,1.3,0.8,2.3,0.8c0.8,0,1.5-0.1,2.1-0.2
			s1.4-0.4,2.1-0.8v2.6c-0.6,0.3-1.2,0.5-1.9,0.7C-264.5,26.1-265.4,26.2-266.3,26.2z M-266.8,15.6c-0.7,0-1.3,0.2-1.7,0.7
			c-0.4,0.5-0.6,1.1-0.7,2h4.8c0-0.8-0.2-1.5-0.7-2C-265.5,15.9-266.1,15.6-266.8,15.6z"/>
		<path class="st4" d="M-249.7,22.3c0,1.3-0.4,2.3-1.3,2.9c-0.9,0.7-2.2,1-4,1c-0.9,0-1.7-0.1-2.3-0.2c-0.6-0.1-1.2-0.3-1.8-0.5
			v-2.8c0.6,0.3,1.3,0.5,2.1,0.8c0.8,0.2,1.5,0.3,2.1,0.3c1.2,0,1.9-0.4,1.9-1.1c0-0.3-0.1-0.5-0.2-0.7c-0.2-0.2-0.4-0.4-0.9-0.6
			c-0.4-0.2-0.9-0.5-1.6-0.7c-1-0.4-1.7-0.8-2.1-1.1s-0.8-0.7-1-1.2c-0.2-0.4-0.3-1-0.3-1.6c0-1.1,0.4-2,1.3-2.6s2.1-0.9,3.7-0.9
			c1.5,0,3,0.3,4.4,1l-1,2.5c-0.6-0.3-1.2-0.5-1.8-0.7c-0.5-0.2-1.1-0.3-1.7-0.3c-1,0-1.5,0.3-1.5,0.8c0,0.3,0.2,0.6,0.5,0.8
			c0.3,0.2,1,0.6,2.1,1c1,0.4,1.7,0.8,2.1,1.1c0.5,0.3,0.8,0.7,1,1.2C-249.8,21.1-249.7,21.6-249.7,22.3z"/>
	</g>
</g>
<linearGradient id="SVGID_5_" gradientUnits="userSpaceOnUse" x1="-380.0051" y1="128.7716" x2="-264.2383" y2="10.3388">
	<stop  offset="0" style="stop-color:#F0A868"/>
	<stop  offset="1" style="stop-color:#EFCB67"/>
</linearGradient>
<circle class="st5" cx="-345.8" cy="93.8" r="43.9"/>
<g>
	<defs>
		<circle id="SVGID_6_" cx="-345.8" cy="93.7" r="40"/>
	</defs>
	<clipPath id="SVGID_7_">
		<use xlink:href="#SVGID_6_"  style="overflow:visible;"/>
	</clipPath>
	<g style="clip-path:url(#SVGID_7_);">
		
			<image style="overflow:visible;" width="293" height="390" xlink:href="9BF84A2F180DD8E4.jpg"  transform="matrix(0.3015 0 0 0.3015 -391.588 45.7315)">
		</image>
	</g>
</g>
<g>
	<g>
		<path class="st4" d="M-276.5,198.7v-12.5h2.7v10.3h5.1v2.2H-276.5z"/>
		<path class="st4" d="M-266.9,188.1v-0.2c1-1.1,1.7-2,2-2.6h2.9v0.2c-0.3,0.3-0.8,0.7-1.5,1.3c-0.7,0.6-1.3,1-1.7,1.3H-266.9z
			 M-264.1,198.7h-2.6v-9.6h2.6V198.7z"/>
		<path class="st4" d="M-258.3,198.9c-1.1,0-2-0.4-2.7-1.3s-1-2.1-1-3.6c0-1.6,0.3-2.8,1-3.7s1.6-1.3,2.7-1.3c1.2,0,2.1,0.5,2.8,1.4
			h0.1c-0.1-0.7-0.2-1.4-0.2-1.9v-3.1h2.6v13.3h-2l-0.5-1.2h-0.1C-256.2,198.4-257.1,198.9-258.3,198.9z M-257.4,196.8
			c0.7,0,1.2-0.2,1.5-0.6c0.3-0.4,0.5-1,0.5-2V194c0-1-0.2-1.8-0.5-2.2c-0.3-0.4-0.8-0.7-1.5-0.7c-0.6,0-1,0.2-1.4,0.7
			c-0.3,0.5-0.5,1.2-0.5,2.2s0.2,1.7,0.5,2.1C-258.5,196.6-258,196.8-257.4,196.8z"/>
		<path class="st4" d="M-250.4,186.6c0-0.9,0.5-1.3,1.4-1.3s1.4,0.4,1.4,1.3c0,0.4-0.1,0.7-0.4,0.9c-0.2,0.2-0.6,0.3-1.1,0.3
			C-249.9,187.9-250.4,187.5-250.4,186.6z M-247.6,198.7h-2.6v-9.6h2.6V198.7z"/>
		<path class="st4" d="M-238.8,198.7l-0.5-1.3h-0.1c-0.4,0.6-0.9,0.9-1.4,1.2c-0.5,0.2-1.1,0.3-1.8,0.3c-0.9,0-1.6-0.3-2.2-0.8
			c-0.5-0.5-0.8-1.3-0.8-2.2c0-1,0.4-1.8,1.1-2.3c0.7-0.5,1.8-0.8,3.2-0.8l1.7-0.1v-0.4c0-1-0.5-1.5-1.5-1.5c-0.8,0-1.7,0.2-2.7,0.7
			l-0.9-1.8c1.1-0.6,2.3-0.9,3.7-0.9c1.3,0,2.3,0.3,3,0.8s1,1.4,1,2.6v6.4H-238.8z M-239.6,194.3l-1,0c-0.8,0-1.3,0.2-1.7,0.4
			c-0.4,0.3-0.6,0.6-0.6,1.1c0,0.7,0.4,1.1,1.3,1.1c0.6,0,1.1-0.2,1.5-0.5c0.4-0.3,0.5-0.8,0.5-1.4V194.3z"/>
	</g>
</g>
<g>
	<g>
		<path class="st4" d="M-272.3,333.9h-5.2l2.2-10.2h5.2l-0.2,1.1h-3.9l-0.7,3.2h3.6l-0.2,1.1h-3.7l-0.8,3.6h3.9L-272.3,333.9z"/>
		<path class="st4" d="M-265.3,326.2c0.5,0,0.9,0.1,1.2,0.5c0.3,0.3,0.5,0.7,0.5,1.2h0.1c0.8-1.1,1.7-1.7,2.6-1.7
			c0.6,0,1.1,0.2,1.4,0.5c0.3,0.3,0.5,0.8,0.5,1.4c0,0.4-0.1,0.8-0.2,1.3l-1,4.7h-1.3l1-4.8c0.1-0.4,0.1-0.8,0.1-1
			c0-0.3-0.1-0.5-0.2-0.7c-0.2-0.2-0.4-0.3-0.7-0.3c-0.4,0-0.7,0.1-1.1,0.4s-0.7,0.6-0.9,1.1s-0.5,1.1-0.6,1.7l-0.7,3.5h-1.3l1-4.8
			c0.1-0.4,0.1-0.8,0.1-0.9c0-0.7-0.3-1-0.9-1c-0.4,0-0.8,0.1-1.1,0.4c-0.4,0.3-0.7,0.7-1,1.2c-0.3,0.5-0.5,1.1-0.6,1.8l-0.7,3.3
			h-1.3l1.6-7.7h1l-0.2,1.4h0.1c0.3-0.4,0.6-0.7,0.8-0.9c0.2-0.2,0.5-0.3,0.8-0.5S-265.6,326.2-265.3,326.2z"/>
		<path class="st4" d="M-251,334.1c-0.9,0-1.6-0.2-2.1-0.7c-0.5-0.5-0.7-1.2-0.7-2.1c0-0.9,0.2-1.8,0.5-2.6c0.3-0.8,0.8-1.4,1.4-1.8
			s1.3-0.7,2.1-0.7c0.7,0,1.3,0.1,1.9,0.4l-0.4,1c-0.5-0.2-1-0.4-1.5-0.4c-0.5,0-1,0.2-1.4,0.5c-0.4,0.4-0.7,0.8-1,1.5
			c-0.2,0.6-0.3,1.3-0.3,2c0,0.6,0.1,1,0.4,1.3s0.7,0.5,1.2,0.5c0.3,0,0.7,0,1-0.1c0.3-0.1,0.6-0.2,0.9-0.3v1.1
			C-249.6,333.9-250.3,334.1-251,334.1z"/>
		<path class="st4" d="M-245.3,334.1c-0.6,0-1.1-0.2-1.5-0.7s-0.6-1.1-0.6-1.9c0-1,0.2-1.8,0.5-2.7c0.3-0.8,0.8-1.5,1.4-1.9
			c0.6-0.5,1.2-0.7,1.9-0.7c0.4,0,0.8,0.1,1.1,0.3c0.3,0.2,0.6,0.6,0.8,1h0.1l0.5-1.2h1l-1.6,7.7h-1l0.2-1.4h-0.1
			C-243.5,333.6-244.3,334.1-245.3,334.1z M-244.9,333c0.4,0,0.9-0.2,1.3-0.6s0.8-1,1.1-1.6s0.4-1.4,0.4-2.1c0-0.5-0.1-0.8-0.4-1.1
			s-0.6-0.4-1-0.4c-0.5,0-0.9,0.2-1.3,0.6s-0.7,0.9-0.9,1.6c-0.2,0.7-0.3,1.4-0.3,2.1c0,0.5,0.1,0.9,0.3,1.2S-245.2,333-244.9,333z"
			/>
		<path class="st4" d="M-233.6,333.9h-1.3l1-4.8c0.1-0.5,0.1-0.8,0.1-1c0-0.3-0.1-0.5-0.2-0.7c-0.2-0.2-0.4-0.3-0.8-0.3
			c-0.4,0-0.8,0.1-1.2,0.4c-0.4,0.3-0.7,0.7-1,1.2c-0.3,0.5-0.5,1.1-0.7,1.8l-0.7,3.3h-1.3l1.6-7.7h1l-0.2,1.4h0.1
			c0.3-0.4,0.6-0.7,0.8-0.9s0.5-0.4,0.8-0.5c0.3-0.1,0.6-0.2,0.9-0.2c0.6,0,1.1,0.2,1.4,0.5c0.3,0.3,0.5,0.8,0.5,1.4
			c0,0.4-0.1,0.8-0.2,1.3L-233.6,333.9z"/>
		<path class="st4" d="M-226.5,331.7c0,0.7-0.3,1.3-0.8,1.7c-0.5,0.4-1.2,0.6-2.2,0.6c-0.8,0-1.5-0.2-2.1-0.5v-1.2
			c0.3,0.2,0.6,0.3,1,0.4s0.7,0.2,1.1,0.2c0.6,0,1-0.1,1.3-0.3c0.3-0.2,0.4-0.5,0.4-0.9c0-0.3-0.1-0.5-0.2-0.7
			c-0.2-0.2-0.5-0.4-1-0.7c-0.6-0.3-1-0.7-1.3-1s-0.4-0.7-0.4-1.2c0-0.7,0.2-1.2,0.7-1.6c0.5-0.4,1.1-0.6,1.9-0.6
			c0.8,0,1.6,0.2,2.3,0.5l-0.4,1c-0.2-0.1-0.5-0.2-0.8-0.3s-0.7-0.2-1.1-0.2c-0.4,0-0.7,0.1-1,0.3c-0.2,0.2-0.4,0.4-0.4,0.8
			c0,0.3,0.1,0.5,0.3,0.7c0.2,0.2,0.5,0.4,1,0.7c0.5,0.3,0.9,0.6,1.1,0.8c0.2,0.2,0.3,0.4,0.5,0.6S-226.5,331.4-226.5,331.7z"/>
		<path class="st4" d="M-218.1,329.2c0,0.9-0.2,1.7-0.5,2.5s-0.8,1.4-1.4,1.8c-0.6,0.4-1.2,0.6-2,0.6c-0.9,0-1.6-0.3-2.1-0.8
			s-0.8-1.2-0.8-2.1c0-0.9,0.2-1.7,0.5-2.5s0.8-1.4,1.4-1.8s1.2-0.6,1.9-0.6c0.9,0,1.6,0.3,2.1,0.8
			C-218.4,327.5-218.1,328.2-218.1,329.2z M-219.4,329c0-0.5-0.1-1-0.4-1.3c-0.3-0.3-0.7-0.5-1.1-0.5c-0.5,0-0.9,0.2-1.3,0.5
			c-0.4,0.3-0.7,0.8-0.9,1.4c-0.2,0.6-0.3,1.3-0.3,2c0,0.6,0.1,1.1,0.4,1.4s0.7,0.5,1.2,0.5c0.5,0,0.9-0.2,1.3-0.5
			c0.4-0.3,0.7-0.8,0.9-1.4C-219.5,330.5-219.4,329.8-219.4,329z"/>
		<path class="st4" d="M-208.3,326.2c0.5,0,0.9,0.1,1.2,0.5c0.3,0.3,0.5,0.7,0.5,1.2h0.1c0.8-1.1,1.7-1.7,2.6-1.7
			c0.6,0,1.1,0.2,1.4,0.5c0.3,0.3,0.5,0.8,0.5,1.4c0,0.4-0.1,0.8-0.2,1.3l-1,4.7h-1.3l1-4.8c0.1-0.4,0.1-0.8,0.1-1
			c0-0.3-0.1-0.5-0.2-0.7c-0.2-0.2-0.4-0.3-0.7-0.3c-0.4,0-0.7,0.1-1.1,0.4s-0.7,0.6-0.9,1.1s-0.5,1.1-0.6,1.7l-0.7,3.5h-1.3l1-4.8
			c0.1-0.4,0.1-0.8,0.1-0.9c0-0.7-0.3-1-0.9-1c-0.4,0-0.8,0.1-1.1,0.4c-0.4,0.3-0.7,0.7-1,1.2c-0.3,0.5-0.5,1.1-0.6,1.8l-0.7,3.3
			h-1.3l1.6-7.7h1l-0.2,1.4h0.1c0.3-0.4,0.6-0.7,0.8-0.9c0.2-0.2,0.5-0.3,0.8-0.5S-208.6,326.2-208.3,326.2z"/>
		<path class="st4" d="M-193.9,329.2c0,0.9-0.2,1.7-0.5,2.5s-0.8,1.4-1.4,1.8c-0.6,0.4-1.2,0.6-2,0.6c-0.9,0-1.6-0.3-2.1-0.8
			s-0.8-1.2-0.8-2.1c0-0.9,0.2-1.7,0.5-2.5s0.8-1.4,1.4-1.8s1.2-0.6,1.9-0.6c0.9,0,1.6,0.3,2.1,0.8
			C-194.2,327.5-193.9,328.2-193.9,329.2z M-195.2,329c0-0.5-0.1-1-0.4-1.3c-0.3-0.3-0.7-0.5-1.1-0.5c-0.5,0-0.9,0.2-1.3,0.5
			c-0.4,0.3-0.7,0.8-0.9,1.4c-0.2,0.6-0.3,1.3-0.3,2c0,0.6,0.1,1.1,0.4,1.4s0.7,0.5,1.2,0.5c0.5,0,0.9-0.2,1.3-0.5
			c0.4-0.3,0.7-0.8,0.9-1.4C-195.3,330.5-195.2,329.8-195.2,329z"/>
		<path class="st4" d="M-191.6,333.9h-1.3l2.3-10.8h1.3L-191.6,333.9z"/>
		<path class="st4" d="M-186.7,333.1c0.3,0,0.6-0.1,1-0.2v1c-0.1,0.1-0.3,0.1-0.6,0.2c-0.2,0.1-0.5,0.1-0.6,0.1
			c-0.6,0-1-0.1-1.4-0.4c-0.3-0.3-0.5-0.7-0.5-1.2c0-0.3,0-0.6,0.1-1l0.9-4.2h-1.2l0.1-0.6l1.3-0.5l0.9-1.6h0.7l-0.4,1.7h1.9l-0.2,1
			h-1.9l-0.9,4.2c-0.1,0.4-0.1,0.7-0.1,0.8c0,0.2,0.1,0.4,0.2,0.6S-187,333.1-186.7,333.1z"/>
		<path class="st4" d="M-175.6,326.2c0.7,0,1.2,0.2,1.5,0.7c0.4,0.5,0.5,1.1,0.5,1.9c0,1-0.2,1.9-0.5,2.7c-0.3,0.8-0.8,1.5-1.3,1.9
			c-0.6,0.5-1.2,0.7-1.9,0.7c-0.9,0-1.5-0.4-2-1.3h-0.1c-0.1,0.6-0.1,1.1-0.2,1.3l-0.7,3.3h-1.2l2.3-11.1h1l-0.2,1.4h0.1
			c0.4-0.5,0.9-0.9,1.3-1.2S-176,326.2-175.6,326.2z M-176,327.2c-0.4,0-0.9,0.2-1.3,0.6c-0.4,0.4-0.8,1-1.1,1.6
			c-0.3,0.7-0.4,1.3-0.4,2c0,0.5,0.1,0.9,0.4,1.1c0.2,0.3,0.6,0.4,1.1,0.4c0.5,0,0.9-0.2,1.3-0.6c0.4-0.4,0.7-0.9,0.9-1.6
			s0.3-1.4,0.3-2.1C-174.8,327.7-175.2,327.2-176,327.2z"/>
		<path class="st4" d="M-169.4,334.1c-0.9,0-1.5-0.3-2-0.8c-0.5-0.5-0.7-1.2-0.7-2.1c0-0.9,0.2-1.7,0.5-2.5c0.3-0.8,0.8-1.4,1.4-1.9
			c0.6-0.5,1.2-0.7,1.9-0.7c0.7,0,1.3,0.2,1.6,0.5s0.6,0.8,0.6,1.3c0,0.8-0.4,1.5-1.2,2s-1.9,0.7-3.3,0.7h-0.2l0,0.5
			c0,0.6,0.1,1,0.4,1.4c0.3,0.3,0.7,0.5,1.3,0.5c0.4,0,0.7-0.1,1-0.2c0.3-0.1,0.7-0.2,1.1-0.4v1.1c-0.5,0.2-0.9,0.4-1.2,0.4
			S-169,334.1-169.4,334.1z M-168.4,327.2c-0.5,0-0.9,0.2-1.4,0.7s-0.7,1-0.9,1.8h0.1c1,0,1.8-0.1,2.4-0.4s0.8-0.7,0.8-1.2
			c0-0.2-0.1-0.4-0.2-0.6C-167.8,327.3-168.1,327.2-168.4,327.2z"/>
		<path class="st4" d="M-160.4,326.2c0.3,0,0.6,0,0.8,0.1l-0.3,1.1c-0.3-0.1-0.5-0.1-0.7-0.1c-0.4,0-0.8,0.1-1.2,0.4
			c-0.4,0.3-0.7,0.7-1,1.1c-0.3,0.5-0.5,1-0.6,1.6l-0.7,3.5h-1.3l1.6-7.7h1l-0.2,1.4h0.1c0.3-0.4,0.6-0.8,0.8-1
			c0.2-0.2,0.4-0.3,0.7-0.4C-161,326.2-160.7,326.2-160.4,326.2z"/>
		<path class="st4" d="M-152.3,329.2c0,0.9-0.2,1.7-0.5,2.5c-0.3,0.8-0.8,1.4-1.4,1.8c-0.6,0.4-1.2,0.6-2,0.6
			c-0.9,0-1.6-0.3-2.1-0.8c-0.5-0.5-0.8-1.2-0.8-2.1c0-0.9,0.2-1.7,0.5-2.5s0.8-1.4,1.4-1.8c0.6-0.4,1.2-0.6,1.9-0.6
			c0.9,0,1.6,0.3,2.1,0.8S-152.3,328.2-152.3,329.2z M-153.6,329c0-0.5-0.1-1-0.4-1.3c-0.3-0.3-0.7-0.5-1.1-0.5
			c-0.5,0-0.9,0.2-1.3,0.5c-0.4,0.3-0.7,0.8-0.9,1.4c-0.2,0.6-0.3,1.3-0.3,2c0,0.6,0.1,1.1,0.4,1.4s0.7,0.5,1.2,0.5
			c0.5,0,0.9-0.2,1.3-0.5c0.4-0.3,0.7-0.8,0.9-1.4C-153.7,330.5-153.6,329.8-153.6,329z M-154.1,325.3h-0.8
			c-0.3-0.3-0.6-0.7-0.9-1.1c-0.3-0.4-0.5-0.8-0.6-1V323h1.3c0.2,0.6,0.5,1.3,1,2.1V325.3z"/>
		<path class="st4" d="M-141.6,333.9h-1.3l1-4.8c0.1-0.5,0.1-0.8,0.1-1c0-0.3-0.1-0.5-0.2-0.7c-0.2-0.2-0.4-0.3-0.8-0.3
			c-0.4,0-0.8,0.1-1.2,0.4c-0.4,0.3-0.7,0.7-1,1.2c-0.3,0.5-0.5,1.1-0.7,1.8l-0.7,3.3h-1.3l1.6-7.7h1l-0.2,1.4h0.1
			c0.3-0.4,0.6-0.7,0.8-0.9c0.2-0.2,0.5-0.4,0.8-0.5c0.3-0.1,0.6-0.2,0.9-0.2c0.6,0,1.1,0.2,1.4,0.5c0.3,0.3,0.5,0.8,0.5,1.4
			c0,0.4-0.1,0.8-0.2,1.3L-141.6,333.9z"/>
		<path class="st4" d="M-132.3,329.2c0,0.9-0.2,1.7-0.5,2.5c-0.3,0.8-0.8,1.4-1.4,1.8c-0.6,0.4-1.2,0.6-2,0.6
			c-0.9,0-1.6-0.3-2.1-0.8c-0.5-0.5-0.8-1.2-0.8-2.1c0-0.9,0.2-1.7,0.5-2.5s0.8-1.4,1.4-1.8c0.6-0.4,1.2-0.6,1.9-0.6
			c0.9,0,1.6,0.3,2.1,0.8S-132.3,328.2-132.3,329.2z M-133.6,329c0-0.5-0.1-1-0.4-1.3c-0.3-0.3-0.7-0.5-1.1-0.5
			c-0.5,0-0.9,0.2-1.3,0.5c-0.4,0.3-0.7,0.8-0.9,1.4c-0.2,0.6-0.3,1.3-0.3,2c0,0.6,0.1,1.1,0.4,1.4s0.7,0.5,1.2,0.5
			c0.5,0,0.9-0.2,1.3-0.5c0.4-0.3,0.7-0.8,0.9-1.4C-133.7,330.5-133.6,329.8-133.6,329z"/>
		<path class="st4" d="M-125.2,334.1c-0.6,0-1.1-0.2-1.5-0.7c-0.4-0.5-0.6-1.1-0.6-1.9c0-1,0.2-1.9,0.5-2.7c0.3-0.8,0.8-1.5,1.3-1.9
			c0.6-0.5,1.2-0.7,1.9-0.7c0.9,0,1.5,0.4,1.9,1.3h0.1c0.1-0.8,0.2-1.4,0.3-1.9l0.5-2.5h1.2l-2.3,10.8h-1l0.2-1.4h-0.1
			c-0.4,0.6-0.9,1-1.3,1.2C-124.3,334-124.7,334.1-125.2,334.1z M-124.8,333c0.4,0,0.9-0.2,1.3-0.7c0.4-0.4,0.8-1,1.1-1.6
			c0.3-0.7,0.4-1.3,0.4-2c0-0.5-0.1-0.9-0.4-1.1c-0.2-0.3-0.6-0.4-1.1-0.4c-0.5,0-0.9,0.2-1.3,0.6c-0.4,0.4-0.7,0.9-0.9,1.6
			c-0.2,0.7-0.3,1.4-0.3,2.1C-126,332.5-125.6,333-124.8,333z"/>
		<path class="st4" d="M-116.2,334.1c-0.9,0-1.5-0.3-2-0.8c-0.5-0.5-0.7-1.2-0.7-2.1c0-0.9,0.2-1.7,0.5-2.5c0.3-0.8,0.8-1.4,1.4-1.9
			c0.6-0.5,1.2-0.7,1.9-0.7c0.7,0,1.3,0.2,1.6,0.5s0.6,0.8,0.6,1.3c0,0.8-0.4,1.5-1.2,2s-1.9,0.7-3.3,0.7h-0.2l0,0.5
			c0,0.6,0.1,1,0.4,1.4c0.3,0.3,0.7,0.5,1.3,0.5c0.4,0,0.7-0.1,1-0.2c0.3-0.1,0.7-0.2,1.1-0.4v1.1c-0.5,0.2-0.9,0.4-1.2,0.4
			S-115.8,334.1-116.2,334.1z M-115.2,327.2c-0.5,0-0.9,0.2-1.4,0.7s-0.7,1-0.9,1.8h0.1c1,0,1.8-0.1,2.4-0.4s0.8-0.7,0.8-1.2
			c0-0.2-0.1-0.4-0.2-0.6C-114.6,327.3-114.9,327.2-115.2,327.2z"/>
		<path class="st4" d="M-110.9,333.9h-1.3l1.6-7.7h1.3L-110.9,333.9z M-110.2,324.4c0-0.3,0.1-0.5,0.2-0.7s0.4-0.3,0.6-0.3
			c0.4,0,0.7,0.2,0.7,0.6c0,0.3-0.1,0.5-0.2,0.7c-0.2,0.2-0.4,0.3-0.6,0.3c-0.2,0-0.4-0.1-0.5-0.2
			C-110.1,324.7-110.2,324.6-110.2,324.4z"/>
		<path class="st4" d="M-106.1,330l-1.7-3.7h1.3l1.2,2.8l2.2-2.8h1.4l-3.2,3.8l1.8,3.9h-1.3l-1.3-3l-2.4,3h-1.5L-106.1,330z"/>
		<path class="st4" d="M-99.2,334.1c-0.6,0-1.1-0.2-1.5-0.7c-0.4-0.5-0.6-1.1-0.6-1.9c0-1,0.2-1.8,0.5-2.7c0.3-0.8,0.8-1.5,1.4-1.9
			s1.2-0.7,1.9-0.7c0.4,0,0.8,0.1,1.1,0.3c0.3,0.2,0.6,0.6,0.8,1h0.1l0.5-1.2h1l-1.6,7.7h-1l0.2-1.4h-0.1
			C-97.4,333.6-98.3,334.1-99.2,334.1z M-98.8,333c0.4,0,0.9-0.2,1.3-0.6c0.4-0.4,0.8-1,1.1-1.6s0.4-1.4,0.4-2.1
			c0-0.5-0.1-0.8-0.4-1.1c-0.2-0.3-0.6-0.4-1-0.4c-0.5,0-0.9,0.2-1.3,0.6c-0.4,0.4-0.7,0.9-0.9,1.6c-0.2,0.7-0.3,1.4-0.3,2.1
			c0,0.5,0.1,0.9,0.3,1.2C-99.5,332.9-99.2,333-98.8,333z"/>
		<path class="st4" d="M-88.6,326.2c0.3,0,0.6,0,0.8,0.1l-0.3,1.1c-0.3-0.1-0.5-0.1-0.7-0.1c-0.4,0-0.8,0.1-1.2,0.4
			c-0.4,0.3-0.7,0.7-1,1.1c-0.3,0.5-0.5,1-0.6,1.6l-0.7,3.5h-1.3l1.6-7.7h1l-0.2,1.4h0.1c0.3-0.4,0.6-0.8,0.8-1
			c0.2-0.2,0.4-0.3,0.7-0.4C-89.1,326.2-88.9,326.2-88.6,326.2z"/>
		<path class="st4" d="M-84.4,334.1c-0.9,0-1.5-0.3-2-0.8c-0.5-0.5-0.7-1.2-0.7-2.1c0-0.9,0.2-1.7,0.5-2.5c0.3-0.8,0.8-1.4,1.4-1.9
			c0.6-0.5,1.2-0.7,1.9-0.7c0.7,0,1.3,0.2,1.6,0.5s0.6,0.8,0.6,1.3c0,0.8-0.4,1.5-1.2,2s-1.9,0.7-3.3,0.7h-0.2l0,0.5
			c0,0.6,0.1,1,0.4,1.4c0.3,0.3,0.7,0.5,1.3,0.5c0.4,0,0.7-0.1,1-0.2c0.3-0.1,0.7-0.2,1.1-0.4v1.1c-0.5,0.2-0.9,0.4-1.2,0.4
			S-84,334.1-84.4,334.1z M-83.4,327.2c-0.5,0-0.9,0.2-1.4,0.7s-0.7,1-0.9,1.8h0.1c1,0,1.8-0.1,2.4-0.4s0.8-0.7,0.8-1.2
			c0-0.2-0.1-0.4-0.2-0.6C-82.8,327.3-83.1,327.2-83.4,327.2z M-83.8,325.1c0.2-0.3,0.5-0.6,0.8-1s0.6-0.8,0.8-1.1h1.4v0.1
			c-0.2,0.3-0.6,0.6-1,1.1c-0.5,0.5-0.9,0.8-1.2,1.1h-0.8V325.1z"/>
		<path class="st4" d="M-275.3,351.2c-0.6,0-1.1-0.2-1.5-0.7c-0.4-0.5-0.6-1.1-0.6-1.9c0-1,0.2-1.9,0.5-2.7c0.3-0.8,0.8-1.5,1.3-1.9
			c0.6-0.5,1.2-0.7,1.9-0.7c0.9,0,1.5,0.4,1.9,1.3h0.1c0.1-0.8,0.2-1.4,0.3-1.9l0.5-2.5h1.2l-2.3,10.8h-1l0.2-1.4h-0.1
			c-0.4,0.6-0.9,1-1.3,1.2C-274.4,351.1-274.8,351.2-275.3,351.2z M-274.8,350.2c0.4,0,0.9-0.2,1.3-0.7c0.4-0.4,0.8-1,1.1-1.6
			c0.3-0.7,0.4-1.3,0.4-2c0-0.5-0.1-0.9-0.4-1.2c-0.2-0.3-0.6-0.4-1.1-0.4c-0.5,0-0.9,0.2-1.3,0.6c-0.4,0.4-0.7,0.9-0.9,1.6
			s-0.3,1.4-0.3,2.1C-276.1,349.7-275.7,350.2-274.8,350.2z"/>
		<path class="st4" d="M-266.1,340.9l0.1,0.2c-0.2,0.4-0.4,0.9-0.8,1.5c-0.3,0.6-0.7,1.2-1.1,1.8h-1c0.6-1.4,1.1-2.5,1.4-3.5H-266.1
			z"/>
		<path class="st4" d="M-264.5,351.2c-0.6,0-1.1-0.2-1.5-0.7c-0.4-0.5-0.6-1.1-0.6-1.9c0-1,0.2-1.8,0.5-2.7c0.3-0.8,0.8-1.5,1.4-1.9
			c0.6-0.5,1.2-0.7,1.9-0.7c0.4,0,0.8,0.1,1.1,0.3c0.3,0.2,0.6,0.6,0.8,1h0.1l0.5-1.2h1l-1.6,7.7h-1l0.2-1.4h-0.1
			C-262.7,350.7-263.6,351.2-264.5,351.2z M-264.1,350.2c0.4,0,0.9-0.2,1.3-0.6s0.8-1,1.1-1.6c0.3-0.7,0.4-1.4,0.4-2.1
			c0-0.5-0.1-0.8-0.4-1.1c-0.3-0.3-0.6-0.4-1-0.4c-0.5,0-0.9,0.2-1.3,0.6s-0.7,0.9-0.9,1.6s-0.3,1.4-0.3,2.1c0,0.5,0.1,0.9,0.3,1.2
			S-264.5,350.2-264.1,350.2z"/>
		<path class="st4" d="M-252.9,351.1h-1.3l1-4.8c0.1-0.5,0.1-0.8,0.1-1c0-0.3-0.1-0.5-0.2-0.7c-0.2-0.2-0.4-0.3-0.8-0.3
			c-0.4,0-0.8,0.1-1.2,0.4c-0.4,0.3-0.7,0.7-1,1.2c-0.3,0.5-0.5,1.1-0.7,1.8l-0.7,3.3h-1.3l1.6-7.7h1l-0.2,1.4h0.1
			c0.3-0.4,0.6-0.7,0.8-0.9s0.5-0.4,0.8-0.5c0.3-0.1,0.6-0.2,0.9-0.2c0.6,0,1.1,0.2,1.4,0.5s0.5,0.8,0.5,1.4c0,0.4-0.1,0.8-0.2,1.3
			L-252.9,351.1z"/>
		<path class="st4" d="M-248.2,351.2c-0.6,0-1.1-0.2-1.5-0.7c-0.4-0.5-0.6-1.1-0.6-1.9c0-1,0.2-1.8,0.5-2.7c0.3-0.8,0.8-1.5,1.4-1.9
			c0.6-0.5,1.2-0.7,1.9-0.7c0.4,0,0.8,0.1,1.1,0.3c0.3,0.2,0.6,0.6,0.8,1h0.1l0.5-1.2h1l-1.6,7.7h-1l0.2-1.4h-0.1
			C-246.4,350.7-247.2,351.2-248.2,351.2z M-247.7,350.2c0.4,0,0.9-0.2,1.3-0.6s0.8-1,1.1-1.6c0.3-0.7,0.4-1.4,0.4-2.1
			c0-0.5-0.1-0.8-0.4-1.1c-0.3-0.3-0.6-0.4-1-0.4c-0.5,0-0.9,0.2-1.3,0.6s-0.7,0.9-0.9,1.6s-0.3,1.4-0.3,2.1c0,0.5,0.1,0.9,0.3,1.2
			S-248.1,350.2-247.7,350.2z"/>
		<path class="st4" d="M-237.5,343.3c0.3,0,0.6,0,0.8,0.1l-0.3,1.1c-0.3-0.1-0.5-0.1-0.7-0.1c-0.4,0-0.8,0.1-1.2,0.4
			c-0.4,0.3-0.7,0.7-1,1.1c-0.3,0.5-0.5,1-0.6,1.6l-0.7,3.5h-1.3l1.6-7.7h1l-0.2,1.4h0.1c0.3-0.4,0.6-0.8,0.8-1s0.4-0.3,0.7-0.4
			C-238.1,343.3-237.8,343.3-237.5,343.3z"/>
		<path class="st4" d="M-235,349.4l0.1,0.2c-0.5,1-1.1,2.1-1.9,3.3h-1c0.4-1,0.9-2.1,1.4-3.5H-235z"/>
		<path class="st4" d="M-224.4,343.3c0.5,0,0.9,0.2,1.2,0.4c0.3,0.3,0.5,0.7,0.5,1.3h0.1c0.8-1.1,1.7-1.7,2.6-1.7
			c0.6,0,1.1,0.2,1.4,0.5c0.3,0.3,0.5,0.8,0.5,1.4c0,0.4-0.1,0.8-0.2,1.3l-1,4.7h-1.3l1-4.8c0.1-0.4,0.1-0.8,0.1-1
			c0-0.3-0.1-0.5-0.2-0.7c-0.2-0.2-0.4-0.3-0.7-0.3c-0.4,0-0.7,0.1-1.1,0.4s-0.7,0.6-0.9,1.1c-0.3,0.5-0.5,1.1-0.6,1.7l-0.7,3.5
			h-1.3l1-4.8c0.1-0.4,0.1-0.8,0.1-0.9c0-0.7-0.3-1-0.9-1c-0.4,0-0.8,0.1-1.1,0.4c-0.4,0.3-0.7,0.7-1,1.2c-0.3,0.5-0.5,1.1-0.6,1.8
			l-0.7,3.3h-1.3l1.6-7.7h1l-0.2,1.4h0.1c0.3-0.4,0.6-0.7,0.8-0.9c0.2-0.2,0.5-0.3,0.8-0.5C-225,343.3-224.7,343.3-224.4,343.3z"/>
		<path class="st4" d="M-213.7,340.9l0.1,0.2c-0.2,0.4-0.4,0.9-0.8,1.5c-0.3,0.6-0.7,1.2-1.1,1.8h-1c0.6-1.4,1.1-2.5,1.4-3.5H-213.7
			z"/>
		<path class="st4" d="M-212.1,351.2c-0.6,0-1.1-0.2-1.5-0.7c-0.4-0.5-0.6-1.1-0.6-1.9c0-1,0.2-1.8,0.5-2.7c0.3-0.8,0.8-1.5,1.4-1.9
			c0.6-0.5,1.2-0.7,1.9-0.7c0.4,0,0.8,0.1,1.1,0.3c0.3,0.2,0.6,0.6,0.8,1h0.1l0.5-1.2h1l-1.6,7.7h-1l0.2-1.4h-0.1
			C-210.3,350.7-211.2,351.2-212.1,351.2z M-211.7,350.2c0.4,0,0.9-0.2,1.3-0.6s0.8-1,1.1-1.6c0.3-0.7,0.4-1.4,0.4-2.1
			c0-0.5-0.1-0.8-0.4-1.1c-0.3-0.3-0.6-0.4-1-0.4c-0.5,0-0.9,0.2-1.3,0.6s-0.7,0.9-0.9,1.6s-0.3,1.4-0.3,2.1c0,0.5,0.1,0.9,0.3,1.2
			S-212.1,350.2-211.7,350.2z"/>
		<path class="st4" d="M-207.7,354.5c-0.3,0-0.6,0-0.9-0.1v-1.1c0.3,0.1,0.5,0.2,0.8,0.2c0.6,0,1-0.5,1.2-1.4l1.8-8.6h1.2l-1.9,8.8
			c-0.2,0.8-0.4,1.4-0.8,1.8C-206.6,354.3-207.1,354.5-207.7,354.5z M-204.4,341.5c0-0.3,0.1-0.5,0.2-0.7s0.4-0.3,0.6-0.3
			c0.4,0,0.6,0.2,0.6,0.6c0,0.3-0.1,0.5-0.2,0.7c-0.2,0.2-0.4,0.3-0.6,0.3c-0.2,0-0.4-0.1-0.5-0.2
			C-204.4,341.9-204.4,341.7-204.4,341.5z"/>
		<path class="st4" d="M-201.1,343.4h1.3l-1,4.8c-0.1,0.4-0.1,0.7-0.1,1c0,0.7,0.3,1,1,1c0.4,0,0.8-0.1,1.2-0.4
			c0.4-0.3,0.7-0.7,1-1.2s0.5-1.1,0.7-1.9l0.7-3.3h1.2l-1.6,7.7h-1l0.2-1.4h-0.1c-0.4,0.5-0.8,0.9-1.3,1.2c-0.4,0.2-0.9,0.4-1.3,0.4
			c-0.6,0-1.1-0.2-1.4-0.5c-0.3-0.3-0.5-0.8-0.5-1.4c0-0.3,0.1-0.7,0.2-1.2L-201.1,343.4z"/>
		<path class="st4" d="M-192.1,351.2c-0.6,0-1.1-0.2-1.5-0.7c-0.4-0.5-0.6-1.1-0.6-1.9c0-1,0.2-1.9,0.5-2.7c0.3-0.8,0.8-1.5,1.3-1.9
			c0.6-0.5,1.2-0.7,1.9-0.7c0.9,0,1.5,0.4,1.9,1.3h0.1c0.1-0.8,0.2-1.4,0.3-1.9l0.5-2.5h1.2l-2.3,10.8h-1l0.2-1.4h-0.1
			c-0.4,0.6-0.9,1-1.3,1.2C-191.2,351.1-191.6,351.2-192.1,351.2z M-191.6,350.2c0.4,0,0.9-0.2,1.3-0.7c0.4-0.4,0.8-1,1.1-1.6
			c0.3-0.7,0.4-1.3,0.4-2c0-0.5-0.1-0.9-0.4-1.2c-0.2-0.3-0.6-0.4-1.1-0.4c-0.5,0-0.9,0.2-1.3,0.6c-0.4,0.4-0.7,0.9-0.9,1.6
			c-0.2,0.7-0.3,1.4-0.3,2.1C-192.9,349.7-192.4,350.2-191.6,350.2z"/>
		<path class="st4" d="M-183.8,351.2c-0.6,0-1.1-0.2-1.5-0.7c-0.4-0.5-0.6-1.1-0.6-1.9c0-1,0.2-1.8,0.5-2.7c0.3-0.8,0.8-1.5,1.4-1.9
			c0.6-0.5,1.2-0.7,1.9-0.7c0.4,0,0.8,0.1,1.1,0.3c0.3,0.2,0.6,0.6,0.8,1h0.1l0.5-1.2h1l-1.6,7.7h-1l0.2-1.4h-0.1
			C-182,350.7-182.9,351.2-183.8,351.2z M-183.4,350.2c0.4,0,0.9-0.2,1.3-0.6c0.4-0.4,0.8-1,1.1-1.6c0.3-0.7,0.4-1.4,0.4-2.1
			c0-0.5-0.1-0.8-0.4-1.1c-0.2-0.3-0.6-0.4-1-0.4c-0.5,0-0.9,0.2-1.3,0.6c-0.4,0.4-0.7,0.9-0.9,1.6s-0.3,1.4-0.3,2.1
			c0,0.5,0.1,0.9,0.3,1.2C-184.1,350-183.8,350.2-183.4,350.2z"/>
		<path class="st4" d="M-172,351.2c-0.6,0-1.1-0.2-1.5-0.7c-0.4-0.5-0.6-1.1-0.6-1.9c0-1,0.2-1.8,0.5-2.7c0.3-0.8,0.8-1.5,1.4-1.9
			c0.6-0.5,1.2-0.7,1.9-0.7c0.4,0,0.8,0.1,1.1,0.3c0.3,0.2,0.6,0.6,0.8,1h0.1l0.5-1.2h1l-1.6,7.7h-1l0.2-1.4h-0.1
			C-170.2,350.7-171.1,351.2-172,351.2z M-171.6,350.2c0.4,0,0.9-0.2,1.3-0.6c0.4-0.4,0.8-1,1.1-1.6c0.3-0.7,0.4-1.4,0.4-2.1
			c0-0.5-0.1-0.8-0.4-1.1c-0.2-0.3-0.6-0.4-1-0.4c-0.5,0-0.9,0.2-1.3,0.6c-0.4,0.4-0.7,0.9-0.9,1.6s-0.3,1.4-0.3,2.1
			c0,0.5,0.1,0.9,0.3,1.2C-172.3,350-172,350.2-171.6,350.2z"/>
		<path class="st4" d="M-159.4,351.2c-0.9,0-1.6-0.2-2.1-0.7s-0.7-1.2-0.7-2.1c0-0.9,0.2-1.8,0.5-2.6c0.3-0.8,0.8-1.4,1.4-1.8
			c0.6-0.4,1.3-0.7,2.1-0.7c0.7,0,1.3,0.1,1.9,0.4l-0.4,1c-0.5-0.2-1-0.4-1.5-0.4c-0.5,0-1,0.2-1.4,0.5c-0.4,0.4-0.7,0.8-1,1.5
			s-0.3,1.3-0.3,2c0,0.6,0.1,1,0.4,1.3c0.3,0.3,0.7,0.5,1.2,0.5c0.3,0,0.7,0,1-0.1c0.3-0.1,0.6-0.2,0.9-0.3v1.1
			C-158,351.1-158.7,351.2-159.4,351.2z"/>
		<path class="st4" d="M-154.5,343.4h1.3l-1,4.8c-0.1,0.4-0.1,0.7-0.1,1c0,0.7,0.3,1,1,1c0.4,0,0.8-0.1,1.2-0.4
			c0.4-0.3,0.7-0.7,1-1.2c0.3-0.5,0.5-1.1,0.7-1.9l0.7-3.3h1.2l-1.6,7.7h-1l0.2-1.4h-0.1c-0.4,0.5-0.8,0.9-1.3,1.2s-0.9,0.4-1.3,0.4
			c-0.6,0-1.1-0.2-1.4-0.5c-0.3-0.3-0.5-0.8-0.5-1.4c0-0.3,0.1-0.7,0.2-1.2L-154.5,343.4z"/>
		<path class="st4" d="M-142.8,343.3c0.5,0,0.9,0.2,1.2,0.4c0.3,0.3,0.5,0.7,0.5,1.3h0.1c0.8-1.1,1.7-1.7,2.6-1.7
			c0.6,0,1.1,0.2,1.4,0.5c0.3,0.3,0.5,0.8,0.5,1.4c0,0.4-0.1,0.8-0.2,1.3l-1,4.7h-1.3l1-4.8c0.1-0.4,0.1-0.8,0.1-1
			c0-0.3-0.1-0.5-0.2-0.7c-0.2-0.2-0.4-0.3-0.7-0.3c-0.4,0-0.7,0.1-1.1,0.4c-0.4,0.3-0.7,0.6-0.9,1.1c-0.3,0.5-0.5,1.1-0.6,1.7
			l-0.7,3.5h-1.3l1-4.8c0.1-0.4,0.1-0.8,0.1-0.9c0-0.7-0.3-1-0.9-1c-0.4,0-0.8,0.1-1.1,0.4c-0.4,0.3-0.7,0.7-1,1.2
			c-0.3,0.5-0.5,1.1-0.6,1.8l-0.7,3.3h-1.3l1.6-7.7h1l-0.2,1.4h0.1c0.3-0.4,0.6-0.7,0.8-0.9c0.2-0.2,0.5-0.3,0.8-0.5
			C-143.4,343.3-143.1,343.3-142.8,343.3z"/>
		<path class="st4" d="M-130.2,343.3c0.7,0,1.2,0.2,1.5,0.7c0.4,0.5,0.5,1.1,0.5,1.9c0,1-0.2,1.9-0.5,2.7c-0.3,0.8-0.8,1.5-1.3,1.9
			c-0.6,0.5-1.2,0.7-1.9,0.7c-0.9,0-1.5-0.4-2-1.3h-0.1c-0.1,0.6-0.1,1.1-0.2,1.3l-0.7,3.3h-1.2l2.3-11.1h1l-0.2,1.4h0.1
			c0.4-0.5,0.9-0.9,1.3-1.2C-131.1,343.4-130.7,343.3-130.2,343.3z M-130.7,344.3c-0.4,0-0.9,0.2-1.3,0.6c-0.4,0.4-0.8,1-1.1,1.6
			c-0.3,0.7-0.4,1.3-0.4,2c0,0.5,0.1,0.9,0.4,1.1c0.2,0.3,0.6,0.4,1.1,0.4c0.5,0,0.9-0.2,1.3-0.6c0.4-0.4,0.7-0.9,0.9-1.6
			s0.3-1.4,0.3-2.1C-129.4,344.8-129.8,344.3-130.7,344.3z"/>
		<path class="st4" d="M-125.8,351.1h-1.3l2.3-10.8h1.3L-125.8,351.1z"/>
		<path class="st4" d="M-122.1,351.1h-1.3l1.6-7.7h1.3L-122.1,351.1z M-121.4,341.5c0-0.3,0.1-0.5,0.2-0.7s0.4-0.3,0.6-0.3
			c0.4,0,0.7,0.2,0.7,0.6c0,0.3-0.1,0.5-0.2,0.7c-0.2,0.2-0.4,0.3-0.6,0.3c-0.2,0-0.4-0.1-0.5-0.2
			C-121.4,341.9-121.4,341.7-121.4,341.5z"/>
		<path class="st4" d="M-114.8,343.3c0.3,0,0.6,0,0.8,0.1l-0.3,1.1c-0.3-0.1-0.5-0.1-0.7-0.1c-0.4,0-0.8,0.1-1.2,0.4s-0.7,0.7-1,1.1
			c-0.3,0.5-0.5,1-0.6,1.6l-0.7,3.5h-1.3l1.6-7.7h1l-0.2,1.4h0.1c0.3-0.4,0.6-0.8,0.8-1c0.2-0.2,0.4-0.3,0.7-0.4
			C-115.4,343.3-115.1,343.3-114.8,343.3z"/>
		<path class="st4" d="M-103.3,346.3c0,0.9-0.2,1.7-0.5,2.5c-0.3,0.8-0.8,1.4-1.4,1.8c-0.6,0.4-1.2,0.6-2,0.6
			c-0.9,0-1.6-0.3-2.1-0.8c-0.5-0.5-0.8-1.2-0.8-2.1c0-0.9,0.2-1.7,0.5-2.5c0.3-0.8,0.8-1.4,1.4-1.8c0.6-0.4,1.2-0.6,1.9-0.6
			c0.9,0,1.6,0.3,2.1,0.8S-103.3,345.4-103.3,346.3z M-104.6,346.1c0-0.5-0.1-1-0.4-1.3c-0.3-0.3-0.7-0.5-1.1-0.5
			c-0.5,0-0.9,0.2-1.3,0.5c-0.4,0.3-0.7,0.8-0.9,1.4c-0.2,0.6-0.3,1.3-0.3,2c0,0.6,0.1,1.1,0.4,1.4c0.3,0.3,0.7,0.5,1.2,0.5
			c0.5,0,0.9-0.2,1.3-0.5c0.4-0.3,0.7-0.8,0.9-1.4C-104.7,347.6-104.6,346.9-104.6,346.1z"/>
		<path class="st4" d="M-98.8,351.2c-0.4,0-0.8-0.1-1.2-0.3s-0.6-0.6-0.8-1h-0.1l-0.5,1.2h-0.9l2.3-10.8h1.3l-0.5,2.6
			c-0.1,0.4-0.2,0.8-0.3,1.3c-0.1,0.4-0.2,0.7-0.2,0.8h0.1c0.5-0.6,0.9-1,1.3-1.2c0.4-0.2,0.8-0.3,1.2-0.3c0.7,0,1.2,0.2,1.5,0.7
			s0.6,1.1,0.6,1.9c0,1-0.2,1.9-0.5,2.7c-0.3,0.8-0.8,1.5-1.3,1.9C-97.5,351-98.1,351.2-98.8,351.2z M-97.6,344.3
			c-0.4,0-0.9,0.2-1.3,0.7s-0.8,1-1.1,1.7c-0.3,0.7-0.4,1.3-0.4,2c0,0.5,0.1,0.9,0.4,1.1c0.2,0.3,0.6,0.4,1.1,0.4
			c0.5,0,0.9-0.2,1.3-0.6c0.4-0.4,0.7-0.9,0.9-1.6s0.3-1.4,0.3-2.1C-96.4,344.8-96.8,344.3-97.6,344.3z"/>
		<path class="st4" d="M-95.3,354.5c-0.3,0-0.6,0-0.9-0.1v-1.1c0.3,0.1,0.5,0.2,0.8,0.2c0.6,0,1-0.5,1.2-1.4l1.8-8.6h1.2l-1.9,8.8
			c-0.2,0.8-0.4,1.4-0.8,1.8S-94.7,354.5-95.3,354.5z M-92.1,341.5c0-0.3,0.1-0.5,0.2-0.7s0.4-0.3,0.6-0.3c0.4,0,0.6,0.2,0.6,0.6
			c0,0.3-0.1,0.5-0.2,0.7c-0.2,0.2-0.4,0.3-0.6,0.3c-0.2,0-0.4-0.1-0.5-0.2C-92,341.9-92.1,341.7-92.1,341.5z"/>
		<path class="st4" d="M-87.3,351.2c-0.9,0-1.5-0.3-2-0.8c-0.5-0.5-0.7-1.2-0.7-2.1c0-0.9,0.2-1.7,0.5-2.5c0.3-0.8,0.8-1.4,1.4-1.9
			c0.6-0.5,1.2-0.7,1.9-0.7c0.7,0,1.3,0.2,1.6,0.5c0.4,0.3,0.6,0.8,0.6,1.3c0,0.8-0.4,1.5-1.2,2s-1.9,0.7-3.3,0.7h-0.2l0,0.5
			c0,0.6,0.1,1,0.4,1.4c0.3,0.3,0.7,0.5,1.3,0.5c0.4,0,0.7-0.1,1-0.2c0.3-0.1,0.7-0.2,1.1-0.4v1.1c-0.5,0.2-0.9,0.4-1.2,0.4
			C-86.5,351.2-86.9,351.2-87.3,351.2z M-86.3,344.3c-0.5,0-0.9,0.2-1.4,0.7s-0.7,1-0.9,1.8h0.1c1,0,1.8-0.1,2.4-0.4
			c0.6-0.3,0.8-0.7,0.8-1.2c0-0.2-0.1-0.4-0.2-0.6C-85.7,344.4-85.9,344.3-86.3,344.3z"/>
		<path class="st4" d="M-80.1,351.2c-0.9,0-1.6-0.2-2.1-0.7s-0.7-1.2-0.7-2.1c0-0.9,0.2-1.8,0.5-2.6c0.3-0.8,0.8-1.4,1.4-1.8
			c0.6-0.4,1.3-0.7,2.1-0.7c0.7,0,1.3,0.1,1.9,0.4l-0.4,1c-0.5-0.2-1-0.4-1.5-0.4c-0.5,0-1,0.2-1.4,0.5c-0.4,0.4-0.7,0.8-1,1.5
			s-0.3,1.3-0.3,2c0,0.6,0.1,1,0.4,1.3c0.3,0.3,0.7,0.5,1.2,0.5c0.3,0,0.7,0,1-0.1c0.3-0.1,0.6-0.2,0.9-0.3v1.1
			C-78.7,351.1-79.4,351.2-80.1,351.2z"/>
		<path class="st4" d="M-74.3,350.2c0.3,0,0.6-0.1,1-0.2v1c-0.1,0.1-0.3,0.1-0.6,0.2c-0.2,0.1-0.5,0.1-0.6,0.1c-0.6,0-1-0.1-1.4-0.4
			c-0.3-0.3-0.5-0.7-0.5-1.2c0-0.3,0-0.6,0.1-1l0.9-4.2h-1.2l0.1-0.6l1.3-0.5l0.9-1.6h0.7l-0.4,1.7h1.9l-0.2,1h-1.9l-0.9,4.2
			c-0.1,0.4-0.1,0.7-0.1,0.8c0,0.2,0.1,0.4,0.2,0.6C-74.8,350.1-74.6,350.2-74.3,350.2z"/>
		<path class="st4" d="M-70.7,351.1H-72l1.6-7.7h1.3L-70.7,351.1z M-70,341.5c0-0.3,0.1-0.5,0.2-0.7s0.4-0.3,0.6-0.3
			c0.4,0,0.7,0.2,0.7,0.6c0,0.3-0.1,0.5-0.2,0.7c-0.2,0.2-0.4,0.3-0.6,0.3c-0.2,0-0.4-0.1-0.5-0.2C-70,341.9-70,341.7-70,341.5z"/>
		<path class="st4" d="M-66.8,343.4h1.3l-1,4.8c-0.1,0.4-0.1,0.7-0.1,1c0,0.7,0.3,1,1,1c0.4,0,0.8-0.1,1.2-0.4
			c0.4-0.3,0.7-0.7,1-1.2c0.3-0.5,0.5-1.1,0.7-1.9l0.7-3.3h1.2l-1.6,7.7h-1l0.2-1.4h-0.1c-0.4,0.5-0.8,0.9-1.3,1.2s-0.9,0.4-1.3,0.4
			c-0.6,0-1.1-0.2-1.4-0.5c-0.3-0.3-0.5-0.8-0.5-1.4c0-0.3,0.1-0.7,0.2-1.2L-66.8,343.4z"/>
		<path class="st4" d="M-55.3,348.9c0,0.7-0.3,1.3-0.8,1.7c-0.5,0.4-1.2,0.6-2.2,0.6c-0.8,0-1.5-0.2-2.1-0.5v-1.2
			c0.3,0.2,0.6,0.3,1,0.4c0.4,0.1,0.7,0.2,1.1,0.2c0.6,0,1-0.1,1.3-0.3c0.3-0.2,0.4-0.5,0.4-0.9c0-0.3-0.1-0.5-0.2-0.7
			s-0.5-0.4-1-0.7c-0.6-0.3-1-0.7-1.3-1c-0.2-0.3-0.4-0.7-0.4-1.2c0-0.7,0.2-1.2,0.7-1.6c0.5-0.4,1.1-0.6,1.9-0.6
			c0.8,0,1.6,0.2,2.3,0.5l-0.4,1c-0.2-0.1-0.5-0.2-0.8-0.3c-0.3-0.1-0.7-0.1-1.1-0.1c-0.4,0-0.7,0.1-1,0.3c-0.2,0.2-0.4,0.4-0.4,0.8
			c0,0.3,0.1,0.5,0.3,0.7c0.2,0.2,0.5,0.4,1,0.7c0.5,0.3,0.9,0.6,1.1,0.8c0.2,0.2,0.3,0.4,0.5,0.6
			C-55.3,348.3-55.3,348.6-55.3,348.9z"/>
		<path class="st4" d="M-54,350.5c0-0.4,0.1-0.6,0.3-0.9c0.2-0.2,0.5-0.3,0.8-0.3c0.2,0,0.4,0.1,0.5,0.2c0.1,0.1,0.2,0.3,0.2,0.6
			c0,0.3-0.1,0.6-0.3,0.8c-0.2,0.2-0.4,0.3-0.8,0.3c-0.2,0-0.4-0.1-0.5-0.2S-54,350.8-54,350.5z"/>
	</g>
</g>
<g>
	<g>
		<path class="st4" d="M-277.8,317.4c-0.6,0-1.1-0.1-1.6-0.2V315c0.5,0.1,0.9,0.2,1.3,0.2c0.6,0,1-0.2,1.3-0.5s0.4-0.9,0.4-1.7
			v-11.8h2.7v11.7c0,1.5-0.3,2.6-1,3.3C-275.5,317-276.5,317.4-277.8,317.4z"/>
		<path class="st4" d="M-264.8,313.7l-0.5-1.3h-0.1c-0.4,0.6-0.9,0.9-1.4,1.2c-0.5,0.2-1.1,0.3-1.8,0.3c-0.9,0-1.6-0.3-2.2-0.8
			c-0.5-0.5-0.8-1.3-0.8-2.2c0-1,0.4-1.8,1.1-2.3c0.7-0.5,1.8-0.8,3.2-0.8l1.7-0.1v-0.4c0-1-0.5-1.5-1.5-1.5c-0.8,0-1.7,0.2-2.7,0.7
			l-0.9-1.8c1.1-0.6,2.3-0.9,3.7-0.9c1.3,0,2.3,0.3,3,0.8s1,1.4,1,2.6v6.4H-264.8z M-265.5,309.3l-1,0c-0.8,0-1.3,0.2-1.7,0.4
			c-0.4,0.3-0.6,0.6-0.6,1.1c0,0.7,0.4,1.1,1.3,1.1c0.6,0,1.1-0.2,1.5-0.5c0.4-0.3,0.5-0.8,0.5-1.4V309.3z"/>
		<path class="st4" d="M-260.3,301.6c0-0.9,0.5-1.3,1.4-1.3s1.4,0.4,1.4,1.3c0,0.4-0.1,0.7-0.4,0.9c-0.2,0.2-0.6,0.3-1.1,0.3
			C-259.9,302.9-260.3,302.5-260.3,301.6z M-257.6,313.7h-2.6v-9.6h2.6V313.7z"/>
		<path class="st4" d="M-246.3,313.7h-2.6v-5.6c0-0.7-0.1-1.2-0.3-1.6c-0.2-0.3-0.6-0.5-1.1-0.5c-0.7,0-1.2,0.2-1.5,0.7
			c-0.3,0.5-0.5,1.3-0.5,2.4v4.5h-2.6v-9.6h2l0.4,1.2h0.1c0.3-0.4,0.6-0.8,1.1-1c0.5-0.2,1-0.4,1.7-0.4c1.4,0,2.4,0.5,2.9,1.4h0.2
			c0.3-0.4,0.6-0.8,1.1-1c0.5-0.2,1.1-0.4,1.7-0.4c1.1,0,1.9,0.3,2.5,0.8c0.6,0.6,0.8,1.5,0.8,2.7v6.3h-2.6v-5.6
			c0-0.7-0.1-1.2-0.3-1.6c-0.2-0.3-0.6-0.5-1.1-0.5c-0.6,0-1.1,0.2-1.4,0.7c-0.3,0.5-0.5,1.2-0.5,2.2V313.7z"/>
		<path class="st4" d="M-233.3,313.9c-1.5,0-2.8-0.4-3.6-1.3c-0.9-0.9-1.3-2.1-1.3-3.6c0-1.6,0.4-2.8,1.2-3.7s1.9-1.3,3.3-1.3
			c1.4,0,2.4,0.4,3.2,1.2c0.8,0.8,1.1,1.8,1.1,3.2v1.3h-6.2c0,0.7,0.2,1.3,0.7,1.7s1,0.6,1.7,0.6c0.6,0,1.1-0.1,1.6-0.2
			s1.1-0.3,1.6-0.6v2c-0.5,0.2-0.9,0.4-1.5,0.5C-231.9,313.8-232.5,313.9-233.3,313.9z M-233.7,305.8c-0.6,0-1,0.2-1.3,0.5
			s-0.5,0.9-0.5,1.5h3.7c0-0.6-0.2-1.1-0.5-1.5C-232.7,306-233.1,305.8-233.7,305.8z"/>
	</g>
</g>
<linearGradient id="SVGID_8_" gradientUnits="userSpaceOnUse" x1="-380.0051" y1="244.0558" x2="-264.2383" y2="125.6229">
	<stop  offset="0" style="stop-color:#F0A868"/>
	<stop  offset="1" style="stop-color:#EFCB67"/>
</linearGradient>
<circle class="st6" cx="-345.8" cy="209.1" r="43.9"/>
<g>
	<defs>
		<circle id="SVGID_9_" cx="-345.8" cy="209" r="40"/>
	</defs>
	<clipPath id="SVGID_10_">
		<use xlink:href="#SVGID_9_"  style="overflow:visible;"/>
	</clipPath>
	<g transform="matrix(1 0 0 1 0 0)" style="clip-path:url(#SVGID_10_);">
		
			<image style="overflow:visible;" width="233" height="390" xlink:href="9BF84A2F180DD8E3.jpg"  transform="matrix(0.3997 0 0 0.3997 -392.3803 165.8957)">
		</image>
	</g>
</g>
<linearGradient id="SVGID_11_" gradientUnits="userSpaceOnUse" x1="-379.6247" y1="359.16" x2="-263.8579" y2="240.7272">
	<stop  offset="0" style="stop-color:#F0A868"/>
	<stop  offset="1" style="stop-color:#EFCB67"/>
</linearGradient>
<circle class="st7" cx="-345.4" cy="324.2" r="43.9"/>
<g>
	<defs>
		<circle id="SVGID_12_" cx="-345.4" cy="324.1" r="40"/>
	</defs>
	<clipPath id="SVGID_13_">
		<use xlink:href="#SVGID_12_"  style="overflow:visible;"/>
	</clipPath>
	<g style="clip-path:url(#SVGID_13_);">
		
			<image style="overflow:visible;" width="182" height="180" xlink:href="9BF84A2F180DD8EC.jpg"  transform="matrix(0.4777 0 0 0.4777 -390 280)">
		</image>
	</g>
</g>
<g>
	<g>
		<path class="st4" d="M47.2,190.4l-1.1-3.6h-5.4l-1.1,3.6h-3.4l5.3-15h3.9l5.3,15H47.2z M45.4,184.2c-1-3.2-1.6-5-1.7-5.5
			s-0.2-0.8-0.3-1c-0.2,0.9-0.9,3-1.9,6.5H45.4z"/>
		<path class="st4" d="M62.5,190.4h-3.1v-6.7c0-0.8-0.1-1.4-0.4-1.9c-0.3-0.4-0.7-0.6-1.3-0.6c-0.8,0-1.4,0.3-1.7,0.9
			s-0.5,1.6-0.5,2.9v5.4h-3.1V179h2.4l0.4,1.5h0.2c0.3-0.5,0.8-0.9,1.3-1.2s1.2-0.4,2-0.4c1.7,0,2.9,0.6,3.5,1.7h0.3
			c0.3-0.5,0.8-0.9,1.4-1.2c0.6-0.3,1.3-0.4,2-0.4c1.3,0,2.3,0.3,2.9,1c0.7,0.7,1,1.7,1,3.2v7.5h-3.1v-6.7c0-0.8-0.1-1.4-0.4-1.9
			c-0.3-0.4-0.7-0.6-1.3-0.6c-0.8,0-1.3,0.3-1.7,0.8c-0.4,0.5-0.6,1.4-0.6,2.6V190.4z"/>
		<path class="st4" d="M80.1,190.4l-0.6-1.6h-0.1c-0.5,0.7-1.1,1.1-1.6,1.4c-0.6,0.3-1.3,0.4-2.2,0.4c-1.1,0-2-0.3-2.6-0.9
			s-0.9-1.5-0.9-2.7c0-1.2,0.4-2.1,1.3-2.7c0.8-0.6,2.1-0.9,3.8-1l2-0.1v-0.5c0-1.2-0.6-1.7-1.8-1.7c-0.9,0-2,0.3-3.2,0.8l-1-2.1
			c1.3-0.7,2.8-1,4.4-1c1.5,0,2.7,0.3,3.5,1s1.2,1.7,1.2,3v7.6H80.1z M79.2,185.1l-1.2,0c-0.9,0-1.6,0.2-2,0.5
			c-0.4,0.3-0.7,0.8-0.7,1.4c0,0.9,0.5,1.3,1.5,1.3c0.7,0,1.3-0.2,1.7-0.6c0.4-0.4,0.6-1,0.6-1.7V185.1z"/>
		<path class="st4" d="M96,190.4h-3.1v-6.7c0-0.8-0.1-1.4-0.4-1.9c-0.3-0.4-0.8-0.6-1.4-0.6c-0.9,0-1.5,0.3-1.9,0.9
			s-0.6,1.5-0.6,2.9v5.4h-3.1V179h2.4l0.4,1.5h0.2c0.3-0.6,0.8-1,1.4-1.3c0.6-0.3,1.3-0.4,2.1-0.4c1.3,0,2.3,0.4,3,1.1
			c0.7,0.7,1,1.8,1,3.1V190.4z"/>
		<path class="st4" d="M102.9,190.6c-1.3,0-2.4-0.5-3.2-1.6c-0.8-1-1.2-2.5-1.2-4.3c0-1.9,0.4-3.3,1.2-4.4c0.8-1,1.9-1.6,3.2-1.6
			c1.4,0,2.5,0.6,3.3,1.7h0.1c-0.2-0.9-0.2-1.6-0.2-2.3v-3.7h3.1v15.9h-2.4l-0.6-1.5h-0.1C105.4,190,104.3,190.6,102.9,190.6z
			 M104,188.1c0.8,0,1.4-0.2,1.8-0.7c0.4-0.5,0.6-1.3,0.6-2.4v-0.3c0-1.2-0.2-2.1-0.6-2.6c-0.4-0.5-1-0.8-1.8-0.8
			c-0.7,0-1.2,0.3-1.6,0.9c-0.4,0.6-0.6,1.4-0.6,2.6c0,1.1,0.2,2,0.6,2.5S103.2,188.1,104,188.1z"/>
		<path class="st4" d="M119.8,190.4l-0.6-1.6h-0.1c-0.5,0.7-1.1,1.1-1.6,1.4c-0.6,0.3-1.3,0.4-2.2,0.4c-1.1,0-2-0.3-2.6-0.9
			s-0.9-1.5-0.9-2.7c0-1.2,0.4-2.1,1.3-2.7c0.8-0.6,2.1-0.9,3.8-1l2-0.1v-0.5c0-1.2-0.6-1.7-1.8-1.7c-0.9,0-2,0.3-3.2,0.8l-1-2.1
			c1.3-0.7,2.8-1,4.4-1c1.5,0,2.7,0.3,3.5,1s1.2,1.7,1.2,3v7.6H119.8z M118.8,185.1l-1.2,0c-0.9,0-1.6,0.2-2,0.5
			c-0.4,0.3-0.7,0.8-0.7,1.4c0,0.9,0.5,1.3,1.5,1.3c0.7,0,1.3-0.2,1.7-0.6c0.4-0.4,0.6-1,0.6-1.7V185.1z"/>
	</g>
</g>
<g>
	<g>
		<path class="st4" d="M53.3,219.9h-1.6V209h-3.8v-1.4h9.2v1.4h-3.8V219.9z"/>
		<path class="st4" d="M62.2,220.1c-1.4,0-2.5-0.4-3.3-1.3c-0.8-0.8-1.2-2-1.2-3.5c0-1.5,0.4-2.7,1.1-3.5s1.7-1.3,3-1.3
			c1.2,0,2.1,0.4,2.8,1.1c0.7,0.7,1,1.8,1,3v0.9h-6.3c0,1,0.3,1.8,0.8,2.4c0.5,0.5,1.2,0.8,2.1,0.8c0.5,0,1,0,1.4-0.1s1-0.3,1.6-0.5
			v1.3c-0.5,0.2-1,0.4-1.4,0.5C63.3,220.1,62.8,220.1,62.2,220.1z M61.8,211.8c-0.7,0-1.3,0.2-1.7,0.7s-0.7,1.1-0.7,1.9H64
			c0-0.9-0.2-1.5-0.6-2S62.5,211.8,61.8,211.8z"/>
		<path class="st4" d="M73.7,219.9l-0.3-1.3h-0.1c-0.5,0.6-0.9,1-1.4,1.2c-0.5,0.2-1,0.3-1.7,0.3c-0.9,0-1.6-0.2-2.1-0.7
			c-0.5-0.5-0.8-1.2-0.8-2c0-1.9,1.5-2.9,4.4-2.9l1.6-0.1v-0.5c0-0.7-0.2-1.2-0.5-1.6s-0.8-0.5-1.5-0.5c-0.5,0-0.9,0.1-1.4,0.2
			c-0.4,0.1-0.8,0.3-1.2,0.5l-0.5-1.1c0.5-0.2,1-0.4,1.5-0.6c0.5-0.1,1.1-0.2,1.6-0.2c1.1,0,1.9,0.2,2.5,0.7
			c0.5,0.5,0.8,1.3,0.8,2.4v6.3H73.7z M70.5,218.9c0.8,0,1.5-0.2,2-0.7c0.5-0.5,0.7-1.1,0.7-1.9v-0.8l-1.4,0.1
			c-1.1,0-1.8,0.2-2.3,0.5c-0.5,0.3-0.7,0.8-0.7,1.4c0,0.5,0.1,0.9,0.4,1.1C69.6,218.8,70,218.9,70.5,218.9z"/>
		<path class="st4" d="M81.3,220.1c-1.3,0-2.4-0.4-3.1-1.2c-0.7-0.8-1.1-2-1.1-3.5c0-1.5,0.4-2.7,1.1-3.6c0.7-0.8,1.8-1.3,3.2-1.3
			c0.4,0,0.9,0,1.3,0.1c0.4,0.1,0.8,0.2,1.1,0.4l-0.5,1.3c-0.8-0.3-1.4-0.4-2-0.4c-0.9,0-1.6,0.3-2.1,0.9c-0.4,0.6-0.7,1.5-0.7,2.6
			c0,1.1,0.2,2,0.7,2.6c0.4,0.6,1.1,0.9,2,0.9c0.8,0,1.6-0.2,2.4-0.5v1.3C83.1,219.9,82.3,220.1,81.3,220.1z"/>
		<path class="st4" d="M92.2,219.9V214c0-0.8-0.2-1.3-0.5-1.7c-0.3-0.4-0.9-0.6-1.6-0.6c-0.9,0-1.6,0.3-2.1,0.8
			c-0.4,0.5-0.7,1.4-0.7,2.6v4.8h-1.5v-13.1h1.5v3.8c0,0.5,0,0.9-0.1,1.3h0.1c0.3-0.4,0.7-0.8,1.2-1.1c0.5-0.3,1.1-0.4,1.7-0.4
			c1.1,0,2,0.3,2.5,0.8c0.6,0.5,0.9,1.4,0.9,2.6v6H92.2z"/>
		<path class="st4" d="M100.5,220.1c-1.4,0-2.5-0.4-3.3-1.3c-0.8-0.8-1.2-2-1.2-3.5c0-1.5,0.4-2.7,1.1-3.5s1.7-1.3,3-1.3
			c1.2,0,2.1,0.4,2.8,1.1c0.7,0.7,1,1.8,1,3v0.9h-6.3c0,1,0.3,1.8,0.8,2.4c0.5,0.5,1.2,0.8,2.1,0.8c0.5,0,1,0,1.4-0.1s1-0.3,1.6-0.5
			v1.3c-0.5,0.2-1,0.4-1.4,0.5C101.6,220.1,101.1,220.1,100.5,220.1z M100.1,211.8c-0.7,0-1.3,0.2-1.7,0.7s-0.7,1.1-0.7,1.9h4.7
			c0-0.9-0.2-1.5-0.6-2S100.8,211.8,100.1,211.8z"/>
		<path class="st4" d="M110.6,210.5c0.4,0,0.8,0,1.1,0.1l-0.2,1.4c-0.3-0.1-0.7-0.1-1-0.1c-0.5,0-0.9,0.1-1.4,0.4
			c-0.4,0.3-0.7,0.6-1,1.1c-0.2,0.5-0.4,1-0.4,1.6v4.9h-1.5v-9.2h1.2l0.2,1.7h0.1c0.4-0.6,0.8-1.1,1.3-1.4
			C109.5,210.7,110,210.5,110.6,210.5z"/>
	</g>
</g>
<g>
	<g>
		<path class="st8" d="M283.6,123.7l-0.5-1.8h-2.7l-0.5,1.8h-1.7l2.6-7.5h1.9l2.7,7.5H283.6z M282.7,120.6c-0.5-1.6-0.8-2.5-0.8-2.7
			c-0.1-0.2-0.1-0.4-0.1-0.5c-0.1,0.4-0.4,1.5-1,3.2H282.7z"/>
		<path class="st8" d="M287.7,123.7h-1.6v-8h1.6V123.7z"/>
		<path class="st8" d="M293.4,123.7l-0.2-0.7h-0.1c-0.2,0.3-0.4,0.5-0.7,0.6s-0.7,0.2-1.1,0.2c-0.7,0-1.2-0.2-1.5-0.5
			c-0.3-0.4-0.5-0.9-0.5-1.6V118h1.6v3.3c0,0.4,0.1,0.7,0.2,0.9c0.1,0.2,0.4,0.3,0.7,0.3c0.4,0,0.8-0.1,0.9-0.4
			c0.2-0.3,0.3-0.8,0.3-1.5V118h1.6v5.7H293.4z"/>
		<path class="st8" d="M301.4,123.7h-1.6v-3.3c0-0.4-0.1-0.7-0.2-0.9c-0.1-0.2-0.4-0.3-0.7-0.3c-0.4,0-0.7,0.1-0.9,0.4
			c-0.2,0.3-0.3,0.8-0.3,1.5v2.7h-1.6V118h1.2l0.2,0.7h0.1c0.2-0.3,0.4-0.5,0.7-0.6c0.3-0.1,0.6-0.2,1-0.2c0.9,0,1.4,0.3,1.7,0.8
			h0.1c0.2-0.3,0.4-0.5,0.7-0.6c0.3-0.1,0.6-0.2,1-0.2c0.6,0,1.1,0.2,1.5,0.5s0.5,0.9,0.5,1.6v3.7h-1.6v-3.3c0-0.4-0.1-0.7-0.2-0.9
			c-0.1-0.2-0.4-0.3-0.7-0.3c-0.4,0-0.7,0.1-0.9,0.4c-0.2,0.3-0.3,0.7-0.3,1.3V123.7z"/>
		<path class="st8" d="M311.8,123.7h-1.6v-3.3c0-0.4-0.1-0.7-0.2-0.9c-0.1-0.2-0.4-0.3-0.7-0.3c-0.4,0-0.8,0.1-0.9,0.4
			c-0.2,0.3-0.3,0.8-0.3,1.5v2.7h-1.6V118h1.2l0.2,0.7h0.1c0.2-0.3,0.4-0.5,0.7-0.6s0.7-0.2,1-0.2c0.7,0,1.2,0.2,1.5,0.5
			s0.5,0.9,0.5,1.6V123.7z"/>
		<path class="st8" d="M316,123.8c-0.9,0-1.6-0.3-2.2-0.8c-0.5-0.5-0.8-1.2-0.8-2.2c0-1,0.2-1.7,0.7-2.2c0.5-0.5,1.1-0.8,2-0.8
			c0.8,0,1.4,0.2,1.9,0.7c0.5,0.5,0.7,1.1,0.7,1.9v0.8h-3.7c0,0.4,0.1,0.8,0.4,1c0.2,0.2,0.6,0.4,1,0.4c0.3,0,0.7,0,1-0.1
			s0.6-0.2,1-0.3v1.2c-0.3,0.1-0.6,0.2-0.9,0.3C316.9,123.8,316.5,123.8,316,123.8z M315.8,119c-0.3,0-0.6,0.1-0.8,0.3
			c-0.2,0.2-0.3,0.5-0.3,0.9h2.2c0-0.4-0.1-0.7-0.3-0.9S316.1,119,315.8,119z"/>
		<path class="st8" d="M323.6,122c0,0.6-0.2,1-0.6,1.3s-1,0.5-1.8,0.5c-0.4,0-0.8,0-1.1-0.1c-0.3-0.1-0.6-0.1-0.8-0.2v-1.3
			c0.3,0.1,0.6,0.3,1,0.3c0.4,0.1,0.7,0.1,1,0.1c0.6,0,0.9-0.2,0.9-0.5c0-0.1,0-0.2-0.1-0.3c-0.1-0.1-0.2-0.2-0.4-0.3
			s-0.4-0.2-0.7-0.3c-0.4-0.2-0.8-0.4-1-0.5c-0.2-0.2-0.4-0.3-0.5-0.5s-0.1-0.5-0.1-0.8c0-0.5,0.2-0.9,0.6-1.2
			c0.4-0.3,1-0.4,1.7-0.4c0.7,0,1.4,0.2,2,0.5l-0.5,1.1c-0.3-0.1-0.6-0.2-0.8-0.3c-0.2-0.1-0.5-0.1-0.8-0.1c-0.5,0-0.7,0.1-0.7,0.4
			c0,0.1,0.1,0.3,0.2,0.4s0.5,0.3,1,0.5c0.4,0.2,0.8,0.3,1,0.5c0.2,0.2,0.4,0.3,0.5,0.5C323.6,121.5,323.6,121.8,323.6,122z"/>
		<path class="st8" d="M331.2,123.7l-0.3-0.8h0c-0.3,0.3-0.5,0.6-0.8,0.7s-0.6,0.2-1.1,0.2c-0.5,0-1-0.2-1.3-0.5
			c-0.3-0.3-0.5-0.8-0.5-1.3c0-0.6,0.2-1.1,0.6-1.3c0.4-0.3,1.1-0.4,1.9-0.5l1,0v-0.3c0-0.6-0.3-0.9-0.9-0.9c-0.5,0-1,0.1-1.6,0.4
			l-0.5-1.1c0.7-0.3,1.4-0.5,2.2-0.5c0.8,0,1.4,0.2,1.8,0.5c0.4,0.3,0.6,0.8,0.6,1.5v3.8H331.2z M330.8,121.1l-0.6,0
			c-0.5,0-0.8,0.1-1,0.2c-0.2,0.2-0.3,0.4-0.3,0.7c0,0.4,0.3,0.7,0.8,0.7c0.4,0,0.7-0.1,0.9-0.3c0.2-0.2,0.3-0.5,0.3-0.8V121.1z"/>
		<path class="st8" d="M337.1,123.8c-0.7,0-1.2-0.2-1.6-0.7h-0.1c0.1,0.5,0.1,0.8,0.1,0.8v2.3h-1.6V118h1.3l0.2,0.7h0.1
			c0.4-0.6,0.9-0.9,1.6-0.9c0.7,0,1.2,0.3,1.6,0.8c0.4,0.5,0.6,1.2,0.6,2.2c0,0.6-0.1,1.1-0.3,1.6c-0.2,0.5-0.4,0.8-0.8,1
			S337.5,123.8,337.1,123.8z M336.6,119.2c-0.4,0-0.7,0.1-0.8,0.4c-0.2,0.2-0.3,0.6-0.3,1.2v0.2c0,0.6,0.1,1.1,0.3,1.3
			s0.5,0.4,0.9,0.4c0.7,0,1-0.6,1-1.7c0-0.6-0.1-1-0.3-1.3C337.2,119.3,337,119.2,336.6,119.2z"/>
		<path class="st8" d="M344.6,123.7l-0.2-0.7h-0.1c-0.2,0.3-0.4,0.5-0.7,0.6s-0.7,0.2-1.1,0.2c-0.7,0-1.2-0.2-1.5-0.5
			c-0.3-0.4-0.5-0.9-0.5-1.6V118h1.6v3.3c0,0.4,0.1,0.7,0.2,0.9c0.1,0.2,0.4,0.3,0.7,0.3c0.4,0,0.8-0.1,0.9-0.4
			c0.2-0.3,0.3-0.8,0.3-1.5V118h1.6v5.7H344.6z"/>
		<path class="st8" d="M352.7,123.7h-1.6v-3.3c0-0.4-0.1-0.7-0.2-0.9c-0.1-0.2-0.4-0.3-0.7-0.3c-0.4,0-0.8,0.1-0.9,0.4
			c-0.2,0.3-0.3,0.8-0.3,1.5v2.7h-1.6V118h1.2l0.2,0.7h0.1c0.2-0.3,0.4-0.5,0.7-0.6s0.7-0.2,1-0.2c0.7,0,1.2,0.2,1.5,0.5
			s0.5,0.9,0.5,1.6V123.7z"/>
		<path class="st8" d="M356.8,122.6c0.3,0,0.6-0.1,1-0.2v1.2c-0.4,0.2-0.9,0.3-1.4,0.3c-0.6,0-1.1-0.2-1.4-0.5
			c-0.3-0.3-0.4-0.8-0.4-1.4v-2.8h-0.7v-0.7l0.9-0.5l0.5-1.2h1v1.2h1.6v1.2h-1.6v2.8c0,0.2,0.1,0.4,0.2,0.5
			C356.4,122.5,356.6,122.6,356.8,122.6z"/>
		<path class="st8" d="M362.5,123.7l-0.3-0.8h0c-0.3,0.3-0.5,0.6-0.8,0.7s-0.6,0.2-1.1,0.2c-0.5,0-1-0.2-1.3-0.5
			c-0.3-0.3-0.5-0.8-0.5-1.3c0-0.6,0.2-1.1,0.6-1.3c0.4-0.3,1.1-0.4,1.9-0.5l1,0v-0.3c0-0.6-0.3-0.9-0.9-0.9c-0.5,0-1,0.1-1.6,0.4
			l-0.5-1.1c0.7-0.3,1.4-0.5,2.2-0.5c0.8,0,1.4,0.2,1.8,0.5c0.4,0.3,0.6,0.8,0.6,1.5v3.8H362.5z M362.1,121.1l-0.6,0
			c-0.5,0-0.8,0.1-1,0.2c-0.2,0.2-0.3,0.4-0.3,0.7c0,0.4,0.3,0.7,0.8,0.7c0.4,0,0.7-0.1,0.9-0.3c0.2-0.2,0.3-0.5,0.3-0.8V121.1z"/>
		<path class="st8" d="M367.7,122.6c0.3,0,0.6-0.1,1-0.2v1.2c-0.4,0.2-0.9,0.3-1.4,0.3c-0.6,0-1.1-0.2-1.4-0.5
			c-0.3-0.3-0.4-0.8-0.4-1.4v-2.8h-0.7v-0.7l0.9-0.5l0.5-1.2h1v1.2h1.6v1.2H367v2.8c0,0.2,0.1,0.4,0.2,0.5
			C367.3,122.5,367.5,122.6,367.7,122.6z"/>
		<path class="st8" d="M373.8,122c0,0.6-0.2,1-0.6,1.3s-1,0.5-1.8,0.5c-0.4,0-0.8,0-1.1-0.1c-0.3-0.1-0.6-0.1-0.8-0.2v-1.3
			c0.3,0.1,0.6,0.3,1,0.3c0.4,0.1,0.7,0.1,1,0.1c0.6,0,0.9-0.2,0.9-0.5c0-0.1,0-0.2-0.1-0.3c-0.1-0.1-0.2-0.2-0.4-0.3
			s-0.4-0.2-0.7-0.3c-0.4-0.2-0.8-0.4-1-0.5c-0.2-0.2-0.4-0.3-0.5-0.5s-0.1-0.5-0.1-0.8c0-0.5,0.2-0.9,0.6-1.2
			c0.4-0.3,1-0.4,1.7-0.4c0.7,0,1.4,0.2,2,0.5l-0.5,1.1c-0.3-0.1-0.6-0.2-0.8-0.3c-0.2-0.1-0.5-0.1-0.8-0.1c-0.5,0-0.7,0.1-0.7,0.4
			c0,0.1,0.1,0.3,0.2,0.4s0.5,0.3,1,0.5c0.4,0.2,0.8,0.3,1,0.5c0.2,0.2,0.4,0.3,0.5,0.5C373.7,121.5,373.8,121.8,373.8,122z"/>
	</g>
</g>
<g>
	<g>
		<path class="st8" d="M313.7,100.2h-12.4V66.4c0-0.7,0-1.5,0-2.5c0-1,0-2,0.1-3s0.1-2.1,0.1-3.2c0-1.1,0.1-2,0.1-2.9
			c-0.1,0.2-0.4,0.4-0.7,0.7c-0.3,0.3-0.7,0.7-1.1,1.1c-0.4,0.4-0.8,0.8-1.2,1.2s-0.8,0.8-1.2,1.1l-6.7,5.4l-6-7.4l18.8-15h10.2
			V100.2z"/>
		<path class="st8" d="M348.7,41c2.4,0,4.7,0.3,6.9,0.9c2.2,0.6,4.1,1.5,5.7,2.6c1.6,1.2,2.9,2.6,3.9,4.4c1,1.8,1.4,3.8,1.4,6.2
			c0,1.8-0.3,3.4-0.8,4.8c-0.5,1.4-1.3,2.7-2.2,3.9c-0.9,1.2-2,2.2-3.3,3.1c-1.3,0.9-2.7,1.7-4.2,2.5c1.5,0.8,3.1,1.7,4.5,2.8
			s2.8,2.2,3.9,3.4c1.1,1.3,2.1,2.7,2.8,4.3c0.7,1.6,1,3.3,1,5.3c0,2.4-0.5,4.6-1.4,6.6c-1,2-2.3,3.7-4,5s-3.8,2.5-6.2,3.2
			c-2.4,0.7-5.1,1.1-8,1.1c-3.1,0-5.9-0.4-8.4-1.1c-2.5-0.7-4.5-1.7-6.2-3.1c-1.7-1.3-3-3-3.8-4.9c-0.9-1.9-1.3-4.1-1.3-6.6
			c0-2,0.3-3.8,0.9-5.4c0.6-1.6,1.4-3,2.4-4.3c1-1.3,2.2-2.4,3.6-3.4c1.4-1,2.8-1.9,4.4-2.6c-1.3-0.8-2.5-1.7-3.7-2.7
			c-1.1-1-2.1-2.1-3-3.2c-0.8-1.2-1.5-2.5-2-3.9c-0.5-1.4-0.7-3-0.7-4.8c0-2.3,0.5-4.4,1.5-6.1c1-1.7,2.3-3.2,3.9-4.4
			c1.7-1.2,3.6-2.1,5.7-2.7C344.1,41.3,346.4,41,348.7,41z M340.5,84.6c0,1.1,0.2,2,0.5,2.9c0.3,0.9,0.9,1.7,1.5,2.3
			c0.7,0.6,1.5,1.1,2.5,1.5c1,0.4,2.2,0.5,3.5,0.5c2.8,0,4.9-0.7,6.3-2c1.4-1.3,2.1-3.1,2.1-5.2c0-1.1-0.2-2.1-0.7-3
			c-0.5-0.9-1.1-1.7-1.8-2.5s-1.6-1.5-2.5-2.1c-0.9-0.6-1.9-1.3-2.8-1.8l-0.9-0.6c-1.2,0.6-2.2,1.2-3.2,1.9c-1,0.7-1.8,1.4-2.5,2.2
			c-0.7,0.8-1.2,1.7-1.6,2.7C340.6,82.5,340.5,83.5,340.5,84.6z M348.7,50c-0.9,0-1.7,0.1-2.5,0.4c-0.8,0.3-1.4,0.7-2,1.2
			c-0.5,0.5-1,1.1-1.3,1.9c-0.3,0.7-0.5,1.6-0.5,2.5c0,1.1,0.2,2.1,0.5,2.9c0.3,0.8,0.8,1.5,1.4,2.2c0.6,0.6,1.2,1.2,2,1.7
			c0.8,0.5,1.6,1,2.4,1.5c0.8-0.4,1.6-0.9,2.4-1.4c0.7-0.5,1.4-1.1,2-1.7c0.6-0.7,1-1.4,1.4-2.2C354.8,58,355,57,355,56
			c0-0.9-0.2-1.8-0.5-2.5c-0.3-0.7-0.8-1.4-1.3-1.9c-0.6-0.5-1.2-0.9-2-1.2C350.4,50.1,349.6,50,348.7,50z"/>
	</g>
</g>
</svg>
