<?xml version="1.0" encoding="utf-8"?>
<!-- Generator: Adobe Illustrator 21.0.2, SVG Export Plug-In . SVG Version: 6.00 Build 0)  -->
<svg version="1.1" id="Capa_1" xmlns="http://www.w3.org/2000/svg" xmlns:xlink="http://www.w3.org/1999/xlink" x="0px" y="0px"
	 viewBox="0 0 413 191" style="enable-background:new 0 0 413 191;" xml:space="preserve">
<style type="text/css">
	.st0{fill:url(#SVGID_1_);}
	.st1{fill:url(#SVGID_4_);}
	.st2{fill:#F9F9FF;}
	.st3{fill:#333333;}
	.st4{fill:url(#SVGID_5_);}
	.st5{fill:url(#SVGID_8_);}
	.st6{fill:url(#SVGID_11_);}
	.st7{display:none;}
	.st8{display:inline;fill:#F9F9FF;}
	.st9{font-family:'NotoSans-Bold';}
	.st10{font-size:81.9009px;}
	.st11{fill:url(#SVGID_14_);}
	.st12{fill:url(#SVGID_15_);}
	.st13{fill:url(#SVGID_18_);}
	.st14{fill:url(#SVGID_21_);}
	.st15{opacity:0.1;}
	.st16{fill:url(#SVGID_22_);stroke:#F9F9FF;stroke-miterlimit:10;}
</style>
<linearGradient id="SVGID_1_" gradientUnits="userSpaceOnUse" x1="19.248" y1="-126.9872" x2="224.4536" y2="-336.9184">
	<stop  offset="0" style="stop-color:#F0A868"/>
	<stop  offset="1" style="stop-color:#EFCB67"/>
</linearGradient>
<circle class="st0" cx="79.9" cy="-189" r="77.9"/>
<g>
	<defs>
		<circle id="SVGID_2_" cx="79.9" cy="-189.1" r="70.9"/>
	</defs>
	<clipPath id="SVGID_3_">
		<use xlink:href="#SVGID_2_"  style="overflow:visible;"/>
	</clipPath>
	<g transform="matrix(1 0 0 1 4.768372e-07 0)" style="clip-path:url(#SVGID_3_);">
		
			<image style="overflow:visible;" width="570" height="390" xlink:href="teacher.jpg"  transform="matrix(0.4769 0 0 0.4769 8 -260)">
		</image>
	</g>
</g>
<linearGradient id="SVGID_4_" gradientUnits="userSpaceOnUse" x1="274.8484" y1="-104.8175" x2="432.7035" y2="-363.8524">
	<stop  offset="0" style="stop-color:#F0A868"/>
	<stop  offset="0.7004" style="stop-color:#EFC167"/>
	<stop  offset="1" style="stop-color:#EFCB67"/>
</linearGradient>
<circle class="st1" cx="326.1" cy="-189" r="77.9"/>
<g>
	<path class="st2" d="M312.8-169.5h-12.7v-34.7c0-0.7,0-1.6,0-2.6c0-1,0-2,0.1-3.1c0-1.1,0.1-2.2,0.1-3.3c0-1.1,0.1-2.1,0.1-3
		c-0.1,0.2-0.4,0.4-0.7,0.7c-0.3,0.3-0.7,0.7-1.1,1.1c-0.4,0.4-0.8,0.8-1.3,1.2c-0.4,0.4-0.9,0.8-1.3,1.1l-6.9,5.5l-6.2-7.6
		l19.3-15.4h10.4V-169.5z"/>
	<path class="st2" d="M369.2-169.5H329v-8.8l14.1-15.2c1.8-1.9,3.4-3.7,4.8-5.3c1.4-1.6,2.7-3.2,3.7-4.7c1-1.5,1.8-3.1,2.4-4.7
		c0.6-1.6,0.9-3.3,0.9-5.1c0-2-0.6-3.6-1.8-4.7c-1.2-1.1-2.8-1.7-4.9-1.7c-2.2,0-4.2,0.5-6.2,1.6c-2,1.1-4.1,2.6-6.3,4.6l-6.9-8.2
		c1.2-1.1,2.5-2.2,3.9-3.2c1.3-1,2.8-1.9,4.4-2.7c1.6-0.8,3.4-1.4,5.3-1.9c1.9-0.5,4.1-0.7,6.5-0.7c2.9,0,5.4,0.4,7.7,1.2
		c2.3,0.8,4.2,1.9,5.8,3.4c1.6,1.5,2.8,3.2,3.7,5.3c0.9,2.1,1.3,4.4,1.3,7c0,2.4-0.4,4.6-1.2,6.7c-0.8,2.1-1.9,4.3-3.4,6.3
		c-1.4,2.1-3.1,4.1-4.9,6.2c-1.9,2-3.9,4.1-6,6.2l-7.2,7.3v0.6h24.4V-169.5z"/>
</g>
<g>
	<g>
		<path class="st3" d="M-268.8,46.4l-0.9-3h-4.6l-0.9,3h-2.9l4.4-12.6h3.3l4.4,12.6H-268.8z M-270.3,41.2c-0.8-2.7-1.3-4.2-1.4-4.6
			s-0.2-0.6-0.2-0.8c-0.2,0.7-0.7,2.5-1.6,5.4H-270.3z"/>
		<path class="st3" d="M-261.5,46.6c-1.1,0-2-0.4-2.7-1.3c-0.6-0.9-1-2.1-1-3.6c0-1.6,0.3-2.8,1-3.7c0.7-0.9,1.6-1.3,2.7-1.3
			c1.2,0,2.1,0.5,2.8,1.4h0.1c-0.1-0.7-0.2-1.4-0.2-1.9v-3.1h2.6v13.3h-2l-0.5-1.2h-0.1C-259.4,46.1-260.3,46.6-261.5,46.6z
			 M-260.6,44.5c0.7,0,1.2-0.2,1.5-0.6c0.3-0.4,0.5-1,0.5-2v-0.3c0-1-0.2-1.8-0.5-2.2c-0.3-0.4-0.8-0.7-1.5-0.7
			c-0.6,0-1,0.2-1.4,0.7c-0.3,0.5-0.5,1.2-0.5,2.2c0,0.9,0.2,1.7,0.5,2.1C-261.7,44.3-261.2,44.5-260.6,44.5z"/>
		<path class="st3" d="M-247.3,46.4l-0.5-1.3h-0.1c-0.4,0.6-0.9,0.9-1.4,1.2c-0.5,0.2-1.1,0.3-1.8,0.3c-0.9,0-1.6-0.3-2.2-0.8
			c-0.5-0.5-0.8-1.3-0.8-2.2c0-1,0.4-1.8,1.1-2.3c0.7-0.5,1.8-0.8,3.2-0.8l1.7-0.1V40c0-1-0.5-1.5-1.5-1.5c-0.8,0-1.7,0.2-2.7,0.7
			l-0.9-1.8c1.1-0.6,2.3-0.9,3.7-0.9c1.3,0,2.3,0.3,3,0.8c0.7,0.6,1,1.4,1,2.6v6.4H-247.3z M-248.1,42l-1,0c-0.8,0-1.3,0.2-1.7,0.4
			c-0.4,0.3-0.6,0.6-0.6,1.1c0,0.7,0.4,1.1,1.3,1.1c0.6,0,1.1-0.2,1.5-0.5c0.4-0.3,0.5-0.8,0.5-1.4V42z"/>
		<path class="st3" d="M-234.2,46.4h-2.6v-5.6c0-0.7-0.1-1.2-0.3-1.6c-0.2-0.3-0.6-0.5-1.1-0.5c-0.7,0-1.2,0.2-1.5,0.7
			c-0.3,0.5-0.5,1.3-0.5,2.4v4.5h-2.6v-9.6h2l0.4,1.2h0.1c0.3-0.4,0.6-0.8,1.1-1c0.5-0.2,1-0.4,1.7-0.4c1.4,0,2.4,0.5,2.9,1.4h0.2
			c0.3-0.4,0.6-0.8,1.1-1c0.5-0.2,1.1-0.4,1.7-0.4c1.1,0,1.9,0.3,2.5,0.8c0.6,0.6,0.8,1.5,0.8,2.7v6.3h-2.6v-5.6
			c0-0.7-0.1-1.2-0.3-1.6c-0.2-0.3-0.6-0.5-1.1-0.5c-0.6,0-1.1,0.2-1.4,0.7c-0.3,0.5-0.5,1.2-0.5,2.2V46.4z"/>
	</g>
</g>
<g>
	<g>
		<path class="st3" d="M-272.3,70.9h-5.2l2.2-10.2h5.2l-0.2,1.1h-3.9l-0.7,3.2h3.6l-0.2,1.1h-3.7l-0.8,3.6h3.9L-272.3,70.9z"/>
		<path class="st3" d="M-269,70.9h-1.3l2.3-10.8h1.3L-269,70.9z"/>
		<path class="st3" d="M-259.8,71.1c-0.9,0-1.6-0.2-2.1-0.7c-0.5-0.5-0.7-1.2-0.7-2.1c0-0.9,0.2-1.8,0.5-2.6
			c0.3-0.8,0.8-1.4,1.4-1.8s1.3-0.7,2.1-0.7c0.7,0,1.3,0.1,1.9,0.4l-0.4,1c-0.5-0.2-1-0.4-1.5-0.4c-0.5,0-1,0.2-1.4,0.5
			c-0.4,0.4-0.7,0.8-1,1.5c-0.2,0.6-0.3,1.3-0.3,2c0,0.6,0.1,1,0.4,1.3c0.3,0.3,0.7,0.5,1.2,0.5c0.3,0,0.7,0,1-0.1
			c0.3-0.1,0.6-0.2,0.9-0.3v1.1C-258.4,70.9-259.1,71.1-259.8,71.1z"/>
		<path class="st3" d="M-249.5,66.1c0,0.9-0.2,1.7-0.5,2.5s-0.8,1.4-1.4,1.8s-1.2,0.6-2,0.6c-0.9,0-1.6-0.3-2.1-0.8
			c-0.5-0.5-0.8-1.2-0.8-2.1c0-0.9,0.2-1.7,0.5-2.5c0.3-0.8,0.8-1.4,1.4-1.8s1.2-0.6,1.9-0.6c0.9,0,1.6,0.3,2.1,0.8
			C-249.7,64.5-249.5,65.2-249.5,66.1z M-250.8,66c0-0.5-0.1-1-0.4-1.3c-0.3-0.3-0.7-0.5-1.1-0.5c-0.5,0-0.9,0.2-1.3,0.5
			c-0.4,0.3-0.7,0.8-0.9,1.4c-0.2,0.6-0.3,1.3-0.3,2c0,0.6,0.1,1.1,0.4,1.4c0.3,0.3,0.7,0.5,1.2,0.5c0.5,0,0.9-0.2,1.3-0.5
			c0.4-0.3,0.7-0.8,0.9-1.4C-250.9,67.5-250.8,66.8-250.8,66z"/>
		<path class="st3" d="M-243.4,63.2c0.5,0,0.9,0.1,1.2,0.4c0.3,0.3,0.5,0.7,0.5,1.3h0.1c0.8-1.1,1.7-1.7,2.6-1.7
			c0.6,0,1.1,0.2,1.4,0.5c0.3,0.3,0.5,0.8,0.5,1.4c0,0.4-0.1,0.8-0.2,1.3l-1,4.7h-1.3l1-4.8c0.1-0.4,0.1-0.8,0.1-1
			c0-0.3-0.1-0.5-0.2-0.7c-0.2-0.2-0.4-0.3-0.7-0.3c-0.4,0-0.7,0.1-1.1,0.4s-0.7,0.6-0.9,1.1c-0.3,0.5-0.5,1.1-0.6,1.7l-0.7,3.5
			h-1.3l1-4.8c0.1-0.4,0.1-0.8,0.1-0.9c0-0.7-0.3-1-0.9-1c-0.4,0-0.8,0.1-1.1,0.4c-0.4,0.3-0.7,0.7-1,1.2s-0.5,1.1-0.6,1.8l-0.7,3.3
			h-1.3l1.6-7.7h1l-0.2,1.4h0.1c0.3-0.4,0.6-0.7,0.8-0.9s0.5-0.3,0.8-0.5C-244,63.2-243.7,63.2-243.4,63.2z"/>
		<path class="st3" d="M-230.8,63.2c0.7,0,1.2,0.2,1.5,0.7c0.4,0.5,0.5,1.1,0.5,1.9c0,1-0.2,1.9-0.5,2.7c-0.3,0.8-0.8,1.5-1.3,1.9
			c-0.6,0.5-1.2,0.7-1.9,0.7c-0.9,0-1.5-0.4-2-1.3h-0.1c-0.1,0.6-0.1,1.1-0.2,1.3l-0.7,3.3h-1.2l2.3-11.1h1l-0.2,1.4h0.1
			c0.4-0.5,0.9-0.9,1.3-1.2C-231.7,63.3-231.3,63.2-230.8,63.2z M-231.2,64.2c-0.4,0-0.9,0.2-1.3,0.6c-0.4,0.4-0.8,1-1.1,1.6
			s-0.4,1.3-0.4,2c0,0.5,0.1,0.9,0.4,1.1s0.6,0.4,1.1,0.4c0.5,0,0.9-0.2,1.3-0.6c0.4-0.4,0.7-0.9,0.9-1.6c0.2-0.7,0.3-1.4,0.3-2.1
			C-230,64.7-230.4,64.2-231.2,64.2z"/>
		<path class="st3" d="M-225.3,71.1c-0.6,0-1.1-0.2-1.5-0.7c-0.4-0.5-0.6-1.1-0.6-1.9c0-1,0.2-1.8,0.5-2.7s0.8-1.5,1.4-1.9
			c0.6-0.5,1.2-0.7,1.9-0.7c0.4,0,0.8,0.1,1.1,0.3c0.3,0.2,0.6,0.6,0.8,1h0.1l0.5-1.2h1l-1.6,7.7h-1l0.2-1.4h-0.1
			C-223.5,70.6-224.4,71.1-225.3,71.1z M-224.9,70c0.4,0,0.9-0.2,1.3-0.6c0.4-0.4,0.8-1,1.1-1.6s0.4-1.4,0.4-2.1
			c0-0.5-0.1-0.8-0.4-1.1c-0.3-0.3-0.6-0.4-1-0.4c-0.5,0-0.9,0.2-1.3,0.6s-0.7,0.9-0.9,1.6c-0.2,0.7-0.3,1.4-0.3,2.1
			c0,0.5,0.1,0.9,0.3,1.2S-225.3,70-224.9,70z"/>
		<path class="st3" d="M-213.6,70.9h-1.3l1-4.8c0.1-0.5,0.1-0.8,0.1-1c0-0.3-0.1-0.5-0.2-0.7c-0.2-0.2-0.4-0.3-0.8-0.3
			c-0.4,0-0.8,0.1-1.2,0.4c-0.4,0.3-0.7,0.7-1,1.2c-0.3,0.5-0.5,1.1-0.7,1.8l-0.7,3.3h-1.3l1.6-7.7h1l-0.2,1.4h0.1
			c0.3-0.4,0.6-0.7,0.8-0.9s0.5-0.4,0.8-0.5c0.3-0.1,0.6-0.2,0.9-0.2c0.6,0,1.1,0.2,1.4,0.5c0.3,0.3,0.5,0.8,0.5,1.4
			c0,0.4-0.1,0.8-0.2,1.3L-213.6,70.9z"/>
		<path class="st3" d="M-211,63.3h1.3l0.5,3.8c0.1,0.3,0.1,0.8,0.1,1.4s0.1,1.1,0.1,1.5h0c0.1-0.3,0.3-0.7,0.5-1.2
			c0.2-0.5,0.4-0.9,0.6-1.2l2.2-4.2h1.3l-4.9,8.9c-0.4,0.8-0.8,1.3-1.3,1.7c-0.4,0.3-1,0.5-1.6,0.5c-0.4,0-0.7,0-1-0.1v-1
			c0.3,0.1,0.6,0.1,0.9,0.1c0.4,0,0.7-0.1,1-0.4c0.3-0.2,0.5-0.6,0.8-1l0.5-0.9L-211,63.3z"/>
		<path class="st3" d="M-201.6,71.1c-0.9,0-1.5-0.3-2-0.8c-0.5-0.5-0.7-1.2-0.7-2.1c0-0.9,0.2-1.7,0.5-2.5c0.3-0.8,0.8-1.4,1.4-1.9
			c0.6-0.5,1.2-0.7,1.9-0.7c0.7,0,1.3,0.2,1.6,0.5c0.4,0.3,0.6,0.8,0.6,1.3c0,0.8-0.4,1.5-1.2,2c-0.8,0.5-1.9,0.7-3.3,0.7h-0.2
			l0,0.5c0,0.6,0.1,1,0.4,1.4c0.3,0.3,0.7,0.5,1.3,0.5c0.4,0,0.7-0.1,1-0.2c0.3-0.1,0.7-0.2,1.1-0.4v1.1c-0.5,0.2-0.9,0.4-1.2,0.4
			C-200.8,71-201.2,71.1-201.6,71.1z M-200.6,64.2c-0.5,0-0.9,0.2-1.4,0.7s-0.7,1-0.9,1.8h0.1c1,0,1.8-0.1,2.4-0.4
			c0.6-0.3,0.8-0.7,0.8-1.2c0-0.2-0.1-0.4-0.3-0.6C-200,64.3-200.2,64.2-200.6,64.2z"/>
		<path class="st3" d="M-192.6,63.2c0.3,0,0.6,0,0.8,0.1l-0.3,1.1c-0.3-0.1-0.5-0.1-0.7-0.1c-0.4,0-0.8,0.1-1.2,0.4
			c-0.4,0.3-0.7,0.7-1,1.1c-0.3,0.5-0.5,1-0.6,1.6l-0.7,3.5h-1.3l1.6-7.7h1l-0.2,1.4h0.1c0.3-0.4,0.6-0.8,0.8-1
			c0.2-0.2,0.4-0.3,0.7-0.4C-193.2,63.2-192.9,63.2-192.6,63.2z"/>
		<path class="st3" d="M-190.6,70.9h-1.3l1.6-7.7h1.3L-190.6,70.9z M-189.9,61.4c0-0.3,0.1-0.5,0.2-0.7s0.4-0.3,0.6-0.3
			c0.4,0,0.7,0.2,0.7,0.6c0,0.3-0.1,0.5-0.2,0.7c-0.2,0.2-0.4,0.3-0.6,0.3c-0.2,0-0.4-0.1-0.5-0.2
			C-189.8,61.7-189.9,61.6-189.9,61.4z"/>
		<path class="st3" d="M-183.4,68.7c0,0.7-0.3,1.3-0.8,1.7c-0.5,0.4-1.2,0.6-2.2,0.6c-0.8,0-1.5-0.2-2.1-0.5v-1.2
			c0.3,0.2,0.6,0.3,1,0.4c0.4,0.1,0.7,0.2,1.1,0.2c0.6,0,1-0.1,1.3-0.3c0.3-0.2,0.4-0.5,0.4-0.9c0-0.3-0.1-0.5-0.2-0.7
			s-0.5-0.4-1-0.7c-0.6-0.3-1-0.7-1.3-1c-0.2-0.3-0.4-0.7-0.4-1.2c0-0.7,0.2-1.2,0.7-1.6c0.5-0.4,1.1-0.6,1.9-0.6
			c0.8,0,1.6,0.2,2.3,0.5l-0.4,1c-0.2-0.1-0.5-0.2-0.8-0.3c-0.3-0.1-0.7-0.1-1.1-0.1c-0.4,0-0.7,0.1-1,0.3c-0.2,0.2-0.4,0.4-0.4,0.8
			c0,0.3,0.1,0.5,0.3,0.7c0.2,0.2,0.5,0.4,1,0.7c0.5,0.3,0.9,0.6,1.1,0.8c0.2,0.2,0.3,0.4,0.5,0.6S-183.4,68.4-183.4,68.7z"/>
		<path class="st3" d="M-177,63.2c0.5,0,0.9,0.1,1.2,0.4c0.3,0.3,0.5,0.7,0.5,1.3h0.1c0.8-1.1,1.7-1.7,2.6-1.7
			c0.6,0,1.1,0.2,1.4,0.5c0.3,0.3,0.5,0.8,0.5,1.4c0,0.4-0.1,0.8-0.2,1.3l-1,4.7h-1.3l1-4.8c0.1-0.4,0.1-0.8,0.1-1
			c0-0.3-0.1-0.5-0.2-0.7c-0.2-0.2-0.4-0.3-0.7-0.3c-0.4,0-0.7,0.1-1.1,0.4c-0.4,0.3-0.7,0.6-0.9,1.1c-0.3,0.5-0.5,1.1-0.6,1.7
			l-0.7,3.5h-1.3l1-4.8c0.1-0.4,0.1-0.8,0.1-0.9c0-0.7-0.3-1-0.9-1c-0.4,0-0.8,0.1-1.1,0.4c-0.4,0.3-0.7,0.7-1,1.2s-0.5,1.1-0.6,1.8
			l-0.7,3.3h-1.3l1.6-7.7h1l-0.2,1.4h0.1c0.3-0.4,0.6-0.7,0.8-0.9c0.2-0.2,0.5-0.3,0.8-0.5C-177.6,63.2-177.3,63.2-177,63.2z"/>
		<path class="st3" d="M-166.4,71.1c-0.9,0-1.5-0.3-2-0.8c-0.5-0.5-0.7-1.2-0.7-2.1c0-0.9,0.2-1.7,0.5-2.5c0.3-0.8,0.8-1.4,1.4-1.9
			c0.6-0.5,1.2-0.7,1.9-0.7c0.7,0,1.3,0.2,1.6,0.5c0.4,0.3,0.6,0.8,0.6,1.3c0,0.8-0.4,1.5-1.2,2s-1.9,0.7-3.3,0.7h-0.2l0,0.5
			c0,0.6,0.1,1,0.4,1.4s0.7,0.5,1.3,0.5c0.4,0,0.7-0.1,1-0.2c0.3-0.1,0.7-0.2,1.1-0.4v1.1c-0.5,0.2-0.9,0.4-1.2,0.4
			S-166,71.1-166.4,71.1z M-165.4,64.2c-0.5,0-0.9,0.2-1.4,0.7s-0.7,1-0.9,1.8h0.1c1,0,1.8-0.1,2.4-0.4c0.6-0.3,0.8-0.7,0.8-1.2
			c0-0.2-0.1-0.4-0.2-0.6C-164.8,64.3-165.1,64.2-165.4,64.2z"/>
		<path class="st3" d="M-155.6,71.1c-0.9,0-1.5-0.3-2-0.8c-0.5-0.5-0.7-1.2-0.7-2.1c0-0.9,0.2-1.7,0.5-2.5c0.3-0.8,0.8-1.4,1.4-1.9
			c0.6-0.5,1.2-0.7,1.9-0.7c0.7,0,1.3,0.2,1.6,0.5c0.4,0.3,0.6,0.8,0.6,1.3c0,0.8-0.4,1.5-1.2,2s-1.9,0.7-3.3,0.7h-0.2l0,0.5
			c0,0.6,0.1,1,0.4,1.4s0.7,0.5,1.3,0.5c0.4,0,0.7-0.1,1-0.2c0.3-0.1,0.7-0.2,1.1-0.4v1.1c-0.5,0.2-0.9,0.4-1.2,0.4
			S-155.2,71.1-155.6,71.1z M-154.6,64.2c-0.5,0-0.9,0.2-1.4,0.7s-0.7,1-0.9,1.8h0.1c1,0,1.8-0.1,2.4-0.4c0.6-0.3,0.8-0.7,0.8-1.2
			c0-0.2-0.1-0.4-0.2-0.6C-154,64.3-154.3,64.2-154.6,64.2z M-155,62.1c0.2-0.3,0.5-0.6,0.8-1c0.3-0.4,0.6-0.8,0.8-1.1h1.4v0.1
			c-0.2,0.3-0.6,0.6-1,1.1c-0.5,0.5-0.9,0.8-1.2,1.1h-0.8V62.1z"/>
		<path class="st3" d="M-146.8,68.7c0,0.7-0.3,1.3-0.8,1.7c-0.5,0.4-1.2,0.6-2.2,0.6c-0.8,0-1.5-0.2-2.1-0.5v-1.2
			c0.3,0.2,0.6,0.3,1,0.4c0.4,0.1,0.7,0.2,1.1,0.2c0.6,0,1-0.1,1.3-0.3c0.3-0.2,0.4-0.5,0.4-0.9c0-0.3-0.1-0.5-0.2-0.7
			s-0.5-0.4-1-0.7c-0.6-0.3-1-0.7-1.3-1c-0.2-0.3-0.4-0.7-0.4-1.2c0-0.7,0.2-1.2,0.7-1.6c0.5-0.4,1.1-0.6,1.9-0.6
			c0.8,0,1.6,0.2,2.3,0.5l-0.4,1c-0.2-0.1-0.5-0.2-0.8-0.3c-0.3-0.1-0.7-0.1-1.1-0.1c-0.4,0-0.7,0.1-1,0.3c-0.2,0.2-0.4,0.4-0.4,0.8
			c0,0.3,0.1,0.5,0.3,0.7c0.2,0.2,0.5,0.4,1,0.7c0.5,0.3,0.9,0.6,1.1,0.8c0.2,0.2,0.3,0.4,0.5,0.6S-146.8,68.4-146.8,68.7z"/>
		<path class="st3" d="M-139.3,71.1c-0.6,0-1.1-0.2-1.5-0.7c-0.4-0.5-0.6-1.1-0.6-1.9c0-1,0.2-1.9,0.5-2.7c0.3-0.8,0.8-1.5,1.3-1.9
			c0.6-0.5,1.2-0.7,1.9-0.7c0.9,0,1.5,0.4,1.9,1.3h0.1c0.1-0.8,0.2-1.4,0.3-1.9l0.5-2.5h1.2l-2.3,10.8h-1l0.2-1.4h-0.1
			c-0.4,0.6-0.9,1-1.3,1.2C-138.4,71-138.9,71.1-139.3,71.1z M-138.9,70c0.4,0,0.9-0.2,1.3-0.7c0.4-0.4,0.8-1,1.1-1.6
			c0.3-0.7,0.4-1.3,0.4-2c0-0.5-0.1-0.9-0.4-1.1c-0.2-0.3-0.6-0.4-1.1-0.4c-0.5,0-0.9,0.2-1.3,0.6c-0.4,0.4-0.7,0.9-0.9,1.6
			c-0.2,0.7-0.3,1.4-0.3,2.1C-140.1,69.5-139.7,70-138.9,70z"/>
		<path class="st3" d="M-130.3,71.1c-0.9,0-1.5-0.3-2-0.8c-0.5-0.5-0.7-1.2-0.7-2.1c0-0.9,0.2-1.7,0.5-2.5c0.3-0.8,0.8-1.4,1.4-1.9
			c0.6-0.5,1.2-0.7,1.9-0.7c0.7,0,1.3,0.2,1.6,0.5c0.4,0.3,0.6,0.8,0.6,1.3c0,0.8-0.4,1.5-1.2,2s-1.9,0.7-3.3,0.7h-0.2l0,0.5
			c0,0.6,0.1,1,0.4,1.4s0.7,0.5,1.3,0.5c0.4,0,0.7-0.1,1-0.2c0.3-0.1,0.7-0.2,1.1-0.4v1.1c-0.5,0.2-0.9,0.4-1.2,0.4
			S-129.9,71.1-130.3,71.1z M-129.4,64.2c-0.5,0-0.9,0.2-1.4,0.7s-0.7,1-0.9,1.8h0.1c1,0,1.8-0.1,2.4-0.4c0.6-0.3,0.8-0.7,0.8-1.2
			c0-0.2-0.1-0.4-0.2-0.6C-128.7,64.3-129,64.2-129.4,64.2z"/>
		<path class="st3" d="M-121.3,70.9h-1.3l2.3-10.8h1.3L-121.3,70.9z"/>
		<path class="st3" d="M-111.9,66.1c0,0.9-0.2,1.7-0.5,2.5c-0.3,0.8-0.8,1.4-1.4,1.8s-1.2,0.6-2,0.6c-0.9,0-1.6-0.3-2.1-0.8
			c-0.5-0.5-0.8-1.2-0.8-2.1c0-0.9,0.2-1.7,0.5-2.5c0.3-0.8,0.8-1.4,1.4-1.8c0.6-0.4,1.2-0.6,1.9-0.6c0.9,0,1.6,0.3,2.1,0.8
			S-111.9,65.2-111.9,66.1z M-113.2,66c0-0.5-0.1-1-0.4-1.3c-0.3-0.3-0.7-0.5-1.1-0.5c-0.5,0-0.9,0.2-1.3,0.5
			c-0.4,0.3-0.7,0.8-0.9,1.4c-0.2,0.6-0.3,1.3-0.3,2c0,0.6,0.1,1.1,0.4,1.4c0.3,0.3,0.7,0.5,1.2,0.5c0.5,0,0.9-0.2,1.3-0.5
			c0.4-0.3,0.7-0.8,0.9-1.4C-113.3,67.5-113.2,66.8-113.2,66z"/>
		<path class="st3" d="M-102.1,63.2c0.5,0,0.9,0.1,1.2,0.4c0.3,0.3,0.5,0.7,0.5,1.3h0.1c0.8-1.1,1.7-1.7,2.6-1.7
			c0.6,0,1.1,0.2,1.4,0.5c0.3,0.3,0.5,0.8,0.5,1.4c0,0.4-0.1,0.8-0.2,1.3l-1,4.7h-1.3l1-4.8c0.1-0.4,0.1-0.8,0.1-1
			c0-0.3-0.1-0.5-0.2-0.7c-0.2-0.2-0.4-0.3-0.7-0.3c-0.4,0-0.7,0.1-1.1,0.4c-0.4,0.3-0.7,0.6-0.9,1.1c-0.3,0.5-0.5,1.1-0.6,1.7
			l-0.7,3.5h-1.3l1-4.8c0.1-0.4,0.1-0.8,0.1-0.9c0-0.7-0.3-1-0.9-1c-0.4,0-0.8,0.1-1.1,0.4c-0.4,0.3-0.7,0.7-1,1.2s-0.5,1.1-0.6,1.8
			l-0.7,3.3h-1.3l1.6-7.7h1l-0.2,1.4h0.1c0.3-0.4,0.6-0.7,0.8-0.9c0.2-0.2,0.5-0.3,0.8-0.5C-102.7,63.2-102.4,63.2-102.1,63.2z"/>
		<path class="st3" d="M-93.4,70.9h-1.3l1.6-7.7h1.3L-93.4,70.9z M-92.7,61.4c0-0.3,0.1-0.5,0.2-0.7s0.4-0.3,0.6-0.3
			c0.4,0,0.7,0.2,0.7,0.6c0,0.3-0.1,0.5-0.2,0.7c-0.2,0.2-0.4,0.3-0.6,0.3c-0.2,0-0.4-0.1-0.5-0.2C-92.6,61.7-92.7,61.6-92.7,61.4z"
			/>
		<path class="st3" d="M-89.7,70.9H-91l2.3-10.8h1.3L-89.7,70.9z"/>
		<path class="st3" d="M-86.1,70.9h-1.3l2.3-10.8h1.3L-86.1,70.9z"/>
		<path class="st3" d="M-76.7,66.1c0,0.9-0.2,1.7-0.5,2.5c-0.3,0.8-0.8,1.4-1.4,1.8s-1.2,0.6-2,0.6c-0.9,0-1.6-0.3-2.1-0.8
			c-0.5-0.5-0.8-1.2-0.8-2.1c0-0.9,0.2-1.7,0.5-2.5c0.3-0.8,0.8-1.4,1.4-1.8c0.6-0.4,1.2-0.6,1.9-0.6c0.9,0,1.6,0.3,2.1,0.8
			S-76.7,65.2-76.7,66.1z M-77.9,66c0-0.5-0.1-1-0.4-1.3c-0.3-0.3-0.7-0.5-1.1-0.5c-0.5,0-0.9,0.2-1.3,0.5c-0.4,0.3-0.7,0.8-0.9,1.4
			c-0.2,0.6-0.3,1.3-0.3,2c0,0.6,0.1,1.1,0.4,1.4c0.3,0.3,0.7,0.5,1.2,0.5c0.5,0,0.9-0.2,1.3-0.5c0.4-0.3,0.7-0.8,0.9-1.4
			C-78,67.5-77.9,66.8-77.9,66z"/>
		<path class="st3" d="M-70.7,63.2c0.3,0,0.6,0,0.8,0.1l-0.3,1.1c-0.3-0.1-0.5-0.1-0.7-0.1c-0.4,0-0.8,0.1-1.2,0.4
			c-0.4,0.3-0.7,0.7-1,1.1c-0.3,0.5-0.5,1-0.6,1.6l-0.7,3.5h-1.3l1.6-7.7h1l-0.2,1.4h0.1c0.3-0.4,0.6-0.8,0.8-1
			c0.2-0.2,0.4-0.3,0.7-0.4C-71.2,63.2-71,63.2-70.7,63.2z"/>
		<path class="st3" d="M-68.1,69.3l0.1,0.2c-0.5,1-1.1,2.1-1.9,3.3h-1c0.4-1,0.9-2.1,1.4-3.5H-68.1z"/>
		<path class="st3" d="M-275.3,88.2c-0.6,0-1.1-0.2-1.5-0.7c-0.4-0.5-0.6-1.1-0.6-1.9c0-1,0.2-1.8,0.5-2.7c0.3-0.8,0.8-1.5,1.4-1.9
			c0.6-0.5,1.2-0.7,1.9-0.7c0.4,0,0.8,0.1,1.1,0.3c0.3,0.2,0.6,0.6,0.8,1h0.1l0.5-1.2h1l-1.6,7.7h-1l0.2-1.4h-0.1
			C-273.5,87.7-274.3,88.2-275.3,88.2z M-274.9,87.2c0.4,0,0.9-0.2,1.3-0.6s0.8-1,1.1-1.6c0.3-0.7,0.4-1.4,0.4-2.1
			c0-0.5-0.1-0.8-0.4-1.1c-0.3-0.3-0.6-0.4-1-0.4c-0.5,0-0.9,0.2-1.3,0.6s-0.7,0.9-0.9,1.6s-0.3,1.4-0.3,2.1c0,0.5,0.1,0.9,0.3,1.2
			S-275.2,87.2-274.9,87.2z"/>
		<path class="st3" d="M-267.2,88.2c-0.7,0-1.2-0.2-1.5-0.7c-0.4-0.5-0.6-1.1-0.6-1.9c0-1,0.2-1.9,0.5-2.7c0.3-0.8,0.8-1.5,1.3-1.9
			c0.6-0.5,1.2-0.7,1.9-0.7c0.4,0,0.8,0.1,1.1,0.3s0.6,0.6,0.8,1h0.1l0.5-1.2h0.9l-2.4,11.1h-1.2l0.7-3.3c0.1-0.5,0.2-1,0.4-1.6
			h-0.1c-0.4,0.5-0.8,0.9-1.3,1.2C-266.3,88.1-266.7,88.2-267.2,88.2z M-266.7,87.2c0.4,0,0.8-0.2,1.3-0.6c0.4-0.4,0.8-1,1.1-1.6
			c0.3-0.7,0.4-1.4,0.4-2c0-0.5-0.1-0.9-0.4-1.1c-0.2-0.3-0.6-0.4-1-0.4c-0.5,0-0.9,0.2-1.3,0.6c-0.4,0.4-0.7,0.9-0.9,1.6
			s-0.4,1.4-0.4,2.2C-268,86.7-267.5,87.2-266.7,87.2z"/>
		<path class="st3" d="M-259.7,80.4h1.3l-1,4.8c-0.1,0.4-0.1,0.7-0.1,1c0,0.7,0.3,1,1,1c0.4,0,0.8-0.1,1.2-0.4
			c0.4-0.3,0.7-0.7,1-1.2s0.5-1.1,0.7-1.9l0.7-3.3h1.2l-1.6,7.7h-1l0.2-1.4h-0.1c-0.4,0.5-0.8,0.9-1.3,1.2c-0.4,0.2-0.9,0.4-1.3,0.4
			c-0.6,0-1.1-0.2-1.4-0.5c-0.3-0.3-0.5-0.8-0.5-1.4c0-0.3,0.1-0.7,0.2-1.2L-259.7,80.4z"/>
		<path class="st3" d="M-249.9,88.2c-0.9,0-1.5-0.3-2-0.8c-0.5-0.5-0.7-1.2-0.7-2.1c0-0.9,0.2-1.7,0.5-2.5c0.3-0.8,0.8-1.4,1.4-1.9
			c0.6-0.5,1.2-0.7,1.9-0.7c0.7,0,1.3,0.2,1.6,0.5c0.4,0.3,0.6,0.8,0.6,1.3c0,0.8-0.4,1.5-1.2,2c-0.8,0.5-1.9,0.7-3.3,0.7h-0.2
			l0,0.5c0,0.6,0.1,1,0.4,1.4c0.3,0.3,0.7,0.5,1.3,0.5c0.4,0,0.7-0.1,1-0.2c0.3-0.1,0.7-0.2,1.1-0.4v1.1c-0.5,0.2-0.9,0.4-1.2,0.4
			C-249.2,88.2-249.5,88.2-249.9,88.2z M-249,81.3c-0.5,0-0.9,0.2-1.4,0.7s-0.7,1-0.9,1.8h0.1c1,0,1.8-0.1,2.4-0.4
			c0.6-0.3,0.8-0.7,0.8-1.2c0-0.2-0.1-0.4-0.3-0.6C-248.4,81.4-248.6,81.3-249,81.3z"/>
		<path class="st3" d="M-241.1,85.9c0,0.7-0.3,1.3-0.8,1.7c-0.5,0.4-1.2,0.6-2.2,0.6c-0.8,0-1.5-0.2-2.1-0.5v-1.2
			c0.3,0.2,0.6,0.3,1,0.4c0.4,0.1,0.7,0.2,1.1,0.2c0.6,0,1-0.1,1.3-0.3c0.3-0.2,0.4-0.5,0.4-0.9c0-0.3-0.1-0.5-0.2-0.7
			c-0.2-0.2-0.5-0.4-1-0.7c-0.6-0.3-1-0.7-1.3-1s-0.4-0.7-0.4-1.2c0-0.7,0.2-1.2,0.7-1.6c0.5-0.4,1.1-0.6,1.9-0.6
			c0.8,0,1.6,0.2,2.3,0.5l-0.4,1c-0.2-0.1-0.5-0.2-0.8-0.3c-0.3-0.1-0.7-0.1-1.1-0.1c-0.4,0-0.7,0.1-1,0.3c-0.2,0.2-0.4,0.4-0.4,0.8
			c0,0.3,0.1,0.5,0.3,0.7c0.2,0.2,0.5,0.4,1,0.7c0.5,0.3,0.9,0.6,1.1,0.8c0.2,0.2,0.3,0.4,0.5,0.6
			C-241.1,85.3-241.1,85.6-241.1,85.9z"/>
		<path class="st3" d="M-237.3,87.2c0.3,0,0.6-0.1,1-0.2v1c-0.1,0.1-0.3,0.1-0.6,0.2c-0.2,0.1-0.5,0.1-0.6,0.1c-0.6,0-1-0.1-1.4-0.4
			c-0.3-0.3-0.5-0.7-0.5-1.2c0-0.3,0-0.6,0.1-1l0.9-4.2h-1.2l0.1-0.6l1.3-0.5l0.9-1.6h0.7l-0.4,1.7h1.9l-0.2,1h-1.9l-0.9,4.2
			c-0.1,0.4-0.1,0.7-0.1,0.8c0,0.2,0.1,0.4,0.2,0.6C-237.7,87.1-237.6,87.2-237.3,87.2z"/>
		<path class="st3" d="M-232.6,88.2c-0.6,0-1.1-0.2-1.5-0.7c-0.4-0.5-0.6-1.1-0.6-1.9c0-1,0.2-1.8,0.5-2.7c0.3-0.8,0.8-1.5,1.4-1.9
			c0.6-0.5,1.2-0.7,1.9-0.7c0.4,0,0.8,0.1,1.1,0.3c0.3,0.2,0.6,0.6,0.8,1h0.1l0.5-1.2h1l-1.6,7.7h-1l0.2-1.4h-0.1
			C-230.8,87.7-231.7,88.2-232.6,88.2z M-232.2,87.2c0.4,0,0.9-0.2,1.3-0.6s0.8-1,1.1-1.6c0.3-0.7,0.4-1.4,0.4-2.1
			c0-0.5-0.1-0.8-0.4-1.1c-0.3-0.3-0.6-0.4-1-0.4c-0.5,0-0.9,0.2-1.3,0.6s-0.7,0.9-0.9,1.6s-0.3,1.4-0.3,2.1c0,0.5,0.1,0.9,0.3,1.2
			S-232.6,87.2-232.2,87.2z"/>
		<path class="st3" d="M-220,88.2c-0.9,0-1.6-0.2-2.1-0.7c-0.5-0.5-0.7-1.2-0.7-2.1c0-0.9,0.2-1.8,0.5-2.6c0.3-0.8,0.8-1.4,1.4-1.8
			s1.3-0.7,2.1-0.7c0.7,0,1.3,0.1,1.9,0.4l-0.4,1c-0.5-0.2-1-0.4-1.5-0.4c-0.5,0-1,0.2-1.4,0.5c-0.4,0.4-0.7,0.8-1,1.5
			c-0.2,0.6-0.3,1.3-0.3,2c0,0.6,0.1,1,0.4,1.3s0.7,0.5,1.2,0.5c0.3,0,0.7,0,1-0.1c0.3-0.1,0.6-0.2,0.9-0.3v1.1
			C-218.7,88.1-219.3,88.2-220,88.2z"/>
		<path class="st3" d="M-215.4,88.1h-1.3l2.3-10.8h1.3L-215.4,88.1z"/>
		<path class="st3" d="M-210.7,88.2c-0.6,0-1.1-0.2-1.5-0.7c-0.4-0.5-0.6-1.1-0.6-1.9c0-1,0.2-1.8,0.5-2.7c0.3-0.8,0.8-1.5,1.4-1.9
			c0.6-0.5,1.2-0.7,1.9-0.7c0.4,0,0.8,0.1,1.1,0.3c0.3,0.2,0.6,0.6,0.8,1h0.1l0.5-1.2h1l-1.6,7.7h-1l0.2-1.4h-0.1
			C-208.9,87.7-209.7,88.2-210.7,88.2z M-210.2,87.2c0.4,0,0.9-0.2,1.3-0.6s0.8-1,1.1-1.6c0.3-0.7,0.4-1.4,0.4-2.1
			c0-0.5-0.1-0.8-0.4-1.1c-0.3-0.3-0.6-0.4-1-0.4c-0.5,0-0.9,0.2-1.3,0.6s-0.7,0.9-0.9,1.6s-0.3,1.4-0.3,2.1c0,0.5,0.1,0.9,0.3,1.2
			S-210.6,87.2-210.2,87.2z"/>
		<path class="st3" d="M-200.1,85.9c0,0.7-0.3,1.3-0.8,1.7c-0.5,0.4-1.2,0.6-2.2,0.6c-0.8,0-1.5-0.2-2.1-0.5v-1.2
			c0.3,0.2,0.6,0.3,1,0.4c0.4,0.1,0.7,0.2,1.1,0.2c0.6,0,1-0.1,1.3-0.3c0.3-0.2,0.4-0.5,0.4-0.9c0-0.3-0.1-0.5-0.2-0.7
			c-0.2-0.2-0.5-0.4-1-0.7c-0.6-0.3-1-0.7-1.3-1s-0.4-0.7-0.4-1.2c0-0.7,0.2-1.2,0.7-1.6c0.5-0.4,1.1-0.6,1.9-0.6
			c0.8,0,1.6,0.2,2.3,0.5l-0.4,1c-0.2-0.1-0.5-0.2-0.8-0.3c-0.3-0.1-0.7-0.1-1.1-0.1c-0.4,0-0.7,0.1-1,0.3c-0.2,0.2-0.4,0.4-0.4,0.8
			c0,0.3,0.1,0.5,0.3,0.7c0.2,0.2,0.5,0.4,1,0.7c0.5,0.3,0.9,0.6,1.1,0.8c0.2,0.2,0.3,0.4,0.5,0.6
			C-200.2,85.3-200.1,85.6-200.1,85.9z"/>
		<path class="st3" d="M-194,85.9c0,0.7-0.3,1.3-0.8,1.7c-0.5,0.4-1.2,0.6-2.2,0.6c-0.8,0-1.5-0.2-2.1-0.5v-1.2
			c0.3,0.2,0.6,0.3,1,0.4c0.4,0.1,0.7,0.2,1.1,0.2c0.6,0,1-0.1,1.3-0.3c0.3-0.2,0.4-0.5,0.4-0.9c0-0.3-0.1-0.5-0.2-0.7
			c-0.2-0.2-0.5-0.4-1-0.7c-0.6-0.3-1-0.7-1.3-1s-0.4-0.7-0.4-1.2c0-0.7,0.2-1.2,0.7-1.6c0.5-0.4,1.1-0.6,1.9-0.6
			c0.8,0,1.6,0.2,2.3,0.5l-0.4,1c-0.2-0.1-0.5-0.2-0.8-0.3c-0.3-0.1-0.7-0.1-1.1-0.1c-0.4,0-0.7,0.1-1,0.3c-0.2,0.2-0.4,0.4-0.4,0.8
			c0,0.3,0.1,0.5,0.3,0.7c0.2,0.2,0.5,0.4,1,0.7c0.5,0.3,0.9,0.6,1.1,0.8c0.2,0.2,0.3,0.4,0.5,0.6C-194,85.3-194,85.6-194,85.9z"/>
		<path class="st3" d="M-189.5,88.2c-0.9,0-1.5-0.3-2-0.8c-0.5-0.5-0.7-1.2-0.7-2.1c0-0.9,0.2-1.7,0.5-2.5c0.3-0.8,0.8-1.4,1.4-1.9
			c0.6-0.5,1.2-0.7,1.9-0.7c0.7,0,1.3,0.2,1.6,0.5c0.4,0.3,0.6,0.8,0.6,1.3c0,0.8-0.4,1.5-1.2,2s-1.9,0.7-3.3,0.7h-0.2l0,0.5
			c0,0.6,0.1,1,0.4,1.4c0.3,0.3,0.7,0.5,1.3,0.5c0.4,0,0.7-0.1,1-0.2c0.3-0.1,0.7-0.2,1.1-0.4v1.1c-0.5,0.2-0.9,0.4-1.2,0.4
			C-188.8,88.2-189.1,88.2-189.5,88.2z M-188.5,81.3c-0.5,0-0.9,0.2-1.4,0.7s-0.7,1-0.9,1.8h0.1c1,0,1.8-0.1,2.4-0.4
			c0.6-0.3,0.8-0.7,0.8-1.2c0-0.2-0.1-0.4-0.2-0.6C-187.9,81.4-188.2,81.3-188.5,81.3z"/>
		<path class="st3" d="M-178.7,88.2c-0.9,0-1.5-0.3-2-0.8c-0.5-0.5-0.7-1.2-0.7-2.1c0-0.9,0.2-1.7,0.5-2.5c0.3-0.8,0.8-1.4,1.4-1.9
			c0.6-0.5,1.2-0.7,1.9-0.7c0.7,0,1.3,0.2,1.6,0.5c0.4,0.3,0.6,0.8,0.6,1.3c0,0.8-0.4,1.5-1.2,2s-1.9,0.7-3.3,0.7h-0.2l0,0.5
			c0,0.6,0.1,1,0.4,1.4c0.3,0.3,0.7,0.5,1.3,0.5c0.4,0,0.7-0.1,1-0.2c0.3-0.1,0.7-0.2,1.1-0.4v1.1c-0.5,0.2-0.9,0.4-1.2,0.4
			C-177.9,88.2-178.3,88.2-178.7,88.2z M-177.7,81.3c-0.5,0-0.9,0.2-1.4,0.7s-0.7,1-0.9,1.8h0.1c1,0,1.8-0.1,2.4-0.4
			c0.6-0.3,0.8-0.7,0.8-1.2c0-0.2-0.1-0.4-0.2-0.6C-177.1,81.4-177.4,81.3-177.7,81.3z M-178.1,79.2c0.2-0.3,0.5-0.6,0.8-1
			c0.3-0.4,0.6-0.8,0.8-1.1h1.4v0.1c-0.2,0.3-0.6,0.6-1,1.1c-0.5,0.5-0.9,0.8-1.2,1.1h-0.8V79.2z"/>
		<path class="st3" d="M-169.8,85.9c0,0.7-0.3,1.3-0.8,1.7c-0.5,0.4-1.2,0.6-2.2,0.6c-0.8,0-1.5-0.2-2.1-0.5v-1.2
			c0.3,0.2,0.6,0.3,1,0.4c0.4,0.1,0.7,0.2,1.1,0.2c0.6,0,1-0.1,1.3-0.3c0.3-0.2,0.4-0.5,0.4-0.9c0-0.3-0.1-0.5-0.2-0.7
			s-0.5-0.4-1-0.7c-0.6-0.3-1-0.7-1.3-1c-0.2-0.3-0.4-0.7-0.4-1.2c0-0.7,0.2-1.2,0.7-1.6c0.5-0.4,1.1-0.6,1.9-0.6
			c0.8,0,1.6,0.2,2.3,0.5l-0.4,1c-0.2-0.1-0.5-0.2-0.8-0.3c-0.3-0.1-0.7-0.1-1.1-0.1c-0.4,0-0.7,0.1-1,0.3c-0.2,0.2-0.4,0.4-0.4,0.8
			c0,0.3,0.1,0.5,0.3,0.7c0.2,0.2,0.5,0.4,1,0.7c0.5,0.3,0.9,0.6,1.1,0.8c0.2,0.2,0.3,0.4,0.5,0.6
			C-169.9,85.3-169.8,85.6-169.8,85.9z"/>
		<path class="st3" d="M-163.5,88.1h-1.3l2.3-10.8h1.3L-163.5,88.1z"/>
		<path class="st3" d="M-158.7,88.2c-0.6,0-1.1-0.2-1.5-0.7c-0.4-0.5-0.6-1.1-0.6-1.9c0-1,0.2-1.8,0.5-2.7c0.3-0.8,0.8-1.5,1.4-1.9
			c0.6-0.5,1.2-0.7,1.9-0.7c0.4,0,0.8,0.1,1.1,0.3c0.3,0.2,0.6,0.6,0.8,1h0.1l0.5-1.2h1l-1.6,7.7h-1l0.2-1.4h-0.1
			C-156.9,87.7-157.8,88.2-158.7,88.2z M-158.3,87.2c0.4,0,0.9-0.2,1.3-0.6c0.4-0.4,0.8-1,1.1-1.6c0.3-0.7,0.4-1.4,0.4-2.1
			c0-0.5-0.1-0.8-0.4-1.1c-0.2-0.3-0.6-0.4-1-0.4c-0.5,0-0.9,0.2-1.3,0.6c-0.4,0.4-0.7,0.9-0.9,1.6s-0.3,1.4-0.3,2.1
			c0,0.5,0.1,0.9,0.3,1.2C-159,87-158.7,87.2-158.3,87.2z"/>
		<path class="st3" d="M-146.9,88.2c-0.7,0-1.2-0.2-1.5-0.7c-0.4-0.5-0.6-1.1-0.6-1.9c0-1,0.2-1.9,0.5-2.7c0.3-0.8,0.8-1.5,1.3-1.9
			c0.6-0.5,1.2-0.7,1.9-0.7c0.4,0,0.8,0.1,1.1,0.3c0.3,0.2,0.6,0.6,0.8,1h0.1l0.5-1.2h0.9l-2.4,11.1h-1.2l0.7-3.3
			c0.1-0.5,0.2-1,0.4-1.6h-0.1c-0.4,0.5-0.8,0.9-1.3,1.2C-146,88.1-146.5,88.2-146.9,88.2z M-146.5,87.2c0.4,0,0.8-0.2,1.3-0.6
			c0.4-0.4,0.8-1,1.1-1.6c0.3-0.7,0.4-1.4,0.4-2c0-0.5-0.1-0.9-0.4-1.1c-0.2-0.3-0.6-0.4-1-0.4c-0.5,0-0.9,0.2-1.3,0.6
			c-0.4,0.4-0.7,0.9-0.9,1.6s-0.4,1.4-0.4,2.2C-147.7,86.7-147.3,87.2-146.5,87.2z"/>
		<path class="st3" d="M-139.4,80.4h1.3l-1,4.8c-0.1,0.4-0.1,0.7-0.1,1c0,0.7,0.3,1,1,1c0.4,0,0.8-0.1,1.2-0.4
			c0.4-0.3,0.7-0.7,1-1.2c0.3-0.5,0.5-1.1,0.7-1.9l0.7-3.3h1.2l-1.6,7.7h-1l0.2-1.4h-0.1c-0.4,0.5-0.8,0.9-1.3,1.2s-0.9,0.4-1.3,0.4
			c-0.6,0-1.1-0.2-1.4-0.5c-0.3-0.3-0.5-0.8-0.5-1.4c0-0.3,0.1-0.7,0.2-1.2L-139.4,80.4z"/>
		<path class="st3" d="M-129.7,88.2c-0.9,0-1.5-0.3-2-0.8c-0.5-0.5-0.7-1.2-0.7-2.1c0-0.9,0.2-1.7,0.5-2.5c0.3-0.8,0.8-1.4,1.4-1.9
			c0.6-0.5,1.2-0.7,1.9-0.7c0.7,0,1.3,0.2,1.6,0.5c0.4,0.3,0.6,0.8,0.6,1.3c0,0.8-0.4,1.5-1.2,2s-1.9,0.7-3.3,0.7h-0.2l0,0.5
			c0,0.6,0.1,1,0.4,1.4c0.3,0.3,0.7,0.5,1.3,0.5c0.4,0,0.7-0.1,1-0.2c0.3-0.1,0.7-0.2,1.1-0.4v1.1c-0.5,0.2-0.9,0.4-1.2,0.4
			C-128.9,88.2-129.3,88.2-129.7,88.2z M-128.7,81.3c-0.5,0-0.9,0.2-1.4,0.7s-0.7,1-0.9,1.8h0.1c1,0,1.8-0.1,2.4-0.4
			c0.6-0.3,0.8-0.7,0.8-1.2c0-0.2-0.1-0.4-0.2-0.6C-128.1,81.4-128.3,81.3-128.7,81.3z"/>
		<path class="st3" d="M-116.9,80.3c0.5,0,0.9,0.2,1.2,0.4c0.3,0.3,0.5,0.7,0.5,1.3h0.1c0.8-1.1,1.7-1.7,2.6-1.7
			c0.6,0,1.1,0.2,1.4,0.5c0.3,0.3,0.5,0.8,0.5,1.4c0,0.4-0.1,0.8-0.2,1.3l-1,4.7h-1.3l1-4.8c0.1-0.4,0.1-0.8,0.1-1
			c0-0.3-0.1-0.5-0.2-0.7c-0.2-0.2-0.4-0.3-0.7-0.3c-0.4,0-0.7,0.1-1.1,0.4c-0.4,0.3-0.7,0.6-0.9,1.1c-0.3,0.5-0.5,1.1-0.6,1.7
			l-0.7,3.5h-1.3l1-4.8c0.1-0.4,0.1-0.8,0.1-0.9c0-0.7-0.3-1-0.9-1c-0.4,0-0.8,0.1-1.1,0.4c-0.4,0.3-0.7,0.7-1,1.2
			c-0.3,0.5-0.5,1.1-0.6,1.8l-0.7,3.3h-1.3l1.6-7.7h1l-0.2,1.4h0.1c0.3-0.4,0.6-0.7,0.8-0.9c0.2-0.2,0.5-0.3,0.8-0.5
			C-117.5,80.3-117.2,80.3-116.9,80.3z"/>
		<path class="st3" d="M-106.4,88.2c-0.9,0-1.5-0.3-2-0.8c-0.5-0.5-0.7-1.2-0.7-2.1c0-0.9,0.2-1.7,0.5-2.5c0.3-0.8,0.8-1.4,1.4-1.9
			c0.6-0.5,1.2-0.7,1.9-0.7c0.7,0,1.3,0.2,1.6,0.5c0.4,0.3,0.6,0.8,0.6,1.3c0,0.8-0.4,1.5-1.2,2s-1.9,0.7-3.3,0.7h-0.2l0,0.5
			c0,0.6,0.1,1,0.4,1.4c0.3,0.3,0.7,0.5,1.3,0.5c0.4,0,0.7-0.1,1-0.2c0.3-0.1,0.7-0.2,1.1-0.4v1.1c-0.5,0.2-0.9,0.4-1.2,0.4
			C-105.6,88.2-106,88.2-106.4,88.2z M-105.4,81.3c-0.5,0-0.9,0.2-1.4,0.7s-0.7,1-0.9,1.8h0.1c1,0,1.8-0.1,2.4-0.4
			c0.6-0.3,0.8-0.7,0.8-1.2c0-0.2-0.1-0.4-0.2-0.6C-104.8,81.4-105,81.3-105.4,81.3z M-105.8,79.2c0.2-0.3,0.5-0.6,0.8-1
			c0.3-0.4,0.6-0.8,0.8-1.1h1.4v0.1c-0.2,0.3-0.6,0.6-1,1.1c-0.5,0.5-0.9,0.8-1.2,1.1h-0.8V79.2z"/>
		<path class="st3" d="M-97.5,85.9c0,0.7-0.3,1.3-0.8,1.7c-0.5,0.4-1.2,0.6-2.2,0.6c-0.8,0-1.5-0.2-2.1-0.5v-1.2
			c0.3,0.2,0.6,0.3,1,0.4c0.4,0.1,0.7,0.2,1.1,0.2c0.6,0,1-0.1,1.3-0.3c0.3-0.2,0.4-0.5,0.4-0.9c0-0.3-0.1-0.5-0.2-0.7
			s-0.5-0.4-1-0.7c-0.6-0.3-1-0.7-1.3-1c-0.2-0.3-0.4-0.7-0.4-1.2c0-0.7,0.2-1.2,0.7-1.6c0.5-0.4,1.1-0.6,1.9-0.6
			c0.8,0,1.6,0.2,2.3,0.5l-0.4,1c-0.2-0.1-0.5-0.2-0.8-0.3c-0.3-0.1-0.7-0.1-1.1-0.1c-0.4,0-0.7,0.1-1,0.3c-0.2,0.2-0.4,0.4-0.4,0.8
			c0,0.3,0.1,0.5,0.3,0.7c0.2,0.2,0.5,0.4,1,0.7c0.5,0.3,0.9,0.6,1.1,0.8c0.2,0.2,0.3,0.4,0.5,0.6C-97.6,85.3-97.5,85.6-97.5,85.9z"
			/>
		<path class="st3" d="M-87.4,80.3c0.5,0,0.9,0.2,1.2,0.4c0.3,0.3,0.5,0.7,0.5,1.3h0.1c0.8-1.1,1.7-1.7,2.6-1.7
			c0.6,0,1.1,0.2,1.4,0.5c0.3,0.3,0.5,0.8,0.5,1.4c0,0.4-0.1,0.8-0.2,1.3l-1,4.7h-1.3l1-4.8c0.1-0.4,0.1-0.8,0.1-1
			c0-0.3-0.1-0.5-0.2-0.7c-0.2-0.2-0.4-0.3-0.7-0.3c-0.4,0-0.7,0.1-1.1,0.4c-0.4,0.3-0.7,0.6-0.9,1.1c-0.3,0.5-0.5,1.1-0.6,1.7
			l-0.7,3.5H-88l1-4.8c0.1-0.4,0.1-0.8,0.1-0.9c0-0.7-0.3-1-0.9-1c-0.4,0-0.8,0.1-1.1,0.4c-0.4,0.3-0.7,0.7-1,1.2
			c-0.3,0.5-0.5,1.1-0.6,1.8l-0.7,3.3h-1.3l1.6-7.7h1l-0.2,1.4h0.1c0.3-0.4,0.6-0.7,0.8-0.9c0.2-0.2,0.5-0.3,0.8-0.5
			C-88,80.3-87.7,80.3-87.4,80.3z"/>
		<path class="st3" d="M-76.8,77.9l0.1,0.2c-0.2,0.4-0.4,0.9-0.8,1.5c-0.3,0.6-0.7,1.2-1.1,1.8h-1c0.6-1.4,1.1-2.5,1.4-3.5H-76.8z"
			/>
		<path class="st3" d="M-75.2,88.2c-0.6,0-1.1-0.2-1.5-0.7c-0.4-0.5-0.6-1.1-0.6-1.9c0-1,0.2-1.8,0.5-2.7c0.3-0.8,0.8-1.5,1.4-1.9
			c0.6-0.5,1.2-0.7,1.9-0.7c0.4,0,0.8,0.1,1.1,0.3c0.3,0.2,0.6,0.6,0.8,1h0.1l0.5-1.2h1l-1.6,7.7h-1l0.2-1.4h-0.1
			C-73.4,87.7-74.2,88.2-75.2,88.2z M-74.7,87.2c0.4,0,0.9-0.2,1.3-0.6c0.4-0.4,0.8-1,1.1-1.6c0.3-0.7,0.4-1.4,0.4-2.1
			c0-0.5-0.1-0.8-0.4-1.1c-0.2-0.3-0.6-0.4-1-0.4c-0.5,0-0.9,0.2-1.3,0.6c-0.4,0.4-0.7,0.9-0.9,1.6s-0.3,1.4-0.3,2.1
			c0,0.5,0.1,0.9,0.3,1.2C-75.4,87-75.1,87.2-74.7,87.2z"/>
		<path class="st3" d="M-67.2,91.5c-0.9,0-1.7-0.2-2.3-0.5v-1.2c0.3,0.2,0.7,0.3,1.1,0.4c0.4,0.1,0.8,0.2,1.2,0.2
			c0.6,0,1.1-0.1,1.5-0.4c0.4-0.3,0.6-0.8,0.8-1.4l0.4-1.5l0.1-0.5h-0.1c-0.4,0.5-0.8,0.9-1.3,1.2c-0.4,0.2-0.8,0.4-1.3,0.4
			c-0.6,0-1.2-0.2-1.5-0.7c-0.4-0.5-0.6-1.1-0.6-1.9c0-1,0.2-1.9,0.5-2.7s0.8-1.5,1.4-1.9s1.2-0.7,1.9-0.7c0.9,0,1.5,0.4,1.9,1.3
			h0.1l0.5-1.2h1l-1.7,8.1c-0.2,1-0.6,1.8-1.2,2.3C-65.4,91.3-66.2,91.5-67.2,91.5z M-66.6,87.2c0.4,0,0.8-0.2,1.3-0.6
			s0.8-1,1.1-1.6c0.3-0.7,0.4-1.3,0.4-2c0-1-0.5-1.5-1.4-1.5c-0.5,0-0.9,0.2-1.3,0.6s-0.7,0.9-0.9,1.6c-0.2,0.7-0.3,1.4-0.3,2.1
			C-67.8,86.7-67.4,87.2-66.6,87.2z"/>
		<path class="st3" d="M-56.2,80.3c0.3,0,0.6,0,0.8,0.1l-0.3,1.1c-0.3-0.1-0.5-0.1-0.7-0.1c-0.4,0-0.8,0.1-1.2,0.4s-0.7,0.7-1,1.1
			c-0.3,0.5-0.5,1-0.6,1.6l-0.7,3.5h-1.3l1.6-7.7h1l-0.2,1.4h0.1c0.3-0.4,0.6-0.8,0.8-1c0.2-0.2,0.4-0.3,0.7-0.4
			C-56.8,80.3-56.5,80.3-56.2,80.3z"/>
		<path class="st3" d="M-53.1,88.2c-0.6,0-1.1-0.2-1.5-0.7c-0.4-0.5-0.6-1.1-0.6-1.9c0-1,0.2-1.8,0.5-2.7c0.3-0.8,0.8-1.5,1.4-1.9
			c0.6-0.5,1.2-0.7,1.9-0.7c0.4,0,0.8,0.1,1.1,0.3c0.3,0.2,0.6,0.6,0.8,1h0.1l0.5-1.2h1l-1.6,7.7h-1l0.2-1.4h-0.1
			C-51.3,87.7-52.2,88.2-53.1,88.2z M-52.7,87.2c0.4,0,0.9-0.2,1.3-0.6c0.4-0.4,0.8-1,1.1-1.6c0.3-0.7,0.4-1.4,0.4-2.1
			c0-0.5-0.1-0.8-0.4-1.1c-0.2-0.3-0.6-0.4-1-0.4c-0.5,0-0.9,0.2-1.3,0.6c-0.4,0.4-0.7,0.9-0.9,1.6s-0.3,1.4-0.3,2.1
			c0,0.5,0.1,0.9,0.3,1.2C-53.4,87-53.1,87.2-52.7,87.2z"/>
		<path class="st3" d="M-45,88.2c-0.6,0-1.1-0.2-1.5-0.7c-0.4-0.5-0.6-1.1-0.6-1.9c0-1,0.2-1.9,0.5-2.7c0.3-0.8,0.8-1.5,1.3-1.9
			c0.6-0.5,1.2-0.7,1.9-0.7c0.9,0,1.5,0.4,1.9,1.3h0.1c0.1-0.8,0.2-1.4,0.3-1.9l0.5-2.5h1.2l-2.3,10.8h-1l0.2-1.4h-0.1
			c-0.4,0.6-0.9,1-1.3,1.2C-44.1,88.1-44.6,88.2-45,88.2z M-44.6,87.2c0.4,0,0.9-0.2,1.3-0.7c0.4-0.4,0.8-1,1.1-1.6
			c0.3-0.7,0.4-1.3,0.4-2c0-0.5-0.1-0.9-0.4-1.2c-0.2-0.3-0.6-0.4-1.1-0.4c-0.5,0-0.9,0.2-1.3,0.6c-0.4,0.4-0.7,0.9-0.9,1.6
			c-0.2,0.7-0.3,1.4-0.3,2.1C-45.8,86.7-45.4,87.2-44.6,87.2z"/>
		<path class="st3" d="M-36.7,88.2c-0.6,0-1.1-0.2-1.5-0.7c-0.4-0.5-0.6-1.1-0.6-1.9c0-1,0.2-1.8,0.5-2.7c0.3-0.8,0.8-1.5,1.4-1.9
			c0.6-0.5,1.2-0.7,1.9-0.7c0.4,0,0.8,0.1,1.1,0.3c0.3,0.2,0.6,0.6,0.8,1h0.1l0.5-1.2h1l-1.6,7.7h-1l0.2-1.4h-0.1
			C-34.9,87.7-35.8,88.2-36.7,88.2z M-36.3,87.2c0.4,0,0.9-0.2,1.3-0.6c0.4-0.4,0.8-1,1.1-1.6c0.3-0.7,0.4-1.4,0.4-2.1
			c0-0.5-0.1-0.8-0.4-1.1c-0.2-0.3-0.6-0.4-1-0.4c-0.5,0-0.9,0.2-1.3,0.6c-0.4,0.4-0.7,0.9-0.9,1.6s-0.3,1.4-0.3,2.1
			c0,0.5,0.1,0.9,0.3,1.2C-37,87-36.7,87.2-36.3,87.2z"/>
		<path class="st3" d="M-31.1,87.5c0-0.4,0.1-0.6,0.3-0.9c0.2-0.2,0.5-0.3,0.8-0.3c0.2,0,0.4,0.1,0.5,0.2c0.1,0.1,0.2,0.3,0.2,0.6
			c0,0.3-0.1,0.6-0.3,0.8c-0.2,0.2-0.4,0.3-0.8,0.3c-0.2,0-0.4-0.1-0.5-0.2S-31.1,87.8-31.1,87.5z"/>
	</g>
</g>
<g>
	<g>
		<path class="st3" d="M-272.5,180.1l4.5-8.3h2l-2.1,10.2h-1.3l1.3-6c0.3-1.3,0.5-2.3,0.7-2.9h0l-4.9,8.9h-1l-1.1-8.9h-0.1
			c-0.1,0.7-0.2,1.7-0.5,2.8l-1.3,6.1h-1.2l2.2-10.2h1.8L-272.5,180.1L-272.5,180.1z"/>
		<path class="st3" d="M-258.7,177.2c0,0.9-0.2,1.7-0.5,2.5s-0.8,1.4-1.4,1.8c-0.6,0.4-1.2,0.6-2,0.6c-0.9,0-1.6-0.3-2.1-0.8
			s-0.8-1.2-0.8-2.1c0-0.9,0.2-1.7,0.5-2.5s0.8-1.4,1.4-1.8s1.2-0.6,1.9-0.6c0.9,0,1.6,0.3,2.1,0.8
			C-258.9,175.5-258.7,176.2-258.7,177.2z M-260,177c0-0.5-0.1-1-0.4-1.3c-0.3-0.3-0.7-0.5-1.1-0.5c-0.5,0-0.9,0.2-1.3,0.5
			c-0.4,0.3-0.7,0.8-0.9,1.4c-0.2,0.6-0.3,1.3-0.3,2c0,0.6,0.1,1.1,0.4,1.4s0.7,0.5,1.2,0.5c0.5,0,0.9-0.2,1.3-0.5
			c0.4-0.3,0.7-0.8,0.9-1.4C-260.1,178.5-260,177.8-260,177z"/>
		<path class="st3" d="M-256.4,181.9h-1.3l2.3-10.8h1.3L-256.4,181.9z"/>
		<path class="st3" d="M-251.5,181.1c0.3,0,0.6-0.1,1-0.2v1c-0.1,0.1-0.3,0.1-0.6,0.2c-0.2,0.1-0.5,0.1-0.6,0.1
			c-0.6,0-1-0.1-1.4-0.4c-0.3-0.3-0.5-0.7-0.5-1.2c0-0.3,0-0.6,0.1-1l0.9-4.2h-1.2l0.1-0.6l1.3-0.5l0.9-1.6h0.7l-0.4,1.7h1.9l-0.2,1
			h-1.9l-0.9,4.2c-0.1,0.4-0.1,0.7-0.1,0.8c0,0.2,0.1,0.4,0.2,0.6C-252,181-251.8,181.1-251.5,181.1z"/>
		<path class="st3" d="M-242,182.1c-0.4,0-0.8-0.1-1.2-0.3s-0.6-0.6-0.8-1h-0.1l-0.5,1.2h-0.9l2.3-10.8h1.3l-0.5,2.6
			c-0.1,0.4-0.2,0.8-0.3,1.3c-0.1,0.4-0.2,0.7-0.2,0.8h0.1c0.5-0.6,0.9-1,1.3-1.2c0.4-0.2,0.8-0.3,1.2-0.3c0.7,0,1.2,0.2,1.5,0.7
			c0.4,0.5,0.6,1.1,0.6,1.9c0,1-0.2,1.9-0.5,2.7s-0.8,1.5-1.3,1.9C-240.7,181.8-241.3,182.1-242,182.1z M-240.8,175.2
			c-0.4,0-0.9,0.2-1.3,0.7c-0.4,0.4-0.8,1-1.1,1.7s-0.4,1.3-0.4,2c0,0.5,0.1,0.9,0.4,1.1s0.6,0.4,1.1,0.4c0.5,0,0.9-0.2,1.3-0.6
			c0.4-0.4,0.7-0.9,0.9-1.6c0.2-0.7,0.3-1.4,0.3-2.1C-239.6,175.7-240,175.2-240.8,175.2z"/>
		<path class="st3" d="M-230.2,177.2c0,0.9-0.2,1.7-0.5,2.5s-0.8,1.4-1.4,1.8c-0.6,0.4-1.2,0.6-2,0.6c-0.9,0-1.6-0.3-2.1-0.8
			s-0.8-1.2-0.8-2.1c0-0.9,0.2-1.7,0.5-2.5s0.8-1.4,1.4-1.8s1.2-0.6,1.9-0.6c0.9,0,1.6,0.3,2.1,0.8
			C-230.5,175.5-230.2,176.2-230.2,177.2z M-231.5,177c0-0.5-0.1-1-0.4-1.3c-0.3-0.3-0.7-0.5-1.1-0.5c-0.5,0-0.9,0.2-1.3,0.5
			c-0.4,0.3-0.7,0.8-0.9,1.4c-0.2,0.6-0.3,1.3-0.3,2c0,0.6,0.1,1.1,0.4,1.4s0.7,0.5,1.2,0.5c0.5,0,0.9-0.2,1.3-0.5
			c0.4-0.3,0.7-0.8,0.9-1.4C-231.6,178.5-231.5,177.8-231.5,177z"/>
		<path class="st3" d="M-223.3,181.9h-1.3l1-4.8c0.1-0.5,0.1-0.8,0.1-1c0-0.3-0.1-0.5-0.2-0.7c-0.2-0.2-0.4-0.3-0.8-0.3
			c-0.4,0-0.8,0.1-1.2,0.4c-0.4,0.3-0.7,0.7-1,1.2c-0.3,0.5-0.5,1.1-0.7,1.8l-0.7,3.3h-1.3l1.6-7.7h1l-0.2,1.4h0.1
			c0.3-0.4,0.6-0.7,0.8-0.9s0.5-0.4,0.8-0.5c0.3-0.1,0.6-0.2,0.9-0.2c0.6,0,1.1,0.2,1.4,0.5c0.3,0.3,0.5,0.8,0.5,1.4
			c0,0.4-0.1,0.8-0.2,1.3L-223.3,181.9z"/>
		<path class="st3" d="M-212.1,174.2c0.7,0,1.2,0.2,1.5,0.7c0.4,0.5,0.5,1.1,0.5,1.9c0,1-0.2,1.9-0.5,2.7c-0.3,0.8-0.8,1.5-1.3,1.9
			c-0.6,0.5-1.2,0.7-1.9,0.7c-0.9,0-1.5-0.4-2-1.3h-0.1c-0.1,0.6-0.1,1.1-0.2,1.3l-0.7,3.3h-1.2l2.3-11.1h1l-0.2,1.4h0.1
			c0.4-0.5,0.9-0.9,1.3-1.2C-213,174.3-212.5,174.2-212.1,174.2z M-212.5,175.2c-0.4,0-0.9,0.2-1.3,0.6c-0.4,0.4-0.8,1-1.1,1.6
			s-0.4,1.3-0.4,2c0,0.5,0.1,0.9,0.4,1.1s0.6,0.4,1.1,0.4c0.5,0,0.9-0.2,1.3-0.6c0.4-0.4,0.7-0.9,0.9-1.6c0.2-0.7,0.3-1.4,0.3-2.1
			C-211.3,175.7-211.7,175.2-212.5,175.2z"/>
		<path class="st3" d="M-204,174.2c0.3,0,0.6,0,0.8,0.1l-0.3,1.1c-0.3-0.1-0.5-0.1-0.7-0.1c-0.4,0-0.8,0.1-1.2,0.4
			c-0.4,0.3-0.7,0.7-1,1.1c-0.3,0.5-0.5,1-0.6,1.6l-0.7,3.5h-1.3l1.6-7.7h1l-0.2,1.4h0.1c0.3-0.4,0.6-0.8,0.8-1s0.4-0.3,0.7-0.4
			C-204.6,174.2-204.3,174.2-204,174.2z"/>
		<path class="st3" d="M-195.9,177.2c0,0.9-0.2,1.7-0.5,2.5s-0.8,1.4-1.4,1.8c-0.6,0.4-1.2,0.6-2,0.6c-0.9,0-1.6-0.3-2.1-0.8
			s-0.8-1.2-0.8-2.1c0-0.9,0.2-1.7,0.5-2.5s0.8-1.4,1.4-1.8s1.2-0.6,1.9-0.6c0.9,0,1.6,0.3,2.1,0.8
			C-196.2,175.5-195.9,176.2-195.9,177.2z M-197.2,177c0-0.5-0.1-1-0.4-1.3c-0.3-0.3-0.7-0.5-1.1-0.5c-0.5,0-0.9,0.2-1.3,0.5
			c-0.4,0.3-0.7,0.8-0.9,1.4c-0.2,0.6-0.3,1.3-0.3,2c0,0.6,0.1,1.1,0.4,1.4s0.7,0.5,1.2,0.5c0.5,0,0.9-0.2,1.3-0.5
			c0.4-0.3,0.7-0.8,0.9-1.4C-197.3,178.5-197.2,177.8-197.2,177z"/>
		<path class="st3" d="M-196,185.4c-0.3,0-0.6,0-0.9-0.1v-1.1c0.3,0.1,0.6,0.2,0.8,0.2c0.3,0,0.6-0.1,0.8-0.4s0.4-0.7,0.5-1.2
			l1.6-7.5h-1.3l0.1-0.5l1.4-0.5l0.2-0.7c0.2-0.9,0.5-1.6,0.9-2c0.4-0.4,1-0.6,1.7-0.6c0.5,0,0.9,0.1,1.3,0.3l-0.3,1
			c-0.3-0.1-0.7-0.2-1-0.2c-0.4,0-0.7,0.1-0.9,0.3c-0.2,0.2-0.4,0.6-0.5,1.2l-0.2,0.7h1.6l-0.2,1h-1.6l-1.6,7.6
			c-0.2,0.9-0.5,1.5-0.9,1.9C-194.8,185.2-195.3,185.4-196,185.4z"/>
		<path class="st3" d="M-187.3,182.1c-0.9,0-1.5-0.3-2-0.8c-0.5-0.5-0.7-1.2-0.7-2.1c0-0.9,0.2-1.7,0.5-2.5c0.3-0.8,0.8-1.4,1.4-1.9
			c0.6-0.5,1.2-0.7,1.9-0.7c0.7,0,1.3,0.2,1.6,0.5s0.6,0.8,0.6,1.3c0,0.8-0.4,1.5-1.2,2s-1.9,0.7-3.3,0.7h-0.2l0,0.5
			c0,0.6,0.1,1,0.4,1.4c0.3,0.3,0.7,0.5,1.3,0.5c0.4,0,0.7-0.1,1-0.2c0.3-0.1,0.7-0.2,1.1-0.4v1.1c-0.5,0.2-0.9,0.4-1.2,0.4
			S-186.9,182.1-187.3,182.1z M-186.3,175.2c-0.5,0-0.9,0.2-1.4,0.7s-0.7,1-0.9,1.8h0.1c1,0,1.8-0.1,2.4-0.4s0.8-0.7,0.8-1.2
			c0-0.2-0.1-0.4-0.2-0.6C-185.7,175.3-185.9,175.2-186.3,175.2z"/>
		<path class="st3" d="M-178.4,179.7c0,0.7-0.3,1.3-0.8,1.7c-0.5,0.4-1.2,0.6-2.2,0.6c-0.8,0-1.5-0.2-2.1-0.5v-1.2
			c0.3,0.2,0.6,0.3,1,0.4c0.4,0.1,0.7,0.2,1.1,0.2c0.6,0,1-0.1,1.3-0.3c0.3-0.2,0.4-0.5,0.4-0.9c0-0.3-0.1-0.5-0.2-0.7
			s-0.5-0.4-1-0.7c-0.6-0.3-1-0.7-1.3-1c-0.2-0.3-0.4-0.7-0.4-1.2c0-0.7,0.2-1.2,0.7-1.6s1.1-0.6,1.9-0.6c0.8,0,1.6,0.2,2.3,0.5
			l-0.4,1c-0.2-0.1-0.5-0.2-0.8-0.3s-0.7-0.2-1.1-0.2c-0.4,0-0.7,0.1-1,0.3s-0.4,0.4-0.4,0.8c0,0.3,0.1,0.5,0.3,0.7
			c0.2,0.2,0.5,0.4,1,0.7c0.5,0.3,0.9,0.6,1.1,0.8c0.2,0.2,0.3,0.4,0.5,0.6S-178.4,179.4-178.4,179.7z"/>
		<path class="st3" d="M-172.3,179.7c0,0.7-0.3,1.3-0.8,1.7c-0.5,0.4-1.2,0.6-2.2,0.6c-0.8,0-1.5-0.2-2.1-0.5v-1.2
			c0.3,0.2,0.6,0.3,1,0.4c0.4,0.1,0.7,0.2,1.1,0.2c0.6,0,1-0.1,1.3-0.3c0.3-0.2,0.4-0.5,0.4-0.9c0-0.3-0.1-0.5-0.2-0.7
			s-0.5-0.4-1-0.7c-0.6-0.3-1-0.7-1.3-1c-0.2-0.3-0.4-0.7-0.4-1.2c0-0.7,0.2-1.2,0.7-1.6s1.1-0.6,1.9-0.6c0.8,0,1.6,0.2,2.3,0.5
			l-0.4,1c-0.2-0.1-0.5-0.2-0.8-0.3s-0.7-0.2-1.1-0.2c-0.4,0-0.7,0.1-1,0.3s-0.4,0.4-0.4,0.8c0,0.3,0.1,0.5,0.3,0.7
			c0.2,0.2,0.5,0.4,1,0.7c0.5,0.3,0.9,0.6,1.1,0.8c0.2,0.2,0.3,0.4,0.5,0.6S-172.3,179.4-172.3,179.7z"/>
		<path class="st3" d="M-163.9,177.2c0,0.9-0.2,1.7-0.5,2.5c-0.3,0.8-0.8,1.4-1.4,1.8c-0.6,0.4-1.2,0.6-2,0.6
			c-0.9,0-1.6-0.3-2.1-0.8c-0.5-0.5-0.8-1.2-0.8-2.1c0-0.9,0.2-1.7,0.5-2.5s0.8-1.4,1.4-1.8c0.6-0.4,1.2-0.6,1.9-0.6
			c0.9,0,1.6,0.3,2.1,0.8S-163.9,176.2-163.9,177.2z M-165.2,177c0-0.5-0.1-1-0.4-1.3c-0.3-0.3-0.7-0.5-1.1-0.5
			c-0.5,0-0.9,0.2-1.3,0.5c-0.4,0.3-0.7,0.8-0.9,1.4c-0.2,0.6-0.3,1.3-0.3,2c0,0.6,0.1,1.1,0.4,1.4s0.7,0.5,1.2,0.5
			c0.5,0,0.9-0.2,1.3-0.5c0.4-0.3,0.7-0.8,0.9-1.4C-165.3,178.5-165.2,177.8-165.2,177z"/>
		<path class="st3" d="M-157.9,174.2c0.3,0,0.6,0,0.8,0.1l-0.3,1.1c-0.3-0.1-0.5-0.1-0.7-0.1c-0.4,0-0.8,0.1-1.2,0.4
			c-0.4,0.3-0.7,0.7-1,1.1c-0.3,0.5-0.5,1-0.6,1.6l-0.7,3.5h-1.3l1.6-7.7h1l-0.2,1.4h0.1c0.3-0.4,0.6-0.8,0.8-1
			c0.2-0.2,0.4-0.3,0.7-0.4C-158.5,174.2-158.2,174.2-157.9,174.2z"/>
		<path class="st3" d="M-155.4,180.3l0.1,0.2c-0.5,1-1.1,2.1-1.9,3.3h-1c0.4-1,0.9-2.1,1.4-3.5H-155.4z"/>
		<path class="st3" d="M-144.9,174.2c0.3,0,0.6,0,0.8,0.1l-0.3,1.1c-0.3-0.1-0.5-0.1-0.7-0.1c-0.4,0-0.8,0.1-1.2,0.4
			c-0.4,0.3-0.7,0.7-1,1.1c-0.3,0.5-0.5,1-0.6,1.6l-0.7,3.5h-1.3l1.6-7.7h1l-0.2,1.4h0.1c0.3-0.4,0.6-0.8,0.8-1
			c0.2-0.2,0.4-0.3,0.7-0.4C-145.5,174.2-145.2,174.2-144.9,174.2z"/>
		<path class="st3" d="M-140.7,182.1c-0.9,0-1.5-0.3-2-0.8c-0.5-0.5-0.7-1.2-0.7-2.1c0-0.9,0.2-1.7,0.5-2.5c0.3-0.8,0.8-1.4,1.4-1.9
			c0.6-0.5,1.2-0.7,1.9-0.7c0.7,0,1.3,0.2,1.6,0.5s0.6,0.8,0.6,1.3c0,0.8-0.4,1.5-1.2,2s-1.9,0.7-3.3,0.7h-0.2l0,0.5
			c0,0.6,0.1,1,0.4,1.4c0.3,0.3,0.7,0.5,1.3,0.5c0.4,0,0.7-0.1,1-0.2c0.3-0.1,0.7-0.2,1.1-0.4v1.1c-0.5,0.2-0.9,0.4-1.2,0.4
			S-140.3,182.1-140.7,182.1z M-139.7,175.2c-0.5,0-0.9,0.2-1.4,0.7s-0.7,1-0.9,1.8h0.1c1,0,1.8-0.1,2.4-0.4s0.8-0.7,0.8-1.2
			c0-0.2-0.1-0.4-0.2-0.6C-139.1,175.3-139.4,175.2-139.7,175.2z"/>
		<path class="st3" d="M-133.5,182.1c-0.9,0-1.6-0.2-2.1-0.7c-0.5-0.5-0.7-1.2-0.7-2.1c0-0.9,0.2-1.8,0.5-2.6
			c0.3-0.8,0.8-1.4,1.4-1.8c0.6-0.4,1.3-0.7,2.1-0.7c0.7,0,1.3,0.1,1.9,0.4l-0.4,1c-0.5-0.2-1-0.4-1.5-0.4c-0.5,0-1,0.2-1.4,0.5
			c-0.4,0.4-0.7,0.8-1,1.5s-0.3,1.3-0.3,2c0,0.6,0.1,1,0.4,1.3c0.3,0.3,0.7,0.5,1.2,0.5c0.3,0,0.7,0,1-0.1c0.3-0.1,0.6-0.2,0.9-0.3
			v1.1C-132.2,181.9-132.8,182.1-133.5,182.1z"/>
		<path class="st3" d="M-123.2,177.2c0,0.9-0.2,1.7-0.5,2.5c-0.3,0.8-0.8,1.4-1.4,1.8c-0.6,0.4-1.2,0.6-2,0.6
			c-0.9,0-1.6-0.3-2.1-0.8c-0.5-0.5-0.8-1.2-0.8-2.1c0-0.9,0.2-1.7,0.5-2.5s0.8-1.4,1.4-1.8c0.6-0.4,1.2-0.6,1.9-0.6
			c0.9,0,1.6,0.3,2.1,0.8S-123.2,176.2-123.2,177.2z M-124.5,177c0-0.5-0.1-1-0.4-1.3c-0.3-0.3-0.7-0.5-1.1-0.5
			c-0.5,0-0.9,0.2-1.3,0.5c-0.4,0.3-0.7,0.8-0.9,1.4c-0.2,0.6-0.3,1.3-0.3,2c0,0.6,0.1,1.1,0.4,1.4s0.7,0.5,1.2,0.5
			c0.5,0,0.9-0.2,1.3-0.5c0.4-0.3,0.7-0.8,0.9-1.4C-124.6,178.5-124.5,177.8-124.5,177z"/>
		<path class="st3" d="M-117.1,174.2c0.5,0,0.9,0.1,1.2,0.5c0.3,0.3,0.5,0.7,0.5,1.2h0.1c0.8-1.1,1.7-1.7,2.6-1.7
			c0.6,0,1.1,0.2,1.4,0.5c0.3,0.3,0.5,0.8,0.5,1.4c0,0.4-0.1,0.8-0.2,1.3l-1,4.7h-1.3l1-4.8c0.1-0.4,0.1-0.8,0.1-1
			c0-0.3-0.1-0.5-0.2-0.7c-0.2-0.2-0.4-0.3-0.7-0.3c-0.4,0-0.7,0.1-1.1,0.4c-0.4,0.3-0.7,0.6-0.9,1.1s-0.5,1.1-0.6,1.7l-0.7,3.5
			h-1.3l1-4.8c0.1-0.4,0.1-0.8,0.1-0.9c0-0.7-0.3-1-0.9-1c-0.4,0-0.8,0.1-1.1,0.4c-0.4,0.3-0.7,0.7-1,1.2c-0.3,0.5-0.5,1.1-0.6,1.8
			l-0.7,3.3h-1.3l1.6-7.7h1l-0.2,1.4h0.1c0.3-0.4,0.6-0.7,0.8-0.9c0.2-0.2,0.5-0.3,0.8-0.5S-117.4,174.2-117.1,174.2z"/>
		<path class="st3" d="M-107.3,182.1c-0.6,0-1.1-0.2-1.5-0.7c-0.4-0.5-0.6-1.1-0.6-1.9c0-1,0.2-1.8,0.5-2.7c0.3-0.8,0.8-1.5,1.4-1.9
			s1.2-0.7,1.9-0.7c0.4,0,0.8,0.1,1.1,0.3c0.3,0.2,0.6,0.6,0.8,1h0.1l0.5-1.2h1l-1.6,7.7h-1l0.2-1.4h-0.1
			C-105.5,181.6-106.4,182.1-107.3,182.1z M-106.9,181c0.4,0,0.9-0.2,1.3-0.6c0.4-0.4,0.8-1,1.1-1.6s0.4-1.4,0.4-2.1
			c0-0.5-0.1-0.8-0.4-1.1c-0.2-0.3-0.6-0.4-1-0.4c-0.5,0-0.9,0.2-1.3,0.6c-0.4,0.4-0.7,0.9-0.9,1.6c-0.2,0.7-0.3,1.4-0.3,2.1
			c0,0.5,0.1,0.9,0.3,1.2C-107.6,180.9-107.3,181-106.9,181z"/>
		<path class="st3" d="M-95.7,181.9h-1.3l1-4.8c0.1-0.5,0.1-0.8,0.1-1c0-0.3-0.1-0.5-0.2-0.7c-0.2-0.2-0.4-0.3-0.8-0.3
			c-0.4,0-0.8,0.1-1.2,0.4c-0.4,0.3-0.7,0.7-1,1.2c-0.3,0.5-0.5,1.1-0.7,1.8l-0.7,3.3h-1.3l1.6-7.7h1l-0.2,1.4h0.1
			c0.3-0.4,0.6-0.7,0.8-0.9c0.2-0.2,0.5-0.4,0.8-0.5c0.3-0.1,0.6-0.2,0.9-0.2c0.6,0,1.1,0.2,1.4,0.5c0.3,0.3,0.5,0.8,0.5,1.4
			c0,0.4-0.1,0.8-0.2,1.3L-95.7,181.9z"/>
		<path class="st3" d="M-86.3,177.2c0,0.9-0.2,1.7-0.5,2.5c-0.3,0.8-0.8,1.4-1.4,1.8c-0.6,0.4-1.2,0.6-2,0.6c-0.9,0-1.6-0.3-2.1-0.8
			c-0.5-0.5-0.8-1.2-0.8-2.1c0-0.9,0.2-1.7,0.5-2.5s0.8-1.4,1.4-1.8c0.6-0.4,1.2-0.6,1.9-0.6c0.9,0,1.6,0.3,2.1,0.8
			S-86.3,176.2-86.3,177.2z M-87.6,177c0-0.5-0.1-1-0.4-1.3c-0.3-0.3-0.7-0.5-1.1-0.5c-0.5,0-0.9,0.2-1.3,0.5
			c-0.4,0.3-0.7,0.8-0.9,1.4c-0.2,0.6-0.3,1.3-0.3,2c0,0.6,0.1,1.1,0.4,1.4s0.7,0.5,1.2,0.5c0.5,0,0.9-0.2,1.3-0.5
			c0.4-0.3,0.7-0.8,0.9-1.4C-87.7,178.5-87.6,177.8-87.6,177z"/>
		<path class="st3" d="M-79.2,182.1c-0.6,0-1.1-0.2-1.5-0.7c-0.4-0.5-0.6-1.1-0.6-1.9c0-1,0.2-1.8,0.5-2.7c0.3-0.8,0.8-1.5,1.4-1.9
			s1.2-0.7,1.9-0.7c0.4,0,0.8,0.1,1.1,0.3c0.3,0.2,0.6,0.6,0.8,1h0.1l0.5-1.2h1l-1.6,7.7h-1l0.2-1.4h-0.1
			C-77.4,181.6-78.3,182.1-79.2,182.1z M-78.8,181c0.4,0,0.9-0.2,1.3-0.6c0.4-0.4,0.8-1,1.1-1.6s0.4-1.4,0.4-2.1
			c0-0.5-0.1-0.8-0.4-1.1c-0.2-0.3-0.6-0.4-1-0.4c-0.5,0-0.9,0.2-1.3,0.6c-0.4,0.4-0.7,0.9-0.9,1.6c-0.2,0.7-0.3,1.4-0.3,2.1
			c0,0.5,0.1,0.9,0.3,1.2C-79.5,180.9-79.2,181-78.8,181z"/>
		<path class="st3" d="M-71.1,182.1c-0.7,0-1.2-0.2-1.5-0.7s-0.6-1.1-0.6-1.9c0-1,0.2-1.9,0.5-2.7c0.3-0.8,0.8-1.5,1.3-1.9
			c0.6-0.5,1.2-0.7,1.9-0.7c0.4,0,0.8,0.1,1.1,0.3c0.3,0.2,0.6,0.6,0.8,1h0.1l0.5-1.2h0.9l-2.4,11.1h-1.2l0.7-3.3
			c0.1-0.5,0.2-1,0.4-1.6h-0.1c-0.4,0.5-0.8,0.9-1.3,1.2S-70.7,182.1-71.1,182.1z M-70.7,181c0.4,0,0.8-0.2,1.3-0.6
			c0.4-0.4,0.8-1,1.1-1.6c0.3-0.7,0.4-1.4,0.4-2c0-0.5-0.1-0.9-0.4-1.1s-0.6-0.4-1-0.4c-0.5,0-0.9,0.2-1.3,0.6
			c-0.4,0.4-0.7,0.9-0.9,1.6c-0.2,0.7-0.4,1.4-0.4,2.2C-71.9,180.5-71.5,181-70.7,181z"/>
		<path class="st3" d="M-63.6,174.3h1.3l-1,4.8c-0.1,0.4-0.1,0.7-0.1,1c0,0.7,0.3,1,1,1c0.4,0,0.8-0.1,1.2-0.4
			c0.4-0.3,0.7-0.7,1-1.2c0.3-0.5,0.5-1.1,0.7-1.9l0.7-3.3h1.2l-1.6,7.7h-1l0.2-1.4h-0.1c-0.4,0.5-0.8,0.9-1.3,1.2
			c-0.4,0.2-0.9,0.4-1.3,0.4c-0.6,0-1.1-0.2-1.4-0.5s-0.5-0.8-0.5-1.4c0-0.3,0.1-0.7,0.2-1.2L-63.6,174.3z"/>
		<path class="st3" d="M-53.9,182.1c-0.9,0-1.5-0.3-2-0.8c-0.5-0.5-0.7-1.2-0.7-2.1c0-0.9,0.2-1.7,0.5-2.5c0.3-0.8,0.8-1.4,1.4-1.9
			c0.6-0.5,1.2-0.7,1.9-0.7c0.7,0,1.3,0.2,1.6,0.5s0.6,0.8,0.6,1.3c0,0.8-0.4,1.5-1.2,2s-1.9,0.7-3.3,0.7h-0.2l0,0.5
			c0,0.6,0.1,1,0.4,1.4c0.3,0.3,0.7,0.5,1.3,0.5c0.4,0,0.7-0.1,1-0.2c0.3-0.1,0.7-0.2,1.1-0.4v1.1c-0.5,0.2-0.9,0.4-1.2,0.4
			S-53.5,182.1-53.9,182.1z M-52.9,175.2c-0.5,0-0.9,0.2-1.4,0.7s-0.7,1-0.9,1.8h0.1c1,0,1.8-0.1,2.4-0.4s0.8-0.7,0.8-1.2
			c0-0.2-0.1-0.4-0.2-0.6C-52.3,175.3-52.5,175.2-52.9,175.2z"/>
		<path class="st3" d="M-45,179.7c0,0.7-0.3,1.3-0.8,1.7c-0.5,0.4-1.2,0.6-2.2,0.6c-0.8,0-1.5-0.2-2.1-0.5v-1.2
			c0.3,0.2,0.6,0.3,1,0.4c0.4,0.1,0.7,0.2,1.1,0.2c0.6,0,1-0.1,1.3-0.3c0.3-0.2,0.4-0.5,0.4-0.9c0-0.3-0.1-0.5-0.2-0.7
			s-0.5-0.4-1-0.7c-0.6-0.3-1-0.7-1.3-1c-0.2-0.3-0.4-0.7-0.4-1.2c0-0.7,0.2-1.2,0.7-1.6s1.1-0.6,1.9-0.6c0.8,0,1.6,0.2,2.3,0.5
			l-0.4,1c-0.2-0.1-0.5-0.2-0.8-0.3s-0.7-0.2-1.1-0.2c-0.4,0-0.7,0.1-1,0.3s-0.4,0.4-0.4,0.8c0,0.3,0.1,0.5,0.3,0.7
			c0.2,0.2,0.5,0.4,1,0.7c0.5,0.3,0.9,0.6,1.1,0.8c0.2,0.2,0.3,0.4,0.5,0.6S-45,179.4-45,179.7z"/>
		<path class="st3" d="M-41.2,181.1c0.3,0,0.6-0.1,1-0.2v1c-0.1,0.1-0.3,0.1-0.6,0.2c-0.2,0.1-0.5,0.1-0.6,0.1c-0.6,0-1-0.1-1.4-0.4
			c-0.3-0.3-0.5-0.7-0.5-1.2c0-0.3,0-0.6,0.1-1l0.9-4.2h-1.2l0.1-0.6l1.3-0.5l0.9-1.6h0.7l-0.4,1.7h1.9l-0.2,1H-41l-0.9,4.2
			c-0.1,0.4-0.1,0.7-0.1,0.8c0,0.2,0.1,0.4,0.2,0.6S-41.5,181.1-41.2,181.1z"/>
		<path class="st3" d="M-36.5,182.1c-0.6,0-1.1-0.2-1.5-0.7c-0.4-0.5-0.6-1.1-0.6-1.9c0-1,0.2-1.8,0.5-2.7c0.3-0.8,0.8-1.5,1.4-1.9
			s1.2-0.7,1.9-0.7c0.4,0,0.8,0.1,1.1,0.3c0.3,0.2,0.6,0.6,0.8,1h0.1l0.5-1.2h1l-1.6,7.7h-1l0.2-1.4h-0.1
			C-34.7,181.6-35.6,182.1-36.5,182.1z M-36.1,181c0.4,0,0.9-0.2,1.3-0.6c0.4-0.4,0.8-1,1.1-1.6s0.4-1.4,0.4-2.1
			c0-0.5-0.1-0.8-0.4-1.1c-0.2-0.3-0.6-0.4-1-0.4c-0.5,0-0.9,0.2-1.3,0.6c-0.4,0.4-0.7,0.9-0.9,1.6c-0.2,0.7-0.3,1.4-0.3,2.1
			c0,0.5,0.1,0.9,0.3,1.2C-36.8,180.9-36.5,181-36.1,181z"/>
		<path class="st3" d="M-274.5,199.2c-0.9,0-1.6-0.2-2.1-0.7c-0.5-0.5-0.7-1.2-0.7-2.1c0-0.9,0.2-1.8,0.5-2.6
			c0.3-0.8,0.8-1.4,1.4-1.8s1.3-0.7,2.1-0.7c0.7,0,1.3,0.1,1.9,0.4l-0.4,1c-0.5-0.2-1-0.4-1.5-0.4c-0.5,0-1,0.2-1.4,0.5
			c-0.4,0.4-0.7,0.8-1,1.5c-0.2,0.6-0.3,1.3-0.3,2c0,0.6,0.1,1,0.4,1.3s0.7,0.5,1.2,0.5c0.3,0,0.7,0,1-0.1c0.3-0.1,0.6-0.2,0.9-0.3
			v1.1C-273.1,199.1-273.8,199.2-274.5,199.2z"/>
		<path class="st3" d="M-269.9,199.1h-1.3l2.3-10.8h1.3L-269.9,199.1z"/>
		<path class="st3" d="M-265.1,199.2c-0.6,0-1.1-0.2-1.5-0.7c-0.4-0.5-0.6-1.1-0.6-1.9c0-1,0.2-1.8,0.5-2.7c0.3-0.8,0.8-1.5,1.4-1.9
			c0.6-0.5,1.2-0.7,1.9-0.7c0.4,0,0.8,0.1,1.1,0.3c0.3,0.2,0.6,0.6,0.8,1h0.1l0.5-1.2h1l-1.6,7.7h-1l0.2-1.4h-0.1
			C-263.3,198.7-264.2,199.2-265.1,199.2z M-264.7,198.2c0.4,0,0.9-0.2,1.3-0.6s0.8-1,1.1-1.6c0.3-0.7,0.4-1.4,0.4-2.1
			c0-0.5-0.1-0.8-0.4-1.1c-0.3-0.3-0.6-0.4-1-0.4c-0.5,0-0.9,0.2-1.3,0.6s-0.7,0.9-0.9,1.6s-0.3,1.4-0.3,2.1c0,0.5,0.1,0.9,0.3,1.2
			S-265.1,198.2-264.7,198.2z"/>
		<path class="st3" d="M-254.6,196.9c0,0.7-0.3,1.3-0.8,1.7c-0.5,0.4-1.2,0.6-2.2,0.6c-0.8,0-1.5-0.2-2.1-0.5v-1.2
			c0.3,0.2,0.6,0.3,1,0.4c0.4,0.1,0.7,0.2,1.1,0.2c0.6,0,1-0.1,1.3-0.3c0.3-0.2,0.4-0.5,0.4-0.9c0-0.3-0.1-0.5-0.2-0.7
			c-0.2-0.2-0.5-0.4-1-0.7c-0.6-0.3-1-0.7-1.3-1s-0.4-0.7-0.4-1.2c0-0.7,0.2-1.2,0.7-1.6c0.5-0.4,1.1-0.6,1.9-0.6
			c0.8,0,1.6,0.2,2.3,0.5l-0.4,1c-0.2-0.1-0.5-0.2-0.8-0.3c-0.3-0.1-0.7-0.1-1.1-0.1c-0.4,0-0.7,0.1-1,0.3c-0.2,0.2-0.4,0.4-0.4,0.8
			c0,0.3,0.1,0.5,0.3,0.7c0.2,0.2,0.5,0.4,1,0.7c0.5,0.3,0.9,0.6,1.1,0.8c0.2,0.2,0.3,0.4,0.5,0.6
			C-254.7,196.3-254.6,196.6-254.6,196.9z"/>
		<path class="st3" d="M-248.4,196.9c0,0.7-0.3,1.3-0.8,1.7c-0.5,0.4-1.2,0.6-2.2,0.6c-0.8,0-1.5-0.2-2.1-0.5v-1.2
			c0.3,0.2,0.6,0.3,1,0.4c0.4,0.1,0.7,0.2,1.1,0.2c0.6,0,1-0.1,1.3-0.3c0.3-0.2,0.4-0.5,0.4-0.9c0-0.3-0.1-0.5-0.2-0.7
			c-0.2-0.2-0.5-0.4-1-0.7c-0.6-0.3-1-0.7-1.3-1s-0.4-0.7-0.4-1.2c0-0.7,0.2-1.2,0.7-1.6c0.5-0.4,1.1-0.6,1.9-0.6
			c0.8,0,1.6,0.2,2.3,0.5l-0.4,1c-0.2-0.1-0.5-0.2-0.8-0.3c-0.3-0.1-0.7-0.1-1.1-0.1c-0.4,0-0.7,0.1-1,0.3c-0.2,0.2-0.4,0.4-0.4,0.8
			c0,0.3,0.1,0.5,0.3,0.7c0.2,0.2,0.5,0.4,1,0.7c0.5,0.3,0.9,0.6,1.1,0.8c0.2,0.2,0.3,0.4,0.5,0.6
			C-248.5,196.3-248.4,196.6-248.4,196.9z"/>
		<path class="st3" d="M-244,199.2c-0.9,0-1.5-0.3-2-0.8c-0.5-0.5-0.7-1.2-0.7-2.1c0-0.9,0.2-1.7,0.5-2.5c0.3-0.8,0.8-1.4,1.4-1.9
			c0.6-0.5,1.2-0.7,1.9-0.7c0.7,0,1.3,0.2,1.6,0.5c0.4,0.3,0.6,0.8,0.6,1.3c0,0.8-0.4,1.5-1.2,2c-0.8,0.5-1.9,0.7-3.3,0.7h-0.2
			l0,0.5c0,0.6,0.1,1,0.4,1.4c0.3,0.3,0.7,0.5,1.3,0.5c0.4,0,0.7-0.1,1-0.2c0.3-0.1,0.7-0.2,1.1-0.4v1.1c-0.5,0.2-0.9,0.4-1.2,0.4
			C-243.2,199.2-243.6,199.2-244,199.2z M-243,192.3c-0.5,0-0.9,0.2-1.4,0.7s-0.7,1-0.9,1.8h0.1c1,0,1.8-0.1,2.4-0.4
			c0.6-0.3,0.8-0.7,0.8-1.2c0-0.2-0.1-0.4-0.3-0.6C-242.4,192.4-242.7,192.3-243,192.3z"/>
		<path class="st3" d="M-233.9,199.2c-0.6,0-1.1-0.2-1.5-0.7c-0.4-0.5-0.6-1.1-0.6-1.9c0-1,0.2-1.8,0.5-2.7c0.3-0.8,0.8-1.5,1.4-1.9
			c0.6-0.5,1.2-0.7,1.9-0.7c0.4,0,0.8,0.1,1.1,0.3c0.3,0.2,0.6,0.6,0.8,1h0.1l0.5-1.2h1l-1.6,7.7h-1l0.2-1.4h-0.1
			C-232.1,198.7-232.9,199.2-233.9,199.2z M-233.4,198.2c0.4,0,0.9-0.2,1.3-0.6s0.8-1,1.1-1.6c0.3-0.7,0.4-1.4,0.4-2.1
			c0-0.5-0.1-0.8-0.4-1.1c-0.3-0.3-0.6-0.4-1-0.4c-0.5,0-0.9,0.2-1.3,0.6s-0.7,0.9-0.9,1.6s-0.3,1.4-0.3,2.1c0,0.5,0.1,0.9,0.3,1.2
			S-233.8,198.2-233.4,198.2z"/>
		<path class="st3" d="M-222,198.2c0.3,0,0.6-0.1,1-0.2v1c-0.1,0.1-0.3,0.1-0.6,0.2c-0.2,0.1-0.5,0.1-0.6,0.1c-0.6,0-1-0.1-1.4-0.4
			c-0.3-0.3-0.5-0.7-0.5-1.2c0-0.3,0-0.6,0.1-1l0.9-4.2h-1.2l0.1-0.6l1.3-0.5l0.9-1.6h0.7l-0.4,1.7h1.9l-0.2,1h-1.9l-0.9,4.2
			c-0.1,0.4-0.1,0.7-0.1,0.8c0,0.2,0.1,0.4,0.2,0.6C-222.4,198.1-222.2,198.2-222,198.2z"/>
		<path class="st3" d="M-212.7,194.3c0,0.9-0.2,1.7-0.5,2.5c-0.3,0.8-0.8,1.4-1.4,1.8c-0.6,0.4-1.2,0.6-2,0.6
			c-0.9,0-1.6-0.3-2.1-0.8c-0.5-0.5-0.8-1.2-0.8-2.1c0-0.9,0.2-1.7,0.5-2.5c0.3-0.8,0.8-1.4,1.4-1.8s1.2-0.6,1.9-0.6
			c0.9,0,1.6,0.3,2.1,0.8C-213,192.6-212.7,193.4-212.7,194.3z M-214,194.1c0-0.5-0.1-1-0.4-1.3c-0.3-0.3-0.7-0.5-1.1-0.5
			c-0.5,0-0.9,0.2-1.3,0.5c-0.4,0.3-0.7,0.8-0.9,1.4c-0.2,0.6-0.3,1.3-0.3,2c0,0.6,0.1,1.1,0.4,1.4c0.3,0.3,0.7,0.5,1.2,0.5
			c0.5,0,0.9-0.2,1.3-0.5c0.4-0.3,0.7-0.8,0.9-1.4C-214.1,195.6-214,194.9-214,194.1z"/>
		<path class="st3" d="M-209.2,198.2c0.3,0,0.6-0.1,1-0.2v1c-0.1,0.1-0.3,0.1-0.6,0.2c-0.2,0.1-0.5,0.1-0.6,0.1
			c-0.6,0-1-0.1-1.4-0.4c-0.3-0.3-0.5-0.7-0.5-1.2c0-0.3,0-0.6,0.1-1l0.9-4.2h-1.2l0.1-0.6l1.3-0.5l0.9-1.6h0.7l-0.4,1.7h1.9l-0.2,1
			h-1.9l-0.9,4.2c-0.1,0.4-0.1,0.7-0.1,0.8c0,0.2,0.1,0.4,0.2,0.6C-209.7,198.1-209.5,198.2-209.2,198.2z"/>
		<path class="st3" d="M-201,199.1h-1.3l1-4.8c0.1-0.4,0.1-0.7,0.1-0.9c0-0.7-0.3-1-1-1c-0.4,0-0.8,0.1-1.2,0.4
			c-0.4,0.3-0.7,0.7-1,1.2c-0.3,0.5-0.5,1.1-0.7,1.8l-0.7,3.3h-1.3l2.3-10.8h1.3l-0.6,2.8c-0.1,0.3-0.1,0.6-0.2,0.9
			c-0.1,0.3-0.2,0.6-0.2,0.9h0.1c0.4-0.5,0.8-0.9,1.3-1.2c0.4-0.2,0.9-0.4,1.3-0.4c0.6,0,1.1,0.2,1.4,0.5c0.3,0.3,0.5,0.8,0.5,1.5
			c0,0.3-0.1,0.7-0.2,1.2L-201,199.1z"/>
		<path class="st3" d="M-191.7,194.3c0,0.9-0.2,1.7-0.5,2.5c-0.3,0.8-0.8,1.4-1.4,1.8c-0.6,0.4-1.2,0.6-2,0.6
			c-0.9,0-1.6-0.3-2.1-0.8c-0.5-0.5-0.8-1.2-0.8-2.1c0-0.9,0.2-1.7,0.5-2.5c0.3-0.8,0.8-1.4,1.4-1.8s1.2-0.6,1.9-0.6
			c0.9,0,1.6,0.3,2.1,0.8S-191.7,193.4-191.7,194.3z M-193,194.1c0-0.5-0.1-1-0.4-1.3c-0.3-0.3-0.7-0.5-1.1-0.5
			c-0.5,0-0.9,0.2-1.3,0.5c-0.4,0.3-0.7,0.8-0.9,1.4c-0.2,0.6-0.3,1.3-0.3,2c0,0.6,0.1,1.1,0.4,1.4c0.3,0.3,0.7,0.5,1.2,0.5
			c0.5,0,0.9-0.2,1.3-0.5c0.4-0.3,0.7-0.8,0.9-1.4C-193.1,195.6-193,194.9-193,194.1z"/>
		<path class="st3" d="M-185.6,191.3c0.5,0,0.9,0.2,1.2,0.4c0.3,0.3,0.5,0.7,0.5,1.3h0.1c0.8-1.1,1.7-1.7,2.6-1.7
			c0.6,0,1.1,0.2,1.4,0.5c0.3,0.3,0.5,0.8,0.5,1.4c0,0.4-0.1,0.8-0.2,1.3l-1,4.7h-1.3l1-4.8c0.1-0.4,0.1-0.8,0.1-1
			c0-0.3-0.1-0.5-0.2-0.7c-0.2-0.2-0.4-0.3-0.7-0.3c-0.4,0-0.7,0.1-1.1,0.4c-0.4,0.3-0.7,0.6-0.9,1.1c-0.3,0.5-0.5,1.1-0.6,1.7
			l-0.7,3.5h-1.3l1-4.8c0.1-0.4,0.1-0.8,0.1-0.9c0-0.7-0.3-1-0.9-1c-0.4,0-0.8,0.1-1.1,0.4c-0.4,0.3-0.7,0.7-1,1.2
			c-0.3,0.5-0.5,1.1-0.6,1.8l-0.7,3.3h-1.3l1.6-7.7h1l-0.2,1.4h0.1c0.3-0.4,0.6-0.7,0.8-0.9c0.2-0.2,0.5-0.3,0.8-0.5
			C-186.2,191.3-185.9,191.3-185.6,191.3z"/>
		<path class="st3" d="M-178.2,198.5c0-0.4,0.1-0.6,0.3-0.9c0.2-0.2,0.5-0.3,0.8-0.3c0.2,0,0.4,0.1,0.5,0.2c0.1,0.1,0.2,0.3,0.2,0.6
			c0,0.3-0.1,0.6-0.3,0.8c-0.2,0.2-0.4,0.3-0.8,0.3c-0.2,0-0.4-0.1-0.5-0.2S-178.2,198.8-178.2,198.5z"/>
	</g>
</g>
<g>
	<g>
		<path class="st3" d="M-361.4-17.3v6.3h-3.5v-16.4h4.8c2.2,0,3.9,0.4,4.9,1.2c1.1,0.8,1.6,2,1.6,3.7c0,1-0.3,1.8-0.8,2.6
			c-0.5,0.8-1.3,1.3-2.3,1.8l4.8,7.1h-3.9l-3.9-6.3H-361.4z M-361.4-20.1h1.1c1.1,0,1.9-0.2,2.4-0.5c0.5-0.4,0.8-0.9,0.8-1.7
			c0-0.8-0.3-1.3-0.8-1.7c-0.5-0.3-1.4-0.5-2.5-0.5h-1.1V-20.1z"/>
		<path class="st3" d="M-344.4-10.8c-2,0-3.6-0.6-4.7-1.7c-1.1-1.1-1.7-2.7-1.7-4.7c0-2.1,0.5-3.7,1.6-4.9s2.5-1.7,4.4-1.7
			c1.8,0,3.1,0.5,4.1,1.5c1,1,1.5,2.4,1.5,4.2v1.7h-8.1c0,1,0.3,1.7,0.9,2.3c0.5,0.5,1.3,0.8,2.3,0.8c0.8,0,1.5-0.1,2.1-0.2
			s1.4-0.4,2.1-0.8v2.6c-0.6,0.3-1.2,0.5-1.9,0.7C-342.5-10.9-343.4-10.8-344.4-10.8z M-344.8-21.4c-0.7,0-1.3,0.2-1.7,0.7
			c-0.4,0.5-0.6,1.1-0.7,2h4.8c0-0.8-0.2-1.5-0.7-2C-343.5-21.1-344.1-21.4-344.8-21.4z"/>
		<path class="st3" d="M-327.7-14.7c0,1.3-0.4,2.3-1.3,2.9c-0.9,0.7-2.2,1-4,1c-0.9,0-1.7-0.1-2.3-0.2c-0.6-0.1-1.2-0.3-1.8-0.5
			v-2.8c0.6,0.3,1.3,0.5,2.1,0.8c0.8,0.2,1.5,0.3,2.1,0.3c1.2,0,1.9-0.4,1.9-1.1c0-0.3-0.1-0.5-0.2-0.7c-0.2-0.2-0.4-0.4-0.9-0.6
			c-0.4-0.2-0.9-0.5-1.6-0.7c-1-0.4-1.7-0.8-2.1-1.1s-0.8-0.7-1-1.2c-0.2-0.4-0.3-1-0.3-1.6c0-1.1,0.4-2,1.3-2.6s2.1-0.9,3.7-0.9
			c1.5,0,3,0.3,4.4,1l-1,2.5c-0.6-0.3-1.2-0.5-1.8-0.7c-0.5-0.2-1.1-0.3-1.7-0.3c-1,0-1.5,0.3-1.5,0.8c0,0.3,0.2,0.6,0.5,0.8
			c0.3,0.2,1,0.6,2.1,1c1,0.4,1.7,0.8,2.1,1.1c0.5,0.3,0.8,0.7,1,1.2C-327.8-15.9-327.7-15.4-327.7-14.7z"/>
		<path class="st3" d="M-316.3-14.7c0,1.3-0.4,2.3-1.3,2.9c-0.9,0.7-2.2,1-4,1c-0.9,0-1.7-0.1-2.3-0.2c-0.6-0.1-1.2-0.3-1.8-0.5
			v-2.8c0.6,0.3,1.3,0.5,2.1,0.8c0.8,0.2,1.5,0.3,2.1,0.3c1.2,0,1.9-0.4,1.9-1.1c0-0.3-0.1-0.5-0.2-0.7c-0.2-0.2-0.4-0.4-0.9-0.6
			c-0.4-0.2-0.9-0.5-1.6-0.7c-1-0.4-1.7-0.8-2.1-1.1s-0.8-0.7-1-1.2c-0.2-0.4-0.3-1-0.3-1.6c0-1.1,0.4-2,1.3-2.6s2.1-0.9,3.7-0.9
			c1.5,0,3,0.3,4.4,1l-1,2.5c-0.6-0.3-1.2-0.5-1.8-0.7c-0.5-0.2-1.1-0.3-1.7-0.3c-1,0-1.5,0.3-1.5,0.8c0,0.3,0.2,0.6,0.5,0.8
			c0.3,0.2,1,0.6,2.1,1c1,0.4,1.7,0.8,2.1,1.1c0.5,0.3,0.8,0.7,1,1.2C-316.4-15.9-316.3-15.4-316.3-14.7z"/>
		<path class="st3" d="M-308-10.8c-2,0-3.6-0.6-4.7-1.7c-1.1-1.1-1.7-2.7-1.7-4.7c0-2.1,0.5-3.7,1.6-4.9s2.5-1.7,4.4-1.7
			c1.8,0,3.1,0.5,4.1,1.5c1,1,1.5,2.4,1.5,4.2v1.7h-8.1c0,1,0.3,1.7,0.9,2.3c0.5,0.5,1.3,0.8,2.3,0.8c0.8,0,1.5-0.1,2.1-0.2
			s1.4-0.4,2.1-0.8v2.6c-0.6,0.3-1.2,0.5-1.9,0.7C-306.2-10.9-307-10.8-308-10.8z M-308.5-21.4c-0.7,0-1.3,0.2-1.7,0.7
			c-0.4,0.5-0.6,1.1-0.7,2h4.8c0-0.8-0.2-1.5-0.7-2C-307.2-21.1-307.8-21.4-308.5-21.4z"/>
		<path class="st3" d="M-288.6-11h-3.4v-7.3c0-0.9-0.2-1.6-0.5-2c-0.3-0.5-0.8-0.7-1.5-0.7c-1,0-1.6,0.3-2.1,1
			c-0.4,0.6-0.6,1.7-0.6,3.2v5.9h-3.4v-12.5h2.6l0.5,1.6h0.2c0.4-0.6,0.9-1.1,1.6-1.4c0.7-0.3,1.4-0.5,2.3-0.5
			c1.5,0,2.6,0.4,3.3,1.2c0.8,0.8,1.1,1.9,1.1,3.4V-11z"/>
		<path class="st3" d="M-286.8-23.5h3.7l2.4,7c0.2,0.6,0.3,1.3,0.4,2.2h0.1c0.1-0.8,0.2-1.5,0.5-2.2l2.3-7h3.7l-5.3,14.1
			c-0.5,1.3-1.2,2.3-2.1,2.9c-0.9,0.6-2,1-3.2,1c-0.6,0-1.2-0.1-1.7-0.2v-2.7c0.4,0.1,0.9,0.1,1.3,0.1c0.6,0,1.1-0.2,1.6-0.6
			c0.5-0.4,0.8-0.9,1.1-1.7l0.2-0.6L-286.8-23.5z"/>
		<path class="st3" d="M-266.3-10.8c-2,0-3.6-0.6-4.7-1.7c-1.1-1.1-1.7-2.7-1.7-4.7c0-2.1,0.5-3.7,1.6-4.9s2.5-1.7,4.4-1.7
			c1.8,0,3.1,0.5,4.1,1.5c1,1,1.5,2.4,1.5,4.2v1.7h-8.1c0,1,0.3,1.7,0.9,2.3c0.5,0.5,1.3,0.8,2.3,0.8c0.8,0,1.5-0.1,2.1-0.2
			s1.4-0.4,2.1-0.8v2.6c-0.6,0.3-1.2,0.5-1.9,0.7C-264.5-10.9-265.4-10.8-266.3-10.8z M-266.8-21.4c-0.7,0-1.3,0.2-1.7,0.7
			c-0.4,0.5-0.6,1.1-0.7,2h4.8c0-0.8-0.2-1.5-0.7-2C-265.5-21.1-266.1-21.4-266.8-21.4z"/>
		<path class="st3" d="M-249.7-14.7c0,1.3-0.4,2.3-1.3,2.9c-0.9,0.7-2.2,1-4,1c-0.9,0-1.7-0.1-2.3-0.2c-0.6-0.1-1.2-0.3-1.8-0.5
			v-2.8c0.6,0.3,1.3,0.5,2.1,0.8c0.8,0.2,1.5,0.3,2.1,0.3c1.2,0,1.9-0.4,1.9-1.1c0-0.3-0.1-0.5-0.2-0.7c-0.2-0.2-0.4-0.4-0.9-0.6
			c-0.4-0.2-0.9-0.5-1.6-0.7c-1-0.4-1.7-0.8-2.1-1.1s-0.8-0.7-1-1.2c-0.2-0.4-0.3-1-0.3-1.6c0-1.1,0.4-2,1.3-2.6s2.1-0.9,3.7-0.9
			c1.5,0,3,0.3,4.4,1l-1,2.5c-0.6-0.3-1.2-0.5-1.8-0.7c-0.5-0.2-1.1-0.3-1.7-0.3c-1,0-1.5,0.3-1.5,0.8c0,0.3,0.2,0.6,0.5,0.8
			c0.3,0.2,1,0.6,2.1,1c1,0.4,1.7,0.8,2.1,1.1c0.5,0.3,0.8,0.7,1,1.2C-249.8-15.9-249.7-15.4-249.7-14.7z"/>
	</g>
</g>
<linearGradient id="SVGID_5_" gradientUnits="userSpaceOnUse" x1="-380.0051" y1="91.7716" x2="-264.2383" y2="-26.6612">
	<stop  offset="0" style="stop-color:#F0A868"/>
	<stop  offset="1" style="stop-color:#EFCB67"/>
</linearGradient>
<circle class="st4" cx="-345.8" cy="56.8" r="43.9"/>
<g>
	<defs>
		<circle id="SVGID_6_" cx="-345.8" cy="56.7" r="40"/>
	</defs>
	<clipPath id="SVGID_7_">
		<use xlink:href="#SVGID_6_"  style="overflow:visible;"/>
	</clipPath>
	<g style="clip-path:url(#SVGID_7_);">
		
			<image style="overflow:visible;" width="293" height="390" xlink:href="C36D58EFD47A6A1D.jpg"  transform="matrix(0.3015 0 0 0.3015 -391.588 8.7315)">
		</image>
	</g>
</g>
<g>
	<g>
		<path class="st3" d="M-276.5,161.7v-12.5h2.7v10.3h5.1v2.2H-276.5z"/>
		<path class="st3" d="M-266.9,151.1v-0.2c1-1.1,1.7-2,2-2.6h2.9v0.2c-0.3,0.3-0.8,0.7-1.5,1.3c-0.7,0.6-1.3,1-1.7,1.3H-266.9z
			 M-264.1,161.7h-2.6v-9.6h2.6V161.7z"/>
		<path class="st3" d="M-258.3,161.9c-1.1,0-2-0.4-2.7-1.3s-1-2.1-1-3.6c0-1.6,0.3-2.8,1-3.7s1.6-1.3,2.7-1.3c1.2,0,2.1,0.5,2.8,1.4
			h0.1c-0.1-0.7-0.2-1.4-0.2-1.9v-3.1h2.6v13.3h-2l-0.5-1.2h-0.1C-256.2,161.4-257.1,161.9-258.3,161.9z M-257.4,159.8
			c0.7,0,1.2-0.2,1.5-0.6c0.3-0.4,0.5-1,0.5-2V157c0-1-0.2-1.8-0.5-2.2c-0.3-0.4-0.8-0.7-1.5-0.7c-0.6,0-1,0.2-1.4,0.7
			c-0.3,0.5-0.5,1.2-0.5,2.2s0.2,1.7,0.5,2.1C-258.5,159.6-258,159.8-257.4,159.8z"/>
		<path class="st3" d="M-250.4,149.6c0-0.9,0.5-1.3,1.4-1.3s1.4,0.4,1.4,1.3c0,0.4-0.1,0.7-0.4,0.9c-0.2,0.2-0.6,0.3-1.1,0.3
			C-249.9,150.9-250.4,150.5-250.4,149.6z M-247.6,161.7h-2.6v-9.6h2.6V161.7z"/>
		<path class="st3" d="M-238.8,161.7l-0.5-1.3h-0.1c-0.4,0.6-0.9,0.9-1.4,1.2c-0.5,0.2-1.1,0.3-1.8,0.3c-0.9,0-1.6-0.3-2.2-0.8
			c-0.5-0.5-0.8-1.3-0.8-2.2c0-1,0.4-1.8,1.1-2.3c0.7-0.5,1.8-0.8,3.2-0.8l1.7-0.1v-0.4c0-1-0.5-1.5-1.5-1.5c-0.8,0-1.7,0.2-2.7,0.7
			l-0.9-1.8c1.1-0.6,2.3-0.9,3.7-0.9c1.3,0,2.3,0.3,3,0.8s1,1.4,1,2.6v6.4H-238.8z M-239.6,157.3l-1,0c-0.8,0-1.3,0.2-1.7,0.4
			c-0.4,0.3-0.6,0.6-0.6,1.1c0,0.7,0.4,1.1,1.3,1.1c0.6,0,1.1-0.2,1.5-0.5c0.4-0.3,0.5-0.8,0.5-1.4V157.3z"/>
	</g>
</g>
<g>
	<g>
		<path class="st3" d="M-272.3,296.9h-5.2l2.2-10.2h5.2l-0.2,1.1h-3.9l-0.7,3.2h3.6l-0.2,1.1h-3.7l-0.8,3.6h3.9L-272.3,296.9z"/>
		<path class="st3" d="M-265.3,289.2c0.5,0,0.9,0.1,1.2,0.5c0.3,0.3,0.5,0.7,0.5,1.2h0.1c0.8-1.1,1.7-1.7,2.6-1.7
			c0.6,0,1.1,0.2,1.4,0.5c0.3,0.3,0.5,0.8,0.5,1.4c0,0.4-0.1,0.8-0.2,1.3l-1,4.7h-1.3l1-4.8c0.1-0.4,0.1-0.8,0.1-1
			c0-0.3-0.1-0.5-0.2-0.7c-0.2-0.2-0.4-0.3-0.7-0.3c-0.4,0-0.7,0.1-1.1,0.4s-0.7,0.6-0.9,1.1s-0.5,1.1-0.6,1.7l-0.7,3.5h-1.3l1-4.8
			c0.1-0.4,0.1-0.8,0.1-0.9c0-0.7-0.3-1-0.9-1c-0.4,0-0.8,0.1-1.1,0.4c-0.4,0.3-0.7,0.7-1,1.2c-0.3,0.5-0.5,1.1-0.6,1.8l-0.7,3.3
			h-1.3l1.6-7.7h1l-0.2,1.4h0.1c0.3-0.4,0.6-0.7,0.8-0.9c0.2-0.2,0.5-0.3,0.8-0.5S-265.6,289.2-265.3,289.2z"/>
		<path class="st3" d="M-251,297.1c-0.9,0-1.6-0.2-2.1-0.7c-0.5-0.5-0.7-1.2-0.7-2.1c0-0.9,0.2-1.8,0.5-2.6c0.3-0.8,0.8-1.4,1.4-1.8
			s1.3-0.7,2.1-0.7c0.7,0,1.3,0.1,1.9,0.4l-0.4,1c-0.5-0.2-1-0.4-1.5-0.4c-0.5,0-1,0.2-1.4,0.5c-0.4,0.4-0.7,0.8-1,1.5
			c-0.2,0.6-0.3,1.3-0.3,2c0,0.6,0.1,1,0.4,1.3s0.7,0.5,1.2,0.5c0.3,0,0.7,0,1-0.1c0.3-0.1,0.6-0.2,0.9-0.3v1.1
			C-249.6,296.9-250.3,297.1-251,297.1z"/>
		<path class="st3" d="M-245.3,297.1c-0.6,0-1.1-0.2-1.5-0.7s-0.6-1.1-0.6-1.9c0-1,0.2-1.8,0.5-2.7c0.3-0.8,0.8-1.5,1.4-1.9
			c0.6-0.5,1.2-0.7,1.9-0.7c0.4,0,0.8,0.1,1.1,0.3c0.3,0.2,0.6,0.6,0.8,1h0.1l0.5-1.2h1l-1.6,7.7h-1l0.2-1.4h-0.1
			C-243.5,296.6-244.3,297.1-245.3,297.1z M-244.9,296c0.4,0,0.9-0.2,1.3-0.6s0.8-1,1.1-1.6s0.4-1.4,0.4-2.1c0-0.5-0.1-0.8-0.4-1.1
			s-0.6-0.4-1-0.4c-0.5,0-0.9,0.2-1.3,0.6s-0.7,0.9-0.9,1.6c-0.2,0.7-0.3,1.4-0.3,2.1c0,0.5,0.1,0.9,0.3,1.2S-245.2,296-244.9,296z"
			/>
		<path class="st3" d="M-233.6,296.9h-1.3l1-4.8c0.1-0.5,0.1-0.8,0.1-1c0-0.3-0.1-0.5-0.2-0.7c-0.2-0.2-0.4-0.3-0.8-0.3
			c-0.4,0-0.8,0.1-1.2,0.4c-0.4,0.3-0.7,0.7-1,1.2c-0.3,0.5-0.5,1.1-0.7,1.8l-0.7,3.3h-1.3l1.6-7.7h1l-0.2,1.4h0.1
			c0.3-0.4,0.6-0.7,0.8-0.9s0.5-0.4,0.8-0.5c0.3-0.1,0.6-0.2,0.9-0.2c0.6,0,1.1,0.2,1.4,0.5c0.3,0.3,0.5,0.8,0.5,1.4
			c0,0.4-0.1,0.8-0.2,1.3L-233.6,296.9z"/>
		<path class="st3" d="M-226.5,294.7c0,0.7-0.3,1.3-0.8,1.7c-0.5,0.4-1.2,0.6-2.2,0.6c-0.8,0-1.5-0.2-2.1-0.5v-1.2
			c0.3,0.2,0.6,0.3,1,0.4s0.7,0.2,1.1,0.2c0.6,0,1-0.1,1.3-0.3c0.3-0.2,0.4-0.5,0.4-0.9c0-0.3-0.1-0.5-0.2-0.7
			c-0.2-0.2-0.5-0.4-1-0.7c-0.6-0.3-1-0.7-1.3-1s-0.4-0.7-0.4-1.2c0-0.7,0.2-1.2,0.7-1.6c0.5-0.4,1.1-0.6,1.9-0.6
			c0.8,0,1.6,0.2,2.3,0.5l-0.4,1c-0.2-0.1-0.5-0.2-0.8-0.3s-0.7-0.2-1.1-0.2c-0.4,0-0.7,0.1-1,0.3c-0.2,0.2-0.4,0.4-0.4,0.8
			c0,0.3,0.1,0.5,0.3,0.7c0.2,0.2,0.5,0.4,1,0.7c0.5,0.3,0.9,0.6,1.1,0.8c0.2,0.2,0.3,0.4,0.5,0.6S-226.5,294.4-226.5,294.7z"/>
		<path class="st3" d="M-218.1,292.2c0,0.9-0.2,1.7-0.5,2.5s-0.8,1.4-1.4,1.8c-0.6,0.4-1.2,0.6-2,0.6c-0.9,0-1.6-0.3-2.1-0.8
			s-0.8-1.2-0.8-2.1c0-0.9,0.2-1.7,0.5-2.5s0.8-1.4,1.4-1.8s1.2-0.6,1.9-0.6c0.9,0,1.6,0.3,2.1,0.8
			C-218.4,290.5-218.1,291.2-218.1,292.2z M-219.4,292c0-0.5-0.1-1-0.4-1.3c-0.3-0.3-0.7-0.5-1.1-0.5c-0.5,0-0.9,0.2-1.3,0.5
			c-0.4,0.3-0.7,0.8-0.9,1.4c-0.2,0.6-0.3,1.3-0.3,2c0,0.6,0.1,1.1,0.4,1.4s0.7,0.5,1.2,0.5c0.5,0,0.9-0.2,1.3-0.5
			c0.4-0.3,0.7-0.8,0.9-1.4C-219.5,293.5-219.4,292.8-219.4,292z"/>
		<path class="st3" d="M-208.3,289.2c0.5,0,0.9,0.1,1.2,0.5c0.3,0.3,0.5,0.7,0.5,1.2h0.1c0.8-1.1,1.7-1.7,2.6-1.7
			c0.6,0,1.1,0.2,1.4,0.5c0.3,0.3,0.5,0.8,0.5,1.4c0,0.4-0.1,0.8-0.2,1.3l-1,4.7h-1.3l1-4.8c0.1-0.4,0.1-0.8,0.1-1
			c0-0.3-0.1-0.5-0.2-0.7c-0.2-0.2-0.4-0.3-0.7-0.3c-0.4,0-0.7,0.1-1.1,0.4s-0.7,0.6-0.9,1.1s-0.5,1.1-0.6,1.7l-0.7,3.5h-1.3l1-4.8
			c0.1-0.4,0.1-0.8,0.1-0.9c0-0.7-0.3-1-0.9-1c-0.4,0-0.8,0.1-1.1,0.4c-0.4,0.3-0.7,0.7-1,1.2c-0.3,0.5-0.5,1.1-0.6,1.8l-0.7,3.3
			h-1.3l1.6-7.7h1l-0.2,1.4h0.1c0.3-0.4,0.6-0.7,0.8-0.9c0.2-0.2,0.5-0.3,0.8-0.5S-208.6,289.2-208.3,289.2z"/>
		<path class="st3" d="M-193.9,292.2c0,0.9-0.2,1.7-0.5,2.5s-0.8,1.4-1.4,1.8c-0.6,0.4-1.2,0.6-2,0.6c-0.9,0-1.6-0.3-2.1-0.8
			s-0.8-1.2-0.8-2.1c0-0.9,0.2-1.7,0.5-2.5s0.8-1.4,1.4-1.8s1.2-0.6,1.9-0.6c0.9,0,1.6,0.3,2.1,0.8
			C-194.2,290.5-193.9,291.2-193.9,292.2z M-195.2,292c0-0.5-0.1-1-0.4-1.3c-0.3-0.3-0.7-0.5-1.1-0.5c-0.5,0-0.9,0.2-1.3,0.5
			c-0.4,0.3-0.7,0.8-0.9,1.4c-0.2,0.6-0.3,1.3-0.3,2c0,0.6,0.1,1.1,0.4,1.4s0.7,0.5,1.2,0.5c0.5,0,0.9-0.2,1.3-0.5
			c0.4-0.3,0.7-0.8,0.9-1.4C-195.3,293.5-195.2,292.8-195.2,292z"/>
		<path class="st3" d="M-191.6,296.9h-1.3l2.3-10.8h1.3L-191.6,296.9z"/>
		<path class="st3" d="M-186.7,296.1c0.3,0,0.6-0.1,1-0.2v1c-0.1,0.1-0.3,0.1-0.6,0.2c-0.2,0.1-0.5,0.1-0.6,0.1
			c-0.6,0-1-0.1-1.4-0.4c-0.3-0.3-0.5-0.7-0.5-1.2c0-0.3,0-0.6,0.1-1l0.9-4.2h-1.2l0.1-0.6l1.3-0.5l0.9-1.6h0.7l-0.4,1.7h1.9l-0.2,1
			h-1.9l-0.9,4.2c-0.1,0.4-0.1,0.7-0.1,0.8c0,0.2,0.1,0.4,0.2,0.6S-187,296.1-186.7,296.1z"/>
		<path class="st3" d="M-175.6,289.2c0.7,0,1.2,0.2,1.5,0.7c0.4,0.5,0.5,1.1,0.5,1.9c0,1-0.2,1.9-0.5,2.7c-0.3,0.8-0.8,1.5-1.3,1.9
			c-0.6,0.5-1.2,0.7-1.9,0.7c-0.9,0-1.5-0.4-2-1.3h-0.1c-0.1,0.6-0.1,1.1-0.2,1.3l-0.7,3.3h-1.2l2.3-11.1h1l-0.2,1.4h0.1
			c0.4-0.5,0.9-0.9,1.3-1.2S-176,289.2-175.6,289.2z M-176,290.2c-0.4,0-0.9,0.2-1.3,0.6c-0.4,0.4-0.8,1-1.1,1.6
			c-0.3,0.7-0.4,1.3-0.4,2c0,0.5,0.1,0.9,0.4,1.1c0.2,0.3,0.6,0.4,1.1,0.4c0.5,0,0.9-0.2,1.3-0.6c0.4-0.4,0.7-0.9,0.9-1.6
			s0.3-1.4,0.3-2.1C-174.8,290.7-175.2,290.2-176,290.2z"/>
		<path class="st3" d="M-169.4,297.1c-0.9,0-1.5-0.3-2-0.8c-0.5-0.5-0.7-1.2-0.7-2.1c0-0.9,0.2-1.7,0.5-2.5c0.3-0.8,0.8-1.4,1.4-1.9
			c0.6-0.5,1.2-0.7,1.9-0.7c0.7,0,1.3,0.2,1.6,0.5s0.6,0.8,0.6,1.3c0,0.8-0.4,1.5-1.2,2s-1.9,0.7-3.3,0.7h-0.2l0,0.5
			c0,0.6,0.1,1,0.4,1.4c0.3,0.3,0.7,0.5,1.3,0.5c0.4,0,0.7-0.1,1-0.2c0.3-0.1,0.7-0.2,1.1-0.4v1.1c-0.5,0.2-0.9,0.4-1.2,0.4
			S-169,297.1-169.4,297.1z M-168.4,290.2c-0.5,0-0.9,0.2-1.4,0.7s-0.7,1-0.9,1.8h0.1c1,0,1.8-0.1,2.4-0.4s0.8-0.7,0.8-1.2
			c0-0.2-0.1-0.4-0.2-0.6C-167.8,290.3-168.1,290.2-168.4,290.2z"/>
		<path class="st3" d="M-160.4,289.2c0.3,0,0.6,0,0.8,0.1l-0.3,1.1c-0.3-0.1-0.5-0.1-0.7-0.1c-0.4,0-0.8,0.1-1.2,0.4
			c-0.4,0.3-0.7,0.7-1,1.1c-0.3,0.5-0.5,1-0.6,1.6l-0.7,3.5h-1.3l1.6-7.7h1l-0.2,1.4h0.1c0.3-0.4,0.6-0.8,0.8-1
			c0.2-0.2,0.4-0.3,0.7-0.4C-161,289.2-160.7,289.2-160.4,289.2z"/>
		<path class="st3" d="M-152.3,292.2c0,0.9-0.2,1.7-0.5,2.5c-0.3,0.8-0.8,1.4-1.4,1.8c-0.6,0.4-1.2,0.6-2,0.6
			c-0.9,0-1.6-0.3-2.1-0.8c-0.5-0.5-0.8-1.2-0.8-2.1c0-0.9,0.2-1.7,0.5-2.5s0.8-1.4,1.4-1.8c0.6-0.4,1.2-0.6,1.9-0.6
			c0.9,0,1.6,0.3,2.1,0.8S-152.3,291.2-152.3,292.2z M-153.6,292c0-0.5-0.1-1-0.4-1.3c-0.3-0.3-0.7-0.5-1.1-0.5
			c-0.5,0-0.9,0.2-1.3,0.5c-0.4,0.3-0.7,0.8-0.9,1.4c-0.2,0.6-0.3,1.3-0.3,2c0,0.6,0.1,1.1,0.4,1.4s0.7,0.5,1.2,0.5
			c0.5,0,0.9-0.2,1.3-0.5c0.4-0.3,0.7-0.8,0.9-1.4C-153.7,293.5-153.6,292.8-153.6,292z M-154.1,288.3h-0.8
			c-0.3-0.3-0.6-0.7-0.9-1.1c-0.3-0.4-0.5-0.8-0.6-1V286h1.3c0.2,0.6,0.5,1.3,1,2.1V288.3z"/>
		<path class="st3" d="M-141.6,296.9h-1.3l1-4.8c0.1-0.5,0.1-0.8,0.1-1c0-0.3-0.1-0.5-0.2-0.7c-0.2-0.2-0.4-0.3-0.8-0.3
			c-0.4,0-0.8,0.1-1.2,0.4c-0.4,0.3-0.7,0.7-1,1.2c-0.3,0.5-0.5,1.1-0.7,1.8l-0.7,3.3h-1.3l1.6-7.7h1l-0.2,1.4h0.1
			c0.3-0.4,0.6-0.7,0.8-0.9c0.2-0.2,0.5-0.4,0.8-0.5c0.3-0.1,0.6-0.2,0.9-0.2c0.6,0,1.1,0.2,1.4,0.5c0.3,0.3,0.5,0.8,0.5,1.4
			c0,0.4-0.1,0.8-0.2,1.3L-141.6,296.9z"/>
		<path class="st3" d="M-132.3,292.2c0,0.9-0.2,1.7-0.5,2.5c-0.3,0.8-0.8,1.4-1.4,1.8c-0.6,0.4-1.2,0.6-2,0.6
			c-0.9,0-1.6-0.3-2.1-0.8c-0.5-0.5-0.8-1.2-0.8-2.1c0-0.9,0.2-1.7,0.5-2.5s0.8-1.4,1.4-1.8c0.6-0.4,1.2-0.6,1.9-0.6
			c0.9,0,1.6,0.3,2.1,0.8S-132.3,291.2-132.3,292.2z M-133.6,292c0-0.5-0.1-1-0.4-1.3c-0.3-0.3-0.7-0.5-1.1-0.5
			c-0.5,0-0.9,0.2-1.3,0.5c-0.4,0.3-0.7,0.8-0.9,1.4c-0.2,0.6-0.3,1.3-0.3,2c0,0.6,0.1,1.1,0.4,1.4s0.7,0.5,1.2,0.5
			c0.5,0,0.9-0.2,1.3-0.5c0.4-0.3,0.7-0.8,0.9-1.4C-133.7,293.5-133.6,292.8-133.6,292z"/>
		<path class="st3" d="M-125.2,297.1c-0.6,0-1.1-0.2-1.5-0.7c-0.4-0.5-0.6-1.1-0.6-1.9c0-1,0.2-1.9,0.5-2.7c0.3-0.8,0.8-1.5,1.3-1.9
			c0.6-0.5,1.2-0.7,1.9-0.7c0.9,0,1.5,0.4,1.9,1.3h0.1c0.1-0.8,0.2-1.4,0.3-1.9l0.5-2.5h1.2l-2.3,10.8h-1l0.2-1.4h-0.1
			c-0.4,0.6-0.9,1-1.3,1.2C-124.3,297-124.7,297.1-125.2,297.1z M-124.8,296c0.4,0,0.9-0.2,1.3-0.7c0.4-0.4,0.8-1,1.1-1.6
			c0.3-0.7,0.4-1.3,0.4-2c0-0.5-0.1-0.9-0.4-1.1c-0.2-0.3-0.6-0.4-1.1-0.4c-0.5,0-0.9,0.2-1.3,0.6c-0.4,0.4-0.7,0.9-0.9,1.6
			c-0.2,0.7-0.3,1.4-0.3,2.1C-126,295.5-125.6,296-124.8,296z"/>
		<path class="st3" d="M-116.2,297.1c-0.9,0-1.5-0.3-2-0.8c-0.5-0.5-0.7-1.2-0.7-2.1c0-0.9,0.2-1.7,0.5-2.5c0.3-0.8,0.8-1.4,1.4-1.9
			c0.6-0.5,1.2-0.7,1.9-0.7c0.7,0,1.3,0.2,1.6,0.5s0.6,0.8,0.6,1.3c0,0.8-0.4,1.5-1.2,2s-1.9,0.7-3.3,0.7h-0.2l0,0.5
			c0,0.6,0.1,1,0.4,1.4c0.3,0.3,0.7,0.5,1.3,0.5c0.4,0,0.7-0.1,1-0.2c0.3-0.1,0.7-0.2,1.1-0.4v1.1c-0.5,0.2-0.9,0.4-1.2,0.4
			S-115.8,297.1-116.2,297.1z M-115.2,290.2c-0.5,0-0.9,0.2-1.4,0.7s-0.7,1-0.9,1.8h0.1c1,0,1.8-0.1,2.4-0.4s0.8-0.7,0.8-1.2
			c0-0.2-0.1-0.4-0.2-0.6C-114.6,290.3-114.9,290.2-115.2,290.2z"/>
		<path class="st3" d="M-110.9,296.9h-1.3l1.6-7.7h1.3L-110.9,296.9z M-110.2,287.4c0-0.3,0.1-0.5,0.2-0.7s0.4-0.3,0.6-0.3
			c0.4,0,0.7,0.2,0.7,0.6c0,0.3-0.1,0.5-0.2,0.7c-0.2,0.2-0.4,0.3-0.6,0.3c-0.2,0-0.4-0.1-0.5-0.2
			C-110.1,287.7-110.2,287.6-110.2,287.4z"/>
		<path class="st3" d="M-106.1,293l-1.7-3.7h1.3l1.2,2.8l2.2-2.8h1.4l-3.2,3.8l1.8,3.9h-1.3l-1.3-3l-2.4,3h-1.5L-106.1,293z"/>
		<path class="st3" d="M-99.2,297.1c-0.6,0-1.1-0.2-1.5-0.7c-0.4-0.5-0.6-1.1-0.6-1.9c0-1,0.2-1.8,0.5-2.7c0.3-0.8,0.8-1.5,1.4-1.9
			s1.2-0.7,1.9-0.7c0.4,0,0.8,0.1,1.1,0.3c0.3,0.2,0.6,0.6,0.8,1h0.1l0.5-1.2h1l-1.6,7.7h-1l0.2-1.4h-0.1
			C-97.4,296.6-98.3,297.1-99.2,297.1z M-98.8,296c0.4,0,0.9-0.2,1.3-0.6c0.4-0.4,0.8-1,1.1-1.6s0.4-1.4,0.4-2.1
			c0-0.5-0.1-0.8-0.4-1.1c-0.2-0.3-0.6-0.4-1-0.4c-0.5,0-0.9,0.2-1.3,0.6c-0.4,0.4-0.7,0.9-0.9,1.6c-0.2,0.7-0.3,1.4-0.3,2.1
			c0,0.5,0.1,0.9,0.3,1.2C-99.5,295.9-99.2,296-98.8,296z"/>
		<path class="st3" d="M-88.6,289.2c0.3,0,0.6,0,0.8,0.1l-0.3,1.1c-0.3-0.1-0.5-0.1-0.7-0.1c-0.4,0-0.8,0.1-1.2,0.4
			c-0.4,0.3-0.7,0.7-1,1.1c-0.3,0.5-0.5,1-0.6,1.6l-0.7,3.5h-1.3l1.6-7.7h1l-0.2,1.4h0.1c0.3-0.4,0.6-0.8,0.8-1
			c0.2-0.2,0.4-0.3,0.7-0.4C-89.1,289.2-88.9,289.2-88.6,289.2z"/>
		<path class="st3" d="M-84.4,297.1c-0.9,0-1.5-0.3-2-0.8c-0.5-0.5-0.7-1.2-0.7-2.1c0-0.9,0.2-1.7,0.5-2.5c0.3-0.8,0.8-1.4,1.4-1.9
			c0.6-0.5,1.2-0.7,1.9-0.7c0.7,0,1.3,0.2,1.6,0.5s0.6,0.8,0.6,1.3c0,0.8-0.4,1.5-1.2,2s-1.9,0.7-3.3,0.7h-0.2l0,0.5
			c0,0.6,0.1,1,0.4,1.4c0.3,0.3,0.7,0.5,1.3,0.5c0.4,0,0.7-0.1,1-0.2c0.3-0.1,0.7-0.2,1.1-0.4v1.1c-0.5,0.2-0.9,0.4-1.2,0.4
			S-84,297.1-84.4,297.1z M-83.4,290.2c-0.5,0-0.9,0.2-1.4,0.7s-0.7,1-0.9,1.8h0.1c1,0,1.8-0.1,2.4-0.4s0.8-0.7,0.8-1.2
			c0-0.2-0.1-0.4-0.2-0.6C-82.8,290.3-83.1,290.2-83.4,290.2z M-83.8,288.1c0.2-0.3,0.5-0.6,0.8-1s0.6-0.8,0.8-1.1h1.4v0.1
			c-0.2,0.3-0.6,0.6-1,1.1c-0.5,0.5-0.9,0.8-1.2,1.1h-0.8V288.1z"/>
		<path class="st3" d="M-275.3,314.2c-0.6,0-1.1-0.2-1.5-0.7c-0.4-0.5-0.6-1.1-0.6-1.9c0-1,0.2-1.9,0.5-2.7c0.3-0.8,0.8-1.5,1.3-1.9
			c0.6-0.5,1.2-0.7,1.9-0.7c0.9,0,1.5,0.4,1.9,1.3h0.1c0.1-0.8,0.2-1.4,0.3-1.9l0.5-2.5h1.2l-2.3,10.8h-1l0.2-1.4h-0.1
			c-0.4,0.6-0.9,1-1.3,1.2C-274.4,314.1-274.8,314.2-275.3,314.2z M-274.8,313.2c0.4,0,0.9-0.2,1.3-0.7c0.4-0.4,0.8-1,1.1-1.6
			c0.3-0.7,0.4-1.3,0.4-2c0-0.5-0.1-0.9-0.4-1.2c-0.2-0.3-0.6-0.4-1.1-0.4c-0.5,0-0.9,0.2-1.3,0.6c-0.4,0.4-0.7,0.9-0.9,1.6
			s-0.3,1.4-0.3,2.1C-276.1,312.7-275.7,313.2-274.8,313.2z"/>
		<path class="st3" d="M-266.1,303.9l0.1,0.2c-0.2,0.4-0.4,0.9-0.8,1.5c-0.3,0.6-0.7,1.2-1.1,1.8h-1c0.6-1.4,1.1-2.5,1.4-3.5H-266.1
			z"/>
		<path class="st3" d="M-264.5,314.2c-0.6,0-1.1-0.2-1.5-0.7c-0.4-0.5-0.6-1.1-0.6-1.9c0-1,0.2-1.8,0.5-2.7c0.3-0.8,0.8-1.5,1.4-1.9
			c0.6-0.5,1.2-0.7,1.9-0.7c0.4,0,0.8,0.1,1.1,0.3c0.3,0.2,0.6,0.6,0.8,1h0.1l0.5-1.2h1l-1.6,7.7h-1l0.2-1.4h-0.1
			C-262.7,313.7-263.6,314.2-264.5,314.2z M-264.1,313.2c0.4,0,0.9-0.2,1.3-0.6s0.8-1,1.1-1.6c0.3-0.7,0.4-1.4,0.4-2.1
			c0-0.5-0.1-0.8-0.4-1.1c-0.3-0.3-0.6-0.4-1-0.4c-0.5,0-0.9,0.2-1.3,0.6s-0.7,0.9-0.9,1.6s-0.3,1.4-0.3,2.1c0,0.5,0.1,0.9,0.3,1.2
			S-264.5,313.2-264.1,313.2z"/>
		<path class="st3" d="M-252.9,314.1h-1.3l1-4.8c0.1-0.5,0.1-0.8,0.1-1c0-0.3-0.1-0.5-0.2-0.7c-0.2-0.2-0.4-0.3-0.8-0.3
			c-0.4,0-0.8,0.1-1.2,0.4c-0.4,0.3-0.7,0.7-1,1.2c-0.3,0.5-0.5,1.1-0.7,1.8l-0.7,3.3h-1.3l1.6-7.7h1l-0.2,1.4h0.1
			c0.3-0.4,0.6-0.7,0.8-0.9s0.5-0.4,0.8-0.5c0.3-0.1,0.6-0.2,0.9-0.2c0.6,0,1.1,0.2,1.4,0.5s0.5,0.8,0.5,1.4c0,0.4-0.1,0.8-0.2,1.3
			L-252.9,314.1z"/>
		<path class="st3" d="M-248.2,314.2c-0.6,0-1.1-0.2-1.5-0.7c-0.4-0.5-0.6-1.1-0.6-1.9c0-1,0.2-1.8,0.5-2.7c0.3-0.8,0.8-1.5,1.4-1.9
			c0.6-0.5,1.2-0.7,1.9-0.7c0.4,0,0.8,0.1,1.1,0.3c0.3,0.2,0.6,0.6,0.8,1h0.1l0.5-1.2h1l-1.6,7.7h-1l0.2-1.4h-0.1
			C-246.4,313.7-247.2,314.2-248.2,314.2z M-247.7,313.2c0.4,0,0.9-0.2,1.3-0.6s0.8-1,1.1-1.6c0.3-0.7,0.4-1.4,0.4-2.1
			c0-0.5-0.1-0.8-0.4-1.1c-0.3-0.3-0.6-0.4-1-0.4c-0.5,0-0.9,0.2-1.3,0.6s-0.7,0.9-0.9,1.6s-0.3,1.4-0.3,2.1c0,0.5,0.1,0.9,0.3,1.2
			S-248.1,313.2-247.7,313.2z"/>
		<path class="st3" d="M-237.5,306.3c0.3,0,0.6,0,0.8,0.1l-0.3,1.1c-0.3-0.1-0.5-0.1-0.7-0.1c-0.4,0-0.8,0.1-1.2,0.4
			c-0.4,0.3-0.7,0.7-1,1.1c-0.3,0.5-0.5,1-0.6,1.6l-0.7,3.5h-1.3l1.6-7.7h1l-0.2,1.4h0.1c0.3-0.4,0.6-0.8,0.8-1s0.4-0.3,0.7-0.4
			C-238.1,306.3-237.8,306.3-237.5,306.3z"/>
		<path class="st3" d="M-235,312.4l0.1,0.2c-0.5,1-1.1,2.1-1.9,3.3h-1c0.4-1,0.9-2.1,1.4-3.5H-235z"/>
		<path class="st3" d="M-224.4,306.3c0.5,0,0.9,0.2,1.2,0.4c0.3,0.3,0.5,0.7,0.5,1.3h0.1c0.8-1.1,1.7-1.7,2.6-1.7
			c0.6,0,1.1,0.2,1.4,0.5c0.3,0.3,0.5,0.8,0.5,1.4c0,0.4-0.1,0.8-0.2,1.3l-1,4.7h-1.3l1-4.8c0.1-0.4,0.1-0.8,0.1-1
			c0-0.3-0.1-0.5-0.2-0.7c-0.2-0.2-0.4-0.3-0.7-0.3c-0.4,0-0.7,0.1-1.1,0.4s-0.7,0.6-0.9,1.1c-0.3,0.5-0.5,1.1-0.6,1.7l-0.7,3.5
			h-1.3l1-4.8c0.1-0.4,0.1-0.8,0.1-0.9c0-0.7-0.3-1-0.9-1c-0.4,0-0.8,0.1-1.1,0.4c-0.4,0.3-0.7,0.7-1,1.2c-0.3,0.5-0.5,1.1-0.6,1.8
			l-0.7,3.3h-1.3l1.6-7.7h1l-0.2,1.4h0.1c0.3-0.4,0.6-0.7,0.8-0.9c0.2-0.2,0.5-0.3,0.8-0.5C-225,306.3-224.7,306.3-224.4,306.3z"/>
		<path class="st3" d="M-213.7,303.9l0.1,0.2c-0.2,0.4-0.4,0.9-0.8,1.5c-0.3,0.6-0.7,1.2-1.1,1.8h-1c0.6-1.4,1.1-2.5,1.4-3.5H-213.7
			z"/>
		<path class="st3" d="M-212.1,314.2c-0.6,0-1.1-0.2-1.5-0.7c-0.4-0.5-0.6-1.1-0.6-1.9c0-1,0.2-1.8,0.5-2.7c0.3-0.8,0.8-1.5,1.4-1.9
			c0.6-0.5,1.2-0.7,1.9-0.7c0.4,0,0.8,0.1,1.1,0.3c0.3,0.2,0.6,0.6,0.8,1h0.1l0.5-1.2h1l-1.6,7.7h-1l0.2-1.4h-0.1
			C-210.3,313.7-211.2,314.2-212.1,314.2z M-211.7,313.2c0.4,0,0.9-0.2,1.3-0.6s0.8-1,1.1-1.6c0.3-0.7,0.4-1.4,0.4-2.1
			c0-0.5-0.1-0.8-0.4-1.1c-0.3-0.3-0.6-0.4-1-0.4c-0.5,0-0.9,0.2-1.3,0.6s-0.7,0.9-0.9,1.6s-0.3,1.4-0.3,2.1c0,0.5,0.1,0.9,0.3,1.2
			S-212.1,313.2-211.7,313.2z"/>
		<path class="st3" d="M-207.7,317.5c-0.3,0-0.6,0-0.9-0.1v-1.1c0.3,0.1,0.5,0.2,0.8,0.2c0.6,0,1-0.5,1.2-1.4l1.8-8.6h1.2l-1.9,8.8
			c-0.2,0.8-0.4,1.4-0.8,1.8C-206.6,317.3-207.1,317.5-207.7,317.5z M-204.4,304.5c0-0.3,0.1-0.5,0.2-0.7s0.4-0.3,0.6-0.3
			c0.4,0,0.6,0.2,0.6,0.6c0,0.3-0.1,0.5-0.2,0.7c-0.2,0.2-0.4,0.3-0.6,0.3c-0.2,0-0.4-0.1-0.5-0.2
			C-204.4,304.9-204.4,304.7-204.4,304.5z"/>
		<path class="st3" d="M-201.1,306.4h1.3l-1,4.8c-0.1,0.4-0.1,0.7-0.1,1c0,0.7,0.3,1,1,1c0.4,0,0.8-0.1,1.2-0.4
			c0.4-0.3,0.7-0.7,1-1.2s0.5-1.1,0.7-1.9l0.7-3.3h1.2l-1.6,7.7h-1l0.2-1.4h-0.1c-0.4,0.5-0.8,0.9-1.3,1.2c-0.4,0.2-0.9,0.4-1.3,0.4
			c-0.6,0-1.1-0.2-1.4-0.5c-0.3-0.3-0.5-0.8-0.5-1.4c0-0.3,0.1-0.7,0.2-1.2L-201.1,306.4z"/>
		<path class="st3" d="M-192.1,314.2c-0.6,0-1.1-0.2-1.5-0.7c-0.4-0.5-0.6-1.1-0.6-1.9c0-1,0.2-1.9,0.5-2.7c0.3-0.8,0.8-1.5,1.3-1.9
			c0.6-0.5,1.2-0.7,1.9-0.7c0.9,0,1.5,0.4,1.9,1.3h0.1c0.1-0.8,0.2-1.4,0.3-1.9l0.5-2.5h1.2l-2.3,10.8h-1l0.2-1.4h-0.1
			c-0.4,0.6-0.9,1-1.3,1.2C-191.2,314.1-191.6,314.2-192.1,314.2z M-191.6,313.2c0.4,0,0.9-0.2,1.3-0.7c0.4-0.4,0.8-1,1.1-1.6
			c0.3-0.7,0.4-1.3,0.4-2c0-0.5-0.1-0.9-0.4-1.2c-0.2-0.3-0.6-0.4-1.1-0.4c-0.5,0-0.9,0.2-1.3,0.6c-0.4,0.4-0.7,0.9-0.9,1.6
			c-0.2,0.7-0.3,1.4-0.3,2.1C-192.9,312.7-192.4,313.2-191.6,313.2z"/>
		<path class="st3" d="M-183.8,314.2c-0.6,0-1.1-0.2-1.5-0.7c-0.4-0.5-0.6-1.1-0.6-1.9c0-1,0.2-1.8,0.5-2.7c0.3-0.8,0.8-1.5,1.4-1.9
			c0.6-0.5,1.2-0.7,1.9-0.7c0.4,0,0.8,0.1,1.1,0.3c0.3,0.2,0.6,0.6,0.8,1h0.1l0.5-1.2h1l-1.6,7.7h-1l0.2-1.4h-0.1
			C-182,313.7-182.9,314.2-183.8,314.2z M-183.4,313.2c0.4,0,0.9-0.2,1.3-0.6c0.4-0.4,0.8-1,1.1-1.6c0.3-0.7,0.4-1.4,0.4-2.1
			c0-0.5-0.1-0.8-0.4-1.1c-0.2-0.3-0.6-0.4-1-0.4c-0.5,0-0.9,0.2-1.3,0.6c-0.4,0.4-0.7,0.9-0.9,1.6s-0.3,1.4-0.3,2.1
			c0,0.5,0.1,0.9,0.3,1.2C-184.1,313-183.8,313.2-183.4,313.2z"/>
		<path class="st3" d="M-172,314.2c-0.6,0-1.1-0.2-1.5-0.7c-0.4-0.5-0.6-1.1-0.6-1.9c0-1,0.2-1.8,0.5-2.7c0.3-0.8,0.8-1.5,1.4-1.9
			c0.6-0.5,1.2-0.7,1.9-0.7c0.4,0,0.8,0.1,1.1,0.3c0.3,0.2,0.6,0.6,0.8,1h0.1l0.5-1.2h1l-1.6,7.7h-1l0.2-1.4h-0.1
			C-170.2,313.7-171.1,314.2-172,314.2z M-171.6,313.2c0.4,0,0.9-0.2,1.3-0.6c0.4-0.4,0.8-1,1.1-1.6c0.3-0.7,0.4-1.4,0.4-2.1
			c0-0.5-0.1-0.8-0.4-1.1c-0.2-0.3-0.6-0.4-1-0.4c-0.5,0-0.9,0.2-1.3,0.6c-0.4,0.4-0.7,0.9-0.9,1.6s-0.3,1.4-0.3,2.1
			c0,0.5,0.1,0.9,0.3,1.2C-172.3,313-172,313.2-171.6,313.2z"/>
		<path class="st3" d="M-159.4,314.2c-0.9,0-1.6-0.2-2.1-0.7s-0.7-1.2-0.7-2.1c0-0.9,0.2-1.8,0.5-2.6c0.3-0.8,0.8-1.4,1.4-1.8
			c0.6-0.4,1.3-0.7,2.1-0.7c0.7,0,1.3,0.1,1.9,0.4l-0.4,1c-0.5-0.2-1-0.4-1.5-0.4c-0.5,0-1,0.2-1.4,0.5c-0.4,0.4-0.7,0.8-1,1.5
			s-0.3,1.3-0.3,2c0,0.6,0.1,1,0.4,1.3c0.3,0.3,0.7,0.5,1.2,0.5c0.3,0,0.7,0,1-0.1c0.3-0.1,0.6-0.2,0.9-0.3v1.1
			C-158,314.1-158.7,314.2-159.4,314.2z"/>
		<path class="st3" d="M-154.5,306.4h1.3l-1,4.8c-0.1,0.4-0.1,0.7-0.1,1c0,0.7,0.3,1,1,1c0.4,0,0.8-0.1,1.2-0.4
			c0.4-0.3,0.7-0.7,1-1.2c0.3-0.5,0.5-1.1,0.7-1.9l0.7-3.3h1.2l-1.6,7.7h-1l0.2-1.4h-0.1c-0.4,0.5-0.8,0.9-1.3,1.2s-0.9,0.4-1.3,0.4
			c-0.6,0-1.1-0.2-1.4-0.5c-0.3-0.3-0.5-0.8-0.5-1.4c0-0.3,0.1-0.7,0.2-1.2L-154.5,306.4z"/>
		<path class="st3" d="M-142.8,306.3c0.5,0,0.9,0.2,1.2,0.4c0.3,0.3,0.5,0.7,0.5,1.3h0.1c0.8-1.1,1.7-1.7,2.6-1.7
			c0.6,0,1.1,0.2,1.4,0.5c0.3,0.3,0.5,0.8,0.5,1.4c0,0.4-0.1,0.8-0.2,1.3l-1,4.7h-1.3l1-4.8c0.1-0.4,0.1-0.8,0.1-1
			c0-0.3-0.1-0.5-0.2-0.7c-0.2-0.2-0.4-0.3-0.7-0.3c-0.4,0-0.7,0.1-1.1,0.4c-0.4,0.3-0.7,0.6-0.9,1.1c-0.3,0.5-0.5,1.1-0.6,1.7
			l-0.7,3.5h-1.3l1-4.8c0.1-0.4,0.1-0.8,0.1-0.9c0-0.7-0.3-1-0.9-1c-0.4,0-0.8,0.1-1.1,0.4c-0.4,0.3-0.7,0.7-1,1.2
			c-0.3,0.5-0.5,1.1-0.6,1.8l-0.7,3.3h-1.3l1.6-7.7h1l-0.2,1.4h0.1c0.3-0.4,0.6-0.7,0.8-0.9c0.2-0.2,0.5-0.3,0.8-0.5
			C-143.4,306.3-143.1,306.3-142.8,306.3z"/>
		<path class="st3" d="M-130.2,306.3c0.7,0,1.2,0.2,1.5,0.7c0.4,0.5,0.5,1.1,0.5,1.9c0,1-0.2,1.9-0.5,2.7c-0.3,0.8-0.8,1.5-1.3,1.9
			c-0.6,0.5-1.2,0.7-1.9,0.7c-0.9,0-1.5-0.4-2-1.3h-0.1c-0.1,0.6-0.1,1.1-0.2,1.3l-0.7,3.3h-1.2l2.3-11.1h1l-0.2,1.4h0.1
			c0.4-0.5,0.9-0.9,1.3-1.2C-131.1,306.4-130.7,306.3-130.2,306.3z M-130.7,307.3c-0.4,0-0.9,0.2-1.3,0.6c-0.4,0.4-0.8,1-1.1,1.6
			c-0.3,0.7-0.4,1.3-0.4,2c0,0.5,0.1,0.9,0.4,1.1c0.2,0.3,0.6,0.4,1.1,0.4c0.5,0,0.9-0.2,1.3-0.6c0.4-0.4,0.7-0.9,0.9-1.6
			s0.3-1.4,0.3-2.1C-129.4,307.8-129.8,307.3-130.7,307.3z"/>
		<path class="st3" d="M-125.8,314.1h-1.3l2.3-10.8h1.3L-125.8,314.1z"/>
		<path class="st3" d="M-122.1,314.1h-1.3l1.6-7.7h1.3L-122.1,314.1z M-121.4,304.5c0-0.3,0.1-0.5,0.2-0.7s0.4-0.3,0.6-0.3
			c0.4,0,0.7,0.2,0.7,0.6c0,0.3-0.1,0.5-0.2,0.7c-0.2,0.2-0.4,0.3-0.6,0.3c-0.2,0-0.4-0.1-0.5-0.2
			C-121.4,304.9-121.4,304.7-121.4,304.5z"/>
		<path class="st3" d="M-114.8,306.3c0.3,0,0.6,0,0.8,0.1l-0.3,1.1c-0.3-0.1-0.5-0.1-0.7-0.1c-0.4,0-0.8,0.1-1.2,0.4s-0.7,0.7-1,1.1
			c-0.3,0.5-0.5,1-0.6,1.6l-0.7,3.5h-1.3l1.6-7.7h1l-0.2,1.4h0.1c0.3-0.4,0.6-0.8,0.8-1c0.2-0.2,0.4-0.3,0.7-0.4
			C-115.4,306.3-115.1,306.3-114.8,306.3z"/>
		<path class="st3" d="M-103.3,309.3c0,0.9-0.2,1.7-0.5,2.5c-0.3,0.8-0.8,1.4-1.4,1.8c-0.6,0.4-1.2,0.6-2,0.6
			c-0.9,0-1.6-0.3-2.1-0.8c-0.5-0.5-0.8-1.2-0.8-2.1c0-0.9,0.2-1.7,0.5-2.5c0.3-0.8,0.8-1.4,1.4-1.8c0.6-0.4,1.2-0.6,1.9-0.6
			c0.9,0,1.6,0.3,2.1,0.8S-103.3,308.4-103.3,309.3z M-104.6,309.1c0-0.5-0.1-1-0.4-1.3c-0.3-0.3-0.7-0.5-1.1-0.5
			c-0.5,0-0.9,0.2-1.3,0.5c-0.4,0.3-0.7,0.8-0.9,1.4c-0.2,0.6-0.3,1.3-0.3,2c0,0.6,0.1,1.1,0.4,1.4c0.3,0.3,0.7,0.5,1.2,0.5
			c0.5,0,0.9-0.2,1.3-0.5c0.4-0.3,0.7-0.8,0.9-1.4C-104.7,310.6-104.6,309.9-104.6,309.1z"/>
		<path class="st3" d="M-98.8,314.2c-0.4,0-0.8-0.1-1.2-0.3s-0.6-0.6-0.8-1h-0.1l-0.5,1.2h-0.9l2.3-10.8h1.3l-0.5,2.6
			c-0.1,0.4-0.2,0.8-0.3,1.3c-0.1,0.4-0.2,0.7-0.2,0.8h0.1c0.5-0.6,0.9-1,1.3-1.2c0.4-0.2,0.8-0.3,1.2-0.3c0.7,0,1.2,0.2,1.5,0.7
			s0.6,1.1,0.6,1.9c0,1-0.2,1.9-0.5,2.7c-0.3,0.8-0.8,1.5-1.3,1.9C-97.5,314-98.1,314.2-98.8,314.2z M-97.6,307.3
			c-0.4,0-0.9,0.2-1.3,0.7s-0.8,1-1.1,1.7c-0.3,0.7-0.4,1.3-0.4,2c0,0.5,0.1,0.9,0.4,1.1c0.2,0.3,0.6,0.4,1.1,0.4
			c0.5,0,0.9-0.2,1.3-0.6c0.4-0.4,0.7-0.9,0.9-1.6s0.3-1.4,0.3-2.1C-96.4,307.8-96.8,307.3-97.6,307.3z"/>
		<path class="st3" d="M-95.3,317.5c-0.3,0-0.6,0-0.9-0.1v-1.1c0.3,0.1,0.5,0.2,0.8,0.2c0.6,0,1-0.5,1.2-1.4l1.8-8.6h1.2l-1.9,8.8
			c-0.2,0.8-0.4,1.4-0.8,1.8S-94.7,317.5-95.3,317.5z M-92.1,304.5c0-0.3,0.1-0.5,0.2-0.7s0.4-0.3,0.6-0.3c0.4,0,0.6,0.2,0.6,0.6
			c0,0.3-0.1,0.5-0.2,0.7c-0.2,0.2-0.4,0.3-0.6,0.3c-0.2,0-0.4-0.1-0.5-0.2C-92,304.9-92.1,304.7-92.1,304.5z"/>
		<path class="st3" d="M-87.3,314.2c-0.9,0-1.5-0.3-2-0.8c-0.5-0.5-0.7-1.2-0.7-2.1c0-0.9,0.2-1.7,0.5-2.5c0.3-0.8,0.8-1.4,1.4-1.9
			c0.6-0.5,1.2-0.7,1.9-0.7c0.7,0,1.3,0.2,1.6,0.5c0.4,0.3,0.6,0.8,0.6,1.3c0,0.8-0.4,1.5-1.2,2s-1.9,0.7-3.3,0.7h-0.2l0,0.5
			c0,0.6,0.1,1,0.4,1.4c0.3,0.3,0.7,0.5,1.3,0.5c0.4,0,0.7-0.1,1-0.2c0.3-0.1,0.7-0.2,1.1-0.4v1.1c-0.5,0.2-0.9,0.4-1.2,0.4
			C-86.5,314.2-86.9,314.2-87.3,314.2z M-86.3,307.3c-0.5,0-0.9,0.2-1.4,0.7s-0.7,1-0.9,1.8h0.1c1,0,1.8-0.1,2.4-0.4
			c0.6-0.3,0.8-0.7,0.8-1.2c0-0.2-0.1-0.4-0.2-0.6C-85.7,307.4-85.9,307.3-86.3,307.3z"/>
		<path class="st3" d="M-80.1,314.2c-0.9,0-1.6-0.2-2.1-0.7s-0.7-1.2-0.7-2.1c0-0.9,0.2-1.8,0.5-2.6c0.3-0.8,0.8-1.4,1.4-1.8
			c0.6-0.4,1.3-0.7,2.1-0.7c0.7,0,1.3,0.1,1.9,0.4l-0.4,1c-0.5-0.2-1-0.4-1.5-0.4c-0.5,0-1,0.2-1.4,0.5c-0.4,0.4-0.7,0.8-1,1.5
			s-0.3,1.3-0.3,2c0,0.6,0.1,1,0.4,1.3c0.3,0.3,0.7,0.5,1.2,0.5c0.3,0,0.7,0,1-0.1c0.3-0.1,0.6-0.2,0.9-0.3v1.1
			C-78.7,314.1-79.4,314.2-80.1,314.2z"/>
		<path class="st3" d="M-74.3,313.2c0.3,0,0.6-0.1,1-0.2v1c-0.1,0.1-0.3,0.1-0.6,0.2c-0.2,0.1-0.5,0.1-0.6,0.1c-0.6,0-1-0.1-1.4-0.4
			c-0.3-0.3-0.5-0.7-0.5-1.2c0-0.3,0-0.6,0.1-1l0.9-4.2h-1.2l0.1-0.6l1.3-0.5l0.9-1.6h0.7l-0.4,1.7h1.9l-0.2,1h-1.9l-0.9,4.2
			c-0.1,0.4-0.1,0.7-0.1,0.8c0,0.2,0.1,0.4,0.2,0.6C-74.8,313.1-74.6,313.2-74.3,313.2z"/>
		<path class="st3" d="M-70.7,314.1H-72l1.6-7.7h1.3L-70.7,314.1z M-70,304.5c0-0.3,0.1-0.5,0.2-0.7s0.4-0.3,0.6-0.3
			c0.4,0,0.7,0.2,0.7,0.6c0,0.3-0.1,0.5-0.2,0.7c-0.2,0.2-0.4,0.3-0.6,0.3c-0.2,0-0.4-0.1-0.5-0.2C-70,304.9-70,304.7-70,304.5z"/>
		<path class="st3" d="M-66.8,306.4h1.3l-1,4.8c-0.1,0.4-0.1,0.7-0.1,1c0,0.7,0.3,1,1,1c0.4,0,0.8-0.1,1.2-0.4
			c0.4-0.3,0.7-0.7,1-1.2c0.3-0.5,0.5-1.1,0.7-1.9l0.7-3.3h1.2l-1.6,7.7h-1l0.2-1.4h-0.1c-0.4,0.5-0.8,0.9-1.3,1.2s-0.9,0.4-1.3,0.4
			c-0.6,0-1.1-0.2-1.4-0.5c-0.3-0.3-0.5-0.8-0.5-1.4c0-0.3,0.1-0.7,0.2-1.2L-66.8,306.4z"/>
		<path class="st3" d="M-55.3,311.9c0,0.7-0.3,1.3-0.8,1.7c-0.5,0.4-1.2,0.6-2.2,0.6c-0.8,0-1.5-0.2-2.1-0.5v-1.2
			c0.3,0.2,0.6,0.3,1,0.4c0.4,0.1,0.7,0.2,1.1,0.2c0.6,0,1-0.1,1.3-0.3c0.3-0.2,0.4-0.5,0.4-0.9c0-0.3-0.1-0.5-0.2-0.7
			s-0.5-0.4-1-0.7c-0.6-0.3-1-0.7-1.3-1c-0.2-0.3-0.4-0.7-0.4-1.2c0-0.7,0.2-1.2,0.7-1.6c0.5-0.4,1.1-0.6,1.9-0.6
			c0.8,0,1.6,0.2,2.3,0.5l-0.4,1c-0.2-0.1-0.5-0.2-0.8-0.3c-0.3-0.1-0.7-0.1-1.1-0.1c-0.4,0-0.7,0.1-1,0.3c-0.2,0.2-0.4,0.4-0.4,0.8
			c0,0.3,0.1,0.5,0.3,0.7c0.2,0.2,0.5,0.4,1,0.7c0.5,0.3,0.9,0.6,1.1,0.8c0.2,0.2,0.3,0.4,0.5,0.6
			C-55.3,311.3-55.3,311.6-55.3,311.9z"/>
		<path class="st3" d="M-54,313.5c0-0.4,0.1-0.6,0.3-0.9c0.2-0.2,0.5-0.3,0.8-0.3c0.2,0,0.4,0.1,0.5,0.2c0.1,0.1,0.2,0.3,0.2,0.6
			c0,0.3-0.1,0.6-0.3,0.8c-0.2,0.2-0.4,0.3-0.8,0.3c-0.2,0-0.4-0.1-0.5-0.2S-54,313.8-54,313.5z"/>
	</g>
</g>
<g>
	<g>
		<path class="st3" d="M-277.8,280.4c-0.6,0-1.1-0.1-1.6-0.2V278c0.5,0.1,0.9,0.2,1.3,0.2c0.6,0,1-0.2,1.3-0.5s0.4-0.9,0.4-1.7
			v-11.8h2.7v11.7c0,1.5-0.3,2.6-1,3.3C-275.5,280-276.5,280.4-277.8,280.4z"/>
		<path class="st3" d="M-264.8,276.7l-0.5-1.3h-0.1c-0.4,0.6-0.9,0.9-1.4,1.2c-0.5,0.2-1.1,0.3-1.8,0.3c-0.9,0-1.6-0.3-2.2-0.8
			c-0.5-0.5-0.8-1.3-0.8-2.2c0-1,0.4-1.8,1.1-2.3c0.7-0.5,1.8-0.8,3.2-0.8l1.7-0.1v-0.4c0-1-0.5-1.5-1.5-1.5c-0.8,0-1.7,0.2-2.7,0.7
			l-0.9-1.8c1.1-0.6,2.3-0.9,3.7-0.9c1.3,0,2.3,0.3,3,0.8s1,1.4,1,2.6v6.4H-264.8z M-265.5,272.3l-1,0c-0.8,0-1.3,0.2-1.7,0.4
			c-0.4,0.3-0.6,0.6-0.6,1.1c0,0.7,0.4,1.1,1.3,1.1c0.6,0,1.1-0.2,1.5-0.5c0.4-0.3,0.5-0.8,0.5-1.4V272.3z"/>
		<path class="st3" d="M-260.3,264.6c0-0.9,0.5-1.3,1.4-1.3s1.4,0.4,1.4,1.3c0,0.4-0.1,0.7-0.4,0.9c-0.2,0.2-0.6,0.3-1.1,0.3
			C-259.9,265.9-260.3,265.5-260.3,264.6z M-257.6,276.7h-2.6v-9.6h2.6V276.7z"/>
		<path class="st3" d="M-246.3,276.7h-2.6v-5.6c0-0.7-0.1-1.2-0.3-1.6c-0.2-0.3-0.6-0.5-1.1-0.5c-0.7,0-1.2,0.2-1.5,0.7
			c-0.3,0.5-0.5,1.3-0.5,2.4v4.5h-2.6v-9.6h2l0.4,1.2h0.1c0.3-0.4,0.6-0.8,1.1-1c0.5-0.2,1-0.4,1.7-0.4c1.4,0,2.4,0.5,2.9,1.4h0.2
			c0.3-0.4,0.6-0.8,1.1-1c0.5-0.2,1.1-0.4,1.7-0.4c1.1,0,1.9,0.3,2.5,0.8c0.6,0.6,0.8,1.5,0.8,2.7v6.3h-2.6v-5.6
			c0-0.7-0.1-1.2-0.3-1.6c-0.2-0.3-0.6-0.5-1.1-0.5c-0.6,0-1.1,0.2-1.4,0.7c-0.3,0.5-0.5,1.2-0.5,2.2V276.7z"/>
		<path class="st3" d="M-233.3,276.9c-1.5,0-2.8-0.4-3.6-1.3c-0.9-0.9-1.3-2.1-1.3-3.6c0-1.6,0.4-2.8,1.2-3.7s1.9-1.3,3.3-1.3
			c1.4,0,2.4,0.4,3.2,1.2c0.8,0.8,1.1,1.8,1.1,3.2v1.3h-6.2c0,0.7,0.2,1.3,0.7,1.7s1,0.6,1.7,0.6c0.6,0,1.1-0.1,1.6-0.2
			s1.1-0.3,1.6-0.6v2c-0.5,0.2-0.9,0.4-1.5,0.5C-231.9,276.8-232.5,276.9-233.3,276.9z M-233.7,268.8c-0.6,0-1,0.2-1.3,0.5
			s-0.5,0.9-0.5,1.5h3.7c0-0.6-0.2-1.1-0.5-1.5C-232.7,269-233.1,268.8-233.7,268.8z"/>
	</g>
</g>
<linearGradient id="SVGID_8_" gradientUnits="userSpaceOnUse" x1="-380.0051" y1="207.0558" x2="-264.2383" y2="88.6229">
	<stop  offset="0" style="stop-color:#F0A868"/>
	<stop  offset="1" style="stop-color:#EFCB67"/>
</linearGradient>
<circle class="st5" cx="-345.8" cy="172.1" r="43.9"/>
<g>
	<defs>
		<circle id="SVGID_9_" cx="-345.8" cy="172" r="40"/>
	</defs>
	<clipPath id="SVGID_10_">
		<use xlink:href="#SVGID_9_"  style="overflow:visible;"/>
	</clipPath>
	<g transform="matrix(1 0 0 1 0 0)" style="clip-path:url(#SVGID_10_);">
		
			<image style="overflow:visible;" width="233" height="390" xlink:href="C36D58EFD47A6A1E.jpg"  transform="matrix(0.3997 0 0 0.3997 -392.3803 128.8957)">
		</image>
	</g>
</g>
<linearGradient id="SVGID_11_" gradientUnits="userSpaceOnUse" x1="-379.6247" y1="322.16" x2="-263.8579" y2="203.7272">
	<stop  offset="0" style="stop-color:#F0A868"/>
	<stop  offset="1" style="stop-color:#EFCB67"/>
</linearGradient>
<circle class="st6" cx="-345.4" cy="287.2" r="43.9"/>
<g>
	<defs>
		<circle id="SVGID_12_" cx="-345.4" cy="287.1" r="40"/>
	</defs>
	<clipPath id="SVGID_13_">
		<use xlink:href="#SVGID_12_"  style="overflow:visible;"/>
	</clipPath>
	<g style="clip-path:url(#SVGID_13_);">
		
			<image style="overflow:visible;" width="182" height="180" xlink:href="jambo02.jpg"  transform="matrix(0.4777 0 0 0.4777 -390 243)">
		</image>
	</g>
</g>
<g>
	<text transform="matrix(1 0 0 1 44.858 -79.6201)" class="st3 st9" style="font-size:20.9366px;">Adrin</text>
</g>
<g>
	<text transform="matrix(1 0 0 1 47.7677 -50.0625)" class="st3" style="font-family:'NotoSans'; font-size:17.2419px;">Teacher</text>
</g>
<g>
	<text transform="matrix(1 0 0 1 278.0949 -146.2559)" class="st2 st9" style="font-size:10.4915px;">Alumnes apuntats</text>
</g>
<g class="st7">
	<text transform="matrix(1 0 0 1 280.4404 63.1836)" class="st8 st9 st10">20</text>
</g>
<g>
	<text transform="matrix(1 0 0 1 685.6387 125.5469)" class="st3 st9" style="font-size:16px;">Adam</text>
</g>
<g>
	<text transform="matrix(1 0 0 1 685.6387 147.8799)"><tspan x="0" y="0" class="st3" style="font-family:'NotoSans-Italic'; font-size:13px;">La competitividad roza las nubes, me encantan</tspan><tspan x="0" y="15.6" class="st3" style="font-family:'NotoSans-Italic'; font-size:13px;">estos torneos!</tspan></text>
</g>
<g>
	<text transform="matrix(1 0 0 1 604.6387 73.2139)" class="st3 st9" style="font-size:20.891px;">Reseas</text>
</g>
<linearGradient id="SVGID_14_" gradientUnits="userSpaceOnUse" x1="19.3161" y1="148.3102" x2="226.6791" y2="-63.8283">
	<stop  offset="0" style="stop-color:#F0A868"/>
	<stop  offset="1" style="stop-color:#EFCB67"/>
</linearGradient>
<circle class="st11" cx="80.6" cy="85.7" r="78.7"/>
<linearGradient id="SVGID_15_" gradientUnits="userSpaceOnUse" x1="592.7501" y1="166.8508" x2="698.2014" y2="58.971">
	<stop  offset="0" style="stop-color:#F0A868"/>
	<stop  offset="1" style="stop-color:#EFCB67"/>
</linearGradient>
<circle class="st12" cx="623.9" cy="135" r="40"/>
<g>
	<defs>
		<circle id="SVGID_16_" cx="623.9" cy="134.9" r="36.4"/>
	</defs>
	<clipPath id="SVGID_17_">
		<use xlink:href="#SVGID_16_"  style="overflow:visible;"/>
	</clipPath>
	<g style="clip-path:url(#SVGID_17_);">
		
			<image style="overflow:visible;" width="293" height="390" xlink:href="C36D58EFD47A6A14.jpg"  transform="matrix(0.2747 0 0 0.2747 582.1992 91.21)">
		</image>
	</g>
</g>
<g>
	<text transform="matrix(1 0 0 1 685.6387 230.5586)" class="st3 st9" style="font-size:16px;">Ldia</text>
</g>
<linearGradient id="SVGID_18_" gradientUnits="userSpaceOnUse" x1="592.7501" y1="271.8625" x2="698.2014" y2="163.9827">
	<stop  offset="0" style="stop-color:#F0A868"/>
	<stop  offset="1" style="stop-color:#EFCB67"/>
</linearGradient>
<circle class="st13" cx="623.9" cy="240" r="40"/>
<g>
	<defs>
		<circle id="SVGID_19_" cx="623.9" cy="239.9" r="36.4"/>
	</defs>
	<clipPath id="SVGID_20_">
		<use xlink:href="#SVGID_19_"  style="overflow:visible;"/>
	</clipPath>
	<g transform="matrix(1 0 0 1 0 -1.525879e-05)" style="clip-path:url(#SVGID_20_);">
		
			<image style="overflow:visible;" width="233" height="390" xlink:href="C36D58EFD47A6A17.jpg"  transform="matrix(0.3641 0 0 0.3641 581.4775 200.667)">
		</image>
	</g>
</g>
<linearGradient id="SVGID_21_" gradientUnits="userSpaceOnUse" x1="277.6039" y1="170.7129" x2="437.1186" y2="-91.0454">
	<stop  offset="0" style="stop-color:#F0A868"/>
	<stop  offset="0.7004" style="stop-color:#EFC167"/>
	<stop  offset="1" style="stop-color:#EFCB67"/>
</linearGradient>
<circle class="st14" cx="329.4" cy="85.7" r="78.7"/>
<g>
	<path class="st2" d="M316,105.4h-12.8V70.3c0-0.7,0-1.6,0-2.6c0-1,0-2.1,0.1-3.1c0-1.1,0.1-2.2,0.1-3.3c0-1.1,0.1-2.1,0.1-3
		c-0.1,0.2-0.4,0.4-0.7,0.7c-0.3,0.3-0.7,0.7-1.1,1.1c-0.4,0.4-0.8,0.8-1.3,1.2c-0.4,0.4-0.9,0.8-1.3,1.1l-7,5.6l-6.2-7.7l19.5-15.5
		H316V105.4z"/>
	<path class="st2" d="M372.9,105.4h-40.7v-8.9l14.3-15.4c1.8-1.9,3.4-3.7,4.9-5.3c1.5-1.6,2.7-3.2,3.8-4.8c1-1.5,1.9-3.1,2.4-4.7
		c0.6-1.6,0.9-3.3,0.9-5.2c0-2-0.6-3.6-1.8-4.8c-1.2-1.1-2.9-1.7-5-1.7c-2.2,0-4.3,0.5-6.3,1.6c-2,1.1-4.1,2.6-6.3,4.6l-7-8.2
		c1.2-1.1,2.5-2.2,3.9-3.3c1.4-1,2.8-2,4.5-2.8c1.6-0.8,3.4-1.4,5.4-1.9c2-0.5,4.2-0.7,6.6-0.7c2.9,0,5.5,0.4,7.8,1.2
		c2.3,0.8,4.3,1.9,5.9,3.4c1.6,1.5,2.9,3.3,3.8,5.4c0.9,2.1,1.3,4.5,1.3,7.1c0,2.4-0.4,4.6-1.2,6.8c-0.8,2.2-2,4.3-3.4,6.4
		c-1.4,2.1-3.1,4.2-5,6.2c-1.9,2.1-3.9,4.2-6.1,6.3l-7.3,7.3v0.6h24.7V105.4z"/>
</g>
<g>
	<g>
		<path class="st2" d="M292.5,128.7h-4.3v-7.5h4.3v1.3h-2.7v1.6h2.5v1.3h-2.5v1.9h2.7V128.7z"/>
		<path class="st2" d="M295.7,128.8c-0.7,0-1.2-0.3-1.6-0.8c-0.4-0.5-0.6-1.2-0.6-2.2c0-0.9,0.2-1.7,0.6-2.2
			c0.4-0.5,0.9-0.8,1.6-0.8c0.4,0,0.7,0.1,0.9,0.2c0.3,0.1,0.5,0.3,0.7,0.6h0l0.1-0.7h1.3v8.2h-1.6v-2.4c0-0.2,0-0.5,0.1-0.9h-0.1
			c-0.2,0.3-0.4,0.5-0.7,0.6C296.4,128.8,296.1,128.8,295.7,128.8z M296.3,127.6c0.4,0,0.7-0.1,0.9-0.3c0.2-0.2,0.3-0.6,0.3-1.2
			v-0.2c0-0.6-0.1-1.1-0.3-1.3c-0.2-0.3-0.5-0.4-0.9-0.4c-0.7,0-1.1,0.6-1.1,1.7c0,0.6,0.1,1,0.3,1.3
			C295.6,127.5,295.9,127.6,296.3,127.6z"/>
		<path class="st2" d="M304.6,128.7l-0.2-0.7h-0.1c-0.2,0.3-0.4,0.5-0.7,0.6c-0.3,0.1-0.7,0.2-1,0.2c-0.7,0-1.2-0.2-1.5-0.5
			c-0.3-0.4-0.5-0.9-0.5-1.6V123h1.6v3.3c0,0.4,0.1,0.7,0.2,0.9s0.4,0.3,0.7,0.3c0.4,0,0.8-0.1,0.9-0.4c0.2-0.3,0.3-0.8,0.3-1.4V123
			h1.6v5.7H304.6z"/>
		<path class="st2" d="M307.3,121.5c0-0.5,0.3-0.8,0.8-0.8c0.6,0,0.8,0.3,0.8,0.8c0,0.2-0.1,0.4-0.2,0.6s-0.4,0.2-0.6,0.2
			C307.6,122.3,307.3,122,307.3,121.5z M309,128.7h-1.6V123h1.6V128.7z"/>
		<path class="st2" d="M313.7,128.8c-0.7,0-1.2-0.2-1.6-0.7h-0.1c0.1,0.5,0.1,0.8,0.1,0.8v2.3h-1.6V123h1.3l0.2,0.7h0.1
			c0.4-0.6,0.9-0.8,1.6-0.8c0.7,0,1.2,0.3,1.6,0.8s0.6,1.2,0.6,2.2c0,0.6-0.1,1.1-0.3,1.6c-0.2,0.5-0.4,0.8-0.8,1
			C314.6,128.7,314.2,128.8,313.7,128.8z M313.3,124.1c-0.4,0-0.7,0.1-0.8,0.4c-0.2,0.2-0.3,0.6-0.3,1.2v0.2c0,0.6,0.1,1.1,0.3,1.3
			c0.2,0.3,0.5,0.4,0.9,0.4c0.7,0,1-0.6,1-1.7c0-0.6-0.1-1-0.3-1.3S313.6,124.1,313.3,124.1z"/>
		<path class="st2" d="M321.2,127c0,0.6-0.2,1-0.6,1.3s-1,0.5-1.8,0.5c-0.4,0-0.8,0-1.1-0.1c-0.3-0.1-0.6-0.1-0.8-0.2v-1.3
			c0.3,0.1,0.6,0.3,1,0.3c0.4,0.1,0.7,0.1,1,0.1c0.6,0,0.8-0.2,0.8-0.5c0-0.1,0-0.2-0.1-0.3c-0.1-0.1-0.2-0.2-0.4-0.3
			c-0.2-0.1-0.4-0.2-0.7-0.3c-0.4-0.2-0.8-0.4-1-0.5c-0.2-0.2-0.4-0.3-0.5-0.5s-0.1-0.5-0.1-0.7c0-0.5,0.2-0.9,0.6-1.2
			c0.4-0.3,1-0.4,1.7-0.4c0.7,0,1.4,0.2,2,0.5l-0.5,1.1c-0.3-0.1-0.6-0.2-0.8-0.3c-0.2-0.1-0.5-0.1-0.8-0.1c-0.5,0-0.7,0.1-0.7,0.4
			c0,0.1,0.1,0.3,0.2,0.4s0.5,0.3,1,0.5c0.4,0.2,0.8,0.3,1,0.5c0.2,0.2,0.4,0.3,0.5,0.5C321.2,126.5,321.2,126.7,321.2,127z"/>
		<path class="st2" d="M328.8,128.7l-0.3-0.8h0c-0.3,0.3-0.5,0.6-0.8,0.7c-0.3,0.1-0.6,0.2-1.1,0.2c-0.5,0-1-0.2-1.3-0.5
			c-0.3-0.3-0.5-0.8-0.5-1.3c0-0.6,0.2-1.1,0.6-1.3c0.4-0.3,1.1-0.4,1.9-0.5l1,0v-0.3c0-0.6-0.3-0.9-0.9-0.9c-0.5,0-1,0.1-1.6,0.4
			l-0.5-1.1c0.7-0.3,1.4-0.5,2.2-0.5c0.8,0,1.4,0.2,1.8,0.5c0.4,0.3,0.6,0.8,0.6,1.5v3.8H328.8z M328.3,126.1l-0.6,0
			c-0.5,0-0.8,0.1-1,0.2c-0.2,0.1-0.3,0.4-0.3,0.7c0,0.4,0.3,0.7,0.8,0.7c0.4,0,0.7-0.1,0.9-0.3c0.2-0.2,0.3-0.5,0.3-0.8V126.1z"/>
		<path class="st2" d="M334.6,128.8c-0.7,0-1.2-0.2-1.6-0.7H333c0.1,0.5,0.1,0.8,0.1,0.8v2.3h-1.6V123h1.3l0.2,0.7h0.1
			c0.4-0.6,0.9-0.8,1.6-0.8c0.7,0,1.2,0.3,1.6,0.8s0.6,1.2,0.6,2.2c0,0.6-0.1,1.1-0.3,1.6c-0.2,0.5-0.4,0.8-0.8,1
			C335.4,128.7,335.1,128.8,334.6,128.8z M334.2,124.1c-0.4,0-0.7,0.1-0.8,0.4c-0.2,0.2-0.3,0.6-0.3,1.2v0.2c0,0.6,0.1,1.1,0.3,1.3
			c0.2,0.3,0.5,0.4,0.9,0.4c0.7,0,1-0.6,1-1.7c0-0.6-0.1-1-0.3-1.3S334.5,124.1,334.2,124.1z"/>
		<path class="st2" d="M342.1,128.7l-0.2-0.7h-0.1c-0.2,0.3-0.4,0.5-0.7,0.6c-0.3,0.1-0.7,0.2-1,0.2c-0.7,0-1.2-0.2-1.5-0.5
			c-0.3-0.4-0.5-0.9-0.5-1.6V123h1.6v3.3c0,0.4,0.1,0.7,0.2,0.9s0.4,0.3,0.7,0.3c0.4,0,0.8-0.1,0.9-0.4c0.2-0.3,0.3-0.8,0.3-1.4V123
			h1.6v5.7H342.1z"/>
		<path class="st2" d="M350.3,128.7h-1.6v-3.3c0-0.4-0.1-0.7-0.2-0.9s-0.4-0.3-0.7-0.3c-0.4,0-0.8,0.1-0.9,0.4
			c-0.2,0.3-0.3,0.8-0.3,1.4v2.7H345V123h1.2l0.2,0.7h0.1c0.2-0.3,0.4-0.5,0.7-0.6c0.3-0.1,0.7-0.2,1-0.2c0.7,0,1.2,0.2,1.5,0.5
			c0.3,0.4,0.5,0.9,0.5,1.6V128.7z"/>
		<path class="st2" d="M354.3,127.6c0.3,0,0.6-0.1,1-0.2v1.2c-0.4,0.2-0.9,0.3-1.4,0.3c-0.6,0-1.1-0.2-1.4-0.5
			c-0.3-0.3-0.4-0.8-0.4-1.4v-2.8h-0.7v-0.7l0.9-0.5l0.5-1.2h1v1.2h1.6v1.2h-1.6v2.8c0,0.2,0.1,0.4,0.2,0.5
			C353.9,127.5,354.1,127.6,354.3,127.6z"/>
		<path class="st2" d="M360,128.7l-0.3-0.8h0c-0.3,0.3-0.5,0.6-0.8,0.7c-0.3,0.1-0.6,0.2-1.1,0.2c-0.5,0-1-0.2-1.3-0.5
			c-0.3-0.3-0.5-0.8-0.5-1.3c0-0.6,0.2-1.1,0.6-1.3c0.4-0.3,1.1-0.4,1.9-0.5l1,0v-0.3c0-0.6-0.3-0.9-0.9-0.9c-0.5,0-1,0.1-1.6,0.4
			l-0.5-1.1c0.7-0.3,1.4-0.5,2.2-0.5c0.8,0,1.4,0.2,1.8,0.5c0.4,0.3,0.6,0.8,0.6,1.5v3.8H360z M359.6,126.1l-0.6,0
			c-0.5,0-0.8,0.1-1,0.2c-0.2,0.1-0.3,0.4-0.3,0.7c0,0.4,0.3,0.7,0.8,0.7c0.4,0,0.7-0.1,0.9-0.3c0.2-0.2,0.3-0.5,0.3-0.8V126.1z"/>
		<path class="st2" d="M365.1,127.6c0.3,0,0.6-0.1,1-0.2v1.2c-0.4,0.2-0.9,0.3-1.4,0.3c-0.6,0-1.1-0.2-1.4-0.5
			c-0.3-0.3-0.4-0.8-0.4-1.4v-2.8h-0.7v-0.7l0.9-0.5l0.5-1.2h1v1.2h1.6v1.2h-1.6v2.8c0,0.2,0.1,0.4,0.2,0.5
			C364.8,127.5,364.9,127.6,365.1,127.6z"/>
		<path class="st2" d="M371.3,127c0,0.6-0.2,1-0.6,1.3s-1,0.5-1.8,0.5c-0.4,0-0.8,0-1.1-0.1c-0.3-0.1-0.6-0.1-0.8-0.2v-1.3
			c0.3,0.1,0.6,0.3,1,0.3c0.4,0.1,0.7,0.1,1,0.1c0.6,0,0.8-0.2,0.8-0.5c0-0.1,0-0.2-0.1-0.3c-0.1-0.1-0.2-0.2-0.4-0.3
			c-0.2-0.1-0.4-0.2-0.7-0.3c-0.4-0.2-0.8-0.4-1-0.5c-0.2-0.2-0.4-0.3-0.5-0.5s-0.1-0.5-0.1-0.7c0-0.5,0.2-0.9,0.6-1.2
			c0.4-0.3,1-0.4,1.7-0.4c0.7,0,1.4,0.2,2,0.5l-0.5,1.1c-0.3-0.1-0.6-0.2-0.8-0.3c-0.2-0.1-0.5-0.1-0.8-0.1c-0.5,0-0.7,0.1-0.7,0.4
			c0,0.1,0.1,0.3,0.2,0.4s0.5,0.3,1,0.5c0.4,0.2,0.8,0.3,1,0.5c0.2,0.2,0.4,0.3,0.5,0.5C371.2,126.5,371.3,126.7,371.3,127z"/>
	</g>
</g>
<path class="st15" d="M625.1,246.3c0,15.4,11.5,28,25.8,28h272.2c14.2,0,25.8-12.5,25.8-28l0,0c0-15.4-11.5-28-25.8-28H650.9
	C636.7,218.4,625.1,230.9,625.1,246.3L625.1,246.3z"/>
<linearGradient id="SVGID_22_" gradientUnits="userSpaceOnUse" x1="726.4992" y1="366.1631" x2="871.5853" y2="69.2095">
	<stop  offset="0" style="stop-color:#F0A868"/>
	<stop  offset="0.7004" style="stop-color:#EFC167"/>
	<stop  offset="0.9604" style="stop-color:#EFC967"/>
	<stop  offset="1" style="stop-color:#EFCB67"/>
</linearGradient>
<path class="st16" d="M625.1,242.3c0,15.4,11.5,28,25.8,28h272.2c14.2,0,25.8-12.5,25.8-28l0,0c0-15.4-11.5-28-25.8-28H650.9
	C636.7,214.4,625.1,226.9,625.1,242.3L625.1,242.3z"/>
<text transform="matrix(1 0 0 1 704.7368 251.4111)" class="st2 st9" style="font-size:27.0295px;">Me apunto!</text>
<g>
	<path class="st2" d="M42.6,77.1h-5.9v-1.6l1.6-0.7v-8.4l-1.6-0.7v-1.6h5.9v1.6L41,66.4v8.4l1.6,0.7V77.1z"/>
	<path class="st2" d="M53.8,77.1h-2.7v-5.8c0-0.7-0.1-1.3-0.4-1.6c-0.3-0.4-0.7-0.5-1.2-0.5c-0.8,0-1.3,0.3-1.6,0.8
		c-0.3,0.5-0.5,1.3-0.5,2.5v4.7h-2.7v-9.9h2.1l0.4,1.3h0.2c0.3-0.5,0.7-0.8,1.2-1.1c0.5-0.2,1.1-0.4,1.8-0.4c1.2,0,2,0.3,2.6,0.9
		c0.6,0.6,0.9,1.5,0.9,2.7V77.1z"/>
	<path class="st2" d="M63.5,74.1c0,1-0.4,1.8-1.1,2.3c-0.7,0.5-1.8,0.8-3.2,0.8c-0.7,0-1.3,0-1.8-0.1c-0.5-0.1-1-0.2-1.4-0.4v-2.2
		c0.5,0.2,1.1,0.4,1.7,0.6c0.6,0.2,1.2,0.2,1.7,0.2c1,0,1.5-0.3,1.5-0.9c0-0.2-0.1-0.4-0.2-0.5c-0.1-0.1-0.4-0.3-0.7-0.5
		c-0.3-0.2-0.7-0.4-1.3-0.6c-0.8-0.3-1.3-0.6-1.7-0.9c-0.4-0.3-0.6-0.6-0.8-0.9C56,70.7,56,70.2,56,69.7c0-0.9,0.3-1.6,1-2
		s1.7-0.7,2.9-0.7c1.2,0,2.4,0.3,3.5,0.8l-0.8,2c-0.5-0.2-1-0.4-1.4-0.5C60.7,69,60.3,69,59.9,69c-0.8,0-1.2,0.2-1.2,0.6
		c0,0.2,0.1,0.5,0.4,0.6c0.3,0.2,0.8,0.4,1.7,0.8c0.8,0.3,1.3,0.6,1.7,0.9s0.6,0.6,0.8,0.9C63.4,73.2,63.5,73.6,63.5,74.1z"/>
	<path class="st2" d="M69.6,77.2c-3.1,0-4.6-1.7-4.6-5.1c0-1.7,0.4-3,1.3-3.9c0.8-0.9,2-1.3,3.6-1.3c1.1,0,2.2,0.2,3.1,0.7l-0.8,2.1
		c-0.4-0.2-0.8-0.3-1.2-0.4c-0.4-0.1-0.7-0.2-1.1-0.2c-1.4,0-2.1,1-2.1,3c0,1.9,0.7,2.9,2.1,2.9c0.5,0,1-0.1,1.4-0.2
		c0.4-0.1,0.9-0.4,1.3-0.7v2.3c-0.4,0.3-0.9,0.5-1.3,0.6C70.9,77.2,70.3,77.2,69.6,77.2z"/>
	<path class="st2" d="M80.5,67c0.4,0,0.7,0,0.9,0.1l-0.2,2.5c-0.2-0.1-0.5-0.1-0.8-0.1c-0.9,0-1.5,0.2-2,0.7
		c-0.5,0.4-0.7,1.1-0.7,1.9v5.1H75v-9.9H77l0.4,1.7h0.1c0.3-0.6,0.7-1,1.2-1.3C79.3,67.1,79.9,67,80.5,67z"/>
	<path class="st2" d="M83.1,64.6c0-0.9,0.5-1.3,1.5-1.3s1.5,0.4,1.5,1.3c0,0.4-0.1,0.7-0.4,1c-0.2,0.2-0.6,0.4-1.1,0.4
		C83.6,65.9,83.1,65.5,83.1,64.6z M85.9,77.1h-2.7v-9.9h2.7V77.1z"/>
	<path class="st2" d="M94.2,77.2c-1.2,0-2.1-0.4-2.7-1.3h-0.1c0.1,0.8,0.1,1.3,0.1,1.4v4h-2.7V67.1H91l0.4,1.3h0.1
		c0.6-1,1.6-1.5,2.8-1.5c1.2,0,2.1,0.5,2.8,1.4c0.7,0.9,1,2.2,1,3.8c0,1.1-0.2,2-0.5,2.8c-0.3,0.8-0.8,1.4-1.3,1.8
		C95.7,77,95,77.2,94.2,77.2z M93.4,69.1c-0.7,0-1.2,0.2-1.5,0.6s-0.5,1.1-0.5,2v0.3c0,1.1,0.2,1.8,0.5,2.3c0.3,0.5,0.8,0.7,1.5,0.7
		c1.2,0,1.8-1,1.8-3c0-1-0.1-1.7-0.4-2.2S94.1,69.1,93.4,69.1z"/>
	<path class="st2" d="M104.3,77.2c-3.1,0-4.6-1.7-4.6-5.1c0-1.7,0.4-3,1.3-3.9c0.8-0.9,2-1.3,3.6-1.3c1.1,0,2.2,0.2,3.1,0.7
		l-0.8,2.1c-0.4-0.2-0.8-0.3-1.2-0.4c-0.4-0.1-0.7-0.2-1.1-0.2c-1.4,0-2.1,1-2.1,3c0,1.9,0.7,2.9,2.1,2.9c0.5,0,1-0.1,1.4-0.2
		c0.4-0.1,0.9-0.4,1.3-0.7v2.3c-0.4,0.3-0.9,0.5-1.3,0.6C105.5,77.2,105,77.2,104.3,77.2z"/>
	<path class="st2" d="M109.5,64.6c0-0.9,0.5-1.3,1.5-1.3s1.5,0.4,1.5,1.3c0,0.4-0.1,0.7-0.4,1c-0.2,0.2-0.6,0.4-1.1,0.4
		C110,65.9,109.5,65.5,109.5,64.6z M112.3,77.1h-2.7v-9.9h2.7V77.1z"/>
	<path class="st2" d="M124.2,72.1c0,1.6-0.4,2.9-1.3,3.8c-0.9,0.9-2,1.4-3.6,1.4c-1,0-1.8-0.2-2.5-0.6c-0.7-0.4-1.3-1-1.7-1.8
		c-0.4-0.8-0.6-1.7-0.6-2.7c0-1.6,0.4-2.9,1.3-3.8c0.8-0.9,2-1.3,3.6-1.3c1,0,1.8,0.2,2.5,0.6c0.7,0.4,1.3,1,1.7,1.8
		C124,70.1,124.2,71,124.2,72.1z M117.3,72.1c0,1,0.2,1.7,0.5,2.2c0.3,0.5,0.8,0.8,1.6,0.8c0.7,0,1.2-0.2,1.6-0.8
		c0.3-0.5,0.5-1.2,0.5-2.2c0-1-0.2-1.7-0.5-2.2c-0.3-0.5-0.8-0.7-1.6-0.7c-0.7,0-1.2,0.2-1.6,0.7C117.5,70.4,117.3,71.1,117.3,72.1z
		 M117.9,66v-0.2c1-1.2,1.7-2.1,2.1-2.7h3v0.2c-0.3,0.3-0.8,0.8-1.6,1.4c-0.7,0.6-1.3,1.1-1.7,1.4H117.9z"/>
</g>
<g>
	<path class="st2" d="M35.3,98.8h6v7.8c-1,0.3-1.9,0.5-2.7,0.7c-0.9,0.1-1.7,0.2-2.6,0.2c-2.3,0-4-0.7-5.2-2s-1.8-3.3-1.8-5.8
		c0-2.4,0.7-4.3,2.1-5.7s3.3-2,5.8-2c1.6,0,3,0.3,4.5,0.9l-1.1,2.6c-1.1-0.6-2.3-0.8-3.4-0.8c-1.4,0-2.5,0.5-3.3,1.4
		c-0.8,0.9-1.3,2.2-1.3,3.8c0,1.6,0.3,2.9,1,3.8c0.7,0.9,1.7,1.3,2.9,1.3c0.7,0,1.3-0.1,2-0.2v-3.2h-2.9V98.8z"/>
	<path class="st2" d="M48.1,101.5v5.8h-3.2V92.2h4.4c2.1,0,3.6,0.4,4.6,1.1s1.5,1.9,1.5,3.4c0,0.9-0.2,1.7-0.7,2.4
		c-0.5,0.7-1.2,1.2-2.1,1.6l4.4,6.6h-3.6l-3.6-5.8H48.1z M48.1,98.9h1c1,0,1.8-0.2,2.2-0.5s0.7-0.9,0.7-1.6c0-0.7-0.2-1.2-0.7-1.5
		c-0.5-0.3-1.3-0.5-2.3-0.5h-1V98.9z"/>
	<path class="st2" d="M68.1,107.3l-1.1-3.6h-5.5l-1.1,3.6h-3.5l5.3-15.2h3.9l5.4,15.2H68.1z M66.2,101c-1-3.3-1.6-5.1-1.7-5.5
		c-0.1-0.4-0.2-0.8-0.3-1c-0.2,0.9-0.9,3.1-2,6.5H66.2z"/>
	<path class="st2" d="M78.6,107.3h-3.2V94.9h-4.1v-2.7h11.4v2.7h-4.1V107.3z"/>
	<path class="st2" d="M97.3,92.2v9.8c0,1.1-0.2,2.1-0.8,2.9s-1.2,1.5-2.2,1.9c-0.9,0.4-2.1,0.7-3.4,0.7c-1.9,0-3.5-0.5-4.5-1.5
		c-1.1-1-1.6-2.4-1.6-4.1v-9.7h3.2v9.3c0,1.2,0.2,2,0.7,2.6c0.5,0.5,1.2,0.8,2.3,0.8c1,0,1.8-0.3,2.3-0.8s0.7-1.4,0.7-2.6v-9.2H97.3
		z"/>
	<path class="st2" d="M99.7,89.3c0-0.4,0.1-0.8,0.4-1s0.6-0.4,1-0.4c0.5,0,0.8,0.1,1.1,0.4s0.4,0.6,0.4,1c0,0.4-0.1,0.7-0.4,1
		c-0.3,0.3-0.6,0.4-1.1,0.4c-0.4,0-0.8-0.1-1-0.4S99.7,89.7,99.7,89.3z M106.7,107.3h-6.9v-1.8l1.8-0.8v-9.8L99.8,94v-1.8h6.9V94
		l-1.8,0.8v9.8l1.8,0.8V107.3z M103.9,89.3c0-0.5,0.1-0.8,0.4-1.1c0.3-0.2,0.6-0.3,1-0.3c0.4,0,0.8,0.1,1.1,0.4
		c0.3,0.2,0.4,0.6,0.4,1c0,0.4-0.1,0.8-0.4,1s-0.6,0.4-1.1,0.4c-0.4,0-0.8-0.1-1-0.3C104,90.1,103.9,89.8,103.9,89.3z"/>
	<path class="st2" d="M115.1,107.3h-3.2V94.9h-4.1v-2.7h11.4v2.7h-4.1V107.3z"/>
	<path class="st2" d="M130.1,107.3l-1.1-3.6h-5.5l-1.1,3.6h-3.5l5.3-15.2h3.9l5.4,15.2H130.1z M128.2,101c-1-3.3-1.6-5.1-1.7-5.5
		c-0.1-0.4-0.2-0.8-0.3-1c-0.2,0.9-0.9,3.1-2,6.5H128.2z"/>
</g>
</svg>
