<?xml version="1.0" encoding="utf-8"?>
<!-- Generator: Adobe Illustrator 16.0.3, SVG Export Plug-In . SVG Version: 6.00 Build 0)  -->
<!DOCTYPE svg PUBLIC "-//W3C//DTD SVG 1.1//EN" "http://www.w3.org/Graphics/SVG/1.1/DTD/svg11.dtd">
<svg version="1.1" id="Capa_1" xmlns="http://www.w3.org/2000/svg" xmlns:xlink="http://www.w3.org/1999/xlink" x="0px" y="0px"
	 width="150px" height="150px" viewBox="0 0 150 150" enable-background="new 0 0 150 150" xml:space="preserve">
<g>
	<defs>
		<circle id="SVGID_1_" cx="75" cy="75" r="74.611"/>
	</defs>
	<clipPath id="SVGID_2_">
		<use xlink:href="#SVGID_1_"  overflow="visible"/>
	</clipPath>
	<g clip-path="url(#SVGID_2_)">
		<rect x="-1.25" fill="#ACACAC" width="151.25" height="150"/>
		<path fill-rule="evenodd" clip-rule="evenodd" fill="#FDFDFC" d="M168.06,77.915c0,28.382-0.025,56.765,0.056,85.147
			c0.006,1.969-0.396,2.366-2.365,2.363c-56.545-0.066-113.09-0.066-169.634,0c-1.969,0.003-2.367-0.395-2.365-2.363
			c0.067-56.766,0.067-113.53,0-170.294C-6.251-9.2-5.853-9.599-3.884-9.596c56.544,0.067,113.089,0.067,169.634,0
			c1.969-0.002,2.371,0.395,2.365,2.364C168.034,21.15,168.06,49.533,168.06,77.915z M58.38,67.777
			c-2.584-0.822-4.525-1.476-6.488-2.056c-9.263-2.737-18.711-5.052-27.028-10.203c-8.326-5.155-8.444-10.595-0.854-16.813
			c6.6-5.406,13.884-7.555,22.383-6.105c12.716,2.17,23.892,7.238,32.943,16.58c2.234,2.305,3.888,5.026,2.641,8.316
			c-1.016,2.682,0.005,3.454,2.398,3.982c10.706,2.364,21.481,4.363,32.288,6.193c7.022,1.189,14.072,2.223,21.104,3.357
			c1.632,0.263,3.093,0.63,2.1,2.953c-1.767,4.131-8.389,8.203-12.652,7.39c-14.963-2.856-30.157-4.601-44.91-8.396
			C72.745,70.519,63.982,70,55.471,75.998c-3.56,2.508-3.934,3.798-0.189,6.232c4.481,2.914,9.524,4.445,14.59,5.934
			c8.31,2.442,17.019,3.392,25.087,6.723c9.755,4.026,11.736,11.082,5.492,19.627c-4.199,5.746-9.51,10.33-15.285,14.407
			c-10.188,7.193-21.281,12.776-32.437,18.253c-1.196,0.587-2.674,0.893-3.413,2.358c1.631,1.17,3.354,1.53,5.029,1.941
			c10.209,2.509,20.497,3.486,31.006,2.097c17.538-2.321,32.608-9.77,44.886-22.295c15.507-15.822,23.055-34.966,22.101-57.313
			c-0.769-18.051-6.976-33.98-19.097-47.261C115.542,7.308,93.501-1.654,67.125,0.994C50.074,2.706,35.073,9.259,22.53,20.952
			C-1.315,43.18-8.733,75.518,3.129,105.737c6.494,16.547,17.903,29.038,33.024,38.226c2.227,1.354,4.434,2.2,7.132,0.989
			c12.34-5.538,24.615-11.198,36.07-18.447c3.894-2.464,7.848-4.935,10.753-8.614c2.903-3.676,2.612-6.643-0.857-9.836
			c-2.653-2.441-5.963-3.727-9.363-4.652c-6.136-1.67-12.328-3.135-18.483-4.738c-6.277-1.637-12.567-3.288-17.957-7.134
			c-3.74-2.669-4.429-6.13-2.072-10.058c1.252-2.088,2.92-3.792,4.79-5.385C49.751,73.032,54.039,70.996,58.38,67.777z
			 M33.856,44.392c9.399,7.985,21.208,10.299,32.531,13.754C57.156,49.767,46.342,45.112,33.856,44.392z"/>
		<path fill-rule="evenodd" clip-rule="evenodd" fill="#ACACAC" d="M58.38,67.777c-4.341,3.219-8.629,5.255-12.215,8.311
			c-1.87,1.593-3.538,3.297-4.79,5.385c-2.356,3.928-1.668,7.389,2.072,10.058c5.39,3.846,11.68,5.497,17.957,7.134
			c6.155,1.604,12.348,3.068,18.483,4.738c3.4,0.926,6.71,2.211,9.363,4.652c3.47,3.193,3.761,6.16,0.857,9.836
			c-2.905,3.68-6.859,6.15-10.753,8.614c-11.455,7.249-23.73,12.909-36.07,18.447c-2.698,1.211-4.905,0.364-7.132-0.989
			c-15.121-9.188-26.53-21.679-33.024-38.226C-8.733,75.518-1.315,43.18,22.53,20.952C35.073,9.259,50.074,2.706,67.125,0.994
			c26.376-2.648,48.417,6.314,66.115,25.707c12.121,13.281,18.328,29.21,19.097,47.261c0.954,22.348-6.594,41.491-22.101,57.313
			c-12.277,12.525-27.348,19.974-44.886,22.295c-10.509,1.39-20.797,0.412-31.006-2.097c-1.675-0.411-3.398-0.771-5.029-1.941
			c0.739-1.466,2.217-1.771,3.413-2.358c11.155-5.477,22.249-11.06,32.437-18.253c5.775-4.077,11.086-8.661,15.285-14.407
			c6.244-8.545,4.263-15.601-5.492-19.627c-8.068-3.331-16.777-4.28-25.087-6.723c-5.065-1.488-10.108-3.02-14.59-5.934
			c-3.744-2.435-3.37-3.725,0.189-6.232c8.512-5.998,17.274-5.479,26.833-3.021c14.753,3.795,29.947,5.539,44.91,8.396
			c4.264,0.813,10.886-3.259,12.652-7.39c0.993-2.323-0.468-2.69-2.1-2.953c-7.032-1.135-14.082-2.168-21.104-3.357
			c-10.807-1.831-21.582-3.829-32.288-6.193c-2.394-0.528-3.414-1.3-2.398-3.982c1.247-3.29-0.406-6.011-2.641-8.316
			c-9.052-9.342-20.228-14.41-32.943-16.58c-8.499-1.45-15.783,0.699-22.383,6.105c-7.59,6.218-7.472,11.657,0.854,16.813
			c8.317,5.151,17.766,7.466,27.028,10.203C53.854,66.301,55.796,66.956,58.38,67.777z M97.662,46.608
			c3.672,0.001,7.509-1.836,11.246-5.28c8.422-7.76,7.553-14.499-2.546-19.744c-10.969-5.697-23.005-7.615-34.916-10.101
			c-5.177-1.08-9.246,0.076-12.906,3.638c-3.88,3.776-3.74,5.268,1.003,7.591c11.954,5.854,23.86,11.753,32.941,21.935
			C93.863,46.195,95.791,46.757,97.662,46.608z"/>
		<path fill-rule="evenodd" clip-rule="evenodd" fill="#B0B0B0" d="M33.856,44.392c12.485,0.72,23.3,5.375,32.531,13.754
			C55.064,54.691,43.256,52.377,33.856,44.392z"/>
		<path fill-rule="evenodd" clip-rule="evenodd" fill="#FDFCFB" d="M97.662,46.608c-1.871,0.149-3.799-0.413-5.178-1.96
			c-9.081-10.182-20.987-16.081-32.941-21.935c-4.743-2.323-4.883-3.815-1.003-7.591c3.66-3.563,7.729-4.718,12.906-3.638
			c11.911,2.486,23.947,4.403,34.916,10.101c10.099,5.245,10.968,11.984,2.546,19.744C105.171,44.771,101.334,46.609,97.662,46.608z
			"/>
	</g>
</g>
</svg>
