<?xml version="1.0" encoding="utf-8"?>
<!-- Generator: Adobe Illustrator 16.0.3, SVG Export Plug-In . SVG Version: 6.00 Build 0)  -->
<!DOCTYPE svg PUBLIC "-//W3C//DTD SVG 1.1//EN" "http://www.w3.org/Graphics/SVG/1.1/DTD/svg11.dtd">
<svg version="1.1" id="Capa_1" xmlns="http://www.w3.org/2000/svg" xmlns:xlink="http://www.w3.org/1999/xlink" x="0px" y="0px"
	 width="416.596px" height="61.825px" viewBox="0 0 416.596 61.825" enable-background="new 0 0 416.596 61.825"
	 xml:space="preserve">
<linearGradient id="SVGID_1_" gradientUnits="userSpaceOnUse" x1="57.5" y1="209.1855" x2="401.0576" y2="-196.1259">
	<stop  offset="0" style="stop-color:#F0A868"/>
	<stop  offset="1" style="stop-color:#EFCB67"/>
</linearGradient>
<path fill="url(#SVGID_1_)" d="M415.027,35.228c0,14.294-9.929,25.881-22.174,25.881H23.146c-12.246,0-22.173-11.587-22.173-25.881
	V28.04c0-14.293,9.927-25.881,22.173-25.881h369.708c12.245,0,22.174,11.588,22.174,25.881V35.228z"/>
<g>
	<path fill="#F0EDEE" d="M36.096,19.881c0,1.904-0.542,3.362-1.626,4.375c-1.083,1.013-2.648,1.519-4.694,1.519H26.5V14.21h3.631
		c1.889,0,3.354,0.498,4.398,1.495C35.573,16.702,36.096,18.094,36.096,19.881z M33.549,19.945c0-2.483-1.098-3.726-3.291-3.726
		h-1.306v7.53h1.053C32.367,23.75,33.549,22.482,33.549,19.945z"/>
	<path fill="#F0EDEE" d="M38.2,14.645c0-0.785,0.438-1.179,1.313-1.179c0.876,0,1.313,0.394,1.313,1.179
		c0,0.375-0.109,0.666-0.328,0.874c-0.219,0.209-0.547,0.313-0.985,0.313C38.638,15.832,38.2,15.436,38.2,14.645z M40.716,25.775
		h-2.413v-8.844h2.413V25.775z"/>
	<path fill="#F0EDEE" d="M45.659,25.775h-2.413V13.466h2.413V25.775z"/>
	<path fill="#F0EDEE" d="M50.604,25.775H48.19V13.466h2.413V25.775z"/>
	<path fill="#F0EDEE" d="M59.399,25.775l-0.324-1.131h-0.126c-0.259,0.411-0.625,0.729-1.1,0.953
		c-0.475,0.224-1.016,0.336-1.622,0.336c-1.039,0-1.822-0.278-2.35-0.835c-0.527-0.556-0.791-1.356-0.791-2.4v-5.767H55.5v5.165
		c0,0.639,0.113,1.117,0.34,1.437c0.227,0.318,0.588,0.479,1.084,0.479c0.675,0,1.163-0.226,1.464-0.677
		c0.3-0.451,0.45-1.198,0.45-2.242v-4.161h2.413v8.844H59.399z"/>
	<path fill="#F0EDEE" d="M71.944,25.775h-2.412V20.61c0-0.639-0.113-1.117-0.34-1.437c-0.228-0.318-0.589-0.479-1.084-0.479
		c-0.675,0-1.163,0.226-1.464,0.677s-0.45,1.198-0.45,2.242v4.161h-2.413v-8.844h1.843l0.324,1.131h0.135
		c0.27-0.427,0.64-0.75,1.111-0.969s1.009-0.328,1.61-0.328c1.028,0,1.809,0.278,2.341,0.835c0.533,0.556,0.799,1.358,0.799,2.408
		V25.775z"/>
	<path fill="#F0EDEE" d="M80.599,23.149c0,0.907-0.315,1.598-0.945,2.072s-1.572,0.712-2.828,0.712
		c-0.644,0-1.191-0.044-1.645-0.131c-0.454-0.087-0.879-0.215-1.274-0.384v-1.993c0.448,0.211,0.953,0.388,1.516,0.53
		c0.562,0.143,1.056,0.214,1.482,0.214c0.876,0,1.313-0.254,1.313-0.76c0-0.189-0.058-0.344-0.174-0.463
		c-0.116-0.118-0.316-0.253-0.602-0.403c-0.284-0.15-0.664-0.325-1.139-0.526c-0.681-0.284-1.181-0.548-1.499-0.791
		c-0.319-0.242-0.552-0.521-0.696-0.834c-0.146-0.313-0.218-0.7-0.218-1.159c0-0.785,0.305-1.394,0.914-1.823
		c0.608-0.43,1.473-0.645,2.591-0.645c1.064,0,2.101,0.232,3.108,0.696l-0.728,1.74c-0.443-0.19-0.857-0.346-1.242-0.467
		s-0.778-0.182-1.179-0.182c-0.712,0-1.067,0.192-1.067,0.577c0,0.216,0.114,0.403,0.344,0.562s0.731,0.393,1.507,0.704
		c0.69,0.279,1.197,0.54,1.519,0.783c0.322,0.242,0.56,0.521,0.712,0.838C80.522,22.333,80.599,22.711,80.599,23.149z"/>
</g>
<g>
	<g>
		<path fill="#F0EDEE" d="M36.141,43.493c0-0.443,0.022-0.887,0.067-1.326c0.044-0.439,0.122-0.862,0.234-1.267
			c0.112-0.403,0.266-0.779,0.46-1.126c0.195-0.348,0.442-0.648,0.743-0.905c0.301-0.256,0.66-0.457,1.079-0.603
			c0.419-0.146,0.91-0.219,1.473-0.219c0.08,0,0.169,0.002,0.267,0.006s0.195,0.012,0.295,0.022s0.195,0.022,0.286,0.038
			c0.091,0.015,0.172,0.033,0.244,0.054v0.983c-0.148-0.051-0.315-0.088-0.502-0.113c-0.186-0.025-0.37-0.039-0.552-0.039
			c-0.381,0-0.716,0.046-1.006,0.137c-0.29,0.092-0.541,0.219-0.753,0.385c-0.211,0.164-0.388,0.361-0.529,0.59
			s-0.258,0.481-0.346,0.759c-0.09,0.276-0.155,0.572-0.197,0.886c-0.042,0.313-0.07,0.639-0.082,0.977h0.076
			c0.084-0.152,0.187-0.295,0.308-0.428c0.12-0.134,0.261-0.248,0.422-0.343c0.161-0.096,0.342-0.171,0.543-0.226
			s0.426-0.082,0.676-0.082c0.402,0,0.766,0.063,1.092,0.187c0.326,0.125,0.603,0.308,0.831,0.55c0.229,0.24,0.405,0.536,0.53,0.885
			c0.125,0.35,0.188,0.748,0.188,1.197c0,0.482-0.065,0.916-0.196,1.301c-0.132,0.385-0.32,0.712-0.565,0.98
			c-0.245,0.27-0.542,0.475-0.889,0.619s-0.736,0.216-1.168,0.216c-0.423,0-0.82-0.083-1.19-0.247
			c-0.37-0.166-0.69-0.418-0.961-0.756c-0.271-0.338-0.485-0.764-0.642-1.275C36.22,44.797,36.141,44.192,36.141,43.493z
			 M39.156,46.616c0.254,0,0.485-0.043,0.695-0.13c0.209-0.087,0.391-0.218,0.543-0.394s0.27-0.397,0.352-0.666
			c0.083-0.27,0.124-0.588,0.124-0.955c0-0.297-0.035-0.563-0.104-0.797c-0.07-0.235-0.175-0.436-0.314-0.6
			c-0.14-0.166-0.314-0.293-0.523-0.381c-0.21-0.09-0.454-0.134-0.733-0.134c-0.283,0-0.543,0.05-0.777,0.149
			c-0.235,0.1-0.435,0.229-0.601,0.387c-0.164,0.159-0.293,0.34-0.384,0.543s-0.136,0.406-0.136,0.609
			c0,0.283,0.039,0.566,0.117,0.848s0.194,0.534,0.349,0.758c0.154,0.225,0.349,0.408,0.581,0.55S38.848,46.616,39.156,46.616z"/>
		<path fill="#F0EDEE" d="M46.989,47.588c-0.936,0-1.654-0.337-2.158-1.009h-0.076l0.025,0.26c0.034,0.33,0.051,0.624,0.051,0.883
			v2.862h-1.143V40.491h0.939l0.152,0.952h0.051c0.271-0.381,0.584-0.655,0.939-0.825s0.766-0.254,1.231-0.254
			c0.905,0,1.609,0.314,2.11,0.942c0.502,0.629,0.753,1.515,0.753,2.657c0,1.138-0.252,2.026-0.756,2.666
			C48.605,47.269,47.899,47.588,46.989,47.588z M46.799,41.323c-0.689,0-1.188,0.194-1.495,0.584c-0.307,0.389-0.464,1-0.473,1.834
			v0.223c0,0.943,0.156,1.625,0.47,2.047c0.313,0.421,0.821,0.631,1.523,0.631c0.584,0,1.04-0.236,1.368-0.711
			c0.328-0.474,0.491-1.134,0.491-1.98c0-0.85-0.163-1.501-0.491-1.951C47.864,41.548,47.399,41.323,46.799,41.323z"/>
		<path fill="#F0EDEE" d="M60.555,47.461v-4.487c0-1.101-0.473-1.65-1.416-1.65c-0.647,0-1.123,0.188-1.428,0.564
			s-0.457,0.952-0.457,1.727v3.847h-1.137v-4.487c0-0.551-0.115-0.963-0.346-1.238s-0.592-0.412-1.082-0.412
			c-0.644,0-1.114,0.196-1.413,0.59c-0.298,0.394-0.447,1.039-0.447,1.936v3.612h-1.143v-6.97h0.921l0.171,0.952h0.063
			c0.199-0.339,0.479-0.603,0.841-0.794c0.362-0.189,0.768-0.285,1.216-0.285c1.092,0,1.803,0.389,2.133,1.168h0.063
			c0.225-0.373,0.53-0.66,0.917-0.863c0.388-0.203,0.826-0.305,1.317-0.305c0.787,0,1.376,0.203,1.768,0.609
			s0.587,1.056,0.587,1.949v4.538H60.555z"/>
	</g>
</g>
<g>
	<path fill="#F0EDEE" d="M117.337,19.881c0,1.904-0.542,3.362-1.626,4.375c-1.083,1.013-2.648,1.519-4.694,1.519h-3.275V14.21h3.631
		c1.889,0,3.354,0.498,4.398,1.495C116.814,16.702,117.337,18.094,117.337,19.881z M114.79,19.945c0-2.483-1.098-3.726-3.291-3.726
		h-1.306v7.53h1.053C113.608,23.75,114.79,22.482,114.79,19.945z"/>
	<path fill="#F0EDEE" d="M119.441,14.645c0-0.785,0.438-1.179,1.313-1.179c0.876,0,1.313,0.394,1.313,1.179
		c0,0.375-0.109,0.666-0.328,0.874c-0.219,0.209-0.547,0.313-0.985,0.313C119.879,15.832,119.441,15.436,119.441,14.645z
		 M121.957,25.775h-2.413v-8.844h2.413V25.775z"/>
	<path fill="#F0EDEE" d="M132.405,25.775h-2.412V20.61c0-0.639-0.107-1.117-0.32-1.437c-0.214-0.318-0.55-0.479-1.009-0.479
		c-0.617,0-1.065,0.228-1.345,0.681s-0.419,1.2-0.419,2.238v4.161h-2.413v-8.844h1.843l0.324,1.131h0.135
		c0.237-0.405,0.58-0.724,1.028-0.953s0.963-0.344,1.543-0.344c1.323,0,2.22,0.433,2.689,1.297h0.213
		c0.237-0.411,0.587-0.73,1.049-0.957c0.461-0.227,0.981-0.34,1.563-0.34c1.001,0,1.76,0.257,2.273,0.771
		c0.515,0.514,0.771,1.338,0.771,2.472v5.767h-2.421V20.61c0-0.639-0.106-1.117-0.32-1.437c-0.213-0.318-0.55-0.479-1.008-0.479
		c-0.591,0-1.032,0.211-1.325,0.633s-0.439,1.092-0.439,2.01V25.775z"/>
	<path fill="#F0EDEE" d="M144.398,25.933c-1.424,0-2.537-0.393-3.339-1.179c-0.801-0.785-1.202-1.898-1.202-3.338
		c0-1.482,0.371-2.628,1.111-3.438c0.741-0.81,1.766-1.214,3.073-1.214c1.25,0,2.223,0.355,2.919,1.067s1.044,1.696,1.044,2.951
		v1.171h-5.703c0.026,0.686,0.229,1.221,0.609,1.605s0.912,0.577,1.598,0.577c0.532,0,1.036-0.055,1.511-0.166
		c0.475-0.11,0.971-0.287,1.487-0.53v1.867c-0.422,0.211-0.873,0.368-1.353,0.471C145.674,25.881,145.089,25.933,144.398,25.933z
		 M144.058,18.482c-0.511,0-0.912,0.162-1.202,0.486s-0.456,0.784-0.498,1.38h3.386c-0.011-0.596-0.166-1.056-0.467-1.38
		S144.569,18.482,144.058,18.482z"/>
	<path fill="#F0EDEE" d="M153.558,25.933c-2.752,0-4.129-1.511-4.129-4.532c0-1.503,0.375-2.651,1.123-3.445
		c0.749-0.794,1.822-1.19,3.22-1.19c1.023,0,1.94,0.2,2.753,0.602l-0.712,1.866c-0.38-0.152-0.733-0.278-1.06-0.376
		c-0.327-0.097-0.654-0.146-0.981-0.146c-1.255,0-1.883,0.891-1.883,2.673c0,1.73,0.628,2.595,1.883,2.595
		c0.464,0,0.895-0.062,1.29-0.186s0.791-0.317,1.187-0.581v2.064c-0.391,0.248-0.785,0.419-1.183,0.514
		C154.667,25.885,154.164,25.933,153.558,25.933z"/>
	<path fill="#F0EDEE" d="M163.232,16.765c0.326,0,0.598,0.023,0.814,0.071l-0.182,2.262c-0.195-0.052-0.433-0.079-0.712-0.079
		c-0.771,0-1.37,0.198-1.8,0.594s-0.645,0.949-0.645,1.661v4.501h-2.413v-8.844h1.827l0.356,1.487h0.118
		c0.274-0.496,0.645-0.896,1.111-1.198C162.176,16.917,162.684,16.765,163.232,16.765z"/>
	<path fill="#F0EDEE" d="M169.497,25.933c-1.424,0-2.537-0.393-3.339-1.179c-0.801-0.785-1.202-1.898-1.202-3.338
		c0-1.482,0.371-2.628,1.111-3.438c0.741-0.81,1.766-1.214,3.073-1.214c1.25,0,2.223,0.355,2.919,1.067s1.044,1.696,1.044,2.951
		v1.171H167.4c0.026,0.686,0.229,1.221,0.609,1.605s0.912,0.577,1.598,0.577c0.532,0,1.036-0.055,1.511-0.166
		c0.475-0.11,0.971-0.287,1.487-0.53v1.867c-0.422,0.211-0.873,0.368-1.353,0.471C170.772,25.881,170.188,25.933,169.497,25.933z
		 M169.156,18.482c-0.511,0-0.912,0.162-1.202,0.486s-0.456,0.784-0.498,1.38h3.386c-0.011-0.596-0.166-1.056-0.467-1.38
		S169.668,18.482,169.156,18.482z"/>
	<path fill="#F0EDEE" d="M181.236,23.149c0,0.907-0.315,1.598-0.945,2.072s-1.572,0.712-2.828,0.712
		c-0.644,0-1.191-0.044-1.645-0.131c-0.454-0.087-0.879-0.215-1.274-0.384v-1.993c0.448,0.211,0.953,0.388,1.516,0.53
		c0.562,0.143,1.056,0.214,1.482,0.214c0.876,0,1.313-0.254,1.313-0.76c0-0.189-0.058-0.344-0.174-0.463
		c-0.116-0.118-0.316-0.253-0.602-0.403c-0.284-0.15-0.664-0.325-1.139-0.526c-0.681-0.284-1.181-0.548-1.499-0.791
		c-0.319-0.242-0.552-0.521-0.696-0.834c-0.146-0.313-0.218-0.7-0.218-1.159c0-0.785,0.305-1.394,0.914-1.823
		c0.608-0.43,1.473-0.645,2.591-0.645c1.064,0,2.101,0.232,3.108,0.696l-0.728,1.74c-0.443-0.19-0.857-0.346-1.242-0.467
		s-0.778-0.182-1.179-0.182c-0.712,0-1.067,0.192-1.067,0.577c0,0.216,0.114,0.403,0.344,0.562s0.731,0.393,1.507,0.704
		c0.69,0.279,1.197,0.54,1.519,0.783c0.322,0.242,0.56,0.521,0.712,0.838C181.16,22.333,181.236,22.711,181.236,23.149z"/>
</g>
<g>
	<g>
		<path fill="#F0EDEE" d="M135.173,38.034c0.355,0,0.691,0.047,1.007,0.141c0.315,0.093,0.592,0.232,0.831,0.418
			c0.239,0.187,0.429,0.42,0.568,0.699s0.209,0.604,0.209,0.977c0,0.284-0.042,0.54-0.127,0.769c-0.084,0.229-0.2,0.435-0.349,0.619
			c-0.148,0.184-0.323,0.349-0.526,0.495c-0.203,0.146-0.424,0.277-0.66,0.396c0.245,0.131,0.485,0.277,0.72,0.438
			c0.235,0.161,0.444,0.342,0.629,0.543c0.184,0.201,0.332,0.427,0.444,0.676c0.112,0.25,0.168,0.529,0.168,0.838
			c0,0.39-0.071,0.742-0.213,1.058s-0.341,0.583-0.597,0.803s-0.563,0.39-0.92,0.508s-0.753,0.178-1.185,0.178
			c-0.465,0-0.879-0.058-1.24-0.171c-0.362-0.115-0.667-0.279-0.914-0.492c-0.248-0.214-0.437-0.475-0.565-0.784
			s-0.193-0.658-0.193-1.048c0-0.316,0.048-0.603,0.143-0.856c0.096-0.254,0.224-0.482,0.384-0.686
			c0.161-0.203,0.352-0.383,0.572-0.54c0.22-0.156,0.452-0.293,0.697-0.412c-0.207-0.131-0.401-0.273-0.584-0.429
			c-0.182-0.154-0.339-0.327-0.473-0.517c-0.133-0.191-0.239-0.401-0.317-0.632c-0.078-0.231-0.117-0.485-0.117-0.765
			c0-0.369,0.071-0.691,0.213-0.969s0.333-0.509,0.574-0.695c0.241-0.186,0.52-0.325,0.835-0.418
			C134.502,38.081,134.831,38.034,135.173,38.034z M133.396,45.106c0,0.224,0.034,0.43,0.102,0.618
			c0.068,0.188,0.174,0.35,0.318,0.482c0.144,0.134,0.325,0.237,0.545,0.312c0.221,0.074,0.482,0.111,0.787,0.111
			c0.297,0,0.558-0.037,0.784-0.111s0.416-0.18,0.568-0.317s0.267-0.304,0.343-0.499c0.076-0.194,0.114-0.41,0.114-0.646
			c0-0.221-0.041-0.42-0.124-0.598c-0.082-0.178-0.201-0.342-0.355-0.494s-0.34-0.297-0.555-0.432
			c-0.217-0.136-0.457-0.27-0.725-0.4l-0.189-0.089c-0.533,0.254-0.936,0.545-1.207,0.873
			C133.531,44.243,133.396,44.641,133.396,45.106z M135.161,38.999c-0.449,0-0.806,0.113-1.07,0.337s-0.396,0.55-0.396,0.978
			c0,0.241,0.037,0.449,0.111,0.622s0.177,0.328,0.308,0.464c0.131,0.135,0.289,0.257,0.473,0.364
			c0.185,0.108,0.384,0.213,0.601,0.314c0.203-0.093,0.395-0.194,0.574-0.305s0.336-0.235,0.47-0.374
			c0.133-0.141,0.237-0.299,0.313-0.477s0.115-0.381,0.115-0.609c0-0.428-0.134-0.754-0.4-0.978S135.626,38.999,135.161,38.999z"/>
		<path fill="#F0EDEE" d="M143.152,47.588c-0.936,0-1.654-0.337-2.158-1.009h-0.076l0.025,0.26c0.034,0.33,0.051,0.624,0.051,0.883
			v2.862h-1.143V40.491h0.939l0.152,0.952h0.051c0.271-0.381,0.584-0.655,0.939-0.825s0.766-0.254,1.231-0.254
			c0.905,0,1.609,0.314,2.11,0.942c0.502,0.629,0.753,1.515,0.753,2.657c0,1.138-0.252,2.026-0.756,2.666
			C144.769,47.269,144.063,47.588,143.152,47.588z M142.962,41.323c-0.689,0-1.188,0.194-1.495,0.584
			c-0.307,0.389-0.464,1-0.473,1.834v0.223c0,0.943,0.156,1.625,0.47,2.047c0.313,0.421,0.821,0.631,1.523,0.631
			c0.584,0,1.04-0.236,1.368-0.711c0.328-0.474,0.491-1.134,0.491-1.98c0-0.85-0.163-1.501-0.491-1.951
			C144.027,41.548,143.563,41.323,142.962,41.323z"/>
		<path fill="#F0EDEE" d="M156.718,47.461v-4.487c0-1.101-0.473-1.65-1.416-1.65c-0.647,0-1.123,0.188-1.428,0.564
			s-0.457,0.952-0.457,1.727v3.847h-1.137v-4.487c0-0.551-0.115-0.963-0.346-1.238s-0.592-0.412-1.082-0.412
			c-0.644,0-1.114,0.196-1.413,0.59c-0.298,0.394-0.447,1.039-0.447,1.936v3.612h-1.143v-6.97h0.921l0.171,0.952h0.063
			c0.199-0.339,0.479-0.603,0.841-0.794c0.362-0.189,0.768-0.285,1.216-0.285c1.092,0,1.803,0.389,2.133,1.168h0.063
			c0.225-0.373,0.53-0.66,0.917-0.863c0.388-0.203,0.826-0.305,1.317-0.305c0.787,0,1.376,0.203,1.768,0.609
			s0.587,1.056,0.587,1.949v4.538H156.718z"/>
	</g>
</g>
<g>
	<path fill="#F0EDEE" d="M226.436,19.881c0,1.904-0.542,3.362-1.626,4.375c-1.083,1.013-2.648,1.519-4.694,1.519h-3.275V14.21h3.631
		c1.889,0,3.354,0.498,4.398,1.495C225.913,16.702,226.436,18.094,226.436,19.881z M223.889,19.945c0-2.483-1.098-3.726-3.291-3.726
		h-1.306v7.53h1.053C222.707,23.75,223.889,22.482,223.889,19.945z"/>
	<path fill="#F0EDEE" d="M228.54,14.645c0-0.785,0.438-1.179,1.313-1.179c0.876,0,1.313,0.394,1.313,1.179
		c0,0.375-0.109,0.666-0.328,0.874c-0.219,0.209-0.547,0.313-0.985,0.313C228.978,15.832,228.54,15.436,228.54,14.645z
		 M231.056,25.775h-2.413v-8.844h2.413V25.775z"/>
	<path fill="#F0EDEE" d="M235.69,25.775l-3.37-8.844h2.523l1.709,5.039c0.174,0.549,0.287,1.152,0.34,1.812h0.063
		c0.031-0.596,0.15-1.2,0.355-1.812l1.701-5.039h2.523l-3.37,8.844H235.69z"/>
	<path fill="#F0EDEE" d="M246.805,25.933c-1.424,0-2.537-0.393-3.339-1.179c-0.801-0.785-1.202-1.898-1.202-3.338
		c0-1.482,0.371-2.628,1.111-3.438c0.741-0.81,1.766-1.214,3.073-1.214c1.25,0,2.223,0.355,2.919,1.067s1.044,1.696,1.044,2.951
		v1.171h-5.703c0.026,0.686,0.229,1.221,0.609,1.605s0.912,0.577,1.598,0.577c0.532,0,1.036-0.055,1.511-0.166
		c0.475-0.11,0.971-0.287,1.487-0.53v1.867c-0.422,0.211-0.873,0.368-1.353,0.471C248.08,25.881,247.495,25.933,246.805,25.933z
		 M246.464,18.482c-0.511,0-0.912,0.162-1.202,0.486s-0.456,0.784-0.498,1.38h3.386c-0.011-0.596-0.166-1.056-0.467-1.38
		S246.976,18.482,246.464,18.482z"/>
	<path fill="#F0EDEE" d="M260.536,25.775h-2.412V20.61c0-0.639-0.113-1.117-0.34-1.437c-0.228-0.318-0.589-0.479-1.084-0.479
		c-0.675,0-1.163,0.226-1.464,0.677s-0.45,1.198-0.45,2.242v4.161h-2.413v-8.844h1.843l0.324,1.131h0.135
		c0.27-0.427,0.64-0.75,1.111-0.969s1.009-0.328,1.61-0.328c1.028,0,1.809,0.278,2.341,0.835c0.533,0.556,0.799,1.358,0.799,2.408
		V25.775z"/>
	<path fill="#F0EDEE" d="M265.82,25.933c-1.038,0-1.854-0.403-2.448-1.21c-0.593-0.808-0.89-1.925-0.89-3.354
		c0-1.45,0.302-2.58,0.906-3.39c0.604-0.81,1.436-1.214,2.495-1.214c1.113,0,1.962,0.433,2.548,1.297h0.079
		c-0.122-0.659-0.183-1.247-0.183-1.764v-2.832h2.421v12.309h-1.852l-0.466-1.147h-0.104
		C267.78,25.498,266.944,25.933,265.82,25.933z M266.667,24.011c0.617,0,1.069-0.18,1.356-0.538
		c0.288-0.358,0.444-0.968,0.471-1.827v-0.262c0-0.949-0.146-1.629-0.438-2.04c-0.293-0.412-0.769-0.617-1.428-0.617
		c-0.538,0-0.956,0.228-1.254,0.684c-0.298,0.457-0.447,1.12-0.447,1.99s0.15,1.522,0.451,1.957
		C265.679,23.793,266.108,24.011,266.667,24.011z"/>
	<path fill="#F0EDEE" d="M278.209,16.765c0.326,0,0.598,0.023,0.814,0.071l-0.182,2.262c-0.195-0.052-0.433-0.079-0.712-0.079
		c-0.771,0-1.37,0.198-1.8,0.594s-0.645,0.949-0.645,1.661v4.501h-2.413v-8.844h1.827l0.356,1.487h0.118
		c0.274-0.496,0.645-0.896,1.111-1.198C277.152,16.917,277.66,16.765,278.209,16.765z"/>
	<path fill="#F0EDEE" d="M284.474,25.933c-1.424,0-2.537-0.393-3.339-1.179c-0.801-0.785-1.202-1.898-1.202-3.338
		c0-1.482,0.371-2.628,1.111-3.438c0.741-0.81,1.766-1.214,3.073-1.214c1.25,0,2.223,0.355,2.919,1.067s1.044,1.696,1.044,2.951
		v1.171h-5.703c0.026,0.686,0.229,1.221,0.609,1.605s0.912,0.577,1.598,0.577c0.532,0,1.036-0.055,1.511-0.166
		c0.475-0.11,0.971-0.287,1.487-0.53v1.867c-0.422,0.211-0.873,0.368-1.353,0.471C285.749,25.881,285.164,25.933,284.474,25.933z
		 M284.133,18.482c-0.511,0-0.912,0.162-1.202,0.486s-0.456,0.784-0.498,1.38h3.386c-0.011-0.596-0.166-1.056-0.467-1.38
		S284.645,18.482,284.133,18.482z"/>
	<path fill="#F0EDEE" d="M296.212,23.149c0,0.907-0.315,1.598-0.945,2.072s-1.572,0.712-2.828,0.712
		c-0.644,0-1.191-0.044-1.645-0.131c-0.454-0.087-0.879-0.215-1.274-0.384v-1.993c0.448,0.211,0.953,0.388,1.516,0.53
		c0.562,0.143,1.056,0.214,1.482,0.214c0.876,0,1.313-0.254,1.313-0.76c0-0.189-0.058-0.344-0.174-0.463
		c-0.116-0.118-0.316-0.253-0.602-0.403c-0.284-0.15-0.664-0.325-1.139-0.526c-0.681-0.284-1.181-0.548-1.499-0.791
		c-0.319-0.242-0.552-0.521-0.696-0.834c-0.146-0.313-0.218-0.7-0.218-1.159c0-0.785,0.305-1.394,0.914-1.823
		c0.608-0.43,1.473-0.645,2.591-0.645c1.064,0,2.101,0.232,3.108,0.696l-0.728,1.74c-0.443-0.19-0.857-0.346-1.242-0.467
		s-0.778-0.182-1.179-0.182c-0.712,0-1.067,0.192-1.067,0.577c0,0.216,0.114,0.403,0.344,0.562s0.731,0.393,1.507,0.704
		c0.69,0.279,1.197,0.54,1.519,0.783c0.322,0.242,0.56,0.521,0.712,0.838C296.136,22.333,296.212,22.711,296.212,23.149z"/>
</g>
<g>
	<g>
		<path fill="#F0EDEE" d="M247.707,45.379h-1.353v2.082h-1.117v-2.082h-4.284V44.37l4.208-6.24h1.193v6.195h1.353V45.379z
			 M245.237,44.325v-2.26c0-0.236,0.003-0.485,0.01-0.746c0.006-0.26,0.014-0.514,0.022-0.762c0.008-0.247,0.018-0.479,0.028-0.695
			c0.011-0.215,0.018-0.395,0.022-0.539h-0.058c-0.029,0.084-0.066,0.179-0.111,0.282c-0.044,0.104-0.093,0.208-0.146,0.312
			s-0.107,0.204-0.162,0.301c-0.055,0.098-0.105,0.18-0.152,0.248l-2.609,3.859H245.237z"/>
		<path fill="#F0EDEE" d="M252.372,47.588c-0.936,0-1.654-0.337-2.158-1.009h-0.076l0.025,0.26c0.034,0.33,0.051,0.624,0.051,0.883
			v2.862h-1.143V40.491h0.939l0.152,0.952h0.051c0.271-0.381,0.584-0.655,0.939-0.825s0.766-0.254,1.231-0.254
			c0.905,0,1.609,0.314,2.11,0.942c0.502,0.629,0.753,1.515,0.753,2.657c0,1.138-0.252,2.026-0.756,2.666
			C253.988,47.269,253.282,47.588,252.372,47.588z M252.182,41.323c-0.689,0-1.188,0.194-1.495,0.584
			c-0.307,0.389-0.464,1-0.473,1.834v0.223c0,0.943,0.156,1.625,0.47,2.047c0.313,0.421,0.821,0.631,1.523,0.631
			c0.584,0,1.04-0.236,1.368-0.711c0.328-0.474,0.491-1.134,0.491-1.98c0-0.85-0.163-1.501-0.491-1.951
			C253.247,41.548,252.782,41.323,252.182,41.323z"/>
		<path fill="#F0EDEE" d="M265.938,47.461v-4.487c0-1.101-0.473-1.65-1.416-1.65c-0.647,0-1.123,0.188-1.428,0.564
			s-0.457,0.952-0.457,1.727v3.847H261.5v-4.487c0-0.551-0.115-0.963-0.346-1.238s-0.592-0.412-1.082-0.412
			c-0.644,0-1.114,0.196-1.413,0.59c-0.298,0.394-0.447,1.039-0.447,1.936v3.612h-1.143v-6.97h0.921l0.171,0.952h0.063
			c0.199-0.339,0.479-0.603,0.841-0.794c0.362-0.189,0.768-0.285,1.216-0.285c1.092,0,1.803,0.389,2.133,1.168h0.063
			c0.225-0.373,0.53-0.66,0.917-0.863c0.388-0.203,0.826-0.305,1.317-0.305c0.787,0,1.376,0.203,1.768,0.609
			s0.587,1.056,0.587,1.949v4.538H265.938z"/>
	</g>
</g>
<g>
	<path fill="#F0EDEE" d="M331.285,19.881c0,1.904-0.543,3.362-1.627,4.375c-1.082,1.013-2.648,1.519-4.693,1.519h-3.275V14.21h3.631
		c1.889,0,3.354,0.498,4.398,1.495C330.762,16.702,331.285,18.094,331.285,19.881z M328.738,19.945c0-2.483-1.098-3.726-3.291-3.726
		h-1.307v7.53h1.053C327.557,23.75,328.738,22.482,328.738,19.945z"/>
	<path fill="#F0EDEE" d="M333.389,14.645c0-0.785,0.438-1.179,1.313-1.179c0.877,0,1.314,0.394,1.314,1.179
		c0,0.375-0.109,0.666-0.328,0.874c-0.219,0.209-0.547,0.313-0.986,0.313C333.826,15.832,333.389,15.436,333.389,14.645z
		 M335.904,25.775h-2.412v-8.844h2.412V25.775z"/>
	<path fill="#F0EDEE" d="M344.605,23.149c0,0.907-0.316,1.598-0.945,2.072c-0.631,0.475-1.572,0.712-2.828,0.712
		c-0.645,0-1.191-0.044-1.645-0.131c-0.455-0.087-0.879-0.215-1.275-0.384v-1.993c0.449,0.211,0.953,0.388,1.516,0.53
		s1.057,0.214,1.482,0.214c0.877,0,1.314-0.254,1.314-0.76c0-0.189-0.059-0.344-0.174-0.463c-0.117-0.118-0.316-0.253-0.602-0.403
		s-0.664-0.325-1.139-0.526c-0.682-0.284-1.182-0.548-1.5-0.791c-0.318-0.242-0.551-0.521-0.695-0.834
		c-0.146-0.313-0.219-0.7-0.219-1.159c0-0.785,0.305-1.394,0.914-1.823s1.473-0.645,2.592-0.645c1.064,0,2.1,0.232,3.107,0.696
		l-0.727,1.74c-0.443-0.19-0.857-0.346-1.242-0.467s-0.779-0.182-1.18-0.182c-0.711,0-1.066,0.192-1.066,0.577
		c0,0.216,0.113,0.403,0.344,0.562c0.229,0.158,0.73,0.393,1.506,0.704c0.691,0.279,1.197,0.54,1.52,0.783
		c0.322,0.242,0.559,0.521,0.711,0.838C344.529,22.333,344.605,22.711,344.605,23.149z"/>
	<path fill="#F0EDEE" d="M352.658,23.149c0,0.907-0.316,1.598-0.945,2.072c-0.631,0.475-1.572,0.712-2.828,0.712
		c-0.645,0-1.191-0.044-1.645-0.131c-0.455-0.087-0.879-0.215-1.275-0.384v-1.993c0.449,0.211,0.953,0.388,1.516,0.53
		s1.057,0.214,1.482,0.214c0.877,0,1.314-0.254,1.314-0.76c0-0.189-0.059-0.344-0.174-0.463c-0.117-0.118-0.316-0.253-0.602-0.403
		s-0.664-0.325-1.139-0.526c-0.682-0.284-1.182-0.548-1.5-0.791c-0.318-0.242-0.551-0.521-0.695-0.834
		c-0.146-0.313-0.219-0.7-0.219-1.159c0-0.785,0.305-1.394,0.914-1.823s1.473-0.645,2.592-0.645c1.064,0,2.1,0.232,3.107,0.696
		l-0.727,1.74c-0.443-0.19-0.857-0.346-1.242-0.467s-0.779-0.182-1.18-0.182c-0.711,0-1.066,0.192-1.066,0.577
		c0,0.216,0.113,0.403,0.344,0.562c0.229,0.158,0.73,0.393,1.506,0.704c0.691,0.279,1.197,0.54,1.52,0.783
		c0.322,0.242,0.559,0.521,0.711,0.838C352.582,22.333,352.658,22.711,352.658,23.149z"/>
	<path fill="#F0EDEE" d="M360.156,25.775l-0.467-1.202h-0.063c-0.406,0.512-0.824,0.866-1.254,1.063
		c-0.43,0.198-0.99,0.297-1.682,0.297c-0.848,0-1.518-0.242-2.004-0.728c-0.488-0.485-0.732-1.176-0.732-2.072
		c0-0.939,0.328-1.631,0.984-2.077c0.656-0.445,1.646-0.691,2.971-0.739l1.535-0.048v-0.388c0-0.896-0.459-1.345-1.377-1.345
		c-0.707,0-1.537,0.214-2.492,0.641l-0.799-1.629c1.018-0.533,2.146-0.799,3.387-0.799c1.186,0,2.096,0.258,2.729,0.775
		c0.633,0.517,0.949,1.302,0.949,2.356v5.894H360.156z M359.445,21.677l-0.934,0.032c-0.701,0.021-1.225,0.147-1.566,0.379
		c-0.344,0.232-0.514,0.586-0.514,1.061c0,0.68,0.391,1.021,1.17,1.021c0.559,0,1.006-0.161,1.342-0.482
		c0.334-0.322,0.502-0.749,0.502-1.282V21.677z"/>
	<path fill="#F0EDEE" d="M369.246,16.765c1.045,0,1.861,0.407,2.451,1.222c0.592,0.815,0.887,1.932,0.887,3.351
		c0,1.461-0.305,2.592-0.914,3.394s-1.438,1.202-2.486,1.202c-1.039,0-1.855-0.377-2.445-1.131h-0.166l-0.404,0.973h-1.842V13.466
		h2.412v2.863c0,0.364-0.031,0.947-0.096,1.749h0.096C367.303,17.203,368.139,16.765,369.246,16.765z M368.471,18.695
		c-0.596,0-1.031,0.184-1.305,0.55c-0.275,0.367-0.418,0.972-0.428,1.815v0.262c0,0.949,0.141,1.629,0.424,2.04
		c0.281,0.412,0.729,0.617,1.34,0.617c0.496,0,0.891-0.228,1.184-0.684s0.438-1.12,0.438-1.99s-0.146-1.522-0.441-1.957
		C369.385,18.913,368.982,18.695,368.471,18.695z"/>
	<path fill="#F0EDEE" d="M378.303,24.011c0.422,0,0.93-0.093,1.52-0.277v1.796c-0.602,0.269-1.34,0.403-2.215,0.403
		c-0.965,0-1.668-0.244-2.107-0.731c-0.441-0.488-0.662-1.22-0.662-2.195v-4.264h-1.154v-1.021l1.33-0.807l0.695-1.867h1.543v1.883
		h2.475v1.812h-2.475v4.264c0,0.343,0.096,0.596,0.289,0.76C377.732,23.929,377.986,24.011,378.303,24.011z"/>
	<path fill="#F0EDEE" d="M385.613,25.933c-1.424,0-2.537-0.393-3.34-1.179c-0.801-0.785-1.201-1.898-1.201-3.338
		c0-1.482,0.371-2.628,1.111-3.438s1.766-1.214,3.072-1.214c1.25,0,2.223,0.355,2.92,1.067c0.695,0.712,1.043,1.696,1.043,2.951
		v1.171h-5.703c0.027,0.686,0.23,1.221,0.609,1.605c0.381,0.385,0.912,0.577,1.598,0.577c0.533,0,1.037-0.055,1.512-0.166
		c0.475-0.11,0.971-0.287,1.486-0.53v1.867c-0.422,0.211-0.873,0.368-1.352,0.471C386.889,25.881,386.303,25.933,385.613,25.933z
		 M385.271,18.482c-0.51,0-0.912,0.162-1.201,0.486c-0.291,0.324-0.457,0.784-0.498,1.38h3.385c-0.01-0.596-0.166-1.056-0.467-1.38
		S385.783,18.482,385.271,18.482z"/>
</g>
<g>
	<g>
		<path fill="#F0EDEE" d="M337.376,47.461h-1.117v-5.796c0-0.182,0.001-0.376,0.003-0.584c0.002-0.207,0.006-0.413,0.013-0.618
			c0.006-0.206,0.013-0.402,0.019-0.591c0.007-0.188,0.012-0.354,0.017-0.498c-0.072,0.076-0.136,0.142-0.191,0.197
			c-0.055,0.055-0.11,0.107-0.168,0.158c-0.057,0.051-0.117,0.104-0.181,0.162c-0.063,0.057-0.14,0.123-0.229,0.199l-0.939,0.769
			l-0.609-0.78l2.431-1.898h0.953V47.461z"/>
		<path fill="#F0EDEE" d="M346.421,47.461h-5.789v-0.99l2.222-2.419c0.317-0.342,0.601-0.655,0.851-0.939
			c0.25-0.283,0.462-0.561,0.638-0.831s0.311-0.543,0.403-0.815c0.093-0.273,0.14-0.57,0.14-0.893c0-0.249-0.036-0.469-0.108-0.66
			c-0.071-0.189-0.174-0.352-0.308-0.485c-0.133-0.133-0.291-0.233-0.473-0.302c-0.182-0.067-0.385-0.102-0.609-0.102
			c-0.402,0-0.765,0.082-1.089,0.245c-0.323,0.163-0.631,0.371-0.924,0.625l-0.646-0.755c0.169-0.152,0.351-0.296,0.545-0.429
			c0.195-0.134,0.404-0.249,0.629-0.347c0.225-0.097,0.461-0.174,0.711-0.231c0.25-0.057,0.512-0.085,0.787-0.085
			c0.406,0,0.773,0.057,1.102,0.171s0.605,0.278,0.834,0.492s0.405,0.474,0.53,0.78s0.188,0.652,0.188,1.038
			c0,0.36-0.056,0.702-0.168,1.028s-0.267,0.646-0.464,0.962c-0.196,0.315-0.432,0.632-0.704,0.948
			c-0.273,0.318-0.568,0.648-0.886,0.99l-1.783,1.898v0.051h4.373V47.461z"/>
		<path fill="#F0EDEE" d="M352.591,47.461l-0.223-0.99h-0.051c-0.347,0.437-0.692,0.731-1.037,0.886s-0.78,0.231-1.305,0.231
			c-0.686,0-1.223-0.18-1.612-0.54c-0.39-0.359-0.584-0.867-0.584-1.523c0-1.413,1.115-2.153,3.345-2.221l1.182-0.045v-0.412
			c0-0.529-0.115-0.92-0.344-1.172s-0.594-0.377-1.098-0.377c-0.368,0-0.716,0.055-1.044,0.164c-0.328,0.11-0.636,0.233-0.924,0.369
			l-0.349-0.857c0.351-0.186,0.733-0.332,1.148-0.438c0.415-0.106,0.825-0.159,1.231-0.159c0.842,0,1.469,0.187,1.879,0.559
			s0.616,0.965,0.616,1.777v4.748H352.591z M350.235,46.667c0.64,0,1.142-0.172,1.508-0.517s0.549-0.835,0.549-1.47v-0.629
			l-1.027,0.045c-0.801,0.029-1.383,0.156-1.749,0.381s-0.55,0.578-0.55,1.061c0,0.363,0.111,0.643,0.334,0.838
			C349.521,46.57,349.834,46.667,350.235,46.667z"/>
		<path fill="#F0EDEE" d="M364.448,47.461v-4.487c0-1.101-0.473-1.65-1.416-1.65c-0.647,0-1.123,0.188-1.428,0.564
			s-0.457,0.952-0.457,1.727v3.847h-1.137v-4.487c0-0.551-0.115-0.963-0.346-1.238s-0.592-0.412-1.082-0.412
			c-0.644,0-1.114,0.196-1.413,0.59c-0.298,0.394-0.447,1.039-0.447,1.936v3.612h-1.143v-6.97h0.921l0.171,0.952h0.063
			c0.199-0.339,0.479-0.603,0.841-0.794c0.362-0.189,0.768-0.285,1.216-0.285c1.092,0,1.803,0.389,2.133,1.168h0.063
			c0.225-0.373,0.53-0.66,0.917-0.863c0.388-0.203,0.826-0.305,1.317-0.305c0.787,0,1.376,0.203,1.768,0.609
			s0.587,1.056,0.587,1.949v4.538H364.448z"/>
	</g>
</g>
</svg>
