<?xml version="1.0" encoding="utf-8"?>
<!-- Generator: Adobe Illustrator 21.0.2, SVG Export Plug-In . SVG Version: 6.00 Build 0)  -->
<svg version="1.1" id="Capa_1" xmlns="http://www.w3.org/2000/svg" xmlns:xlink="http://www.w3.org/1999/xlink" x="0px" y="0px"
	 viewBox="0 0 407 377" style="enable-background:new 0 0 407 377;" xml:space="preserve">
<style type="text/css">
	.st0{fill:#333333;}
	.st1{fill:url(#SVGID_1_);}
	.st2{fill:url(#SVGID_4_);}
	.st3{fill:#F9F9FF;}
	.st4{fill:url(#SVGID_5_);}
	.st5{fill:url(#SVGID_8_);}
	.st6{fill:url(#SVGID_11_);}
</style>
<g>
	<g>
		<path class="st0" d="M62.2-130.6l-1.1-3.5h-5.4l-1.1,3.5h-3.4l5.2-14.8h3.8l5.2,14.8H62.2z M60.4-136.7c-1-3.2-1.5-5-1.7-5.4
			s-0.2-0.7-0.3-1c-0.2,0.9-0.9,3-1.9,6.4H60.4z"/>
		<path class="st0" d="M70.7-130.4c-1.3,0-2.4-0.5-3.1-1.5c-0.8-1-1.1-2.5-1.1-4.3c0-1.9,0.4-3.3,1.2-4.3s1.8-1.5,3.2-1.5
			c1.4,0,2.5,0.6,3.3,1.7h0.1c-0.2-0.8-0.2-1.6-0.2-2.3v-3.6H77v15.7h-2.4l-0.6-1.5h-0.1C73.2-130.9,72.2-130.4,70.7-130.4z
			 M71.8-132.8c0.8,0,1.4-0.2,1.7-0.7s0.6-1.2,0.6-2.3v-0.3c0-1.2-0.2-2.1-0.6-2.6c-0.4-0.5-1-0.8-1.8-0.8c-0.7,0-1.2,0.3-1.6,0.9
			s-0.6,1.4-0.6,2.5s0.2,1.9,0.6,2.5C70.6-133.1,71.1-132.8,71.8-132.8z"/>
		<path class="st0" d="M86.6-142.1c0.4,0,0.8,0,1,0.1l-0.2,2.9c-0.2-0.1-0.6-0.1-0.9-0.1c-1,0-1.7,0.3-2.3,0.8
			c-0.5,0.5-0.8,1.2-0.8,2.1v5.7h-3.1v-11.3h2.3L83-140h0.2c0.3-0.6,0.8-1.1,1.4-1.5C85.2-141.9,85.9-142.1,86.6-142.1z"/>
		<path class="st0" d="M89.5-144.8c0-1,0.6-1.5,1.7-1.5s1.7,0.5,1.7,1.5c0,0.5-0.1,0.8-0.4,1.1c-0.3,0.3-0.7,0.4-1.3,0.4
			C90.1-143.3,89.5-143.8,89.5-144.8z M92.7-130.6h-3.1v-11.3h3.1V-130.6z"/>
		<path class="st0" d="M103.1-130.6l-0.6-1.5h-0.1c-0.5,0.7-1.1,1.1-1.6,1.4c-0.5,0.3-1.3,0.4-2.1,0.4c-1.1,0-1.9-0.3-2.6-0.9
			s-0.9-1.5-0.9-2.6c0-1.2,0.4-2.1,1.3-2.6s2.1-0.9,3.8-0.9l2-0.1v-0.5c0-1.1-0.6-1.7-1.8-1.7c-0.9,0-2,0.3-3.2,0.8l-1-2.1
			c1.3-0.7,2.7-1,4.3-1c1.5,0,2.7,0.3,3.5,1c0.8,0.7,1.2,1.7,1.2,3v7.5H103.1z M102.2-135.8l-1.2,0c-0.9,0-1.6,0.2-2,0.5
			c-0.4,0.3-0.7,0.7-0.7,1.4c0,0.9,0.5,1.3,1.5,1.3c0.7,0,1.3-0.2,1.7-0.6c0.4-0.4,0.6-1,0.6-1.6V-135.8z M98.8-143.1v-0.3
			c1.2-1.3,1.9-2.4,2.4-3h3.5v0.2c-0.4,0.3-0.9,0.9-1.8,1.6c-0.8,0.7-1.5,1.2-2,1.5H98.8z"/>
		<path class="st0" d="M118.9-130.6h-3.1v-6.6c0-0.8-0.1-1.4-0.4-1.8c-0.3-0.4-0.8-0.6-1.4-0.6c-0.9,0-1.5,0.3-1.9,0.9
			c-0.4,0.6-0.6,1.5-0.6,2.9v5.3h-3.1v-11.3h2.4l0.4,1.4h0.2c0.3-0.5,0.8-1,1.4-1.2c0.6-0.3,1.3-0.4,2.1-0.4c1.3,0,2.3,0.4,3,1.1
			s1,1.7,1,3.1V-130.6z"/>
	</g>
</g>
<g>
	<g>
		<path class="st0" d="M59.7-101.4h-1.5v-10.8h-3.8v-1.3h9.1v1.3h-3.8V-101.4z"/>
		<path class="st0" d="M68.4-101.2c-1.4,0-2.4-0.4-3.2-1.2c-0.8-0.8-1.2-2-1.2-3.4c0-1.5,0.4-2.6,1.1-3.5s1.7-1.3,2.9-1.3
			c1.1,0,2.1,0.4,2.7,1.1c0.7,0.7,1,1.7,1,3v0.9h-6.3c0,1,0.3,1.8,0.8,2.4c0.5,0.5,1.2,0.8,2.1,0.8c0.5,0,1,0,1.4-0.1
			c0.4-0.1,1-0.3,1.5-0.5v1.3c-0.5,0.2-1,0.4-1.4,0.5S69-101.2,68.4-101.2z M68-109.5c-0.7,0-1.3,0.2-1.7,0.7s-0.7,1.1-0.7,1.9h4.6
			c0-0.9-0.2-1.5-0.6-1.9S68.7-109.5,68-109.5z"/>
		<path class="st0" d="M79.7-101.4l-0.3-1.3h-0.1c-0.5,0.6-0.9,1-1.4,1.2c-0.5,0.2-1,0.3-1.7,0.3c-0.9,0-1.6-0.2-2.1-0.7
			c-0.5-0.5-0.8-1.1-0.8-2c0-1.9,1.5-2.8,4.4-2.9l1.5-0.1v-0.5c0-0.7-0.1-1.2-0.4-1.5c-0.3-0.3-0.8-0.5-1.4-0.5
			c-0.5,0-0.9,0.1-1.4,0.2c-0.4,0.1-0.8,0.3-1.2,0.5l-0.5-1.1c0.5-0.2,1-0.4,1.5-0.6s1.1-0.2,1.6-0.2c1.1,0,1.9,0.2,2.5,0.7
			s0.8,1.3,0.8,2.3v6.2H79.7z M76.7-102.4c0.8,0,1.5-0.2,2-0.7c0.5-0.5,0.7-1.1,0.7-1.9v-0.8l-1.3,0.1c-1,0-1.8,0.2-2.3,0.5
			c-0.5,0.3-0.7,0.8-0.7,1.4c0,0.5,0.1,0.8,0.4,1.1S76.1-102.4,76.7-102.4z"/>
		<path class="st0" d="M87.3-101.2c-1.3,0-2.3-0.4-3.1-1.2c-0.7-0.8-1.1-2-1.1-3.5c0-1.5,0.4-2.7,1.1-3.5c0.7-0.8,1.8-1.2,3.2-1.2
			c0.4,0,0.9,0,1.3,0.1c0.4,0.1,0.8,0.2,1.1,0.4l-0.5,1.2c-0.8-0.3-1.4-0.4-2-0.4c-0.9,0-1.6,0.3-2,0.9c-0.4,0.6-0.7,1.4-0.7,2.6
			c0,1.1,0.2,1.9,0.7,2.5c0.4,0.6,1.1,0.9,1.9,0.9c0.8,0,1.6-0.2,2.4-0.5v1.3C89-101.4,88.3-101.2,87.3-101.2z"/>
		<path class="st0" d="M98-101.4v-5.8c0-0.7-0.2-1.3-0.5-1.7c-0.3-0.4-0.8-0.5-1.6-0.5c-0.9,0-1.6,0.3-2,0.8
			c-0.4,0.5-0.6,1.4-0.6,2.6v4.7h-1.5v-12.9h1.5v3.8c0,0.5,0,0.9-0.1,1.3h0.1c0.3-0.4,0.7-0.8,1.2-1c0.5-0.2,1.1-0.4,1.7-0.4
			c1.1,0,1.9,0.3,2.5,0.8c0.6,0.5,0.8,1.4,0.8,2.5v5.9H98z"/>
		<path class="st0" d="M106.2-101.2c-1.4,0-2.4-0.4-3.2-1.2c-0.8-0.8-1.2-2-1.2-3.4c0-1.5,0.4-2.6,1.1-3.5s1.7-1.3,2.9-1.3
			c1.1,0,2.1,0.4,2.7,1.1c0.7,0.7,1,1.7,1,3v0.9h-6.3c0,1,0.3,1.8,0.8,2.4c0.5,0.5,1.2,0.8,2.1,0.8c0.5,0,1,0,1.4-0.1
			c0.4-0.1,1-0.3,1.5-0.5v1.3c-0.5,0.2-1,0.4-1.4,0.5S106.8-101.2,106.2-101.2z M105.9-109.5c-0.7,0-1.3,0.2-1.7,0.7
			s-0.7,1.1-0.7,1.9h4.6c0-0.9-0.2-1.5-0.6-1.9S106.6-109.5,105.9-109.5z"/>
		<path class="st0" d="M116.2-110.7c0.4,0,0.8,0,1.1,0.1l-0.2,1.4c-0.3-0.1-0.7-0.1-1-0.1c-0.5,0-0.9,0.1-1.3,0.4
			c-0.4,0.3-0.7,0.6-1,1.1c-0.2,0.5-0.3,1-0.3,1.6v4.9H112v-9.1h1.2l0.2,1.7h0.1c0.3-0.6,0.8-1.1,1.2-1.4
			C115.1-110.5,115.7-110.7,116.2-110.7z"/>
	</g>
</g>
<linearGradient id="SVGID_1_" gradientUnits="userSpaceOnUse" x1="25.248" y1="-177.9872" x2="230.4536" y2="-387.9184">
	<stop  offset="0" style="stop-color:#F0A868"/>
	<stop  offset="1" style="stop-color:#EFCB67"/>
</linearGradient>
<circle class="st1" cx="85.9" cy="-240" r="77.9"/>
<g>
	<defs>
		<circle id="SVGID_2_" cx="85.9" cy="-240.1" r="70.9"/>
	</defs>
	<clipPath id="SVGID_3_">
		<use xlink:href="#SVGID_2_"  style="overflow:visible;"/>
	</clipPath>
	<g transform="matrix(1 0 0 1 0 0)" style="clip-path:url(#SVGID_3_);">
		
			<image style="overflow:visible;" width="570" height="390" xlink:href="teacher.jpg"  transform="matrix(0.4769 0 0 0.4769 14 -311)">
		</image>
	</g>
</g>
<linearGradient id="SVGID_4_" gradientUnits="userSpaceOnUse" x1="280.8484" y1="-155.8175" x2="438.7035" y2="-414.8524">
	<stop  offset="0" style="stop-color:#F0A868"/>
	<stop  offset="0.7004" style="stop-color:#EFC167"/>
	<stop  offset="1" style="stop-color:#EFCB67"/>
</linearGradient>
<circle class="st2" cx="332.1" cy="-240" r="77.9"/>
<g>
	<path class="st3" d="M318.8-220.5h-12.7v-34.7c0-0.7,0-1.6,0-2.6c0-1,0-2,0.1-3.1c0-1.1,0.1-2.2,0.1-3.3c0-1.1,0.1-2.1,0.1-3
		c-0.1,0.2-0.4,0.4-0.7,0.7c-0.3,0.3-0.7,0.7-1.1,1.1c-0.4,0.4-0.8,0.8-1.3,1.2c-0.4,0.4-0.9,0.8-1.3,1.1l-6.9,5.5l-6.2-7.6
		l19.3-15.4h10.4V-220.5z"/>
	<path class="st3" d="M375.2-220.5H335v-8.8l14.1-15.2c1.8-1.9,3.4-3.7,4.8-5.3c1.4-1.6,2.7-3.2,3.7-4.7c1-1.5,1.8-3.1,2.4-4.7
		c0.6-1.6,0.9-3.3,0.9-5.1c0-2-0.6-3.6-1.8-4.7c-1.2-1.1-2.8-1.7-4.9-1.7c-2.2,0-4.2,0.5-6.2,1.6c-2,1.1-4.1,2.6-6.3,4.6l-6.9-8.2
		c1.2-1.1,2.5-2.2,3.9-3.2c1.3-1,2.8-1.9,4.4-2.7c1.6-0.8,3.4-1.4,5.3-1.9c1.9-0.5,4.1-0.7,6.5-0.7c2.9,0,5.4,0.4,7.7,1.2
		c2.3,0.8,4.2,1.9,5.8,3.4c1.6,1.5,2.8,3.2,3.7,5.3c0.9,2.1,1.3,4.4,1.3,7c0,2.4-0.4,4.6-1.2,6.7c-0.8,2.1-1.9,4.3-3.4,6.3
		c-1.4,2.1-3.1,4.1-4.9,6.2c-1.9,2-3.9,4.1-6,6.2l-7.2,7.3v0.6h24.4V-220.5z"/>
</g>
<g>
	<g>
		<path class="st3" d="M285.8-197.4l-0.5-1.8h-2.7l-0.5,1.8h-1.7l2.6-7.4h1.9l2.6,7.4H285.8z M284.9-200.4c-0.5-1.6-0.8-2.5-0.8-2.7
			c-0.1-0.2-0.1-0.4-0.1-0.5c-0.1,0.4-0.4,1.5-1,3.2H284.9z"/>
		<path class="st3" d="M289.8-197.4h-1.5v-7.9h1.5V-197.4z"/>
		<path class="st3" d="M295.4-197.4l-0.2-0.7h-0.1c-0.2,0.3-0.4,0.5-0.7,0.6c-0.3,0.1-0.6,0.2-1,0.2c-0.7,0-1.2-0.2-1.5-0.5
			c-0.3-0.4-0.5-0.9-0.5-1.5v-3.7h1.5v3.3c0,0.4,0.1,0.7,0.2,0.9c0.1,0.2,0.4,0.3,0.7,0.3c0.4,0,0.7-0.1,0.9-0.4s0.3-0.8,0.3-1.4
			v-2.7h1.5v5.7H295.4z"/>
		<path class="st3" d="M303.3-197.4h-1.5v-3.3c0-0.4-0.1-0.7-0.2-0.9c-0.1-0.2-0.4-0.3-0.6-0.3c-0.4,0-0.7,0.1-0.9,0.4
			s-0.3,0.8-0.3,1.4v2.7h-1.5v-5.7h1.2l0.2,0.7h0.1c0.2-0.3,0.4-0.5,0.7-0.6c0.3-0.1,0.6-0.2,1-0.2c0.8,0,1.4,0.3,1.7,0.8h0.1
			c0.2-0.3,0.4-0.5,0.7-0.6c0.3-0.1,0.6-0.2,1-0.2c0.6,0,1.1,0.2,1.5,0.5c0.3,0.3,0.5,0.9,0.5,1.6v3.7h-1.5v-3.3
			c0-0.4-0.1-0.7-0.2-0.9c-0.1-0.2-0.4-0.3-0.6-0.3c-0.4,0-0.7,0.1-0.8,0.4c-0.2,0.3-0.3,0.7-0.3,1.3V-197.4z"/>
		<path class="st3" d="M313.6-197.4h-1.5v-3.3c0-0.4-0.1-0.7-0.2-0.9c-0.1-0.2-0.4-0.3-0.7-0.3c-0.4,0-0.7,0.1-0.9,0.4
			s-0.3,0.8-0.3,1.4v2.7h-1.5v-5.7h1.2l0.2,0.7h0.1c0.2-0.3,0.4-0.5,0.7-0.6s0.6-0.2,1-0.2c0.7,0,1.2,0.2,1.5,0.5
			c0.3,0.4,0.5,0.9,0.5,1.5V-197.4z"/>
		<path class="st3" d="M320.4-200.2c0,0.9-0.2,1.6-0.7,2.2c-0.5,0.5-1.2,0.8-2,0.8c-0.5,0-1-0.1-1.4-0.4c-0.4-0.2-0.7-0.6-1-1
			c-0.2-0.4-0.3-1-0.3-1.6c0-0.9,0.2-1.6,0.7-2.2c0.5-0.5,1.2-0.8,2-0.8c0.5,0,1,0.1,1.4,0.4c0.4,0.2,0.7,0.6,1,1
			S320.4-200.8,320.4-200.2z M316.5-200.2c0,0.6,0.1,1,0.3,1.3c0.2,0.3,0.5,0.4,0.9,0.4c0.4,0,0.7-0.1,0.9-0.4s0.3-0.7,0.3-1.3
			c0-0.6-0.1-1-0.3-1.3c-0.2-0.3-0.5-0.4-0.9-0.4c-0.4,0-0.7,0.1-0.9,0.4C316.5-201.2,316.5-200.8,316.5-200.2z"/>
		<path class="st3" d="M325.6-199c0,0.6-0.2,1-0.6,1.3c-0.4,0.3-1,0.5-1.8,0.5c-0.4,0-0.8,0-1.1-0.1s-0.6-0.1-0.8-0.2v-1.3
			c0.3,0.1,0.6,0.2,1,0.3c0.4,0.1,0.7,0.1,0.9,0.1c0.6,0,0.8-0.2,0.8-0.5c0-0.1,0-0.2-0.1-0.3c-0.1-0.1-0.2-0.2-0.4-0.3
			c-0.2-0.1-0.4-0.2-0.7-0.3c-0.4-0.2-0.8-0.4-1-0.5c-0.2-0.2-0.4-0.3-0.4-0.5c-0.1-0.2-0.1-0.4-0.1-0.7c0-0.5,0.2-0.9,0.6-1.2
			c0.4-0.3,0.9-0.4,1.7-0.4c0.7,0,1.3,0.1,2,0.4l-0.5,1.1c-0.3-0.1-0.5-0.2-0.8-0.3s-0.5-0.1-0.8-0.1c-0.5,0-0.7,0.1-0.7,0.4
			c0,0.1,0.1,0.3,0.2,0.4c0.1,0.1,0.5,0.3,1,0.5c0.4,0.2,0.8,0.3,1,0.5c0.2,0.2,0.4,0.3,0.5,0.5C325.5-199.6,325.6-199.3,325.6-199z
			"/>
		<path class="st3" d="M333.1-197.4l-0.3-0.8h0c-0.3,0.3-0.5,0.6-0.8,0.7c-0.3,0.1-0.6,0.2-1.1,0.2c-0.5,0-1-0.2-1.3-0.5
			c-0.3-0.3-0.5-0.8-0.5-1.3c0-0.6,0.2-1,0.6-1.3s1.1-0.4,1.9-0.5l1,0v-0.2c0-0.6-0.3-0.9-0.9-0.9c-0.5,0-1,0.1-1.6,0.4l-0.5-1
			c0.7-0.3,1.4-0.5,2.2-0.5c0.8,0,1.3,0.2,1.7,0.5c0.4,0.3,0.6,0.8,0.6,1.5v3.8H333.1z M332.6-200l-0.6,0c-0.4,0-0.8,0.1-1,0.2
			c-0.2,0.1-0.3,0.4-0.3,0.7c0,0.4,0.2,0.7,0.7,0.7c0.4,0,0.6-0.1,0.9-0.3c0.2-0.2,0.3-0.5,0.3-0.8V-200z"/>
		<path class="st3" d="M338.8-197.3c-0.7,0-1.2-0.2-1.6-0.7h-0.1c0.1,0.5,0.1,0.7,0.1,0.8v2.3h-1.5v-8.1h1.3l0.2,0.7h0.1
			c0.4-0.6,0.9-0.8,1.6-0.8c0.7,0,1.2,0.3,1.6,0.8c0.4,0.5,0.6,1.2,0.6,2.1c0,0.6-0.1,1.1-0.3,1.6c-0.2,0.4-0.4,0.8-0.8,1
			S339.3-197.3,338.8-197.3z M338.4-201.9c-0.4,0-0.7,0.1-0.8,0.4c-0.2,0.2-0.3,0.6-0.3,1.2v0.2c0,0.6,0.1,1,0.3,1.3
			c0.2,0.3,0.5,0.4,0.9,0.4c0.7,0,1-0.6,1-1.7c0-0.6-0.1-1-0.3-1.3S338.8-201.9,338.4-201.9z"/>
		<path class="st3" d="M346.3-197.4l-0.2-0.7H346c-0.2,0.3-0.4,0.5-0.7,0.6c-0.3,0.1-0.6,0.2-1,0.2c-0.7,0-1.2-0.2-1.5-0.5
			c-0.3-0.4-0.5-0.9-0.5-1.5v-3.7h1.5v3.3c0,0.4,0.1,0.7,0.2,0.9c0.1,0.2,0.4,0.3,0.7,0.3c0.4,0,0.7-0.1,0.9-0.4s0.3-0.8,0.3-1.4
			v-2.7h1.5v5.7H346.3z"/>
		<path class="st3" d="M354.3-197.4h-1.5v-3.3c0-0.4-0.1-0.7-0.2-0.9c-0.1-0.2-0.4-0.3-0.7-0.3c-0.4,0-0.7,0.1-0.9,0.4
			s-0.3,0.8-0.3,1.4v2.7h-1.5v-5.7h1.2l0.2,0.7h0.1c0.2-0.3,0.4-0.5,0.7-0.6s0.6-0.2,1-0.2c0.7,0,1.2,0.2,1.5,0.5
			c0.3,0.4,0.5,0.9,0.5,1.5V-197.4z"/>
		<path class="st3" d="M358.3-198.5c0.3,0,0.6-0.1,1-0.2v1.1c-0.4,0.2-0.9,0.3-1.4,0.3c-0.6,0-1.1-0.2-1.3-0.5
			c-0.3-0.3-0.4-0.8-0.4-1.4v-2.7h-0.7v-0.7l0.9-0.5l0.4-1.2h1v1.2h1.6v1.2h-1.6v2.7c0,0.2,0.1,0.4,0.2,0.5S358.1-198.5,358.3-198.5
			z"/>
		<path class="st3" d="M364-197.4l-0.3-0.8h0c-0.3,0.3-0.5,0.6-0.8,0.7c-0.3,0.1-0.6,0.2-1.1,0.2c-0.5,0-1-0.2-1.3-0.5
			c-0.3-0.3-0.5-0.8-0.5-1.3c0-0.6,0.2-1,0.6-1.3s1.1-0.4,1.9-0.5l1,0v-0.2c0-0.6-0.3-0.9-0.9-0.9c-0.5,0-1,0.1-1.6,0.4l-0.5-1
			c0.7-0.3,1.4-0.5,2.2-0.5c0.8,0,1.3,0.2,1.7,0.5c0.4,0.3,0.6,0.8,0.6,1.5v3.8H364z M363.5-200l-0.6,0c-0.4,0-0.8,0.1-1,0.2
			c-0.2,0.1-0.3,0.4-0.3,0.7c0,0.4,0.2,0.7,0.7,0.7c0.4,0,0.6-0.1,0.9-0.3c0.2-0.2,0.3-0.5,0.3-0.8V-200z"/>
		<path class="st3" d="M368.5-197.3c-0.7,0-1.2-0.3-1.6-0.8c-0.4-0.5-0.6-1.2-0.6-2.1c0-0.9,0.2-1.7,0.6-2.2
			c0.4-0.5,0.9-0.8,1.6-0.8c0.7,0,1.3,0.3,1.6,0.8h0.1c-0.1-0.4-0.1-0.8-0.1-1.1v-1.8h1.5v7.9h-1.2l-0.3-0.7h-0.1
			C369.7-197.5,369.2-197.3,368.5-197.3z M369-198.5c0.4,0,0.7-0.1,0.9-0.3s0.3-0.6,0.3-1.2v-0.2c0-0.6-0.1-1-0.3-1.3
			c-0.2-0.3-0.5-0.4-0.9-0.4c-0.3,0-0.6,0.1-0.8,0.4s-0.3,0.7-0.3,1.3c0,0.6,0.1,1,0.3,1.3C368.4-198.6,368.6-198.5,369-198.5z"/>
		<path class="st3" d="M378.4-200.2c0,0.9-0.2,1.6-0.7,2.2c-0.5,0.5-1.2,0.8-2,0.8c-0.5,0-1-0.1-1.4-0.4c-0.4-0.2-0.7-0.6-1-1
			c-0.2-0.4-0.3-1-0.3-1.6c0-0.9,0.2-1.6,0.7-2.2c0.5-0.5,1.2-0.8,2-0.8c0.5,0,1,0.1,1.4,0.4c0.4,0.2,0.7,0.6,1,1
			S378.4-200.8,378.4-200.2z M374.4-200.2c0,0.6,0.1,1,0.3,1.3c0.2,0.3,0.5,0.4,0.9,0.4c0.4,0,0.7-0.1,0.9-0.4s0.3-0.7,0.3-1.3
			c0-0.6-0.1-1-0.3-1.3c-0.2-0.3-0.5-0.4-0.9-0.4c-0.4,0-0.7,0.1-0.9,0.4C374.5-201.2,374.4-200.8,374.4-200.2z"/>
		<path class="st3" d="M383.6-199c0,0.6-0.2,1-0.6,1.3c-0.4,0.3-1,0.5-1.8,0.5c-0.4,0-0.8,0-1.1-0.1s-0.6-0.1-0.8-0.2v-1.3
			c0.3,0.1,0.6,0.2,1,0.3c0.4,0.1,0.7,0.1,0.9,0.1c0.6,0,0.8-0.2,0.8-0.5c0-0.1,0-0.2-0.1-0.3c-0.1-0.1-0.2-0.2-0.4-0.3
			c-0.2-0.1-0.4-0.2-0.7-0.3c-0.4-0.2-0.8-0.4-1-0.5c-0.2-0.2-0.4-0.3-0.4-0.5c-0.1-0.2-0.1-0.4-0.1-0.7c0-0.5,0.2-0.9,0.6-1.2
			c0.4-0.3,0.9-0.4,1.7-0.4c0.7,0,1.3,0.1,2,0.4l-0.5,1.1c-0.3-0.1-0.5-0.2-0.8-0.3s-0.5-0.1-0.8-0.1c-0.5,0-0.7,0.1-0.7,0.4
			c0,0.1,0.1,0.3,0.2,0.4c0.1,0.1,0.5,0.3,1,0.5c0.4,0.2,0.8,0.3,1,0.5c0.2,0.2,0.4,0.3,0.5,0.5C383.5-199.6,383.6-199.3,383.6-199z
			"/>
	</g>
</g>
<g>
	<g>
		<path class="st0" d="M129.2,83.4l-0.9-3h-4.6l-0.9,3H120l4.4-12.6h3.3l4.4,12.6H129.2z M127.7,78.2c-0.8-2.7-1.3-4.2-1.4-4.6
			s-0.2-0.6-0.2-0.8c-0.2,0.7-0.7,2.5-1.6,5.4H127.7z"/>
		<path class="st0" d="M136.5,83.6c-1.1,0-2-0.4-2.7-1.3c-0.6-0.9-1-2.1-1-3.6c0-1.6,0.3-2.8,1-3.7c0.7-0.9,1.6-1.3,2.7-1.3
			c1.2,0,2.1,0.5,2.8,1.4h0.1c-0.1-0.7-0.2-1.4-0.2-1.9v-3.1h2.6v13.3h-2l-0.5-1.2h-0.1C138.6,83.1,137.7,83.6,136.5,83.6z
			 M137.4,81.5c0.7,0,1.2-0.2,1.5-0.6c0.3-0.4,0.5-1,0.5-2v-0.3c0-1-0.2-1.8-0.5-2.2c-0.3-0.4-0.8-0.7-1.5-0.7c-0.6,0-1,0.2-1.4,0.7
			c-0.3,0.5-0.5,1.2-0.5,2.2c0,0.9,0.2,1.7,0.5,2.1C136.3,81.3,136.8,81.5,137.4,81.5z"/>
		<path class="st0" d="M150.7,83.4l-0.5-1.3h-0.1c-0.4,0.6-0.9,0.9-1.4,1.2c-0.5,0.2-1.1,0.3-1.8,0.3c-0.9,0-1.6-0.3-2.2-0.8
			c-0.5-0.5-0.8-1.3-0.8-2.2c0-1,0.4-1.8,1.1-2.3c0.7-0.5,1.8-0.8,3.2-0.8l1.7-0.1V77c0-1-0.5-1.5-1.5-1.5c-0.8,0-1.7,0.2-2.7,0.7
			l-0.9-1.8c1.1-0.6,2.3-0.9,3.7-0.9c1.3,0,2.3,0.3,3,0.8c0.7,0.6,1,1.4,1,2.6v6.4H150.7z M149.9,79l-1,0c-0.8,0-1.3,0.2-1.7,0.4
			c-0.4,0.3-0.6,0.6-0.6,1.1c0,0.7,0.4,1.1,1.3,1.1c0.6,0,1.1-0.2,1.5-0.5c0.4-0.3,0.5-0.8,0.5-1.4V79z"/>
		<path class="st0" d="M163.8,83.4h-2.6v-5.6c0-0.7-0.1-1.2-0.3-1.6c-0.2-0.3-0.6-0.5-1.1-0.5c-0.7,0-1.2,0.2-1.5,0.7
			c-0.3,0.5-0.5,1.3-0.5,2.4v4.5h-2.6v-9.6h2l0.4,1.2h0.1c0.3-0.4,0.6-0.8,1.1-1c0.5-0.2,1-0.4,1.7-0.4c1.4,0,2.4,0.5,2.9,1.4h0.2
			c0.3-0.4,0.6-0.8,1.1-1c0.5-0.2,1.1-0.4,1.7-0.4c1.1,0,1.9,0.3,2.5,0.8c0.6,0.6,0.8,1.5,0.8,2.7v6.3h-2.6v-5.6
			c0-0.7-0.1-1.2-0.3-1.6c-0.2-0.3-0.6-0.5-1.1-0.5c-0.6,0-1.1,0.2-1.4,0.7c-0.3,0.5-0.5,1.2-0.5,2.2V83.4z"/>
	</g>
</g>
<g>
	<g>
		<path class="st0" d="M125.7,107.9h-5.2l2.2-10.2h5.2l-0.2,1.1h-3.9l-0.7,3.2h3.6l-0.2,1.1h-3.7l-0.8,3.6h3.9L125.7,107.9z"/>
		<path class="st0" d="M129,107.9h-1.3l2.3-10.8h1.3L129,107.9z"/>
		<path class="st0" d="M138.2,108.1c-0.9,0-1.6-0.2-2.1-0.7c-0.5-0.5-0.7-1.2-0.7-2.1c0-0.9,0.2-1.8,0.5-2.6
			c0.3-0.8,0.8-1.4,1.4-1.8s1.3-0.7,2.1-0.7c0.7,0,1.3,0.1,1.9,0.4l-0.4,1c-0.5-0.2-1-0.4-1.5-0.4c-0.5,0-1,0.2-1.4,0.5
			c-0.4,0.4-0.7,0.8-1,1.5c-0.2,0.6-0.3,1.3-0.3,2c0,0.6,0.1,1,0.4,1.3c0.3,0.3,0.7,0.5,1.2,0.5c0.3,0,0.7,0,1-0.1
			c0.3-0.1,0.6-0.2,0.9-0.3v1.1C139.6,107.9,138.9,108.1,138.2,108.1z"/>
		<path class="st0" d="M148.5,103.1c0,0.9-0.2,1.7-0.5,2.5s-0.8,1.4-1.4,1.8s-1.2,0.6-2,0.6c-0.9,0-1.6-0.3-2.1-0.8
			c-0.5-0.5-0.8-1.2-0.8-2.1c0-0.9,0.2-1.7,0.5-2.5c0.3-0.8,0.8-1.4,1.4-1.8s1.2-0.6,1.9-0.6c0.9,0,1.6,0.3,2.1,0.8
			C148.3,101.5,148.5,102.2,148.5,103.1z M147.2,103c0-0.5-0.1-1-0.4-1.3c-0.3-0.3-0.7-0.5-1.1-0.5c-0.5,0-0.9,0.2-1.3,0.5
			c-0.4,0.3-0.7,0.8-0.9,1.4c-0.2,0.6-0.3,1.3-0.3,2c0,0.6,0.1,1.1,0.4,1.4c0.3,0.3,0.7,0.5,1.2,0.5c0.5,0,0.9-0.2,1.3-0.5
			c0.4-0.3,0.7-0.8,0.9-1.4C147.1,104.5,147.2,103.8,147.2,103z"/>
		<path class="st0" d="M154.6,100.2c0.5,0,0.9,0.1,1.2,0.4c0.3,0.3,0.5,0.7,0.5,1.3h0.1c0.8-1.1,1.7-1.7,2.6-1.7
			c0.6,0,1.1,0.2,1.4,0.5c0.3,0.3,0.5,0.8,0.5,1.4c0,0.4-0.1,0.8-0.2,1.3l-1,4.7h-1.3l1-4.8c0.1-0.4,0.1-0.8,0.1-1
			c0-0.3-0.1-0.5-0.2-0.7c-0.2-0.2-0.4-0.3-0.7-0.3c-0.4,0-0.7,0.1-1.1,0.4s-0.7,0.6-0.9,1.1c-0.3,0.5-0.5,1.1-0.6,1.7l-0.7,3.5H154
			l1-4.8c0.1-0.4,0.1-0.8,0.1-0.9c0-0.7-0.3-1-0.9-1c-0.4,0-0.8,0.1-1.1,0.4c-0.4,0.3-0.7,0.7-1,1.2s-0.5,1.1-0.6,1.8l-0.7,3.3h-1.3
			l1.6-7.7h1l-0.2,1.4h0.1c0.3-0.4,0.6-0.7,0.8-0.9s0.5-0.3,0.8-0.5C154,100.2,154.3,100.2,154.6,100.2z"/>
		<path class="st0" d="M167.2,100.2c0.7,0,1.2,0.2,1.5,0.7c0.4,0.5,0.5,1.1,0.5,1.9c0,1-0.2,1.9-0.5,2.7c-0.3,0.8-0.8,1.5-1.3,1.9
			c-0.6,0.5-1.2,0.7-1.9,0.7c-0.9,0-1.5-0.4-2-1.3h-0.1c-0.1,0.6-0.1,1.1-0.2,1.3l-0.7,3.3h-1.2l2.3-11.1h1l-0.2,1.4h0.1
			c0.4-0.5,0.9-0.9,1.3-1.2C166.3,100.3,166.7,100.2,167.2,100.2z M166.8,101.2c-0.4,0-0.9,0.2-1.3,0.6c-0.4,0.4-0.8,1-1.1,1.6
			s-0.4,1.3-0.4,2c0,0.5,0.1,0.9,0.4,1.1s0.6,0.4,1.1,0.4c0.5,0,0.9-0.2,1.3-0.6c0.4-0.4,0.7-0.9,0.9-1.6c0.2-0.7,0.3-1.4,0.3-2.1
			C168,101.7,167.6,101.2,166.8,101.2z"/>
		<path class="st0" d="M172.7,108.1c-0.6,0-1.1-0.2-1.5-0.7c-0.4-0.5-0.6-1.1-0.6-1.9c0-1,0.2-1.8,0.5-2.7s0.8-1.5,1.4-1.9
			c0.6-0.5,1.2-0.7,1.9-0.7c0.4,0,0.8,0.1,1.1,0.3c0.3,0.2,0.6,0.6,0.8,1h0.1l0.5-1.2h1l-1.6,7.7h-1l0.2-1.4h-0.1
			C174.5,107.6,173.6,108.1,172.7,108.1z M173.1,107c0.4,0,0.9-0.2,1.3-0.6c0.4-0.4,0.8-1,1.1-1.6s0.4-1.4,0.4-2.1
			c0-0.5-0.1-0.8-0.4-1.1c-0.3-0.3-0.6-0.4-1-0.4c-0.5,0-0.9,0.2-1.3,0.6s-0.7,0.9-0.9,1.6c-0.2,0.7-0.3,1.4-0.3,2.1
			c0,0.5,0.1,0.9,0.3,1.2S172.7,107,173.1,107z"/>
		<path class="st0" d="M184.4,107.9h-1.3l1-4.8c0.1-0.5,0.1-0.8,0.1-1c0-0.3-0.1-0.5-0.2-0.7c-0.2-0.2-0.4-0.3-0.8-0.3
			c-0.4,0-0.8,0.1-1.2,0.4c-0.4,0.3-0.7,0.7-1,1.2c-0.3,0.5-0.5,1.1-0.7,1.8l-0.7,3.3h-1.3l1.6-7.7h1l-0.2,1.4h0.1
			c0.3-0.4,0.6-0.7,0.8-0.9s0.5-0.4,0.8-0.5c0.3-0.1,0.6-0.2,0.9-0.2c0.6,0,1.1,0.2,1.4,0.5c0.3,0.3,0.5,0.8,0.5,1.4
			c0,0.4-0.1,0.8-0.2,1.3L184.4,107.9z"/>
		<path class="st0" d="M187,100.3h1.3l0.5,3.8c0.1,0.3,0.1,0.8,0.1,1.4s0.1,1.1,0.1,1.5h0c0.1-0.3,0.3-0.7,0.5-1.2
			c0.2-0.5,0.4-0.9,0.6-1.2l2.2-4.2h1.3l-4.9,8.9c-0.4,0.8-0.8,1.3-1.3,1.7c-0.4,0.3-1,0.5-1.6,0.5c-0.4,0-0.7,0-1-0.1v-1
			c0.3,0.1,0.6,0.1,0.9,0.1c0.4,0,0.7-0.1,1-0.4c0.3-0.2,0.5-0.6,0.8-1l0.5-0.9L187,100.3z"/>
		<path class="st0" d="M196.4,108.1c-0.9,0-1.5-0.3-2-0.8c-0.5-0.5-0.7-1.2-0.7-2.1c0-0.9,0.2-1.7,0.5-2.5c0.3-0.8,0.8-1.4,1.4-1.9
			c0.6-0.5,1.2-0.7,1.9-0.7c0.7,0,1.3,0.2,1.6,0.5c0.4,0.3,0.6,0.8,0.6,1.3c0,0.8-0.4,1.5-1.2,2c-0.8,0.5-1.9,0.7-3.3,0.7H195l0,0.5
			c0,0.6,0.1,1,0.4,1.4c0.3,0.3,0.7,0.5,1.3,0.5c0.4,0,0.7-0.1,1-0.2c0.3-0.1,0.7-0.2,1.1-0.4v1.1c-0.5,0.2-0.9,0.4-1.2,0.4
			C197.2,108,196.8,108.1,196.4,108.1z M197.4,101.2c-0.5,0-0.9,0.2-1.4,0.7s-0.7,1-0.9,1.8h0.1c1,0,1.8-0.1,2.4-0.4
			c0.6-0.3,0.8-0.7,0.8-1.2c0-0.2-0.1-0.4-0.3-0.6C198,101.3,197.8,101.2,197.4,101.2z"/>
		<path class="st0" d="M205.4,100.2c0.3,0,0.6,0,0.8,0.1l-0.3,1.1c-0.3-0.1-0.5-0.1-0.7-0.1c-0.4,0-0.8,0.1-1.2,0.4
			c-0.4,0.3-0.7,0.7-1,1.1c-0.3,0.5-0.5,1-0.6,1.6l-0.7,3.5h-1.3l1.6-7.7h1l-0.2,1.4h0.1c0.3-0.4,0.6-0.8,0.8-1
			c0.2-0.2,0.4-0.3,0.7-0.4C204.8,100.2,205.1,100.2,205.4,100.2z"/>
		<path class="st0" d="M207.4,107.9h-1.3l1.6-7.7h1.3L207.4,107.9z M208.1,98.4c0-0.3,0.1-0.5,0.2-0.7s0.4-0.3,0.6-0.3
			c0.4,0,0.7,0.2,0.7,0.6c0,0.3-0.1,0.5-0.2,0.7c-0.2,0.2-0.4,0.3-0.6,0.3c-0.2,0-0.4-0.1-0.5-0.2C208.2,98.7,208.1,98.6,208.1,98.4
			z"/>
		<path class="st0" d="M214.6,105.7c0,0.7-0.3,1.3-0.8,1.7c-0.5,0.4-1.2,0.6-2.2,0.6c-0.8,0-1.5-0.2-2.1-0.5v-1.2
			c0.3,0.2,0.6,0.3,1,0.4c0.4,0.1,0.7,0.2,1.1,0.2c0.6,0,1-0.1,1.3-0.3c0.3-0.2,0.4-0.5,0.4-0.9c0-0.3-0.1-0.5-0.2-0.7
			s-0.5-0.4-1-0.7c-0.6-0.3-1-0.7-1.3-1c-0.2-0.3-0.4-0.7-0.4-1.2c0-0.7,0.2-1.2,0.7-1.6c0.5-0.4,1.1-0.6,1.9-0.6
			c0.8,0,1.6,0.2,2.3,0.5l-0.4,1c-0.2-0.1-0.5-0.2-0.8-0.3c-0.3-0.1-0.7-0.1-1.1-0.1c-0.4,0-0.7,0.1-1,0.3c-0.2,0.2-0.4,0.4-0.4,0.8
			c0,0.3,0.1,0.5,0.3,0.7c0.2,0.2,0.5,0.4,1,0.7c0.5,0.3,0.9,0.6,1.1,0.8c0.2,0.2,0.3,0.4,0.5,0.6S214.6,105.4,214.6,105.7z"/>
		<path class="st0" d="M221,100.2c0.5,0,0.9,0.1,1.2,0.4c0.3,0.3,0.5,0.7,0.5,1.3h0.1c0.8-1.1,1.7-1.7,2.6-1.7
			c0.6,0,1.1,0.2,1.4,0.5c0.3,0.3,0.5,0.8,0.5,1.4c0,0.4-0.1,0.8-0.2,1.3l-1,4.7h-1.3l1-4.8c0.1-0.4,0.1-0.8,0.1-1
			c0-0.3-0.1-0.5-0.2-0.7c-0.2-0.2-0.4-0.3-0.7-0.3c-0.4,0-0.7,0.1-1.1,0.4c-0.4,0.3-0.7,0.6-0.9,1.1c-0.3,0.5-0.5,1.1-0.6,1.7
			l-0.7,3.5h-1.3l1-4.8c0.1-0.4,0.1-0.8,0.1-0.9c0-0.7-0.3-1-0.9-1c-0.4,0-0.8,0.1-1.1,0.4c-0.4,0.3-0.7,0.7-1,1.2s-0.5,1.1-0.6,1.8
			l-0.7,3.3H216l1.6-7.7h1l-0.2,1.4h0.1c0.3-0.4,0.6-0.7,0.8-0.9c0.2-0.2,0.5-0.3,0.8-0.5C220.4,100.2,220.7,100.2,221,100.2z"/>
		<path class="st0" d="M231.6,108.1c-0.9,0-1.5-0.3-2-0.8c-0.5-0.5-0.7-1.2-0.7-2.1c0-0.9,0.2-1.7,0.5-2.5c0.3-0.8,0.8-1.4,1.4-1.9
			c0.6-0.5,1.2-0.7,1.9-0.7c0.7,0,1.3,0.2,1.6,0.5c0.4,0.3,0.6,0.8,0.6,1.3c0,0.8-0.4,1.5-1.2,2s-1.9,0.7-3.3,0.7h-0.2l0,0.5
			c0,0.6,0.1,1,0.4,1.4s0.7,0.5,1.3,0.5c0.4,0,0.7-0.1,1-0.2c0.3-0.1,0.7-0.2,1.1-0.4v1.1c-0.5,0.2-0.9,0.4-1.2,0.4
			S232,108.1,231.6,108.1z M232.6,101.2c-0.5,0-0.9,0.2-1.4,0.7s-0.7,1-0.9,1.8h0.1c1,0,1.8-0.1,2.4-0.4c0.6-0.3,0.8-0.7,0.8-1.2
			c0-0.2-0.1-0.4-0.2-0.6C233.2,101.3,232.9,101.2,232.6,101.2z"/>
		<path class="st0" d="M242.4,108.1c-0.9,0-1.5-0.3-2-0.8c-0.5-0.5-0.7-1.2-0.7-2.1c0-0.9,0.2-1.7,0.5-2.5c0.3-0.8,0.8-1.4,1.4-1.9
			c0.6-0.5,1.2-0.7,1.9-0.7c0.7,0,1.3,0.2,1.6,0.5c0.4,0.3,0.6,0.8,0.6,1.3c0,0.8-0.4,1.5-1.2,2s-1.9,0.7-3.3,0.7h-0.2l0,0.5
			c0,0.6,0.1,1,0.4,1.4s0.7,0.5,1.3,0.5c0.4,0,0.7-0.1,1-0.2c0.3-0.1,0.7-0.2,1.1-0.4v1.1c-0.5,0.2-0.9,0.4-1.2,0.4
			S242.8,108.1,242.4,108.1z M243.4,101.2c-0.5,0-0.9,0.2-1.4,0.7s-0.7,1-0.9,1.8h0.1c1,0,1.8-0.1,2.4-0.4c0.6-0.3,0.8-0.7,0.8-1.2
			c0-0.2-0.1-0.4-0.2-0.6C244,101.3,243.7,101.2,243.4,101.2z M243,99.1c0.2-0.3,0.5-0.6,0.8-1c0.3-0.4,0.6-0.8,0.8-1.1h1.4v0.1
			c-0.2,0.3-0.6,0.6-1,1.1c-0.5,0.5-0.9,0.8-1.2,1.1H243V99.1z"/>
		<path class="st0" d="M251.2,105.7c0,0.7-0.3,1.3-0.8,1.7c-0.5,0.4-1.2,0.6-2.2,0.6c-0.8,0-1.5-0.2-2.1-0.5v-1.2
			c0.3,0.2,0.6,0.3,1,0.4c0.4,0.1,0.7,0.2,1.1,0.2c0.6,0,1-0.1,1.3-0.3c0.3-0.2,0.4-0.5,0.4-0.9c0-0.3-0.1-0.5-0.2-0.7
			s-0.5-0.4-1-0.7c-0.6-0.3-1-0.7-1.3-1c-0.2-0.3-0.4-0.7-0.4-1.2c0-0.7,0.2-1.2,0.7-1.6c0.5-0.4,1.1-0.6,1.9-0.6
			c0.8,0,1.6,0.2,2.3,0.5l-0.4,1c-0.2-0.1-0.5-0.2-0.8-0.3c-0.3-0.1-0.7-0.1-1.1-0.1c-0.4,0-0.7,0.1-1,0.3c-0.2,0.2-0.4,0.4-0.4,0.8
			c0,0.3,0.1,0.5,0.3,0.7c0.2,0.2,0.5,0.4,1,0.7c0.5,0.3,0.9,0.6,1.1,0.8c0.2,0.2,0.3,0.4,0.5,0.6S251.2,105.4,251.2,105.7z"/>
		<path class="st0" d="M258.7,108.1c-0.6,0-1.1-0.2-1.5-0.7c-0.4-0.5-0.6-1.1-0.6-1.9c0-1,0.2-1.9,0.5-2.7c0.3-0.8,0.8-1.5,1.3-1.9
			c0.6-0.5,1.2-0.7,1.9-0.7c0.9,0,1.5,0.4,1.9,1.3h0.1c0.1-0.8,0.2-1.4,0.3-1.9l0.5-2.5h1.2l-2.3,10.8h-1l0.2-1.4h-0.1
			c-0.4,0.6-0.9,1-1.3,1.2C259.6,108,259.1,108.1,258.7,108.1z M259.1,107c0.4,0,0.9-0.2,1.3-0.7c0.4-0.4,0.8-1,1.1-1.6
			c0.3-0.7,0.4-1.3,0.4-2c0-0.5-0.1-0.9-0.4-1.1c-0.2-0.3-0.6-0.4-1.1-0.4c-0.5,0-0.9,0.2-1.3,0.6c-0.4,0.4-0.7,0.9-0.9,1.6
			c-0.2,0.7-0.3,1.4-0.3,2.1C257.9,106.5,258.3,107,259.1,107z"/>
		<path class="st0" d="M267.7,108.1c-0.9,0-1.5-0.3-2-0.8c-0.5-0.5-0.7-1.2-0.7-2.1c0-0.9,0.2-1.7,0.5-2.5c0.3-0.8,0.8-1.4,1.4-1.9
			c0.6-0.5,1.2-0.7,1.9-0.7c0.7,0,1.3,0.2,1.6,0.5c0.4,0.3,0.6,0.8,0.6,1.3c0,0.8-0.4,1.5-1.2,2s-1.9,0.7-3.3,0.7h-0.2l0,0.5
			c0,0.6,0.1,1,0.4,1.4s0.7,0.5,1.3,0.5c0.4,0,0.7-0.1,1-0.2c0.3-0.1,0.7-0.2,1.1-0.4v1.1c-0.5,0.2-0.9,0.4-1.2,0.4
			S268.1,108.1,267.7,108.1z M268.6,101.2c-0.5,0-0.9,0.2-1.4,0.7s-0.7,1-0.9,1.8h0.1c1,0,1.8-0.1,2.4-0.4c0.6-0.3,0.8-0.7,0.8-1.2
			c0-0.2-0.1-0.4-0.2-0.6C269.3,101.3,269,101.2,268.6,101.2z"/>
		<path class="st0" d="M276.7,107.9h-1.3l2.3-10.8h1.3L276.7,107.9z"/>
		<path class="st0" d="M286.1,103.1c0,0.9-0.2,1.7-0.5,2.5c-0.3,0.8-0.8,1.4-1.4,1.8s-1.2,0.6-2,0.6c-0.9,0-1.6-0.3-2.1-0.8
			c-0.5-0.5-0.8-1.2-0.8-2.1c0-0.9,0.2-1.7,0.5-2.5c0.3-0.8,0.8-1.4,1.4-1.8c0.6-0.4,1.2-0.6,1.9-0.6c0.9,0,1.6,0.3,2.1,0.8
			S286.1,102.2,286.1,103.1z M284.8,103c0-0.5-0.1-1-0.4-1.3c-0.3-0.3-0.7-0.5-1.1-0.5c-0.5,0-0.9,0.2-1.3,0.5
			c-0.4,0.3-0.7,0.8-0.9,1.4c-0.2,0.6-0.3,1.3-0.3,2c0,0.6,0.1,1.1,0.4,1.4c0.3,0.3,0.7,0.5,1.2,0.5c0.5,0,0.9-0.2,1.3-0.5
			c0.4-0.3,0.7-0.8,0.9-1.4C284.7,104.5,284.8,103.8,284.8,103z"/>
		<path class="st0" d="M295.9,100.2c0.5,0,0.9,0.1,1.2,0.4c0.3,0.3,0.5,0.7,0.5,1.3h0.1c0.8-1.1,1.7-1.7,2.6-1.7
			c0.6,0,1.1,0.2,1.4,0.5c0.3,0.3,0.5,0.8,0.5,1.4c0,0.4-0.1,0.8-0.2,1.3l-1,4.7h-1.3l1-4.8c0.1-0.4,0.1-0.8,0.1-1
			c0-0.3-0.1-0.5-0.2-0.7c-0.2-0.2-0.4-0.3-0.7-0.3c-0.4,0-0.7,0.1-1.1,0.4c-0.4,0.3-0.7,0.6-0.9,1.1c-0.3,0.5-0.5,1.1-0.6,1.7
			l-0.7,3.5h-1.3l1-4.8c0.1-0.4,0.1-0.8,0.1-0.9c0-0.7-0.3-1-0.9-1c-0.4,0-0.8,0.1-1.1,0.4c-0.4,0.3-0.7,0.7-1,1.2s-0.5,1.1-0.6,1.8
			l-0.7,3.3h-1.3l1.6-7.7h1l-0.2,1.4h0.1c0.3-0.4,0.6-0.7,0.8-0.9c0.2-0.2,0.5-0.3,0.8-0.5C295.3,100.2,295.6,100.2,295.9,100.2z"/>
		<path class="st0" d="M304.6,107.9h-1.3l1.6-7.7h1.3L304.6,107.9z M305.3,98.4c0-0.3,0.1-0.5,0.2-0.7s0.4-0.3,0.6-0.3
			c0.4,0,0.7,0.2,0.7,0.6c0,0.3-0.1,0.5-0.2,0.7c-0.2,0.2-0.4,0.3-0.6,0.3c-0.2,0-0.4-0.1-0.5-0.2C305.4,98.7,305.3,98.6,305.3,98.4
			z"/>
		<path class="st0" d="M308.3,107.9H307l2.3-10.8h1.3L308.3,107.9z"/>
		<path class="st0" d="M311.9,107.9h-1.3l2.3-10.8h1.3L311.9,107.9z"/>
		<path class="st0" d="M321.3,103.1c0,0.9-0.2,1.7-0.5,2.5c-0.3,0.8-0.8,1.4-1.4,1.8s-1.2,0.6-2,0.6c-0.9,0-1.6-0.3-2.1-0.8
			c-0.5-0.5-0.8-1.2-0.8-2.1c0-0.9,0.2-1.7,0.5-2.5c0.3-0.8,0.8-1.4,1.4-1.8c0.6-0.4,1.2-0.6,1.9-0.6c0.9,0,1.6,0.3,2.1,0.8
			S321.3,102.2,321.3,103.1z M320.1,103c0-0.5-0.1-1-0.4-1.3c-0.3-0.3-0.7-0.5-1.1-0.5c-0.5,0-0.9,0.2-1.3,0.5
			c-0.4,0.3-0.7,0.8-0.9,1.4c-0.2,0.6-0.3,1.3-0.3,2c0,0.6,0.1,1.1,0.4,1.4c0.3,0.3,0.7,0.5,1.2,0.5c0.5,0,0.9-0.2,1.3-0.5
			c0.4-0.3,0.7-0.8,0.9-1.4C320,104.5,320.1,103.8,320.1,103z"/>
		<path class="st0" d="M327.3,100.2c0.3,0,0.6,0,0.8,0.1l-0.3,1.1c-0.3-0.1-0.5-0.1-0.7-0.1c-0.4,0-0.8,0.1-1.2,0.4
			c-0.4,0.3-0.7,0.7-1,1.1c-0.3,0.5-0.5,1-0.6,1.6l-0.7,3.5h-1.3l1.6-7.7h1l-0.2,1.4h0.1c0.3-0.4,0.6-0.8,0.8-1
			c0.2-0.2,0.4-0.3,0.7-0.4C326.8,100.2,327,100.2,327.3,100.2z"/>
		<path class="st0" d="M329.9,106.3l0.1,0.2c-0.5,1-1.1,2.1-1.9,3.3h-1c0.4-1,0.9-2.1,1.4-3.5H329.9z"/>
		<path class="st0" d="M122.7,125.2c-0.6,0-1.1-0.2-1.5-0.7c-0.4-0.5-0.6-1.1-0.6-1.9c0-1,0.2-1.8,0.5-2.7c0.3-0.8,0.8-1.5,1.4-1.9
			c0.6-0.5,1.2-0.7,1.9-0.7c0.4,0,0.8,0.1,1.1,0.3c0.3,0.2,0.6,0.6,0.8,1h0.1l0.5-1.2h1l-1.6,7.7h-1l0.2-1.4h-0.1
			C124.5,124.7,123.7,125.2,122.7,125.2z M123.1,124.2c0.4,0,0.9-0.2,1.3-0.6s0.8-1,1.1-1.6c0.3-0.7,0.4-1.4,0.4-2.1
			c0-0.5-0.1-0.8-0.4-1.1c-0.3-0.3-0.6-0.4-1-0.4c-0.5,0-0.9,0.2-1.3,0.6s-0.7,0.9-0.9,1.6s-0.3,1.4-0.3,2.1c0,0.5,0.1,0.9,0.3,1.2
			S122.8,124.2,123.1,124.2z"/>
		<path class="st0" d="M130.8,125.2c-0.7,0-1.2-0.2-1.5-0.7c-0.4-0.5-0.6-1.1-0.6-1.9c0-1,0.2-1.9,0.5-2.7c0.3-0.8,0.8-1.5,1.3-1.9
			c0.6-0.5,1.2-0.7,1.9-0.7c0.4,0,0.8,0.1,1.1,0.3s0.6,0.6,0.8,1h0.1l0.5-1.2h0.9l-2.4,11.1h-1.2l0.7-3.3c0.1-0.5,0.2-1,0.4-1.6
			h-0.1c-0.4,0.5-0.8,0.9-1.3,1.2C131.7,125.1,131.3,125.2,130.8,125.2z M131.3,124.2c0.4,0,0.8-0.2,1.3-0.6c0.4-0.4,0.8-1,1.1-1.6
			c0.3-0.7,0.4-1.4,0.4-2c0-0.5-0.1-0.9-0.4-1.1c-0.2-0.3-0.6-0.4-1-0.4c-0.5,0-0.9,0.2-1.3,0.6c-0.4,0.4-0.7,0.9-0.9,1.6
			s-0.4,1.4-0.4,2.2C130,123.7,130.5,124.2,131.3,124.2z"/>
		<path class="st0" d="M138.3,117.4h1.3l-1,4.8c-0.1,0.4-0.1,0.7-0.1,1c0,0.7,0.3,1,1,1c0.4,0,0.8-0.1,1.2-0.4
			c0.4-0.3,0.7-0.7,1-1.2s0.5-1.1,0.7-1.9l0.7-3.3h1.2l-1.6,7.7h-1l0.2-1.4h-0.1c-0.4,0.5-0.8,0.9-1.3,1.2c-0.4,0.2-0.9,0.4-1.3,0.4
			c-0.6,0-1.1-0.2-1.4-0.5c-0.3-0.3-0.5-0.8-0.5-1.4c0-0.3,0.1-0.7,0.2-1.2L138.3,117.4z"/>
		<path class="st0" d="M148.1,125.2c-0.9,0-1.5-0.3-2-0.8c-0.5-0.5-0.7-1.2-0.7-2.1c0-0.9,0.2-1.7,0.5-2.5c0.3-0.8,0.8-1.4,1.4-1.9
			c0.6-0.5,1.2-0.7,1.9-0.7c0.7,0,1.3,0.2,1.6,0.5c0.4,0.3,0.6,0.8,0.6,1.3c0,0.8-0.4,1.5-1.2,2c-0.8,0.5-1.9,0.7-3.3,0.7h-0.2
			l0,0.5c0,0.6,0.1,1,0.4,1.4c0.3,0.3,0.7,0.5,1.3,0.5c0.4,0,0.7-0.1,1-0.2c0.3-0.1,0.7-0.2,1.1-0.4v1.1c-0.5,0.2-0.9,0.4-1.2,0.4
			C148.8,125.2,148.5,125.2,148.1,125.2z M149,118.3c-0.5,0-0.9,0.2-1.4,0.7s-0.7,1-0.9,1.8h0.1c1,0,1.8-0.1,2.4-0.4
			c0.6-0.3,0.8-0.7,0.8-1.2c0-0.2-0.1-0.4-0.3-0.6C149.6,118.4,149.4,118.3,149,118.3z"/>
		<path class="st0" d="M156.9,122.9c0,0.7-0.3,1.3-0.8,1.7c-0.5,0.4-1.2,0.6-2.2,0.6c-0.8,0-1.5-0.2-2.1-0.5v-1.2
			c0.3,0.2,0.6,0.3,1,0.4c0.4,0.1,0.7,0.2,1.1,0.2c0.6,0,1-0.1,1.3-0.3c0.3-0.2,0.4-0.5,0.4-0.9c0-0.3-0.1-0.5-0.2-0.7
			c-0.2-0.2-0.5-0.4-1-0.7c-0.6-0.3-1-0.7-1.3-1s-0.4-0.7-0.4-1.2c0-0.7,0.2-1.2,0.7-1.6c0.5-0.4,1.1-0.6,1.9-0.6
			c0.8,0,1.6,0.2,2.3,0.5l-0.4,1c-0.2-0.1-0.5-0.2-0.8-0.3c-0.3-0.1-0.7-0.1-1.1-0.1c-0.4,0-0.7,0.1-1,0.3c-0.2,0.2-0.4,0.4-0.4,0.8
			c0,0.3,0.1,0.5,0.3,0.7c0.2,0.2,0.5,0.4,1,0.7c0.5,0.3,0.9,0.6,1.1,0.8c0.2,0.2,0.3,0.4,0.5,0.6
			C156.9,122.3,156.9,122.6,156.9,122.9z"/>
		<path class="st0" d="M160.7,124.2c0.3,0,0.6-0.1,1-0.2v1c-0.1,0.1-0.3,0.1-0.6,0.2c-0.2,0.1-0.5,0.1-0.6,0.1c-0.6,0-1-0.1-1.4-0.4
			c-0.3-0.3-0.5-0.7-0.5-1.2c0-0.3,0-0.6,0.1-1l0.9-4.2h-1.2l0.1-0.6l1.3-0.5l0.9-1.6h0.7l-0.4,1.7h1.9l-0.2,1H161l-0.9,4.2
			c-0.1,0.4-0.1,0.7-0.1,0.8c0,0.2,0.1,0.4,0.2,0.6C160.3,124.1,160.4,124.2,160.7,124.2z"/>
		<path class="st0" d="M165.4,125.2c-0.6,0-1.1-0.2-1.5-0.7c-0.4-0.5-0.6-1.1-0.6-1.9c0-1,0.2-1.8,0.5-2.7c0.3-0.8,0.8-1.5,1.4-1.9
			c0.6-0.5,1.2-0.7,1.9-0.7c0.4,0,0.8,0.1,1.1,0.3c0.3,0.2,0.6,0.6,0.8,1h0.1l0.5-1.2h1l-1.6,7.7h-1l0.2-1.4H168
			C167.2,124.7,166.3,125.2,165.4,125.2z M165.8,124.2c0.4,0,0.9-0.2,1.3-0.6s0.8-1,1.1-1.6c0.3-0.7,0.4-1.4,0.4-2.1
			c0-0.5-0.1-0.8-0.4-1.1c-0.3-0.3-0.6-0.4-1-0.4c-0.5,0-0.9,0.2-1.3,0.6s-0.7,0.9-0.9,1.6s-0.3,1.4-0.3,2.1c0,0.5,0.1,0.9,0.3,1.2
			S165.4,124.2,165.8,124.2z"/>
		<path class="st0" d="M178,125.2c-0.9,0-1.6-0.2-2.1-0.7c-0.5-0.5-0.7-1.2-0.7-2.1c0-0.9,0.2-1.8,0.5-2.6c0.3-0.8,0.8-1.4,1.4-1.8
			s1.3-0.7,2.1-0.7c0.7,0,1.3,0.1,1.9,0.4l-0.4,1c-0.5-0.2-1-0.4-1.5-0.4c-0.5,0-1,0.2-1.4,0.5c-0.4,0.4-0.7,0.8-1,1.5
			c-0.2,0.6-0.3,1.3-0.3,2c0,0.6,0.1,1,0.4,1.3s0.7,0.5,1.2,0.5c0.3,0,0.7,0,1-0.1c0.3-0.1,0.6-0.2,0.9-0.3v1.1
			C179.3,125.1,178.7,125.2,178,125.2z"/>
		<path class="st0" d="M182.6,125.1h-1.3l2.3-10.8h1.3L182.6,125.1z"/>
		<path class="st0" d="M187.3,125.2c-0.6,0-1.1-0.2-1.5-0.7c-0.4-0.5-0.6-1.1-0.6-1.9c0-1,0.2-1.8,0.5-2.7c0.3-0.8,0.8-1.5,1.4-1.9
			c0.6-0.5,1.2-0.7,1.9-0.7c0.4,0,0.8,0.1,1.1,0.3c0.3,0.2,0.6,0.6,0.8,1h0.1l0.5-1.2h1l-1.6,7.7h-1l0.2-1.4h-0.1
			C189.1,124.7,188.3,125.2,187.3,125.2z M187.8,124.2c0.4,0,0.9-0.2,1.3-0.6s0.8-1,1.1-1.6c0.3-0.7,0.4-1.4,0.4-2.1
			c0-0.5-0.1-0.8-0.4-1.1c-0.3-0.3-0.6-0.4-1-0.4c-0.5,0-0.9,0.2-1.3,0.6s-0.7,0.9-0.9,1.6s-0.3,1.4-0.3,2.1c0,0.5,0.1,0.9,0.3,1.2
			S187.4,124.2,187.8,124.2z"/>
		<path class="st0" d="M197.9,122.9c0,0.7-0.3,1.3-0.8,1.7c-0.5,0.4-1.2,0.6-2.2,0.6c-0.8,0-1.5-0.2-2.1-0.5v-1.2
			c0.3,0.2,0.6,0.3,1,0.4c0.4,0.1,0.7,0.2,1.1,0.2c0.6,0,1-0.1,1.3-0.3c0.3-0.2,0.4-0.5,0.4-0.9c0-0.3-0.1-0.5-0.2-0.7
			c-0.2-0.2-0.5-0.4-1-0.7c-0.6-0.3-1-0.7-1.3-1s-0.4-0.7-0.4-1.2c0-0.7,0.2-1.2,0.7-1.6c0.5-0.4,1.1-0.6,1.9-0.6
			c0.8,0,1.6,0.2,2.3,0.5l-0.4,1c-0.2-0.1-0.5-0.2-0.8-0.3c-0.3-0.1-0.7-0.1-1.1-0.1c-0.4,0-0.7,0.1-1,0.3c-0.2,0.2-0.4,0.4-0.4,0.8
			c0,0.3,0.1,0.5,0.3,0.7c0.2,0.2,0.5,0.4,1,0.7c0.5,0.3,0.9,0.6,1.1,0.8c0.2,0.2,0.3,0.4,0.5,0.6
			C197.8,122.3,197.9,122.6,197.9,122.9z"/>
		<path class="st0" d="M204,122.9c0,0.7-0.3,1.3-0.8,1.7c-0.5,0.4-1.2,0.6-2.2,0.6c-0.8,0-1.5-0.2-2.1-0.5v-1.2
			c0.3,0.2,0.6,0.3,1,0.4c0.4,0.1,0.7,0.2,1.1,0.2c0.6,0,1-0.1,1.3-0.3c0.3-0.2,0.4-0.5,0.4-0.9c0-0.3-0.1-0.5-0.2-0.7
			c-0.2-0.2-0.5-0.4-1-0.7c-0.6-0.3-1-0.7-1.3-1s-0.4-0.7-0.4-1.2c0-0.7,0.2-1.2,0.7-1.6c0.5-0.4,1.1-0.6,1.9-0.6
			c0.8,0,1.6,0.2,2.3,0.5l-0.4,1c-0.2-0.1-0.5-0.2-0.8-0.3c-0.3-0.1-0.7-0.1-1.1-0.1c-0.4,0-0.7,0.1-1,0.3c-0.2,0.2-0.4,0.4-0.4,0.8
			c0,0.3,0.1,0.5,0.3,0.7c0.2,0.2,0.5,0.4,1,0.7c0.5,0.3,0.9,0.6,1.1,0.8c0.2,0.2,0.3,0.4,0.5,0.6C204,122.3,204,122.6,204,122.9z"
			/>
		<path class="st0" d="M208.5,125.2c-0.9,0-1.5-0.3-2-0.8c-0.5-0.5-0.7-1.2-0.7-2.1c0-0.9,0.2-1.7,0.5-2.5c0.3-0.8,0.8-1.4,1.4-1.9
			c0.6-0.5,1.2-0.7,1.9-0.7c0.7,0,1.3,0.2,1.6,0.5c0.4,0.3,0.6,0.8,0.6,1.3c0,0.8-0.4,1.5-1.2,2s-1.9,0.7-3.3,0.7H207l0,0.5
			c0,0.6,0.1,1,0.4,1.4c0.3,0.3,0.7,0.5,1.3,0.5c0.4,0,0.7-0.1,1-0.2c0.3-0.1,0.7-0.2,1.1-0.4v1.1c-0.5,0.2-0.9,0.4-1.2,0.4
			C209.2,125.2,208.9,125.2,208.5,125.2z M209.5,118.3c-0.5,0-0.9,0.2-1.4,0.7s-0.7,1-0.9,1.8h0.1c1,0,1.8-0.1,2.4-0.4
			c0.6-0.3,0.8-0.7,0.8-1.2c0-0.2-0.1-0.4-0.2-0.6C210.1,118.4,209.8,118.3,209.5,118.3z"/>
		<path class="st0" d="M219.3,125.2c-0.9,0-1.5-0.3-2-0.8c-0.5-0.5-0.7-1.2-0.7-2.1c0-0.9,0.2-1.7,0.5-2.5c0.3-0.8,0.8-1.4,1.4-1.9
			c0.6-0.5,1.2-0.7,1.9-0.7c0.7,0,1.3,0.2,1.6,0.5c0.4,0.3,0.6,0.8,0.6,1.3c0,0.8-0.4,1.5-1.2,2s-1.9,0.7-3.3,0.7h-0.2l0,0.5
			c0,0.6,0.1,1,0.4,1.4c0.3,0.3,0.7,0.5,1.3,0.5c0.4,0,0.7-0.1,1-0.2c0.3-0.1,0.7-0.2,1.1-0.4v1.1c-0.5,0.2-0.9,0.4-1.2,0.4
			C220.1,125.2,219.7,125.2,219.3,125.2z M220.3,118.3c-0.5,0-0.9,0.2-1.4,0.7s-0.7,1-0.9,1.8h0.1c1,0,1.8-0.1,2.4-0.4
			c0.6-0.3,0.8-0.7,0.8-1.2c0-0.2-0.1-0.4-0.2-0.6C220.9,118.4,220.6,118.3,220.3,118.3z M219.9,116.2c0.2-0.3,0.5-0.6,0.8-1
			c0.3-0.4,0.6-0.8,0.8-1.1h1.4v0.1c-0.2,0.3-0.6,0.6-1,1.1c-0.5,0.5-0.9,0.8-1.2,1.1h-0.8V116.2z"/>
		<path class="st0" d="M228.2,122.9c0,0.7-0.3,1.3-0.8,1.7c-0.5,0.4-1.2,0.6-2.2,0.6c-0.8,0-1.5-0.2-2.1-0.5v-1.2
			c0.3,0.2,0.6,0.3,1,0.4c0.4,0.1,0.7,0.2,1.1,0.2c0.6,0,1-0.1,1.3-0.3c0.3-0.2,0.4-0.5,0.4-0.9c0-0.3-0.1-0.5-0.2-0.7
			s-0.5-0.4-1-0.7c-0.6-0.3-1-0.7-1.3-1c-0.2-0.3-0.4-0.7-0.4-1.2c0-0.7,0.2-1.2,0.7-1.6c0.5-0.4,1.1-0.6,1.9-0.6
			c0.8,0,1.6,0.2,2.3,0.5l-0.4,1c-0.2-0.1-0.5-0.2-0.8-0.3c-0.3-0.1-0.7-0.1-1.1-0.1c-0.4,0-0.7,0.1-1,0.3c-0.2,0.2-0.4,0.4-0.4,0.8
			c0,0.3,0.1,0.5,0.3,0.7c0.2,0.2,0.5,0.4,1,0.7c0.5,0.3,0.9,0.6,1.1,0.8c0.2,0.2,0.3,0.4,0.5,0.6
			C228.1,122.3,228.2,122.6,228.2,122.9z"/>
		<path class="st0" d="M234.5,125.1h-1.3l2.3-10.8h1.3L234.5,125.1z"/>
		<path class="st0" d="M239.3,125.2c-0.6,0-1.1-0.2-1.5-0.7c-0.4-0.5-0.6-1.1-0.6-1.9c0-1,0.2-1.8,0.5-2.7c0.3-0.8,0.8-1.5,1.4-1.9
			c0.6-0.5,1.2-0.7,1.9-0.7c0.4,0,0.8,0.1,1.1,0.3c0.3,0.2,0.6,0.6,0.8,1h0.1l0.5-1.2h1l-1.6,7.7h-1l0.2-1.4h-0.1
			C241.1,124.7,240.2,125.2,239.3,125.2z M239.7,124.2c0.4,0,0.9-0.2,1.3-0.6c0.4-0.4,0.8-1,1.1-1.6c0.3-0.7,0.4-1.4,0.4-2.1
			c0-0.5-0.1-0.8-0.4-1.1c-0.2-0.3-0.6-0.4-1-0.4c-0.5,0-0.9,0.2-1.3,0.6c-0.4,0.4-0.7,0.9-0.9,1.6s-0.3,1.4-0.3,2.1
			c0,0.5,0.1,0.9,0.3,1.2C239,124,239.3,124.2,239.7,124.2z"/>
		<path class="st0" d="M251.1,125.2c-0.7,0-1.2-0.2-1.5-0.7c-0.4-0.5-0.6-1.1-0.6-1.9c0-1,0.2-1.9,0.5-2.7c0.3-0.8,0.8-1.5,1.3-1.9
			c0.6-0.5,1.2-0.7,1.9-0.7c0.4,0,0.8,0.1,1.1,0.3c0.3,0.2,0.6,0.6,0.8,1h0.1l0.5-1.2h0.9l-2.4,11.1h-1.2l0.7-3.3
			c0.1-0.5,0.2-1,0.4-1.6h-0.1c-0.4,0.5-0.8,0.9-1.3,1.2C252,125.1,251.5,125.2,251.1,125.2z M251.5,124.2c0.4,0,0.8-0.2,1.3-0.6
			c0.4-0.4,0.8-1,1.1-1.6c0.3-0.7,0.4-1.4,0.4-2c0-0.5-0.1-0.9-0.4-1.1c-0.2-0.3-0.6-0.4-1-0.4c-0.5,0-0.9,0.2-1.3,0.6
			c-0.4,0.4-0.7,0.9-0.9,1.6s-0.4,1.4-0.4,2.2C250.3,123.7,250.7,124.2,251.5,124.2z"/>
		<path class="st0" d="M258.6,117.4h1.3l-1,4.8c-0.1,0.4-0.1,0.7-0.1,1c0,0.7,0.3,1,1,1c0.4,0,0.8-0.1,1.2-0.4
			c0.4-0.3,0.7-0.7,1-1.2c0.3-0.5,0.5-1.1,0.7-1.9l0.7-3.3h1.2l-1.6,7.7h-1l0.2-1.4h-0.1c-0.4,0.5-0.8,0.9-1.3,1.2s-0.9,0.4-1.3,0.4
			c-0.6,0-1.1-0.2-1.4-0.5c-0.3-0.3-0.5-0.8-0.5-1.4c0-0.3,0.1-0.7,0.2-1.2L258.6,117.4z"/>
		<path class="st0" d="M268.3,125.2c-0.9,0-1.5-0.3-2-0.8c-0.5-0.5-0.7-1.2-0.7-2.1c0-0.9,0.2-1.7,0.5-2.5c0.3-0.8,0.8-1.4,1.4-1.9
			c0.6-0.5,1.2-0.7,1.9-0.7c0.7,0,1.3,0.2,1.6,0.5c0.4,0.3,0.6,0.8,0.6,1.3c0,0.8-0.4,1.5-1.2,2s-1.9,0.7-3.3,0.7h-0.2l0,0.5
			c0,0.6,0.1,1,0.4,1.4c0.3,0.3,0.7,0.5,1.3,0.5c0.4,0,0.7-0.1,1-0.2c0.3-0.1,0.7-0.2,1.1-0.4v1.1c-0.5,0.2-0.9,0.4-1.2,0.4
			C269.1,125.2,268.7,125.2,268.3,125.2z M269.3,118.3c-0.5,0-0.9,0.2-1.4,0.7s-0.7,1-0.9,1.8h0.1c1,0,1.8-0.1,2.4-0.4
			c0.6-0.3,0.8-0.7,0.8-1.2c0-0.2-0.1-0.4-0.2-0.6C269.9,118.4,269.7,118.3,269.3,118.3z"/>
		<path class="st0" d="M281.1,117.3c0.5,0,0.9,0.2,1.2,0.4c0.3,0.3,0.5,0.7,0.5,1.3h0.1c0.8-1.1,1.7-1.7,2.6-1.7
			c0.6,0,1.1,0.2,1.4,0.5c0.3,0.3,0.5,0.8,0.5,1.4c0,0.4-0.1,0.8-0.2,1.3l-1,4.7H285l1-4.8c0.1-0.4,0.1-0.8,0.1-1
			c0-0.3-0.1-0.5-0.2-0.7c-0.2-0.2-0.4-0.3-0.7-0.3c-0.4,0-0.7,0.1-1.1,0.4c-0.4,0.3-0.7,0.6-0.9,1.1c-0.3,0.5-0.5,1.1-0.6,1.7
			l-0.7,3.5h-1.3l1-4.8c0.1-0.4,0.1-0.8,0.1-0.9c0-0.7-0.3-1-0.9-1c-0.4,0-0.8,0.1-1.1,0.4c-0.4,0.3-0.7,0.7-1,1.2
			c-0.3,0.5-0.5,1.1-0.6,1.8l-0.7,3.3h-1.3l1.6-7.7h1l-0.2,1.4h0.1c0.3-0.4,0.6-0.7,0.8-0.9c0.2-0.2,0.5-0.3,0.8-0.5
			C280.5,117.3,280.8,117.3,281.1,117.3z"/>
		<path class="st0" d="M291.6,125.2c-0.9,0-1.5-0.3-2-0.8c-0.5-0.5-0.7-1.2-0.7-2.1c0-0.9,0.2-1.7,0.5-2.5c0.3-0.8,0.8-1.4,1.4-1.9
			c0.6-0.5,1.2-0.7,1.9-0.7c0.7,0,1.3,0.2,1.6,0.5c0.4,0.3,0.6,0.8,0.6,1.3c0,0.8-0.4,1.5-1.2,2s-1.9,0.7-3.3,0.7h-0.2l0,0.5
			c0,0.6,0.1,1,0.4,1.4c0.3,0.3,0.7,0.5,1.3,0.5c0.4,0,0.7-0.1,1-0.2c0.3-0.1,0.7-0.2,1.1-0.4v1.1c-0.5,0.2-0.9,0.4-1.2,0.4
			C292.4,125.2,292,125.2,291.6,125.2z M292.6,118.3c-0.5,0-0.9,0.2-1.4,0.7s-0.7,1-0.9,1.8h0.1c1,0,1.8-0.1,2.4-0.4
			c0.6-0.3,0.8-0.7,0.8-1.2c0-0.2-0.1-0.4-0.2-0.6C293.2,118.4,293,118.3,292.6,118.3z M292.2,116.2c0.2-0.3,0.5-0.6,0.8-1
			c0.3-0.4,0.6-0.8,0.8-1.1h1.4v0.1c-0.2,0.3-0.6,0.6-1,1.1c-0.5,0.5-0.9,0.8-1.2,1.1h-0.8V116.2z"/>
		<path class="st0" d="M300.5,122.9c0,0.7-0.3,1.3-0.8,1.7c-0.5,0.4-1.2,0.6-2.2,0.6c-0.8,0-1.5-0.2-2.1-0.5v-1.2
			c0.3,0.2,0.6,0.3,1,0.4c0.4,0.1,0.7,0.2,1.1,0.2c0.6,0,1-0.1,1.3-0.3c0.3-0.2,0.4-0.5,0.4-0.9c0-0.3-0.1-0.5-0.2-0.7
			s-0.5-0.4-1-0.7c-0.6-0.3-1-0.7-1.3-1c-0.2-0.3-0.4-0.7-0.4-1.2c0-0.7,0.2-1.2,0.7-1.6c0.5-0.4,1.1-0.6,1.9-0.6
			c0.8,0,1.6,0.2,2.3,0.5l-0.4,1c-0.2-0.1-0.5-0.2-0.8-0.3c-0.3-0.1-0.7-0.1-1.1-0.1c-0.4,0-0.7,0.1-1,0.3c-0.2,0.2-0.4,0.4-0.4,0.8
			c0,0.3,0.1,0.5,0.3,0.7c0.2,0.2,0.5,0.4,1,0.7c0.5,0.3,0.9,0.6,1.1,0.8c0.2,0.2,0.3,0.4,0.5,0.6
			C300.4,122.3,300.5,122.6,300.5,122.9z"/>
		<path class="st0" d="M310.6,117.3c0.5,0,0.9,0.2,1.2,0.4c0.3,0.3,0.5,0.7,0.5,1.3h0.1c0.8-1.1,1.7-1.7,2.6-1.7
			c0.6,0,1.1,0.2,1.4,0.5c0.3,0.3,0.5,0.8,0.5,1.4c0,0.4-0.1,0.8-0.2,1.3l-1,4.7h-1.3l1-4.8c0.1-0.4,0.1-0.8,0.1-1
			c0-0.3-0.1-0.5-0.2-0.7c-0.2-0.2-0.4-0.3-0.7-0.3c-0.4,0-0.7,0.1-1.1,0.4c-0.4,0.3-0.7,0.6-0.9,1.1c-0.3,0.5-0.5,1.1-0.6,1.7
			l-0.7,3.5H310l1-4.8c0.1-0.4,0.1-0.8,0.1-0.9c0-0.7-0.3-1-0.9-1c-0.4,0-0.8,0.1-1.1,0.4c-0.4,0.3-0.7,0.7-1,1.2
			c-0.3,0.5-0.5,1.1-0.6,1.8l-0.7,3.3h-1.3l1.6-7.7h1l-0.2,1.4h0.1c0.3-0.4,0.6-0.7,0.8-0.9c0.2-0.2,0.5-0.3,0.8-0.5
			C310,117.3,310.3,117.3,310.6,117.3z"/>
		<path class="st0" d="M321.2,114.9l0.1,0.2c-0.2,0.4-0.4,0.9-0.8,1.5c-0.3,0.6-0.7,1.2-1.1,1.8h-1c0.6-1.4,1.1-2.5,1.4-3.5H321.2z"
			/>
		<path class="st0" d="M322.8,125.2c-0.6,0-1.1-0.2-1.5-0.7c-0.4-0.5-0.6-1.1-0.6-1.9c0-1,0.2-1.8,0.5-2.7c0.3-0.8,0.8-1.5,1.4-1.9
			c0.6-0.5,1.2-0.7,1.9-0.7c0.4,0,0.8,0.1,1.1,0.3c0.3,0.2,0.6,0.6,0.8,1h0.1l0.5-1.2h1l-1.6,7.7h-1l0.2-1.4h-0.1
			C324.6,124.7,323.8,125.2,322.8,125.2z M323.3,124.2c0.4,0,0.9-0.2,1.3-0.6c0.4-0.4,0.8-1,1.1-1.6c0.3-0.7,0.4-1.4,0.4-2.1
			c0-0.5-0.1-0.8-0.4-1.1c-0.2-0.3-0.6-0.4-1-0.4c-0.5,0-0.9,0.2-1.3,0.6c-0.4,0.4-0.7,0.9-0.9,1.6s-0.3,1.4-0.3,2.1
			c0,0.5,0.1,0.9,0.3,1.2C322.6,124,322.9,124.2,323.3,124.2z"/>
		<path class="st0" d="M330.8,128.5c-0.9,0-1.7-0.2-2.3-0.5v-1.2c0.3,0.2,0.7,0.3,1.1,0.4c0.4,0.1,0.8,0.2,1.2,0.2
			c0.6,0,1.1-0.1,1.5-0.4c0.4-0.3,0.6-0.8,0.8-1.4l0.4-1.5l0.1-0.5h-0.1c-0.4,0.5-0.8,0.9-1.3,1.2c-0.4,0.2-0.8,0.4-1.3,0.4
			c-0.6,0-1.2-0.2-1.5-0.7c-0.4-0.5-0.6-1.1-0.6-1.9c0-1,0.2-1.9,0.5-2.7s0.8-1.5,1.4-1.9s1.2-0.7,1.9-0.7c0.9,0,1.5,0.4,1.9,1.3
			h0.1l0.5-1.2h1l-1.7,8.1c-0.2,1-0.6,1.8-1.2,2.3C332.6,128.3,331.8,128.5,330.8,128.5z M331.4,124.2c0.4,0,0.8-0.2,1.3-0.6
			s0.8-1,1.1-1.6c0.3-0.7,0.4-1.3,0.4-2c0-1-0.5-1.5-1.4-1.5c-0.5,0-0.9,0.2-1.3,0.6s-0.7,0.9-0.9,1.6c-0.2,0.7-0.3,1.4-0.3,2.1
			C330.2,123.7,330.6,124.2,331.4,124.2z"/>
		<path class="st0" d="M341.8,117.3c0.3,0,0.6,0,0.8,0.1l-0.3,1.1c-0.3-0.1-0.5-0.1-0.7-0.1c-0.4,0-0.8,0.1-1.2,0.4s-0.7,0.7-1,1.1
			c-0.3,0.5-0.5,1-0.6,1.6l-0.7,3.5h-1.3l1.6-7.7h1l-0.2,1.4h0.1c0.3-0.4,0.6-0.8,0.8-1c0.2-0.2,0.4-0.3,0.7-0.4
			C341.2,117.3,341.5,117.3,341.8,117.3z"/>
		<path class="st0" d="M344.9,125.2c-0.6,0-1.1-0.2-1.5-0.7c-0.4-0.5-0.6-1.1-0.6-1.9c0-1,0.2-1.8,0.5-2.7c0.3-0.8,0.8-1.5,1.4-1.9
			c0.6-0.5,1.2-0.7,1.9-0.7c0.4,0,0.8,0.1,1.1,0.3c0.3,0.2,0.6,0.6,0.8,1h0.1l0.5-1.2h1l-1.6,7.7h-1l0.2-1.4h-0.1
			C346.7,124.7,345.8,125.2,344.9,125.2z M345.3,124.2c0.4,0,0.9-0.2,1.3-0.6c0.4-0.4,0.8-1,1.1-1.6c0.3-0.7,0.4-1.4,0.4-2.1
			c0-0.5-0.1-0.8-0.4-1.1c-0.2-0.3-0.6-0.4-1-0.4c-0.5,0-0.9,0.2-1.3,0.6c-0.4,0.4-0.7,0.9-0.9,1.6s-0.3,1.4-0.3,2.1
			c0,0.5,0.1,0.9,0.3,1.2C344.6,124,344.9,124.2,345.3,124.2z"/>
		<path class="st0" d="M353,125.2c-0.6,0-1.1-0.2-1.5-0.7c-0.4-0.5-0.6-1.1-0.6-1.9c0-1,0.2-1.9,0.5-2.7c0.3-0.8,0.8-1.5,1.3-1.9
			c0.6-0.5,1.2-0.7,1.9-0.7c0.9,0,1.5,0.4,1.9,1.3h0.1c0.1-0.8,0.2-1.4,0.3-1.9l0.5-2.5h1.2l-2.3,10.8h-1l0.2-1.4h-0.1
			c-0.4,0.6-0.9,1-1.3,1.2C353.9,125.1,353.4,125.2,353,125.2z M353.4,124.2c0.4,0,0.9-0.2,1.3-0.7c0.4-0.4,0.8-1,1.1-1.6
			c0.3-0.7,0.4-1.3,0.4-2c0-0.5-0.1-0.9-0.4-1.2c-0.2-0.3-0.6-0.4-1.1-0.4c-0.5,0-0.9,0.2-1.3,0.6c-0.4,0.4-0.7,0.9-0.9,1.6
			c-0.2,0.7-0.3,1.4-0.3,2.1C352.2,123.7,352.6,124.2,353.4,124.2z"/>
		<path class="st0" d="M361.3,125.2c-0.6,0-1.1-0.2-1.5-0.7c-0.4-0.5-0.6-1.1-0.6-1.9c0-1,0.2-1.8,0.5-2.7c0.3-0.8,0.8-1.5,1.4-1.9
			c0.6-0.5,1.2-0.7,1.9-0.7c0.4,0,0.8,0.1,1.1,0.3c0.3,0.2,0.6,0.6,0.8,1h0.1l0.5-1.2h1l-1.6,7.7h-1l0.2-1.4h-0.1
			C363.1,124.7,362.2,125.2,361.3,125.2z M361.7,124.2c0.4,0,0.9-0.2,1.3-0.6c0.4-0.4,0.8-1,1.1-1.6c0.3-0.7,0.4-1.4,0.4-2.1
			c0-0.5-0.1-0.8-0.4-1.1c-0.2-0.3-0.6-0.4-1-0.4c-0.5,0-0.9,0.2-1.3,0.6c-0.4,0.4-0.7,0.9-0.9,1.6s-0.3,1.4-0.3,2.1
			c0,0.5,0.1,0.9,0.3,1.2C361,124,361.3,124.2,361.7,124.2z"/>
		<path class="st0" d="M366.9,124.5c0-0.4,0.1-0.6,0.3-0.9c0.2-0.2,0.5-0.3,0.8-0.3c0.2,0,0.4,0.1,0.5,0.2c0.1,0.1,0.2,0.3,0.2,0.6
			c0,0.3-0.1,0.6-0.3,0.8c-0.2,0.2-0.4,0.3-0.8,0.3c-0.2,0-0.4-0.1-0.5-0.2S366.9,124.8,366.9,124.5z"/>
	</g>
</g>
<g>
	<g>
		<path class="st0" d="M125.5,217.1l4.5-8.3h2l-2.1,10.2h-1.3l1.3-6c0.3-1.3,0.5-2.3,0.7-2.9h0l-4.9,8.9h-1l-1.1-8.9h-0.1
			c-0.1,0.7-0.2,1.7-0.5,2.8l-1.3,6.1h-1.2l2.2-10.2h1.8L125.5,217.1L125.5,217.1z"/>
		<path class="st0" d="M139.3,214.2c0,0.9-0.2,1.7-0.5,2.5s-0.8,1.4-1.4,1.8c-0.6,0.4-1.2,0.6-2,0.6c-0.9,0-1.6-0.3-2.1-0.8
			s-0.8-1.2-0.8-2.1c0-0.9,0.2-1.7,0.5-2.5s0.8-1.4,1.4-1.8s1.2-0.6,1.9-0.6c0.9,0,1.6,0.3,2.1,0.8
			C139.1,212.5,139.3,213.2,139.3,214.2z M138,214c0-0.5-0.1-1-0.4-1.3c-0.3-0.3-0.7-0.5-1.1-0.5c-0.5,0-0.9,0.2-1.3,0.5
			c-0.4,0.3-0.7,0.8-0.9,1.4c-0.2,0.6-0.3,1.3-0.3,2c0,0.6,0.1,1.1,0.4,1.4s0.7,0.5,1.2,0.5c0.5,0,0.9-0.2,1.3-0.5
			c0.4-0.3,0.7-0.8,0.9-1.4C137.9,215.5,138,214.8,138,214z"/>
		<path class="st0" d="M141.6,218.9h-1.3l2.3-10.8h1.3L141.6,218.9z"/>
		<path class="st0" d="M146.5,218.1c0.3,0,0.6-0.1,1-0.2v1c-0.1,0.1-0.3,0.1-0.6,0.2c-0.2,0.1-0.5,0.1-0.6,0.1c-0.6,0-1-0.1-1.4-0.4
			c-0.3-0.3-0.5-0.7-0.5-1.2c0-0.3,0-0.6,0.1-1l0.9-4.2h-1.2l0.1-0.6l1.3-0.5l0.9-1.6h0.7l-0.4,1.7h1.9l-0.2,1h-1.9l-0.9,4.2
			c-0.1,0.4-0.1,0.7-0.1,0.8c0,0.2,0.1,0.4,0.2,0.6C146,218,146.2,218.1,146.5,218.1z"/>
		<path class="st0" d="M156,219.1c-0.4,0-0.8-0.1-1.2-0.3s-0.6-0.6-0.8-1h-0.1l-0.5,1.2h-0.9l2.3-10.8h1.3l-0.5,2.6
			c-0.1,0.4-0.2,0.8-0.3,1.3c-0.1,0.4-0.2,0.7-0.2,0.8h0.1c0.5-0.6,0.9-1,1.3-1.2c0.4-0.2,0.8-0.3,1.2-0.3c0.7,0,1.2,0.2,1.5,0.7
			c0.4,0.5,0.6,1.1,0.6,1.9c0,1-0.2,1.9-0.5,2.7s-0.8,1.5-1.3,1.9C157.3,218.8,156.7,219.1,156,219.1z M157.2,212.2
			c-0.4,0-0.9,0.2-1.3,0.7c-0.4,0.4-0.8,1-1.1,1.7s-0.4,1.3-0.4,2c0,0.5,0.1,0.9,0.4,1.1s0.6,0.4,1.1,0.4c0.5,0,0.9-0.2,1.3-0.6
			c0.4-0.4,0.7-0.9,0.9-1.6c0.2-0.7,0.3-1.4,0.3-2.1C158.4,212.7,158,212.2,157.2,212.2z"/>
		<path class="st0" d="M167.8,214.2c0,0.9-0.2,1.7-0.5,2.5s-0.8,1.4-1.4,1.8c-0.6,0.4-1.2,0.6-2,0.6c-0.9,0-1.6-0.3-2.1-0.8
			s-0.8-1.2-0.8-2.1c0-0.9,0.2-1.7,0.5-2.5s0.8-1.4,1.4-1.8s1.2-0.6,1.9-0.6c0.9,0,1.6,0.3,2.1,0.8
			C167.5,212.5,167.8,213.2,167.8,214.2z M166.5,214c0-0.5-0.1-1-0.4-1.3c-0.3-0.3-0.7-0.5-1.1-0.5c-0.5,0-0.9,0.2-1.3,0.5
			c-0.4,0.3-0.7,0.8-0.9,1.4c-0.2,0.6-0.3,1.3-0.3,2c0,0.6,0.1,1.1,0.4,1.4s0.7,0.5,1.2,0.5c0.5,0,0.9-0.2,1.3-0.5
			c0.4-0.3,0.7-0.8,0.9-1.4C166.4,215.5,166.5,214.8,166.5,214z"/>
		<path class="st0" d="M174.7,218.9h-1.3l1-4.8c0.1-0.5,0.1-0.8,0.1-1c0-0.3-0.1-0.5-0.2-0.7c-0.2-0.2-0.4-0.3-0.8-0.3
			c-0.4,0-0.8,0.1-1.2,0.4c-0.4,0.3-0.7,0.7-1,1.2c-0.3,0.5-0.5,1.1-0.7,1.8l-0.7,3.3h-1.3l1.6-7.7h1l-0.2,1.4h0.1
			c0.3-0.4,0.6-0.7,0.8-0.9s0.5-0.4,0.8-0.5c0.3-0.1,0.6-0.2,0.9-0.2c0.6,0,1.1,0.2,1.4,0.5c0.3,0.3,0.5,0.8,0.5,1.4
			c0,0.4-0.1,0.8-0.2,1.3L174.7,218.9z"/>
		<path class="st0" d="M185.9,211.2c0.7,0,1.2,0.2,1.5,0.7c0.4,0.5,0.5,1.1,0.5,1.9c0,1-0.2,1.9-0.5,2.7c-0.3,0.8-0.8,1.5-1.3,1.9
			c-0.6,0.5-1.2,0.7-1.9,0.7c-0.9,0-1.5-0.4-2-1.3h-0.1c-0.1,0.6-0.1,1.1-0.2,1.3l-0.7,3.3h-1.2l2.3-11.1h1l-0.2,1.4h0.1
			c0.4-0.5,0.9-0.9,1.3-1.2C185,211.3,185.5,211.2,185.9,211.2z M185.5,212.2c-0.4,0-0.9,0.2-1.3,0.6c-0.4,0.4-0.8,1-1.1,1.6
			s-0.4,1.3-0.4,2c0,0.5,0.1,0.9,0.4,1.1s0.6,0.4,1.1,0.4c0.5,0,0.9-0.2,1.3-0.6c0.4-0.4,0.7-0.9,0.9-1.6c0.2-0.7,0.3-1.4,0.3-2.1
			C186.7,212.7,186.3,212.2,185.5,212.2z"/>
		<path class="st0" d="M194,211.2c0.3,0,0.6,0,0.8,0.1l-0.3,1.1c-0.3-0.1-0.5-0.1-0.7-0.1c-0.4,0-0.8,0.1-1.2,0.4
			c-0.4,0.3-0.7,0.7-1,1.1c-0.3,0.5-0.5,1-0.6,1.6l-0.7,3.5h-1.3l1.6-7.7h1l-0.2,1.4h0.1c0.3-0.4,0.6-0.8,0.8-1s0.4-0.3,0.7-0.4
			C193.4,211.2,193.7,211.2,194,211.2z"/>
		<path class="st0" d="M202.1,214.2c0,0.9-0.2,1.7-0.5,2.5s-0.8,1.4-1.4,1.8c-0.6,0.4-1.2,0.6-2,0.6c-0.9,0-1.6-0.3-2.1-0.8
			s-0.8-1.2-0.8-2.1c0-0.9,0.2-1.7,0.5-2.5s0.8-1.4,1.4-1.8s1.2-0.6,1.9-0.6c0.9,0,1.6,0.3,2.1,0.8
			C201.8,212.5,202.1,213.2,202.1,214.2z M200.8,214c0-0.5-0.1-1-0.4-1.3c-0.3-0.3-0.7-0.5-1.1-0.5c-0.5,0-0.9,0.2-1.3,0.5
			c-0.4,0.3-0.7,0.8-0.9,1.4c-0.2,0.6-0.3,1.3-0.3,2c0,0.6,0.1,1.1,0.4,1.4s0.7,0.5,1.2,0.5c0.5,0,0.9-0.2,1.3-0.5
			c0.4-0.3,0.7-0.8,0.9-1.4C200.7,215.5,200.8,214.8,200.8,214z"/>
		<path class="st0" d="M202,222.4c-0.3,0-0.6,0-0.9-0.1v-1.1c0.3,0.1,0.6,0.2,0.8,0.2c0.3,0,0.6-0.1,0.8-0.4s0.4-0.7,0.5-1.2
			l1.6-7.5h-1.3l0.1-0.5l1.4-0.5l0.2-0.7c0.2-0.9,0.5-1.6,0.9-2c0.4-0.4,1-0.6,1.7-0.6c0.5,0,0.9,0.1,1.3,0.3l-0.3,1
			c-0.3-0.1-0.7-0.2-1-0.2c-0.4,0-0.7,0.1-0.9,0.3c-0.2,0.2-0.4,0.6-0.5,1.2l-0.2,0.7h1.6l-0.2,1H206l-1.6,7.6
			c-0.2,0.9-0.5,1.5-0.9,1.9C203.2,222.2,202.7,222.4,202,222.4z"/>
		<path class="st0" d="M210.7,219.1c-0.9,0-1.5-0.3-2-0.8c-0.5-0.5-0.7-1.2-0.7-2.1c0-0.9,0.2-1.7,0.5-2.5c0.3-0.8,0.8-1.4,1.4-1.9
			c0.6-0.5,1.2-0.7,1.9-0.7c0.7,0,1.3,0.2,1.6,0.5s0.6,0.8,0.6,1.3c0,0.8-0.4,1.5-1.2,2s-1.9,0.7-3.3,0.7h-0.2l0,0.5
			c0,0.6,0.1,1,0.4,1.4c0.3,0.3,0.7,0.5,1.3,0.5c0.4,0,0.7-0.1,1-0.2c0.3-0.1,0.7-0.2,1.1-0.4v1.1c-0.5,0.2-0.9,0.4-1.2,0.4
			S211.1,219.1,210.7,219.1z M211.7,212.2c-0.5,0-0.9,0.2-1.4,0.7s-0.7,1-0.9,1.8h0.1c1,0,1.8-0.1,2.4-0.4s0.8-0.7,0.8-1.2
			c0-0.2-0.1-0.4-0.2-0.6C212.3,212.3,212.1,212.2,211.7,212.2z"/>
		<path class="st0" d="M219.6,216.7c0,0.7-0.3,1.3-0.8,1.7c-0.5,0.4-1.2,0.6-2.2,0.6c-0.8,0-1.5-0.2-2.1-0.5v-1.2
			c0.3,0.2,0.6,0.3,1,0.4c0.4,0.1,0.7,0.2,1.1,0.2c0.6,0,1-0.1,1.3-0.3c0.3-0.2,0.4-0.5,0.4-0.9c0-0.3-0.1-0.5-0.2-0.7
			s-0.5-0.4-1-0.7c-0.6-0.3-1-0.7-1.3-1c-0.2-0.3-0.4-0.7-0.4-1.2c0-0.7,0.2-1.2,0.7-1.6s1.1-0.6,1.9-0.6c0.8,0,1.6,0.2,2.3,0.5
			l-0.4,1c-0.2-0.1-0.5-0.2-0.8-0.3s-0.7-0.2-1.1-0.2c-0.4,0-0.7,0.1-1,0.3s-0.4,0.4-0.4,0.8c0,0.3,0.1,0.5,0.3,0.7
			c0.2,0.2,0.5,0.4,1,0.7c0.5,0.3,0.9,0.6,1.1,0.8c0.2,0.2,0.3,0.4,0.5,0.6S219.6,216.4,219.6,216.7z"/>
		<path class="st0" d="M225.7,216.7c0,0.7-0.3,1.3-0.8,1.7c-0.5,0.4-1.2,0.6-2.2,0.6c-0.8,0-1.5-0.2-2.1-0.5v-1.2
			c0.3,0.2,0.6,0.3,1,0.4c0.4,0.1,0.7,0.2,1.1,0.2c0.6,0,1-0.1,1.3-0.3c0.3-0.2,0.4-0.5,0.4-0.9c0-0.3-0.1-0.5-0.2-0.7
			s-0.5-0.4-1-0.7c-0.6-0.3-1-0.7-1.3-1c-0.2-0.3-0.4-0.7-0.4-1.2c0-0.7,0.2-1.2,0.7-1.6s1.1-0.6,1.9-0.6c0.8,0,1.6,0.2,2.3,0.5
			l-0.4,1c-0.2-0.1-0.5-0.2-0.8-0.3s-0.7-0.2-1.1-0.2c-0.4,0-0.7,0.1-1,0.3s-0.4,0.4-0.4,0.8c0,0.3,0.1,0.5,0.3,0.7
			c0.2,0.2,0.5,0.4,1,0.7c0.5,0.3,0.9,0.6,1.1,0.8c0.2,0.2,0.3,0.4,0.5,0.6S225.7,216.4,225.7,216.7z"/>
		<path class="st0" d="M234.1,214.2c0,0.9-0.2,1.7-0.5,2.5c-0.3,0.8-0.8,1.4-1.4,1.8c-0.6,0.4-1.2,0.6-2,0.6c-0.9,0-1.6-0.3-2.1-0.8
			c-0.5-0.5-0.8-1.2-0.8-2.1c0-0.9,0.2-1.7,0.5-2.5s0.8-1.4,1.4-1.8c0.6-0.4,1.2-0.6,1.9-0.6c0.9,0,1.6,0.3,2.1,0.8
			S234.1,213.2,234.1,214.2z M232.8,214c0-0.5-0.1-1-0.4-1.3c-0.3-0.3-0.7-0.5-1.1-0.5c-0.5,0-0.9,0.2-1.3,0.5
			c-0.4,0.3-0.7,0.8-0.9,1.4c-0.2,0.6-0.3,1.3-0.3,2c0,0.6,0.1,1.1,0.4,1.4s0.7,0.5,1.2,0.5c0.5,0,0.9-0.2,1.3-0.5
			c0.4-0.3,0.7-0.8,0.9-1.4C232.7,215.5,232.8,214.8,232.8,214z"/>
		<path class="st0" d="M240.1,211.2c0.3,0,0.6,0,0.8,0.1l-0.3,1.1c-0.3-0.1-0.5-0.1-0.7-0.1c-0.4,0-0.8,0.1-1.2,0.4
			c-0.4,0.3-0.7,0.7-1,1.1c-0.3,0.5-0.5,1-0.6,1.6l-0.7,3.5h-1.3l1.6-7.7h1l-0.2,1.4h0.1c0.3-0.4,0.6-0.8,0.8-1
			c0.2-0.2,0.4-0.3,0.7-0.4C239.5,211.2,239.8,211.2,240.1,211.2z"/>
		<path class="st0" d="M242.6,217.3l0.1,0.2c-0.5,1-1.1,2.1-1.9,3.3h-1c0.4-1,0.9-2.1,1.4-3.5H242.6z"/>
		<path class="st0" d="M253.1,211.2c0.3,0,0.6,0,0.8,0.1l-0.3,1.1c-0.3-0.1-0.5-0.1-0.7-0.1c-0.4,0-0.8,0.1-1.2,0.4
			c-0.4,0.3-0.7,0.7-1,1.1c-0.3,0.5-0.5,1-0.6,1.6l-0.7,3.5h-1.3l1.6-7.7h1l-0.2,1.4h0.1c0.3-0.4,0.6-0.8,0.8-1
			c0.2-0.2,0.4-0.3,0.7-0.4C252.5,211.2,252.8,211.2,253.1,211.2z"/>
		<path class="st0" d="M257.3,219.1c-0.9,0-1.5-0.3-2-0.8c-0.5-0.5-0.7-1.2-0.7-2.1c0-0.9,0.2-1.7,0.5-2.5c0.3-0.8,0.8-1.4,1.4-1.9
			c0.6-0.5,1.2-0.7,1.9-0.7c0.7,0,1.3,0.2,1.6,0.5s0.6,0.8,0.6,1.3c0,0.8-0.4,1.5-1.2,2s-1.9,0.7-3.3,0.7h-0.2l0,0.5
			c0,0.6,0.1,1,0.4,1.4c0.3,0.3,0.7,0.5,1.3,0.5c0.4,0,0.7-0.1,1-0.2c0.3-0.1,0.7-0.2,1.1-0.4v1.1c-0.5,0.2-0.9,0.4-1.2,0.4
			S257.7,219.1,257.3,219.1z M258.3,212.2c-0.5,0-0.9,0.2-1.4,0.7s-0.7,1-0.9,1.8h0.1c1,0,1.8-0.1,2.4-0.4s0.8-0.7,0.8-1.2
			c0-0.2-0.1-0.4-0.2-0.6C258.9,212.3,258.6,212.2,258.3,212.2z"/>
		<path class="st0" d="M264.5,219.1c-0.9,0-1.6-0.2-2.1-0.7c-0.5-0.5-0.7-1.2-0.7-2.1c0-0.9,0.2-1.8,0.5-2.6
			c0.3-0.8,0.8-1.4,1.4-1.8c0.6-0.4,1.3-0.7,2.1-0.7c0.7,0,1.3,0.1,1.9,0.4l-0.4,1c-0.5-0.2-1-0.4-1.5-0.4c-0.5,0-1,0.2-1.4,0.5
			c-0.4,0.4-0.7,0.8-1,1.5s-0.3,1.3-0.3,2c0,0.6,0.1,1,0.4,1.3c0.3,0.3,0.7,0.5,1.2,0.5c0.3,0,0.7,0,1-0.1c0.3-0.1,0.6-0.2,0.9-0.3
			v1.1C265.8,218.9,265.2,219.1,264.5,219.1z"/>
		<path class="st0" d="M274.8,214.2c0,0.9-0.2,1.7-0.5,2.5c-0.3,0.8-0.8,1.4-1.4,1.8c-0.6,0.4-1.2,0.6-2,0.6c-0.9,0-1.6-0.3-2.1-0.8
			c-0.5-0.5-0.8-1.2-0.8-2.1c0-0.9,0.2-1.7,0.5-2.5s0.8-1.4,1.4-1.8c0.6-0.4,1.2-0.6,1.9-0.6c0.9,0,1.6,0.3,2.1,0.8
			S274.8,213.2,274.8,214.2z M273.5,214c0-0.5-0.1-1-0.4-1.3c-0.3-0.3-0.7-0.5-1.1-0.5c-0.5,0-0.9,0.2-1.3,0.5
			c-0.4,0.3-0.7,0.8-0.9,1.4c-0.2,0.6-0.3,1.3-0.3,2c0,0.6,0.1,1.1,0.4,1.4s0.7,0.5,1.2,0.5c0.5,0,0.9-0.2,1.3-0.5
			c0.4-0.3,0.7-0.8,0.9-1.4C273.4,215.5,273.5,214.8,273.5,214z"/>
		<path class="st0" d="M280.9,211.2c0.5,0,0.9,0.1,1.2,0.5c0.3,0.3,0.5,0.7,0.5,1.2h0.1c0.8-1.1,1.7-1.7,2.6-1.7
			c0.6,0,1.1,0.2,1.4,0.5c0.3,0.3,0.5,0.8,0.5,1.4c0,0.4-0.1,0.8-0.2,1.3l-1,4.7h-1.3l1-4.8c0.1-0.4,0.1-0.8,0.1-1
			c0-0.3-0.1-0.5-0.2-0.7c-0.2-0.2-0.4-0.3-0.7-0.3c-0.4,0-0.7,0.1-1.1,0.4c-0.4,0.3-0.7,0.6-0.9,1.1s-0.5,1.1-0.6,1.7l-0.7,3.5
			h-1.3l1-4.8c0.1-0.4,0.1-0.8,0.1-0.9c0-0.7-0.3-1-0.9-1c-0.4,0-0.8,0.1-1.1,0.4c-0.4,0.3-0.7,0.7-1,1.2c-0.3,0.5-0.5,1.1-0.6,1.8
			l-0.7,3.3h-1.3l1.6-7.7h1l-0.2,1.4h0.1c0.3-0.4,0.6-0.7,0.8-0.9c0.2-0.2,0.5-0.3,0.8-0.5S280.6,211.2,280.9,211.2z"/>
		<path class="st0" d="M290.7,219.1c-0.6,0-1.1-0.2-1.5-0.7c-0.4-0.5-0.6-1.1-0.6-1.9c0-1,0.2-1.8,0.5-2.7c0.3-0.8,0.8-1.5,1.4-1.9
			s1.2-0.7,1.9-0.7c0.4,0,0.8,0.1,1.1,0.3c0.3,0.2,0.6,0.6,0.8,1h0.1l0.5-1.2h1l-1.6,7.7h-1l0.2-1.4h-0.1
			C292.5,218.6,291.6,219.1,290.7,219.1z M291.1,218c0.4,0,0.9-0.2,1.3-0.6c0.4-0.4,0.8-1,1.1-1.6s0.4-1.4,0.4-2.1
			c0-0.5-0.1-0.8-0.4-1.1c-0.2-0.3-0.6-0.4-1-0.4c-0.5,0-0.9,0.2-1.3,0.6c-0.4,0.4-0.7,0.9-0.9,1.6c-0.2,0.7-0.3,1.4-0.3,2.1
			c0,0.5,0.1,0.9,0.3,1.2C290.4,217.9,290.7,218,291.1,218z"/>
		<path class="st0" d="M302.3,218.9h-1.3l1-4.8c0.1-0.5,0.1-0.8,0.1-1c0-0.3-0.1-0.5-0.2-0.7c-0.2-0.2-0.4-0.3-0.8-0.3
			c-0.4,0-0.8,0.1-1.2,0.4c-0.4,0.3-0.7,0.7-1,1.2c-0.3,0.5-0.5,1.1-0.7,1.8l-0.7,3.3h-1.3l1.6-7.7h1l-0.2,1.4h0.1
			c0.3-0.4,0.6-0.7,0.8-0.9c0.2-0.2,0.5-0.4,0.8-0.5c0.3-0.1,0.6-0.2,0.9-0.2c0.6,0,1.1,0.2,1.4,0.5c0.3,0.3,0.5,0.8,0.5,1.4
			c0,0.4-0.1,0.8-0.2,1.3L302.3,218.9z"/>
		<path class="st0" d="M311.7,214.2c0,0.9-0.2,1.7-0.5,2.5c-0.3,0.8-0.8,1.4-1.4,1.8c-0.6,0.4-1.2,0.6-2,0.6c-0.9,0-1.6-0.3-2.1-0.8
			c-0.5-0.5-0.8-1.2-0.8-2.1c0-0.9,0.2-1.7,0.5-2.5s0.8-1.4,1.4-1.8c0.6-0.4,1.2-0.6,1.9-0.6c0.9,0,1.6,0.3,2.1,0.8
			S311.7,213.2,311.7,214.2z M310.4,214c0-0.5-0.1-1-0.4-1.3c-0.3-0.3-0.7-0.5-1.1-0.5c-0.5,0-0.9,0.2-1.3,0.5
			c-0.4,0.3-0.7,0.8-0.9,1.4c-0.2,0.6-0.3,1.3-0.3,2c0,0.6,0.1,1.1,0.4,1.4s0.7,0.5,1.2,0.5c0.5,0,0.9-0.2,1.3-0.5
			c0.4-0.3,0.7-0.8,0.9-1.4C310.3,215.5,310.4,214.8,310.4,214z"/>
		<path class="st0" d="M318.8,219.1c-0.6,0-1.1-0.2-1.5-0.7c-0.4-0.5-0.6-1.1-0.6-1.9c0-1,0.2-1.8,0.5-2.7c0.3-0.8,0.8-1.5,1.4-1.9
			s1.2-0.7,1.9-0.7c0.4,0,0.8,0.1,1.1,0.3c0.3,0.2,0.6,0.6,0.8,1h0.1l0.5-1.2h1l-1.6,7.7h-1l0.2-1.4h-0.1
			C320.6,218.6,319.7,219.1,318.8,219.1z M319.2,218c0.4,0,0.9-0.2,1.3-0.6c0.4-0.4,0.8-1,1.1-1.6s0.4-1.4,0.4-2.1
			c0-0.5-0.1-0.8-0.4-1.1c-0.2-0.3-0.6-0.4-1-0.4c-0.5,0-0.9,0.2-1.3,0.6c-0.4,0.4-0.7,0.9-0.9,1.6c-0.2,0.7-0.3,1.4-0.3,2.1
			c0,0.5,0.1,0.9,0.3,1.2C318.5,217.9,318.8,218,319.2,218z"/>
		<path class="st0" d="M326.9,219.1c-0.7,0-1.2-0.2-1.5-0.7s-0.6-1.1-0.6-1.9c0-1,0.2-1.9,0.5-2.7c0.3-0.8,0.8-1.5,1.3-1.9
			c0.6-0.5,1.2-0.7,1.9-0.7c0.4,0,0.8,0.1,1.1,0.3c0.3,0.2,0.6,0.6,0.8,1h0.1l0.5-1.2h0.9l-2.4,11.1h-1.2l0.7-3.3
			c0.1-0.5,0.2-1,0.4-1.6h-0.1c-0.4,0.5-0.8,0.9-1.3,1.2S327.3,219.1,326.9,219.1z M327.3,218c0.4,0,0.8-0.2,1.3-0.6
			c0.4-0.4,0.8-1,1.1-1.6c0.3-0.7,0.4-1.4,0.4-2c0-0.5-0.1-0.9-0.4-1.1s-0.6-0.4-1-0.4c-0.5,0-0.9,0.2-1.3,0.6
			c-0.4,0.4-0.7,0.9-0.9,1.6c-0.2,0.7-0.4,1.4-0.4,2.2C326.1,217.5,326.5,218,327.3,218z"/>
		<path class="st0" d="M334.4,211.3h1.3l-1,4.8c-0.1,0.4-0.1,0.7-0.1,1c0,0.7,0.3,1,1,1c0.4,0,0.8-0.1,1.2-0.4
			c0.4-0.3,0.7-0.7,1-1.2c0.3-0.5,0.5-1.1,0.7-1.9l0.7-3.3h1.2l-1.6,7.7h-1l0.2-1.4h-0.1c-0.4,0.5-0.8,0.9-1.3,1.2
			c-0.4,0.2-0.9,0.4-1.3,0.4c-0.6,0-1.1-0.2-1.4-0.5s-0.5-0.8-0.5-1.4c0-0.3,0.1-0.7,0.2-1.2L334.4,211.3z"/>
		<path class="st0" d="M344.1,219.1c-0.9,0-1.5-0.3-2-0.8c-0.5-0.5-0.7-1.2-0.7-2.1c0-0.9,0.2-1.7,0.5-2.5c0.3-0.8,0.8-1.4,1.4-1.9
			c0.6-0.5,1.2-0.7,1.9-0.7c0.7,0,1.3,0.2,1.6,0.5s0.6,0.8,0.6,1.3c0,0.8-0.4,1.5-1.2,2s-1.9,0.7-3.3,0.7h-0.2l0,0.5
			c0,0.6,0.1,1,0.4,1.4c0.3,0.3,0.7,0.5,1.3,0.5c0.4,0,0.7-0.1,1-0.2c0.3-0.1,0.7-0.2,1.1-0.4v1.1c-0.5,0.2-0.9,0.4-1.2,0.4
			S344.5,219.1,344.1,219.1z M345.1,212.2c-0.5,0-0.9,0.2-1.4,0.7s-0.7,1-0.9,1.8h0.1c1,0,1.8-0.1,2.4-0.4s0.8-0.7,0.8-1.2
			c0-0.2-0.1-0.4-0.2-0.6C345.7,212.3,345.5,212.2,345.1,212.2z"/>
		<path class="st0" d="M353,216.7c0,0.7-0.3,1.3-0.8,1.7c-0.5,0.4-1.2,0.6-2.2,0.6c-0.8,0-1.5-0.2-2.1-0.5v-1.2
			c0.3,0.2,0.6,0.3,1,0.4c0.4,0.1,0.7,0.2,1.1,0.2c0.6,0,1-0.1,1.3-0.3c0.3-0.2,0.4-0.5,0.4-0.9c0-0.3-0.1-0.5-0.2-0.7
			s-0.5-0.4-1-0.7c-0.6-0.3-1-0.7-1.3-1c-0.2-0.3-0.4-0.7-0.4-1.2c0-0.7,0.2-1.2,0.7-1.6s1.1-0.6,1.9-0.6c0.8,0,1.6,0.2,2.3,0.5
			l-0.4,1c-0.2-0.1-0.5-0.2-0.8-0.3s-0.7-0.2-1.1-0.2c-0.4,0-0.7,0.1-1,0.3s-0.4,0.4-0.4,0.8c0,0.3,0.1,0.5,0.3,0.7
			c0.2,0.2,0.5,0.4,1,0.7c0.5,0.3,0.9,0.6,1.1,0.8c0.2,0.2,0.3,0.4,0.5,0.6S353,216.4,353,216.7z"/>
		<path class="st0" d="M356.8,218.1c0.3,0,0.6-0.1,1-0.2v1c-0.1,0.1-0.3,0.1-0.6,0.2c-0.2,0.1-0.5,0.1-0.6,0.1c-0.6,0-1-0.1-1.4-0.4
			c-0.3-0.3-0.5-0.7-0.5-1.2c0-0.3,0-0.6,0.1-1l0.9-4.2h-1.2l0.1-0.6l1.3-0.5l0.9-1.6h0.7l-0.4,1.7h1.9l-0.2,1H357l-0.9,4.2
			c-0.1,0.4-0.1,0.7-0.1,0.8c0,0.2,0.1,0.4,0.2,0.6S356.5,218.1,356.8,218.1z"/>
		<path class="st0" d="M361.5,219.1c-0.6,0-1.1-0.2-1.5-0.7c-0.4-0.5-0.6-1.1-0.6-1.9c0-1,0.2-1.8,0.5-2.7c0.3-0.8,0.8-1.5,1.4-1.9
			s1.2-0.7,1.9-0.7c0.4,0,0.8,0.1,1.1,0.3c0.3,0.2,0.6,0.6,0.8,1h0.1l0.5-1.2h1l-1.6,7.7h-1l0.2-1.4h-0.1
			C363.3,218.6,362.4,219.1,361.5,219.1z M361.9,218c0.4,0,0.9-0.2,1.3-0.6c0.4-0.4,0.8-1,1.1-1.6s0.4-1.4,0.4-2.1
			c0-0.5-0.1-0.8-0.4-1.1c-0.2-0.3-0.6-0.4-1-0.4c-0.5,0-0.9,0.2-1.3,0.6c-0.4,0.4-0.7,0.9-0.9,1.6c-0.2,0.7-0.3,1.4-0.3,2.1
			c0,0.5,0.1,0.9,0.3,1.2C361.2,217.9,361.5,218,361.9,218z"/>
		<path class="st0" d="M123.5,236.2c-0.9,0-1.6-0.2-2.1-0.7c-0.5-0.5-0.7-1.2-0.7-2.1c0-0.9,0.2-1.8,0.5-2.6
			c0.3-0.8,0.8-1.4,1.4-1.8s1.3-0.7,2.1-0.7c0.7,0,1.3,0.1,1.9,0.4l-0.4,1c-0.5-0.2-1-0.4-1.5-0.4c-0.5,0-1,0.2-1.4,0.5
			c-0.4,0.4-0.7,0.8-1,1.5c-0.2,0.6-0.3,1.3-0.3,2c0,0.6,0.1,1,0.4,1.3s0.7,0.5,1.2,0.5c0.3,0,0.7,0,1-0.1c0.3-0.1,0.6-0.2,0.9-0.3
			v1.1C124.9,236.1,124.2,236.2,123.5,236.2z"/>
		<path class="st0" d="M128.1,236.1h-1.3l2.3-10.8h1.3L128.1,236.1z"/>
		<path class="st0" d="M132.9,236.2c-0.6,0-1.1-0.2-1.5-0.7c-0.4-0.5-0.6-1.1-0.6-1.9c0-1,0.2-1.8,0.5-2.7c0.3-0.8,0.8-1.5,1.4-1.9
			c0.6-0.5,1.2-0.7,1.9-0.7c0.4,0,0.8,0.1,1.1,0.3c0.3,0.2,0.6,0.6,0.8,1h0.1l0.5-1.2h1l-1.6,7.7h-1l0.2-1.4h-0.1
			C134.7,235.7,133.8,236.2,132.9,236.2z M133.3,235.2c0.4,0,0.9-0.2,1.3-0.6s0.8-1,1.1-1.6c0.3-0.7,0.4-1.4,0.4-2.1
			c0-0.5-0.1-0.8-0.4-1.1c-0.3-0.3-0.6-0.4-1-0.4c-0.5,0-0.9,0.2-1.3,0.6s-0.7,0.9-0.9,1.6s-0.3,1.4-0.3,2.1c0,0.5,0.1,0.9,0.3,1.2
			S132.9,235.2,133.3,235.2z"/>
		<path class="st0" d="M143.4,233.9c0,0.7-0.3,1.3-0.8,1.7c-0.5,0.4-1.2,0.6-2.2,0.6c-0.8,0-1.5-0.2-2.1-0.5v-1.2
			c0.3,0.2,0.6,0.3,1,0.4c0.4,0.1,0.7,0.2,1.1,0.2c0.6,0,1-0.1,1.3-0.3c0.3-0.2,0.4-0.5,0.4-0.9c0-0.3-0.1-0.5-0.2-0.7
			c-0.2-0.2-0.5-0.4-1-0.7c-0.6-0.3-1-0.7-1.3-1s-0.4-0.7-0.4-1.2c0-0.7,0.2-1.2,0.7-1.6c0.5-0.4,1.1-0.6,1.9-0.6
			c0.8,0,1.6,0.2,2.3,0.5l-0.4,1c-0.2-0.1-0.5-0.2-0.8-0.3c-0.3-0.1-0.7-0.1-1.1-0.1c-0.4,0-0.7,0.1-1,0.3c-0.2,0.2-0.4,0.4-0.4,0.8
			c0,0.3,0.1,0.5,0.3,0.7c0.2,0.2,0.5,0.4,1,0.7c0.5,0.3,0.9,0.6,1.1,0.8c0.2,0.2,0.3,0.4,0.5,0.6
			C143.3,233.3,143.4,233.6,143.4,233.9z"/>
		<path class="st0" d="M149.6,233.9c0,0.7-0.3,1.3-0.8,1.7c-0.5,0.4-1.2,0.6-2.2,0.6c-0.8,0-1.5-0.2-2.1-0.5v-1.2
			c0.3,0.2,0.6,0.3,1,0.4c0.4,0.1,0.7,0.2,1.1,0.2c0.6,0,1-0.1,1.3-0.3c0.3-0.2,0.4-0.5,0.4-0.9c0-0.3-0.1-0.5-0.2-0.7
			c-0.2-0.2-0.5-0.4-1-0.7c-0.6-0.3-1-0.7-1.3-1s-0.4-0.7-0.4-1.2c0-0.7,0.2-1.2,0.7-1.6c0.5-0.4,1.1-0.6,1.9-0.6
			c0.8,0,1.6,0.2,2.3,0.5l-0.4,1c-0.2-0.1-0.5-0.2-0.8-0.3c-0.3-0.1-0.7-0.1-1.1-0.1c-0.4,0-0.7,0.1-1,0.3c-0.2,0.2-0.4,0.4-0.4,0.8
			c0,0.3,0.1,0.5,0.3,0.7c0.2,0.2,0.5,0.4,1,0.7c0.5,0.3,0.9,0.6,1.1,0.8c0.2,0.2,0.3,0.4,0.5,0.6
			C149.5,233.3,149.6,233.6,149.6,233.9z"/>
		<path class="st0" d="M154,236.2c-0.9,0-1.5-0.3-2-0.8c-0.5-0.5-0.7-1.2-0.7-2.1c0-0.9,0.2-1.7,0.5-2.5c0.3-0.8,0.8-1.4,1.4-1.9
			c0.6-0.5,1.2-0.7,1.9-0.7c0.7,0,1.3,0.2,1.6,0.5c0.4,0.3,0.6,0.8,0.6,1.3c0,0.8-0.4,1.5-1.2,2c-0.8,0.5-1.9,0.7-3.3,0.7h-0.2
			l0,0.5c0,0.6,0.1,1,0.4,1.4c0.3,0.3,0.7,0.5,1.3,0.5c0.4,0,0.7-0.1,1-0.2c0.3-0.1,0.7-0.2,1.1-0.4v1.1c-0.5,0.2-0.9,0.4-1.2,0.4
			C154.8,236.2,154.4,236.2,154,236.2z M155,229.3c-0.5,0-0.9,0.2-1.4,0.7s-0.7,1-0.9,1.8h0.1c1,0,1.8-0.1,2.4-0.4
			c0.6-0.3,0.8-0.7,0.8-1.2c0-0.2-0.1-0.4-0.3-0.6C155.6,229.4,155.3,229.3,155,229.3z"/>
		<path class="st0" d="M164.1,236.2c-0.6,0-1.1-0.2-1.5-0.7c-0.4-0.5-0.6-1.1-0.6-1.9c0-1,0.2-1.8,0.5-2.7c0.3-0.8,0.8-1.5,1.4-1.9
			c0.6-0.5,1.2-0.7,1.9-0.7c0.4,0,0.8,0.1,1.1,0.3c0.3,0.2,0.6,0.6,0.8,1h0.1l0.5-1.2h1l-1.6,7.7h-1l0.2-1.4h-0.1
			C165.9,235.7,165.1,236.2,164.1,236.2z M164.6,235.2c0.4,0,0.9-0.2,1.3-0.6s0.8-1,1.1-1.6c0.3-0.7,0.4-1.4,0.4-2.1
			c0-0.5-0.1-0.8-0.4-1.1c-0.3-0.3-0.6-0.4-1-0.4c-0.5,0-0.9,0.2-1.3,0.6s-0.7,0.9-0.9,1.6s-0.3,1.4-0.3,2.1c0,0.5,0.1,0.9,0.3,1.2
			S164.2,235.2,164.6,235.2z"/>
		<path class="st0" d="M176,235.2c0.3,0,0.6-0.1,1-0.2v1c-0.1,0.1-0.3,0.1-0.6,0.2c-0.2,0.1-0.5,0.1-0.6,0.1c-0.6,0-1-0.1-1.4-0.4
			c-0.3-0.3-0.5-0.7-0.5-1.2c0-0.3,0-0.6,0.1-1l0.9-4.2h-1.2l0.1-0.6l1.3-0.5l0.9-1.6h0.7l-0.4,1.7h1.9l-0.2,1h-1.9l-0.9,4.2
			c-0.1,0.4-0.1,0.7-0.1,0.8c0,0.2,0.1,0.4,0.2,0.6C175.6,235.1,175.8,235.2,176,235.2z"/>
		<path class="st0" d="M185.3,231.3c0,0.9-0.2,1.7-0.5,2.5c-0.3,0.8-0.8,1.4-1.4,1.8c-0.6,0.4-1.2,0.6-2,0.6c-0.9,0-1.6-0.3-2.1-0.8
			c-0.5-0.5-0.8-1.2-0.8-2.1c0-0.9,0.2-1.7,0.5-2.5c0.3-0.8,0.8-1.4,1.4-1.8s1.2-0.6,1.9-0.6c0.9,0,1.6,0.3,2.1,0.8
			C185,229.6,185.3,230.4,185.3,231.3z M184,231.1c0-0.5-0.1-1-0.4-1.3c-0.3-0.3-0.7-0.5-1.1-0.5c-0.5,0-0.9,0.2-1.3,0.5
			c-0.4,0.3-0.7,0.8-0.9,1.4c-0.2,0.6-0.3,1.3-0.3,2c0,0.6,0.1,1.1,0.4,1.4c0.3,0.3,0.7,0.5,1.2,0.5c0.5,0,0.9-0.2,1.3-0.5
			c0.4-0.3,0.7-0.8,0.9-1.4C183.9,232.6,184,231.9,184,231.1z"/>
		<path class="st0" d="M188.8,235.2c0.3,0,0.6-0.1,1-0.2v1c-0.1,0.1-0.3,0.1-0.6,0.2c-0.2,0.1-0.5,0.1-0.6,0.1c-0.6,0-1-0.1-1.4-0.4
			c-0.3-0.3-0.5-0.7-0.5-1.2c0-0.3,0-0.6,0.1-1l0.9-4.2h-1.2l0.1-0.6l1.3-0.5l0.9-1.6h0.7l-0.4,1.7h1.9l-0.2,1H189l-0.9,4.2
			c-0.1,0.4-0.1,0.7-0.1,0.8c0,0.2,0.1,0.4,0.2,0.6C188.3,235.1,188.5,235.2,188.8,235.2z"/>
		<path class="st0" d="M197,236.1h-1.3l1-4.8c0.1-0.4,0.1-0.7,0.1-0.9c0-0.7-0.3-1-1-1c-0.4,0-0.8,0.1-1.2,0.4
			c-0.4,0.3-0.7,0.7-1,1.2c-0.3,0.5-0.5,1.1-0.7,1.8l-0.7,3.3h-1.3l2.3-10.8h1.3L194,228c-0.1,0.3-0.1,0.6-0.2,0.9
			c-0.1,0.3-0.2,0.6-0.2,0.9h0.1c0.4-0.5,0.8-0.9,1.3-1.2c0.4-0.2,0.9-0.4,1.3-0.4c0.6,0,1.1,0.2,1.4,0.5c0.3,0.3,0.5,0.8,0.5,1.5
			c0,0.3-0.1,0.7-0.2,1.2L197,236.1z"/>
		<path class="st0" d="M206.3,231.3c0,0.9-0.2,1.7-0.5,2.5c-0.3,0.8-0.8,1.4-1.4,1.8c-0.6,0.4-1.2,0.6-2,0.6c-0.9,0-1.6-0.3-2.1-0.8
			c-0.5-0.5-0.8-1.2-0.8-2.1c0-0.9,0.2-1.7,0.5-2.5c0.3-0.8,0.8-1.4,1.4-1.8s1.2-0.6,1.9-0.6c0.9,0,1.6,0.3,2.1,0.8
			S206.3,230.4,206.3,231.3z M205,231.1c0-0.5-0.1-1-0.4-1.3c-0.3-0.3-0.7-0.5-1.1-0.5c-0.5,0-0.9,0.2-1.3,0.5
			c-0.4,0.3-0.7,0.8-0.9,1.4c-0.2,0.6-0.3,1.3-0.3,2c0,0.6,0.1,1.1,0.4,1.4c0.3,0.3,0.7,0.5,1.2,0.5c0.5,0,0.9-0.2,1.3-0.5
			c0.4-0.3,0.7-0.8,0.9-1.4C204.9,232.6,205,231.9,205,231.1z"/>
		<path class="st0" d="M212.4,228.3c0.5,0,0.9,0.2,1.2,0.4c0.3,0.3,0.5,0.7,0.5,1.3h0.1c0.8-1.1,1.7-1.7,2.6-1.7
			c0.6,0,1.1,0.2,1.4,0.5c0.3,0.3,0.5,0.8,0.5,1.4c0,0.4-0.1,0.8-0.2,1.3l-1,4.7h-1.3l1-4.8c0.1-0.4,0.1-0.8,0.1-1
			c0-0.3-0.1-0.5-0.2-0.7c-0.2-0.2-0.4-0.3-0.7-0.3c-0.4,0-0.7,0.1-1.1,0.4c-0.4,0.3-0.7,0.6-0.9,1.1c-0.3,0.5-0.5,1.1-0.6,1.7
			l-0.7,3.5h-1.3l1-4.8c0.1-0.4,0.1-0.8,0.1-0.9c0-0.7-0.3-1-0.9-1c-0.4,0-0.8,0.1-1.1,0.4c-0.4,0.3-0.7,0.7-1,1.2
			c-0.3,0.5-0.5,1.1-0.6,1.8l-0.7,3.3h-1.3l1.6-7.7h1l-0.2,1.4h0.1c0.3-0.4,0.6-0.7,0.8-0.9c0.2-0.2,0.5-0.3,0.8-0.5
			C211.8,228.3,212.1,228.3,212.4,228.3z"/>
		<path class="st0" d="M219.8,235.5c0-0.4,0.1-0.6,0.3-0.9c0.2-0.2,0.5-0.3,0.8-0.3c0.2,0,0.4,0.1,0.5,0.2c0.1,0.1,0.2,0.3,0.2,0.6
			c0,0.3-0.1,0.6-0.3,0.8c-0.2,0.2-0.4,0.3-0.8,0.3c-0.2,0-0.4-0.1-0.5-0.2S219.8,235.8,219.8,235.5z"/>
	</g>
</g>
<g>
	<g>
		<path class="st0" d="M36.6,19.7V26h-3.5V9.6h4.8c2.2,0,3.9,0.4,4.9,1.2c1.1,0.8,1.6,2,1.6,3.7c0,1-0.3,1.8-0.8,2.6
			c-0.5,0.8-1.3,1.3-2.3,1.8l4.8,7.1h-3.9l-3.9-6.3H36.6z M36.6,16.9h1.1c1.1,0,1.9-0.2,2.4-0.5c0.5-0.4,0.8-0.9,0.8-1.7
			c0-0.8-0.3-1.3-0.8-1.7c-0.5-0.3-1.4-0.5-2.5-0.5h-1.1V16.9z"/>
		<path class="st0" d="M53.6,26.2c-2,0-3.6-0.6-4.7-1.7c-1.1-1.1-1.7-2.7-1.7-4.7c0-2.1,0.5-3.7,1.6-4.9s2.5-1.7,4.4-1.7
			c1.8,0,3.1,0.5,4.1,1.5c1,1,1.5,2.4,1.5,4.2v1.7h-8.1c0,1,0.3,1.7,0.9,2.3c0.5,0.5,1.3,0.8,2.3,0.8c0.8,0,1.5-0.1,2.1-0.2
			s1.4-0.4,2.1-0.8v2.6c-0.6,0.3-1.2,0.5-1.9,0.7C55.5,26.1,54.6,26.2,53.6,26.2z M53.2,15.6c-0.7,0-1.3,0.2-1.7,0.7
			c-0.4,0.5-0.6,1.1-0.7,2h4.8c0-0.8-0.2-1.5-0.7-2C54.5,15.9,53.9,15.6,53.2,15.6z"/>
		<path class="st0" d="M70.3,22.3c0,1.3-0.4,2.3-1.3,2.9c-0.9,0.7-2.2,1-4,1c-0.9,0-1.7-0.1-2.3-0.2c-0.6-0.1-1.2-0.3-1.8-0.5v-2.8
			c0.6,0.3,1.3,0.5,2.1,0.8c0.8,0.2,1.5,0.3,2.1,0.3c1.2,0,1.9-0.4,1.9-1.1c0-0.3-0.1-0.5-0.2-0.7c-0.2-0.2-0.4-0.4-0.9-0.6
			c-0.4-0.2-0.9-0.5-1.6-0.7c-1-0.4-1.7-0.8-2.1-1.1s-0.8-0.7-1-1.2c-0.2-0.4-0.3-1-0.3-1.6c0-1.1,0.4-2,1.3-2.6s2.1-0.9,3.7-0.9
			c1.5,0,3,0.3,4.4,1l-1,2.5c-0.6-0.3-1.2-0.5-1.8-0.7c-0.5-0.2-1.1-0.3-1.7-0.3c-1,0-1.5,0.3-1.5,0.8c0,0.3,0.2,0.6,0.5,0.8
			c0.3,0.2,1,0.6,2.1,1c1,0.4,1.7,0.8,2.1,1.1c0.5,0.3,0.8,0.7,1,1.2C70.2,21.1,70.3,21.6,70.3,22.3z"/>
		<path class="st0" d="M81.7,22.3c0,1.3-0.4,2.3-1.3,2.9c-0.9,0.7-2.2,1-4,1c-0.9,0-1.7-0.1-2.3-0.2c-0.6-0.1-1.2-0.3-1.8-0.5v-2.8
			c0.6,0.3,1.3,0.5,2.1,0.8c0.8,0.2,1.5,0.3,2.1,0.3c1.2,0,1.9-0.4,1.9-1.1c0-0.3-0.1-0.5-0.2-0.7c-0.2-0.2-0.4-0.4-0.9-0.6
			c-0.4-0.2-0.9-0.5-1.6-0.7c-1-0.4-1.7-0.8-2.1-1.1s-0.8-0.7-1-1.2c-0.2-0.4-0.3-1-0.3-1.6c0-1.1,0.4-2,1.3-2.6s2.1-0.9,3.7-0.9
			c1.5,0,3,0.3,4.4,1l-1,2.5c-0.6-0.3-1.2-0.5-1.8-0.7c-0.5-0.2-1.1-0.3-1.7-0.3c-1,0-1.5,0.3-1.5,0.8c0,0.3,0.2,0.6,0.5,0.8
			c0.3,0.2,1,0.6,2.1,1c1,0.4,1.7,0.8,2.1,1.1c0.5,0.3,0.8,0.7,1,1.2C81.6,21.1,81.7,21.6,81.7,22.3z"/>
		<path class="st0" d="M90,26.2c-2,0-3.6-0.6-4.7-1.7c-1.1-1.1-1.7-2.7-1.7-4.7c0-2.1,0.5-3.7,1.6-4.9s2.5-1.7,4.4-1.7
			c1.8,0,3.1,0.5,4.1,1.5c1,1,1.5,2.4,1.5,4.2v1.7H87c0,1,0.3,1.7,0.9,2.3c0.5,0.5,1.3,0.8,2.3,0.8c0.8,0,1.5-0.1,2.1-0.2
			s1.4-0.4,2.1-0.8v2.6c-0.6,0.3-1.2,0.5-1.9,0.7C91.8,26.1,91,26.2,90,26.2z M89.5,15.6c-0.7,0-1.3,0.2-1.7,0.7
			c-0.4,0.5-0.6,1.1-0.7,2h4.8c0-0.8-0.2-1.5-0.7-2C90.8,15.9,90.2,15.6,89.5,15.6z"/>
		<path class="st0" d="M109.4,26H106v-7.3c0-0.9-0.2-1.6-0.5-2c-0.3-0.5-0.8-0.7-1.5-0.7c-1,0-1.6,0.3-2.1,1
			c-0.4,0.6-0.6,1.7-0.6,3.2V26h-3.4V13.5h2.6l0.5,1.6h0.2c0.4-0.6,0.9-1.1,1.6-1.4c0.7-0.3,1.4-0.5,2.3-0.5c1.5,0,2.6,0.4,3.3,1.2
			c0.8,0.8,1.1,1.9,1.1,3.4V26z"/>
		<path class="st0" d="M111.2,13.5h3.7l2.4,7c0.2,0.6,0.3,1.3,0.4,2.2h0.1c0.1-0.8,0.2-1.5,0.5-2.2l2.3-7h3.7l-5.3,14.1
			c-0.5,1.3-1.2,2.3-2.1,2.9c-0.9,0.6-2,1-3.2,1c-0.6,0-1.2-0.1-1.7-0.2v-2.7c0.4,0.1,0.9,0.1,1.3,0.1c0.6,0,1.1-0.2,1.6-0.6
			c0.5-0.4,0.8-0.9,1.1-1.7l0.2-0.6L111.2,13.5z"/>
		<path class="st0" d="M131.7,26.2c-2,0-3.6-0.6-4.7-1.7c-1.1-1.1-1.7-2.7-1.7-4.7c0-2.1,0.5-3.7,1.6-4.9s2.5-1.7,4.4-1.7
			c1.8,0,3.1,0.5,4.1,1.5c1,1,1.5,2.4,1.5,4.2v1.7h-8.1c0,1,0.3,1.7,0.9,2.3c0.5,0.5,1.3,0.8,2.3,0.8c0.8,0,1.5-0.1,2.1-0.2
			s1.4-0.4,2.1-0.8v2.6c-0.6,0.3-1.2,0.5-1.9,0.7C133.5,26.1,132.6,26.2,131.7,26.2z M131.2,15.6c-0.7,0-1.3,0.2-1.7,0.7
			c-0.4,0.5-0.6,1.1-0.7,2h4.8c0-0.8-0.2-1.5-0.7-2C132.5,15.9,131.9,15.6,131.2,15.6z"/>
		<path class="st0" d="M148.3,22.3c0,1.3-0.4,2.3-1.3,2.9c-0.9,0.7-2.2,1-4,1c-0.9,0-1.7-0.1-2.3-0.2c-0.6-0.1-1.2-0.3-1.8-0.5v-2.8
			c0.6,0.3,1.3,0.5,2.1,0.8c0.8,0.2,1.5,0.3,2.1,0.3c1.2,0,1.9-0.4,1.9-1.1c0-0.3-0.1-0.5-0.2-0.7c-0.2-0.2-0.4-0.4-0.9-0.6
			c-0.4-0.2-0.9-0.5-1.6-0.7c-1-0.4-1.7-0.8-2.1-1.1s-0.8-0.7-1-1.2c-0.2-0.4-0.3-1-0.3-1.6c0-1.1,0.4-2,1.3-2.6s2.1-0.9,3.7-0.9
			c1.5,0,3,0.3,4.4,1l-1,2.5c-0.6-0.3-1.2-0.5-1.8-0.7c-0.5-0.2-1.1-0.3-1.7-0.3c-1,0-1.5,0.3-1.5,0.8c0,0.3,0.2,0.6,0.5,0.8
			c0.3,0.2,1,0.6,2.1,1c1,0.4,1.7,0.8,2.1,1.1c0.5,0.3,0.8,0.7,1,1.2C148.2,21.1,148.3,21.6,148.3,22.3z"/>
	</g>
</g>
<linearGradient id="SVGID_5_" gradientUnits="userSpaceOnUse" x1="17.9949" y1="128.7716" x2="133.7617" y2="10.3388">
	<stop  offset="0" style="stop-color:#F0A868"/>
	<stop  offset="1" style="stop-color:#EFCB67"/>
</linearGradient>
<circle class="st4" cx="52.2" cy="93.8" r="43.9"/>
<g>
	<defs>
		<circle id="SVGID_6_" cx="52.2" cy="93.7" r="40"/>
	</defs>
	<clipPath id="SVGID_7_">
		<use xlink:href="#SVGID_6_"  style="overflow:visible;"/>
	</clipPath>
	<g style="clip-path:url(#SVGID_7_);">
		
			<image style="overflow:visible;" width="293" height="390" xlink:href="9030A311B93C1E62.jpg"  transform="matrix(0.3015 0 0 0.3015 6.412 45.7315)">
		</image>
	</g>
</g>
<g>
	<g>
		<path class="st0" d="M121.5,198.7v-12.5h2.7v10.3h5.1v2.2H121.5z"/>
		<path class="st0" d="M131.1,188.1v-0.2c1-1.1,1.7-2,2-2.6h2.9v0.2c-0.3,0.3-0.8,0.7-1.5,1.3c-0.7,0.6-1.3,1-1.7,1.3H131.1z
			 M133.9,198.7h-2.6v-9.6h2.6V198.7z"/>
		<path class="st0" d="M139.7,198.9c-1.1,0-2-0.4-2.7-1.3s-1-2.1-1-3.6c0-1.6,0.3-2.8,1-3.7s1.6-1.3,2.7-1.3c1.2,0,2.1,0.5,2.8,1.4
			h0.1c-0.1-0.7-0.2-1.4-0.2-1.9v-3.1h2.6v13.3h-2l-0.5-1.2h-0.1C141.8,198.4,140.9,198.9,139.7,198.9z M140.6,196.8
			c0.7,0,1.2-0.2,1.5-0.6c0.3-0.4,0.5-1,0.5-2V194c0-1-0.2-1.8-0.5-2.2c-0.3-0.4-0.8-0.7-1.5-0.7c-0.6,0-1,0.2-1.4,0.7
			c-0.3,0.5-0.5,1.2-0.5,2.2s0.2,1.7,0.5,2.1C139.5,196.6,140,196.8,140.6,196.8z"/>
		<path class="st0" d="M147.6,186.6c0-0.9,0.5-1.3,1.4-1.3s1.4,0.4,1.4,1.3c0,0.4-0.1,0.7-0.4,0.9c-0.2,0.2-0.6,0.3-1.1,0.3
			C148.1,187.9,147.6,187.5,147.6,186.6z M150.4,198.7h-2.6v-9.6h2.6V198.7z"/>
		<path class="st0" d="M159.2,198.7l-0.5-1.3h-0.1c-0.4,0.6-0.9,0.9-1.4,1.2c-0.5,0.2-1.1,0.3-1.8,0.3c-0.9,0-1.6-0.3-2.2-0.8
			c-0.5-0.5-0.8-1.3-0.8-2.2c0-1,0.4-1.8,1.1-2.3c0.7-0.5,1.8-0.8,3.2-0.8l1.7-0.1v-0.4c0-1-0.5-1.5-1.5-1.5c-0.8,0-1.7,0.2-2.7,0.7
			l-0.9-1.8c1.1-0.6,2.3-0.9,3.7-0.9c1.3,0,2.3,0.3,3,0.8s1,1.4,1,2.6v6.4H159.2z M158.4,194.3l-1,0c-0.8,0-1.3,0.2-1.7,0.4
			c-0.4,0.3-0.6,0.6-0.6,1.1c0,0.7,0.4,1.1,1.3,1.1c0.6,0,1.1-0.2,1.5-0.5c0.4-0.3,0.5-0.8,0.5-1.4V194.3z"/>
	</g>
</g>
<g>
	<g>
		<path class="st0" d="M125.7,333.9h-5.2l2.2-10.2h5.2l-0.2,1.1h-3.9l-0.7,3.2h3.6l-0.2,1.1h-3.7l-0.8,3.6h3.9L125.7,333.9z"/>
		<path class="st0" d="M132.7,326.2c0.5,0,0.9,0.1,1.2,0.5c0.3,0.3,0.5,0.7,0.5,1.2h0.1c0.8-1.1,1.7-1.7,2.6-1.7
			c0.6,0,1.1,0.2,1.4,0.5c0.3,0.3,0.5,0.8,0.5,1.4c0,0.4-0.1,0.8-0.2,1.3l-1,4.7h-1.3l1-4.8c0.1-0.4,0.1-0.8,0.1-1
			c0-0.3-0.1-0.5-0.2-0.7c-0.2-0.2-0.4-0.3-0.7-0.3c-0.4,0-0.7,0.1-1.1,0.4s-0.7,0.6-0.9,1.1s-0.5,1.1-0.6,1.7l-0.7,3.5h-1.3l1-4.8
			c0.1-0.4,0.1-0.8,0.1-0.9c0-0.7-0.3-1-0.9-1c-0.4,0-0.8,0.1-1.1,0.4c-0.4,0.3-0.7,0.7-1,1.2c-0.3,0.5-0.5,1.1-0.6,1.8l-0.7,3.3
			h-1.3l1.6-7.7h1l-0.2,1.4h0.1c0.3-0.4,0.6-0.7,0.8-0.9c0.2-0.2,0.5-0.3,0.8-0.5S132.4,326.2,132.7,326.2z"/>
		<path class="st0" d="M147,334.1c-0.9,0-1.6-0.2-2.1-0.7c-0.5-0.5-0.7-1.2-0.7-2.1c0-0.9,0.2-1.8,0.5-2.6c0.3-0.8,0.8-1.4,1.4-1.8
			s1.3-0.7,2.1-0.7c0.7,0,1.3,0.1,1.9,0.4l-0.4,1c-0.5-0.2-1-0.4-1.5-0.4c-0.5,0-1,0.2-1.4,0.5c-0.4,0.4-0.7,0.8-1,1.5
			c-0.2,0.6-0.3,1.3-0.3,2c0,0.6,0.1,1,0.4,1.3s0.7,0.5,1.2,0.5c0.3,0,0.7,0,1-0.1c0.3-0.1,0.6-0.2,0.9-0.3v1.1
			C148.4,333.9,147.7,334.1,147,334.1z"/>
		<path class="st0" d="M152.7,334.1c-0.6,0-1.1-0.2-1.5-0.7s-0.6-1.1-0.6-1.9c0-1,0.2-1.8,0.5-2.7c0.3-0.8,0.8-1.5,1.4-1.9
			c0.6-0.5,1.2-0.7,1.9-0.7c0.4,0,0.8,0.1,1.1,0.3c0.3,0.2,0.6,0.6,0.8,1h0.1l0.5-1.2h1l-1.6,7.7h-1l0.2-1.4h-0.1
			C154.5,333.6,153.7,334.1,152.7,334.1z M153.1,333c0.4,0,0.9-0.2,1.3-0.6s0.8-1,1.1-1.6s0.4-1.4,0.4-2.1c0-0.5-0.1-0.8-0.4-1.1
			s-0.6-0.4-1-0.4c-0.5,0-0.9,0.2-1.3,0.6s-0.7,0.9-0.9,1.6c-0.2,0.7-0.3,1.4-0.3,2.1c0,0.5,0.1,0.9,0.3,1.2S152.8,333,153.1,333z"
			/>
		<path class="st0" d="M164.4,333.9h-1.3l1-4.8c0.1-0.5,0.1-0.8,0.1-1c0-0.3-0.1-0.5-0.2-0.7c-0.2-0.2-0.4-0.3-0.8-0.3
			c-0.4,0-0.8,0.1-1.2,0.4c-0.4,0.3-0.7,0.7-1,1.2c-0.3,0.5-0.5,1.1-0.7,1.8l-0.7,3.3h-1.3l1.6-7.7h1l-0.2,1.4h0.1
			c0.3-0.4,0.6-0.7,0.8-0.9s0.5-0.4,0.8-0.5c0.3-0.1,0.6-0.2,0.9-0.2c0.6,0,1.1,0.2,1.4,0.5c0.3,0.3,0.5,0.8,0.5,1.4
			c0,0.4-0.1,0.8-0.2,1.3L164.4,333.9z"/>
		<path class="st0" d="M171.5,331.7c0,0.7-0.3,1.3-0.8,1.7c-0.5,0.4-1.2,0.6-2.2,0.6c-0.8,0-1.5-0.2-2.1-0.5v-1.2
			c0.3,0.2,0.6,0.3,1,0.4s0.7,0.2,1.1,0.2c0.6,0,1-0.1,1.3-0.3c0.3-0.2,0.4-0.5,0.4-0.9c0-0.3-0.1-0.5-0.2-0.7
			c-0.2-0.2-0.5-0.4-1-0.7c-0.6-0.3-1-0.7-1.3-1s-0.4-0.7-0.4-1.2c0-0.7,0.2-1.2,0.7-1.6c0.5-0.4,1.1-0.6,1.9-0.6
			c0.8,0,1.6,0.2,2.3,0.5l-0.4,1c-0.2-0.1-0.5-0.2-0.8-0.3s-0.7-0.2-1.1-0.2c-0.4,0-0.7,0.1-1,0.3c-0.2,0.2-0.4,0.4-0.4,0.8
			c0,0.3,0.1,0.5,0.3,0.7c0.2,0.2,0.5,0.4,1,0.7c0.5,0.3,0.9,0.6,1.1,0.8c0.2,0.2,0.3,0.4,0.5,0.6S171.5,331.4,171.5,331.7z"/>
		<path class="st0" d="M179.9,329.2c0,0.9-0.2,1.7-0.5,2.5s-0.8,1.4-1.4,1.8c-0.6,0.4-1.2,0.6-2,0.6c-0.9,0-1.6-0.3-2.1-0.8
			s-0.8-1.2-0.8-2.1c0-0.9,0.2-1.7,0.5-2.5s0.8-1.4,1.4-1.8s1.2-0.6,1.9-0.6c0.9,0,1.6,0.3,2.1,0.8
			C179.6,327.5,179.9,328.2,179.9,329.2z M178.6,329c0-0.5-0.1-1-0.4-1.3c-0.3-0.3-0.7-0.5-1.1-0.5c-0.5,0-0.9,0.2-1.3,0.5
			c-0.4,0.3-0.7,0.8-0.9,1.4c-0.2,0.6-0.3,1.3-0.3,2c0,0.6,0.1,1.1,0.4,1.4s0.7,0.5,1.2,0.5c0.5,0,0.9-0.2,1.3-0.5
			c0.4-0.3,0.7-0.8,0.9-1.4C178.5,330.5,178.6,329.8,178.6,329z"/>
		<path class="st0" d="M189.7,326.2c0.5,0,0.9,0.1,1.2,0.5c0.3,0.3,0.5,0.7,0.5,1.2h0.1c0.8-1.1,1.7-1.7,2.6-1.7
			c0.6,0,1.1,0.2,1.4,0.5c0.3,0.3,0.5,0.8,0.5,1.4c0,0.4-0.1,0.8-0.2,1.3l-1,4.7h-1.3l1-4.8c0.1-0.4,0.1-0.8,0.1-1
			c0-0.3-0.1-0.5-0.2-0.7c-0.2-0.2-0.4-0.3-0.7-0.3c-0.4,0-0.7,0.1-1.1,0.4s-0.7,0.6-0.9,1.1s-0.5,1.1-0.6,1.7l-0.7,3.5h-1.3l1-4.8
			c0.1-0.4,0.1-0.8,0.1-0.9c0-0.7-0.3-1-0.9-1c-0.4,0-0.8,0.1-1.1,0.4c-0.4,0.3-0.7,0.7-1,1.2c-0.3,0.5-0.5,1.1-0.6,1.8l-0.7,3.3
			h-1.3l1.6-7.7h1l-0.2,1.4h0.1c0.3-0.4,0.6-0.7,0.8-0.9c0.2-0.2,0.5-0.3,0.8-0.5S189.4,326.2,189.7,326.2z"/>
		<path class="st0" d="M204.1,329.2c0,0.9-0.2,1.7-0.5,2.5s-0.8,1.4-1.4,1.8c-0.6,0.4-1.2,0.6-2,0.6c-0.9,0-1.6-0.3-2.1-0.8
			s-0.8-1.2-0.8-2.1c0-0.9,0.2-1.7,0.5-2.5s0.8-1.4,1.4-1.8s1.2-0.6,1.9-0.6c0.9,0,1.6,0.3,2.1,0.8
			C203.8,327.5,204.1,328.2,204.1,329.2z M202.8,329c0-0.5-0.1-1-0.4-1.3c-0.3-0.3-0.7-0.5-1.1-0.5c-0.5,0-0.9,0.2-1.3,0.5
			c-0.4,0.3-0.7,0.8-0.9,1.4c-0.2,0.6-0.3,1.3-0.3,2c0,0.6,0.1,1.1,0.4,1.4s0.7,0.5,1.2,0.5c0.5,0,0.9-0.2,1.3-0.5
			c0.4-0.3,0.7-0.8,0.9-1.4C202.7,330.5,202.8,329.8,202.8,329z"/>
		<path class="st0" d="M206.4,333.9h-1.3l2.3-10.8h1.3L206.4,333.9z"/>
		<path class="st0" d="M211.3,333.1c0.3,0,0.6-0.1,1-0.2v1c-0.1,0.1-0.3,0.1-0.6,0.2c-0.2,0.1-0.5,0.1-0.6,0.1c-0.6,0-1-0.1-1.4-0.4
			c-0.3-0.3-0.5-0.7-0.5-1.2c0-0.3,0-0.6,0.1-1l0.9-4.2h-1.2l0.1-0.6l1.3-0.5l0.9-1.6h0.7l-0.4,1.7h1.9l-0.2,1h-1.9l-0.9,4.2
			c-0.1,0.4-0.1,0.7-0.1,0.8c0,0.2,0.1,0.4,0.2,0.6S211,333.1,211.3,333.1z"/>
		<path class="st0" d="M222.4,326.2c0.7,0,1.2,0.2,1.5,0.7c0.4,0.5,0.5,1.1,0.5,1.9c0,1-0.2,1.9-0.5,2.7c-0.3,0.8-0.8,1.5-1.3,1.9
			c-0.6,0.5-1.2,0.7-1.9,0.7c-0.9,0-1.5-0.4-2-1.3h-0.1c-0.1,0.6-0.1,1.1-0.2,1.3l-0.7,3.3h-1.2l2.3-11.1h1l-0.2,1.4h0.1
			c0.4-0.5,0.9-0.9,1.3-1.2S222,326.2,222.4,326.2z M222,327.2c-0.4,0-0.9,0.2-1.3,0.6c-0.4,0.4-0.8,1-1.1,1.6
			c-0.3,0.7-0.4,1.3-0.4,2c0,0.5,0.1,0.9,0.4,1.1c0.2,0.3,0.6,0.4,1.1,0.4c0.5,0,0.9-0.2,1.3-0.6c0.4-0.4,0.7-0.9,0.9-1.6
			s0.3-1.4,0.3-2.1C223.2,327.7,222.8,327.2,222,327.2z"/>
		<path class="st0" d="M228.6,334.1c-0.9,0-1.5-0.3-2-0.8c-0.5-0.5-0.7-1.2-0.7-2.1c0-0.9,0.2-1.7,0.5-2.5c0.3-0.8,0.8-1.4,1.4-1.9
			c0.6-0.5,1.2-0.7,1.9-0.7c0.7,0,1.3,0.2,1.6,0.5s0.6,0.8,0.6,1.3c0,0.8-0.4,1.5-1.2,2s-1.9,0.7-3.3,0.7h-0.2l0,0.5
			c0,0.6,0.1,1,0.4,1.4c0.3,0.3,0.7,0.5,1.3,0.5c0.4,0,0.7-0.1,1-0.2c0.3-0.1,0.7-0.2,1.1-0.4v1.1c-0.5,0.2-0.9,0.4-1.2,0.4
			S229,334.1,228.6,334.1z M229.6,327.2c-0.5,0-0.9,0.2-1.4,0.7s-0.7,1-0.9,1.8h0.1c1,0,1.8-0.1,2.4-0.4s0.8-0.7,0.8-1.2
			c0-0.2-0.1-0.4-0.2-0.6C230.2,327.3,229.9,327.2,229.6,327.2z"/>
		<path class="st0" d="M237.6,326.2c0.3,0,0.6,0,0.8,0.1l-0.3,1.1c-0.3-0.1-0.5-0.1-0.7-0.1c-0.4,0-0.8,0.1-1.2,0.4
			c-0.4,0.3-0.7,0.7-1,1.1c-0.3,0.5-0.5,1-0.6,1.6l-0.7,3.5h-1.3l1.6-7.7h1l-0.2,1.4h0.1c0.3-0.4,0.6-0.8,0.8-1
			c0.2-0.2,0.4-0.3,0.7-0.4C237,326.2,237.3,326.2,237.6,326.2z"/>
		<path class="st0" d="M245.7,329.2c0,0.9-0.2,1.7-0.5,2.5c-0.3,0.8-0.8,1.4-1.4,1.8c-0.6,0.4-1.2,0.6-2,0.6c-0.9,0-1.6-0.3-2.1-0.8
			c-0.5-0.5-0.8-1.2-0.8-2.1c0-0.9,0.2-1.7,0.5-2.5s0.8-1.4,1.4-1.8c0.6-0.4,1.2-0.6,1.9-0.6c0.9,0,1.6,0.3,2.1,0.8
			S245.7,328.2,245.7,329.2z M244.4,329c0-0.5-0.1-1-0.4-1.3c-0.3-0.3-0.7-0.5-1.1-0.5c-0.5,0-0.9,0.2-1.3,0.5
			c-0.4,0.3-0.7,0.8-0.9,1.4c-0.2,0.6-0.3,1.3-0.3,2c0,0.6,0.1,1.1,0.4,1.4s0.7,0.5,1.2,0.5c0.5,0,0.9-0.2,1.3-0.5
			c0.4-0.3,0.7-0.8,0.9-1.4C244.3,330.5,244.4,329.8,244.4,329z M243.9,325.3h-0.8c-0.3-0.3-0.6-0.7-0.9-1.1c-0.3-0.4-0.5-0.8-0.6-1
			V323h1.3c0.2,0.6,0.5,1.3,1,2.1V325.3z"/>
		<path class="st0" d="M256.4,333.9h-1.3l1-4.8c0.1-0.5,0.1-0.8,0.1-1c0-0.3-0.1-0.5-0.2-0.7c-0.2-0.2-0.4-0.3-0.8-0.3
			c-0.4,0-0.8,0.1-1.2,0.4c-0.4,0.3-0.7,0.7-1,1.2c-0.3,0.5-0.5,1.1-0.7,1.8l-0.7,3.3h-1.3l1.6-7.7h1l-0.2,1.4h0.1
			c0.3-0.4,0.6-0.7,0.8-0.9c0.2-0.2,0.5-0.4,0.8-0.5c0.3-0.1,0.6-0.2,0.9-0.2c0.6,0,1.1,0.2,1.4,0.5c0.3,0.3,0.5,0.8,0.5,1.4
			c0,0.4-0.1,0.8-0.2,1.3L256.4,333.9z"/>
		<path class="st0" d="M265.7,329.2c0,0.9-0.2,1.7-0.5,2.5c-0.3,0.8-0.8,1.4-1.4,1.8c-0.6,0.4-1.2,0.6-2,0.6c-0.9,0-1.6-0.3-2.1-0.8
			c-0.5-0.5-0.8-1.2-0.8-2.1c0-0.9,0.2-1.7,0.5-2.5s0.8-1.4,1.4-1.8c0.6-0.4,1.2-0.6,1.9-0.6c0.9,0,1.6,0.3,2.1,0.8
			S265.7,328.2,265.7,329.2z M264.4,329c0-0.5-0.1-1-0.4-1.3c-0.3-0.3-0.7-0.5-1.1-0.5c-0.5,0-0.9,0.2-1.3,0.5
			c-0.4,0.3-0.7,0.8-0.9,1.4c-0.2,0.6-0.3,1.3-0.3,2c0,0.6,0.1,1.1,0.4,1.4s0.7,0.5,1.2,0.5c0.5,0,0.9-0.2,1.3-0.5
			c0.4-0.3,0.7-0.8,0.9-1.4C264.3,330.5,264.4,329.8,264.4,329z"/>
		<path class="st0" d="M272.8,334.1c-0.6,0-1.1-0.2-1.5-0.7c-0.4-0.5-0.6-1.1-0.6-1.9c0-1,0.2-1.9,0.5-2.7c0.3-0.8,0.8-1.5,1.3-1.9
			c0.6-0.5,1.2-0.7,1.9-0.7c0.9,0,1.5,0.4,1.9,1.3h0.1c0.1-0.8,0.2-1.4,0.3-1.9l0.5-2.5h1.2l-2.3,10.8h-1l0.2-1.4h-0.1
			c-0.4,0.6-0.9,1-1.3,1.2C273.7,334,273.3,334.1,272.8,334.1z M273.2,333c0.4,0,0.9-0.2,1.3-0.7c0.4-0.4,0.8-1,1.1-1.6
			c0.3-0.7,0.4-1.3,0.4-2c0-0.5-0.1-0.9-0.4-1.1c-0.2-0.3-0.6-0.4-1.1-0.4c-0.5,0-0.9,0.2-1.3,0.6c-0.4,0.4-0.7,0.9-0.9,1.6
			c-0.2,0.7-0.3,1.4-0.3,2.1C272,332.5,272.4,333,273.2,333z"/>
		<path class="st0" d="M281.8,334.1c-0.9,0-1.5-0.3-2-0.8c-0.5-0.5-0.7-1.2-0.7-2.1c0-0.9,0.2-1.7,0.5-2.5c0.3-0.8,0.8-1.4,1.4-1.9
			c0.6-0.5,1.2-0.7,1.9-0.7c0.7,0,1.3,0.2,1.6,0.5s0.6,0.8,0.6,1.3c0,0.8-0.4,1.5-1.2,2s-1.9,0.7-3.3,0.7h-0.2l0,0.5
			c0,0.6,0.1,1,0.4,1.4c0.3,0.3,0.7,0.5,1.3,0.5c0.4,0,0.7-0.1,1-0.2c0.3-0.1,0.7-0.2,1.1-0.4v1.1c-0.5,0.2-0.9,0.4-1.2,0.4
			S282.2,334.1,281.8,334.1z M282.8,327.2c-0.5,0-0.9,0.2-1.4,0.7s-0.7,1-0.9,1.8h0.1c1,0,1.8-0.1,2.4-0.4s0.8-0.7,0.8-1.2
			c0-0.2-0.1-0.4-0.2-0.6C283.4,327.3,283.1,327.2,282.8,327.2z"/>
		<path class="st0" d="M287.1,333.9h-1.3l1.6-7.7h1.3L287.1,333.9z M287.8,324.4c0-0.3,0.1-0.5,0.2-0.7s0.4-0.3,0.6-0.3
			c0.4,0,0.7,0.2,0.7,0.6c0,0.3-0.1,0.5-0.2,0.7c-0.2,0.2-0.4,0.3-0.6,0.3c-0.2,0-0.4-0.1-0.5-0.2
			C287.9,324.7,287.8,324.6,287.8,324.4z"/>
		<path class="st0" d="M291.9,330l-1.7-3.7h1.3l1.2,2.8l2.2-2.8h1.4l-3.2,3.8l1.8,3.9h-1.3l-1.3-3l-2.4,3h-1.5L291.9,330z"/>
		<path class="st0" d="M298.8,334.1c-0.6,0-1.1-0.2-1.5-0.7c-0.4-0.5-0.6-1.1-0.6-1.9c0-1,0.2-1.8,0.5-2.7c0.3-0.8,0.8-1.5,1.4-1.9
			s1.2-0.7,1.9-0.7c0.4,0,0.8,0.1,1.1,0.3c0.3,0.2,0.6,0.6,0.8,1h0.1l0.5-1.2h1l-1.6,7.7h-1l0.2-1.4h-0.1
			C300.6,333.6,299.7,334.1,298.8,334.1z M299.2,333c0.4,0,0.9-0.2,1.3-0.6c0.4-0.4,0.8-1,1.1-1.6s0.4-1.4,0.4-2.1
			c0-0.5-0.1-0.8-0.4-1.1c-0.2-0.3-0.6-0.4-1-0.4c-0.5,0-0.9,0.2-1.3,0.6c-0.4,0.4-0.7,0.9-0.9,1.6c-0.2,0.7-0.3,1.4-0.3,2.1
			c0,0.5,0.1,0.9,0.3,1.2C298.5,332.9,298.8,333,299.2,333z"/>
		<path class="st0" d="M309.4,326.2c0.3,0,0.6,0,0.8,0.1l-0.3,1.1c-0.3-0.1-0.5-0.1-0.7-0.1c-0.4,0-0.8,0.1-1.2,0.4
			c-0.4,0.3-0.7,0.7-1,1.1c-0.3,0.5-0.5,1-0.6,1.6l-0.7,3.5h-1.3l1.6-7.7h1l-0.2,1.4h0.1c0.3-0.4,0.6-0.8,0.8-1
			c0.2-0.2,0.4-0.3,0.7-0.4C308.9,326.2,309.1,326.2,309.4,326.2z"/>
		<path class="st0" d="M313.6,334.1c-0.9,0-1.5-0.3-2-0.8c-0.5-0.5-0.7-1.2-0.7-2.1c0-0.9,0.2-1.7,0.5-2.5c0.3-0.8,0.8-1.4,1.4-1.9
			c0.6-0.5,1.2-0.7,1.9-0.7c0.7,0,1.3,0.2,1.6,0.5s0.6,0.8,0.6,1.3c0,0.8-0.4,1.5-1.2,2s-1.9,0.7-3.3,0.7h-0.2l0,0.5
			c0,0.6,0.1,1,0.4,1.4c0.3,0.3,0.7,0.5,1.3,0.5c0.4,0,0.7-0.1,1-0.2c0.3-0.1,0.7-0.2,1.1-0.4v1.1c-0.5,0.2-0.9,0.4-1.2,0.4
			S314,334.1,313.6,334.1z M314.6,327.2c-0.5,0-0.9,0.2-1.4,0.7s-0.7,1-0.9,1.8h0.1c1,0,1.8-0.1,2.4-0.4s0.8-0.7,0.8-1.2
			c0-0.2-0.1-0.4-0.2-0.6C315.2,327.3,314.9,327.2,314.6,327.2z M314.2,325.1c0.2-0.3,0.5-0.6,0.8-1s0.6-0.8,0.8-1.1h1.4v0.1
			c-0.2,0.3-0.6,0.6-1,1.1c-0.5,0.5-0.9,0.8-1.2,1.1h-0.8V325.1z"/>
		<path class="st0" d="M122.7,351.2c-0.6,0-1.1-0.2-1.5-0.7c-0.4-0.5-0.6-1.1-0.6-1.9c0-1,0.2-1.9,0.5-2.7c0.3-0.8,0.8-1.5,1.3-1.9
			c0.6-0.5,1.2-0.7,1.9-0.7c0.9,0,1.5,0.4,1.9,1.3h0.1c0.1-0.8,0.2-1.4,0.3-1.9l0.5-2.5h1.2l-2.3,10.8h-1l0.2-1.4h-0.1
			c-0.4,0.6-0.9,1-1.3,1.2C123.6,351.1,123.2,351.2,122.7,351.2z M123.2,350.2c0.4,0,0.9-0.2,1.3-0.7c0.4-0.4,0.8-1,1.1-1.6
			c0.3-0.7,0.4-1.3,0.4-2c0-0.5-0.1-0.9-0.4-1.2c-0.2-0.3-0.6-0.4-1.1-0.4c-0.5,0-0.9,0.2-1.3,0.6c-0.4,0.4-0.7,0.9-0.9,1.6
			s-0.3,1.4-0.3,2.1C121.9,349.7,122.3,350.2,123.2,350.2z"/>
		<path class="st0" d="M131.9,340.9l0.1,0.2c-0.2,0.4-0.4,0.9-0.8,1.5c-0.3,0.6-0.7,1.2-1.1,1.8h-1c0.6-1.4,1.1-2.5,1.4-3.5H131.9z"
			/>
		<path class="st0" d="M133.5,351.2c-0.6,0-1.1-0.2-1.5-0.7c-0.4-0.5-0.6-1.1-0.6-1.9c0-1,0.2-1.8,0.5-2.7c0.3-0.8,0.8-1.5,1.4-1.9
			c0.6-0.5,1.2-0.7,1.9-0.7c0.4,0,0.8,0.1,1.1,0.3c0.3,0.2,0.6,0.6,0.8,1h0.1l0.5-1.2h1l-1.6,7.7h-1l0.2-1.4h-0.1
			C135.3,350.7,134.4,351.2,133.5,351.2z M133.9,350.2c0.4,0,0.9-0.2,1.3-0.6s0.8-1,1.1-1.6c0.3-0.7,0.4-1.4,0.4-2.1
			c0-0.5-0.1-0.8-0.4-1.1c-0.3-0.3-0.6-0.4-1-0.4c-0.5,0-0.9,0.2-1.3,0.6s-0.7,0.9-0.9,1.6s-0.3,1.4-0.3,2.1c0,0.5,0.1,0.9,0.3,1.2
			S133.5,350.2,133.9,350.2z"/>
		<path class="st0" d="M145.1,351.1h-1.3l1-4.8c0.1-0.5,0.1-0.8,0.1-1c0-0.3-0.1-0.5-0.2-0.7c-0.2-0.2-0.4-0.3-0.8-0.3
			c-0.4,0-0.8,0.1-1.2,0.4c-0.4,0.3-0.7,0.7-1,1.2c-0.3,0.5-0.5,1.1-0.7,1.8l-0.7,3.3h-1.3l1.6-7.7h1l-0.2,1.4h0.1
			c0.3-0.4,0.6-0.7,0.8-0.9s0.5-0.4,0.8-0.5c0.3-0.1,0.6-0.2,0.9-0.2c0.6,0,1.1,0.2,1.4,0.5s0.5,0.8,0.5,1.4c0,0.4-0.1,0.8-0.2,1.3
			L145.1,351.1z"/>
		<path class="st0" d="M149.8,351.2c-0.6,0-1.1-0.2-1.5-0.7c-0.4-0.5-0.6-1.1-0.6-1.9c0-1,0.2-1.8,0.5-2.7c0.3-0.8,0.8-1.5,1.4-1.9
			c0.6-0.5,1.2-0.7,1.9-0.7c0.4,0,0.8,0.1,1.1,0.3c0.3,0.2,0.6,0.6,0.8,1h0.1l0.5-1.2h1l-1.6,7.7h-1l0.2-1.4h-0.1
			C151.6,350.7,150.8,351.2,149.8,351.2z M150.3,350.2c0.4,0,0.9-0.2,1.3-0.6s0.8-1,1.1-1.6c0.3-0.7,0.4-1.4,0.4-2.1
			c0-0.5-0.1-0.8-0.4-1.1c-0.3-0.3-0.6-0.4-1-0.4c-0.5,0-0.9,0.2-1.3,0.6s-0.7,0.9-0.9,1.6s-0.3,1.4-0.3,2.1c0,0.5,0.1,0.9,0.3,1.2
			S149.9,350.2,150.3,350.2z"/>
		<path class="st0" d="M160.5,343.3c0.3,0,0.6,0,0.8,0.1l-0.3,1.1c-0.3-0.1-0.5-0.1-0.7-0.1c-0.4,0-0.8,0.1-1.2,0.4
			c-0.4,0.3-0.7,0.7-1,1.1c-0.3,0.5-0.5,1-0.6,1.6l-0.7,3.5h-1.3l1.6-7.7h1l-0.2,1.4h0.1c0.3-0.4,0.6-0.8,0.8-1s0.4-0.3,0.7-0.4
			C159.9,343.3,160.2,343.3,160.5,343.3z"/>
		<path class="st0" d="M163,349.4l0.1,0.2c-0.5,1-1.1,2.1-1.9,3.3h-1c0.4-1,0.9-2.1,1.4-3.5H163z"/>
		<path class="st0" d="M173.6,343.3c0.5,0,0.9,0.2,1.2,0.4c0.3,0.3,0.5,0.7,0.5,1.3h0.1c0.8-1.1,1.7-1.7,2.6-1.7
			c0.6,0,1.1,0.2,1.4,0.5c0.3,0.3,0.5,0.8,0.5,1.4c0,0.4-0.1,0.8-0.2,1.3l-1,4.7h-1.3l1-4.8c0.1-0.4,0.1-0.8,0.1-1
			c0-0.3-0.1-0.5-0.2-0.7c-0.2-0.2-0.4-0.3-0.7-0.3c-0.4,0-0.7,0.1-1.1,0.4s-0.7,0.6-0.9,1.1c-0.3,0.5-0.5,1.1-0.6,1.7l-0.7,3.5
			h-1.3l1-4.8c0.1-0.4,0.1-0.8,0.1-0.9c0-0.7-0.3-1-0.9-1c-0.4,0-0.8,0.1-1.1,0.4c-0.4,0.3-0.7,0.7-1,1.2c-0.3,0.5-0.5,1.1-0.6,1.8
			l-0.7,3.3h-1.3l1.6-7.7h1l-0.2,1.4h0.1c0.3-0.4,0.6-0.7,0.8-0.9c0.2-0.2,0.5-0.3,0.8-0.5C173,343.3,173.3,343.3,173.6,343.3z"/>
		<path class="st0" d="M184.3,340.9l0.1,0.2c-0.2,0.4-0.4,0.9-0.8,1.5c-0.3,0.6-0.7,1.2-1.1,1.8h-1c0.6-1.4,1.1-2.5,1.4-3.5H184.3z"
			/>
		<path class="st0" d="M185.9,351.2c-0.6,0-1.1-0.2-1.5-0.7c-0.4-0.5-0.6-1.1-0.6-1.9c0-1,0.2-1.8,0.5-2.7c0.3-0.8,0.8-1.5,1.4-1.9
			c0.6-0.5,1.2-0.7,1.9-0.7c0.4,0,0.8,0.1,1.1,0.3c0.3,0.2,0.6,0.6,0.8,1h0.1l0.5-1.2h1l-1.6,7.7h-1l0.2-1.4h-0.1
			C187.7,350.7,186.8,351.2,185.9,351.2z M186.3,350.2c0.4,0,0.9-0.2,1.3-0.6s0.8-1,1.1-1.6c0.3-0.7,0.4-1.4,0.4-2.1
			c0-0.5-0.1-0.8-0.4-1.1c-0.3-0.3-0.6-0.4-1-0.4c-0.5,0-0.9,0.2-1.3,0.6s-0.7,0.9-0.9,1.6s-0.3,1.4-0.3,2.1c0,0.5,0.1,0.9,0.3,1.2
			S185.9,350.2,186.3,350.2z"/>
		<path class="st0" d="M190.3,354.5c-0.3,0-0.6,0-0.9-0.1v-1.1c0.3,0.1,0.5,0.2,0.8,0.2c0.6,0,1-0.5,1.2-1.4l1.8-8.6h1.2l-1.9,8.8
			c-0.2,0.8-0.4,1.4-0.8,1.8C191.4,354.3,190.9,354.5,190.3,354.5z M193.6,341.5c0-0.3,0.1-0.5,0.2-0.7s0.4-0.3,0.6-0.3
			c0.4,0,0.6,0.2,0.6,0.6c0,0.3-0.1,0.5-0.2,0.7c-0.2,0.2-0.4,0.3-0.6,0.3c-0.2,0-0.4-0.1-0.5-0.2
			C193.6,341.9,193.6,341.7,193.6,341.5z"/>
		<path class="st0" d="M196.9,343.4h1.3l-1,4.8c-0.1,0.4-0.1,0.7-0.1,1c0,0.7,0.3,1,1,1c0.4,0,0.8-0.1,1.2-0.4
			c0.4-0.3,0.7-0.7,1-1.2s0.5-1.1,0.7-1.9l0.7-3.3h1.2l-1.6,7.7h-1l0.2-1.4h-0.1c-0.4,0.5-0.8,0.9-1.3,1.2c-0.4,0.2-0.9,0.4-1.3,0.4
			c-0.6,0-1.1-0.2-1.4-0.5c-0.3-0.3-0.5-0.8-0.5-1.4c0-0.3,0.1-0.7,0.2-1.2L196.9,343.4z"/>
		<path class="st0" d="M205.9,351.2c-0.6,0-1.1-0.2-1.5-0.7c-0.4-0.5-0.6-1.1-0.6-1.9c0-1,0.2-1.9,0.5-2.7c0.3-0.8,0.8-1.5,1.3-1.9
			c0.6-0.5,1.2-0.7,1.9-0.7c0.9,0,1.5,0.4,1.9,1.3h0.1c0.1-0.8,0.2-1.4,0.3-1.9l0.5-2.5h1.2l-2.3,10.8h-1l0.2-1.4h-0.1
			c-0.4,0.6-0.9,1-1.3,1.2C206.8,351.1,206.4,351.2,205.9,351.2z M206.4,350.2c0.4,0,0.9-0.2,1.3-0.7c0.4-0.4,0.8-1,1.1-1.6
			c0.3-0.7,0.4-1.3,0.4-2c0-0.5-0.1-0.9-0.4-1.2c-0.2-0.3-0.6-0.4-1.1-0.4c-0.5,0-0.9,0.2-1.3,0.6c-0.4,0.4-0.7,0.9-0.9,1.6
			c-0.2,0.7-0.3,1.4-0.3,2.1C205.1,349.7,205.6,350.2,206.4,350.2z"/>
		<path class="st0" d="M214.2,351.2c-0.6,0-1.1-0.2-1.5-0.7c-0.4-0.5-0.6-1.1-0.6-1.9c0-1,0.2-1.8,0.5-2.7c0.3-0.8,0.8-1.5,1.4-1.9
			c0.6-0.5,1.2-0.7,1.9-0.7c0.4,0,0.8,0.1,1.1,0.3c0.3,0.2,0.6,0.6,0.8,1h0.1l0.5-1.2h1l-1.6,7.7h-1l0.2-1.4h-0.1
			C216,350.7,215.1,351.2,214.2,351.2z M214.6,350.2c0.4,0,0.9-0.2,1.3-0.6c0.4-0.4,0.8-1,1.1-1.6c0.3-0.7,0.4-1.4,0.4-2.1
			c0-0.5-0.1-0.8-0.4-1.1c-0.2-0.3-0.6-0.4-1-0.4c-0.5,0-0.9,0.2-1.3,0.6c-0.4,0.4-0.7,0.9-0.9,1.6s-0.3,1.4-0.3,2.1
			c0,0.5,0.1,0.9,0.3,1.2C213.9,350,214.2,350.2,214.6,350.2z"/>
		<path class="st0" d="M226,351.2c-0.6,0-1.1-0.2-1.5-0.7c-0.4-0.5-0.6-1.1-0.6-1.9c0-1,0.2-1.8,0.5-2.7c0.3-0.8,0.8-1.5,1.4-1.9
			c0.6-0.5,1.2-0.7,1.9-0.7c0.4,0,0.8,0.1,1.1,0.3c0.3,0.2,0.6,0.6,0.8,1h0.1l0.5-1.2h1l-1.6,7.7h-1l0.2-1.4h-0.1
			C227.8,350.7,226.9,351.2,226,351.2z M226.4,350.2c0.4,0,0.9-0.2,1.3-0.6c0.4-0.4,0.8-1,1.1-1.6c0.3-0.7,0.4-1.4,0.4-2.1
			c0-0.5-0.1-0.8-0.4-1.1c-0.2-0.3-0.6-0.4-1-0.4c-0.5,0-0.9,0.2-1.3,0.6c-0.4,0.4-0.7,0.9-0.9,1.6s-0.3,1.4-0.3,2.1
			c0,0.5,0.1,0.9,0.3,1.2C225.7,350,226,350.2,226.4,350.2z"/>
		<path class="st0" d="M238.6,351.2c-0.9,0-1.6-0.2-2.1-0.7s-0.7-1.2-0.7-2.1c0-0.9,0.2-1.8,0.5-2.6c0.3-0.8,0.8-1.4,1.4-1.8
			c0.6-0.4,1.3-0.7,2.1-0.7c0.7,0,1.3,0.1,1.9,0.4l-0.4,1c-0.5-0.2-1-0.4-1.5-0.4c-0.5,0-1,0.2-1.4,0.5c-0.4,0.4-0.7,0.8-1,1.5
			s-0.3,1.3-0.3,2c0,0.6,0.1,1,0.4,1.3c0.3,0.3,0.7,0.5,1.2,0.5c0.3,0,0.7,0,1-0.1c0.3-0.1,0.6-0.2,0.9-0.3v1.1
			C240,351.1,239.3,351.2,238.6,351.2z"/>
		<path class="st0" d="M243.5,343.4h1.3l-1,4.8c-0.1,0.4-0.1,0.7-0.1,1c0,0.7,0.3,1,1,1c0.4,0,0.8-0.1,1.2-0.4
			c0.4-0.3,0.7-0.7,1-1.2c0.3-0.5,0.5-1.1,0.7-1.9l0.7-3.3h1.2l-1.6,7.7h-1l0.2-1.4h-0.1c-0.4,0.5-0.8,0.9-1.3,1.2s-0.9,0.4-1.3,0.4
			c-0.6,0-1.1-0.2-1.4-0.5c-0.3-0.3-0.5-0.8-0.5-1.4c0-0.3,0.1-0.7,0.2-1.2L243.5,343.4z"/>
		<path class="st0" d="M255.2,343.3c0.5,0,0.9,0.2,1.2,0.4c0.3,0.3,0.5,0.7,0.5,1.3h0.1c0.8-1.1,1.7-1.7,2.6-1.7
			c0.6,0,1.1,0.2,1.4,0.5c0.3,0.3,0.5,0.8,0.5,1.4c0,0.4-0.1,0.8-0.2,1.3l-1,4.7h-1.3l1-4.8c0.1-0.4,0.1-0.8,0.1-1
			c0-0.3-0.1-0.5-0.2-0.7c-0.2-0.2-0.4-0.3-0.7-0.3c-0.4,0-0.7,0.1-1.1,0.4c-0.4,0.3-0.7,0.6-0.9,1.1c-0.3,0.5-0.5,1.1-0.6,1.7
			l-0.7,3.5h-1.3l1-4.8c0.1-0.4,0.1-0.8,0.1-0.9c0-0.7-0.3-1-0.9-1c-0.4,0-0.8,0.1-1.1,0.4c-0.4,0.3-0.7,0.7-1,1.2
			c-0.3,0.5-0.5,1.1-0.6,1.8l-0.7,3.3h-1.3l1.6-7.7h1l-0.2,1.4h0.1c0.3-0.4,0.6-0.7,0.8-0.9c0.2-0.2,0.5-0.3,0.8-0.5
			C254.6,343.3,254.9,343.3,255.2,343.3z"/>
		<path class="st0" d="M267.8,343.3c0.7,0,1.2,0.2,1.5,0.7c0.4,0.5,0.5,1.1,0.5,1.9c0,1-0.2,1.9-0.5,2.7c-0.3,0.8-0.8,1.5-1.3,1.9
			c-0.6,0.5-1.2,0.7-1.9,0.7c-0.9,0-1.5-0.4-2-1.3h-0.1c-0.1,0.6-0.1,1.1-0.2,1.3l-0.7,3.3H262l2.3-11.1h1l-0.2,1.4h0.1
			c0.4-0.5,0.9-0.9,1.3-1.2C266.9,343.4,267.3,343.3,267.8,343.3z M267.3,344.3c-0.4,0-0.9,0.2-1.3,0.6c-0.4,0.4-0.8,1-1.1,1.6
			c-0.3,0.7-0.4,1.3-0.4,2c0,0.5,0.1,0.9,0.4,1.1c0.2,0.3,0.6,0.4,1.1,0.4c0.5,0,0.9-0.2,1.3-0.6c0.4-0.4,0.7-0.9,0.9-1.6
			s0.3-1.4,0.3-2.1C268.6,344.8,268.2,344.3,267.3,344.3z"/>
		<path class="st0" d="M272.2,351.1h-1.3l2.3-10.8h1.3L272.2,351.1z"/>
		<path class="st0" d="M275.9,351.1h-1.3l1.6-7.7h1.3L275.9,351.1z M276.6,341.5c0-0.3,0.1-0.5,0.2-0.7s0.4-0.3,0.6-0.3
			c0.4,0,0.7,0.2,0.7,0.6c0,0.3-0.1,0.5-0.2,0.7c-0.2,0.2-0.4,0.3-0.6,0.3c-0.2,0-0.4-0.1-0.5-0.2
			C276.6,341.9,276.6,341.7,276.6,341.5z"/>
		<path class="st0" d="M283.2,343.3c0.3,0,0.6,0,0.8,0.1l-0.3,1.1c-0.3-0.1-0.5-0.1-0.7-0.1c-0.4,0-0.8,0.1-1.2,0.4s-0.7,0.7-1,1.1
			c-0.3,0.5-0.5,1-0.6,1.6l-0.7,3.5h-1.3l1.6-7.7h1l-0.2,1.4h0.1c0.3-0.4,0.6-0.8,0.8-1c0.2-0.2,0.4-0.3,0.7-0.4
			C282.6,343.3,282.9,343.3,283.2,343.3z"/>
		<path class="st0" d="M294.7,346.3c0,0.9-0.2,1.7-0.5,2.5c-0.3,0.8-0.8,1.4-1.4,1.8c-0.6,0.4-1.2,0.6-2,0.6c-0.9,0-1.6-0.3-2.1-0.8
			c-0.5-0.5-0.8-1.2-0.8-2.1c0-0.9,0.2-1.7,0.5-2.5c0.3-0.8,0.8-1.4,1.4-1.8c0.6-0.4,1.2-0.6,1.9-0.6c0.9,0,1.6,0.3,2.1,0.8
			S294.7,345.4,294.7,346.3z M293.4,346.1c0-0.5-0.1-1-0.4-1.3c-0.3-0.3-0.7-0.5-1.1-0.5c-0.5,0-0.9,0.2-1.3,0.5
			c-0.4,0.3-0.7,0.8-0.9,1.4c-0.2,0.6-0.3,1.3-0.3,2c0,0.6,0.1,1.1,0.4,1.4c0.3,0.3,0.7,0.5,1.2,0.5c0.5,0,0.9-0.2,1.3-0.5
			c0.4-0.3,0.7-0.8,0.9-1.4C293.3,347.6,293.4,346.9,293.4,346.1z"/>
		<path class="st0" d="M299.2,351.2c-0.4,0-0.8-0.1-1.2-0.3s-0.6-0.6-0.8-1h-0.1l-0.5,1.2h-0.9l2.3-10.8h1.3l-0.5,2.6
			c-0.1,0.4-0.2,0.8-0.3,1.3c-0.1,0.4-0.2,0.7-0.2,0.8h0.1c0.5-0.6,0.9-1,1.3-1.2c0.4-0.2,0.8-0.3,1.2-0.3c0.7,0,1.2,0.2,1.5,0.7
			s0.6,1.1,0.6,1.9c0,1-0.2,1.9-0.5,2.7c-0.3,0.8-0.8,1.5-1.3,1.9C300.5,351,299.9,351.2,299.2,351.2z M300.4,344.3
			c-0.4,0-0.9,0.2-1.3,0.7s-0.8,1-1.1,1.7c-0.3,0.7-0.4,1.3-0.4,2c0,0.5,0.1,0.9,0.4,1.1c0.2,0.3,0.6,0.4,1.1,0.4
			c0.5,0,0.9-0.2,1.3-0.6c0.4-0.4,0.7-0.9,0.9-1.6s0.3-1.4,0.3-2.1C301.6,344.8,301.2,344.3,300.4,344.3z"/>
		<path class="st0" d="M302.7,354.5c-0.3,0-0.6,0-0.9-0.1v-1.1c0.3,0.1,0.5,0.2,0.8,0.2c0.6,0,1-0.5,1.2-1.4l1.8-8.6h1.2l-1.9,8.8
			c-0.2,0.8-0.4,1.4-0.8,1.8S303.3,354.5,302.7,354.5z M305.9,341.5c0-0.3,0.1-0.5,0.2-0.7s0.4-0.3,0.6-0.3c0.4,0,0.6,0.2,0.6,0.6
			c0,0.3-0.1,0.5-0.2,0.7c-0.2,0.2-0.4,0.3-0.6,0.3c-0.2,0-0.4-0.1-0.5-0.2C306,341.9,305.9,341.7,305.9,341.5z"/>
		<path class="st0" d="M310.7,351.2c-0.9,0-1.5-0.3-2-0.8c-0.5-0.5-0.7-1.2-0.7-2.1c0-0.9,0.2-1.7,0.5-2.5c0.3-0.8,0.8-1.4,1.4-1.9
			c0.6-0.5,1.2-0.7,1.9-0.7c0.7,0,1.3,0.2,1.6,0.5c0.4,0.3,0.6,0.8,0.6,1.3c0,0.8-0.4,1.5-1.2,2s-1.9,0.7-3.3,0.7h-0.2l0,0.5
			c0,0.6,0.1,1,0.4,1.4c0.3,0.3,0.7,0.5,1.3,0.5c0.4,0,0.7-0.1,1-0.2c0.3-0.1,0.7-0.2,1.1-0.4v1.1c-0.5,0.2-0.9,0.4-1.2,0.4
			C311.5,351.2,311.1,351.2,310.7,351.2z M311.7,344.3c-0.5,0-0.9,0.2-1.4,0.7s-0.7,1-0.9,1.8h0.1c1,0,1.8-0.1,2.4-0.4
			c0.6-0.3,0.8-0.7,0.8-1.2c0-0.2-0.1-0.4-0.2-0.6C312.3,344.4,312.1,344.3,311.7,344.3z"/>
		<path class="st0" d="M317.9,351.2c-0.9,0-1.6-0.2-2.1-0.7s-0.7-1.2-0.7-2.1c0-0.9,0.2-1.8,0.5-2.6c0.3-0.8,0.8-1.4,1.4-1.8
			c0.6-0.4,1.3-0.7,2.1-0.7c0.7,0,1.3,0.1,1.9,0.4l-0.4,1c-0.5-0.2-1-0.4-1.5-0.4c-0.5,0-1,0.2-1.4,0.5c-0.4,0.4-0.7,0.8-1,1.5
			s-0.3,1.3-0.3,2c0,0.6,0.1,1,0.4,1.3c0.3,0.3,0.7,0.5,1.2,0.5c0.3,0,0.7,0,1-0.1c0.3-0.1,0.6-0.2,0.9-0.3v1.1
			C319.3,351.1,318.6,351.2,317.9,351.2z"/>
		<path class="st0" d="M323.7,350.2c0.3,0,0.6-0.1,1-0.2v1c-0.1,0.1-0.3,0.1-0.6,0.2c-0.2,0.1-0.5,0.1-0.6,0.1c-0.6,0-1-0.1-1.4-0.4
			c-0.3-0.3-0.5-0.7-0.5-1.2c0-0.3,0-0.6,0.1-1l0.9-4.2h-1.2l0.1-0.6l1.3-0.5l0.9-1.6h0.7l-0.4,1.7h1.9l-0.2,1h-1.9l-0.9,4.2
			c-0.1,0.4-0.1,0.7-0.1,0.8c0,0.2,0.1,0.4,0.2,0.6C323.2,350.1,323.4,350.2,323.7,350.2z"/>
		<path class="st0" d="M327.3,351.1H326l1.6-7.7h1.3L327.3,351.1z M328,341.5c0-0.3,0.1-0.5,0.2-0.7s0.4-0.3,0.6-0.3
			c0.4,0,0.7,0.2,0.7,0.6c0,0.3-0.1,0.5-0.2,0.7c-0.2,0.2-0.4,0.3-0.6,0.3c-0.2,0-0.4-0.1-0.5-0.2C328,341.9,328,341.7,328,341.5z"
			/>
		<path class="st0" d="M331.2,343.4h1.3l-1,4.8c-0.1,0.4-0.1,0.7-0.1,1c0,0.7,0.3,1,1,1c0.4,0,0.8-0.1,1.2-0.4
			c0.4-0.3,0.7-0.7,1-1.2c0.3-0.5,0.5-1.1,0.7-1.9l0.7-3.3h1.2l-1.6,7.7h-1l0.2-1.4h-0.1c-0.4,0.5-0.8,0.9-1.3,1.2s-0.9,0.4-1.3,0.4
			c-0.6,0-1.1-0.2-1.4-0.5c-0.3-0.3-0.5-0.8-0.5-1.4c0-0.3,0.1-0.7,0.2-1.2L331.2,343.4z"/>
		<path class="st0" d="M342.7,348.9c0,0.7-0.3,1.3-0.8,1.7c-0.5,0.4-1.2,0.6-2.2,0.6c-0.8,0-1.5-0.2-2.1-0.5v-1.2
			c0.3,0.2,0.6,0.3,1,0.4c0.4,0.1,0.7,0.2,1.1,0.2c0.6,0,1-0.1,1.3-0.3c0.3-0.2,0.4-0.5,0.4-0.9c0-0.3-0.1-0.5-0.2-0.7
			s-0.5-0.4-1-0.7c-0.6-0.3-1-0.7-1.3-1c-0.2-0.3-0.4-0.7-0.4-1.2c0-0.7,0.2-1.2,0.7-1.6c0.5-0.4,1.1-0.6,1.9-0.6
			c0.8,0,1.6,0.2,2.3,0.5l-0.4,1c-0.2-0.1-0.5-0.2-0.8-0.3c-0.3-0.1-0.7-0.1-1.1-0.1c-0.4,0-0.7,0.1-1,0.3c-0.2,0.2-0.4,0.4-0.4,0.8
			c0,0.3,0.1,0.5,0.3,0.7c0.2,0.2,0.5,0.4,1,0.7c0.5,0.3,0.9,0.6,1.1,0.8c0.2,0.2,0.3,0.4,0.5,0.6
			C342.7,348.3,342.7,348.6,342.7,348.9z"/>
		<path class="st0" d="M344,350.5c0-0.4,0.1-0.6,0.3-0.9c0.2-0.2,0.5-0.3,0.8-0.3c0.2,0,0.4,0.1,0.5,0.2c0.1,0.1,0.2,0.3,0.2,0.6
			c0,0.3-0.1,0.6-0.3,0.8c-0.2,0.2-0.4,0.3-0.8,0.3c-0.2,0-0.4-0.1-0.5-0.2S344,350.8,344,350.5z"/>
	</g>
</g>
<g>
	<g>
		<path class="st0" d="M120.2,317.4c-0.6,0-1.1-0.1-1.6-0.2V315c0.5,0.1,0.9,0.2,1.3,0.2c0.6,0,1-0.2,1.3-0.5s0.4-0.9,0.4-1.7v-11.8
			h2.7v11.7c0,1.5-0.3,2.6-1,3.3C122.5,317,121.5,317.4,120.2,317.4z"/>
		<path class="st0" d="M133.2,313.7l-0.5-1.3h-0.1c-0.4,0.6-0.9,0.9-1.4,1.2c-0.5,0.2-1.1,0.3-1.8,0.3c-0.9,0-1.6-0.3-2.2-0.8
			c-0.5-0.5-0.8-1.3-0.8-2.2c0-1,0.4-1.8,1.1-2.3c0.7-0.5,1.8-0.8,3.2-0.8l1.7-0.1v-0.4c0-1-0.5-1.5-1.5-1.5c-0.8,0-1.7,0.2-2.7,0.7
			l-0.9-1.8c1.1-0.6,2.3-0.9,3.7-0.9c1.3,0,2.3,0.3,3,0.8s1,1.4,1,2.6v6.4H133.2z M132.5,309.3l-1,0c-0.8,0-1.3,0.2-1.7,0.4
			c-0.4,0.3-0.6,0.6-0.6,1.1c0,0.7,0.4,1.1,1.3,1.1c0.6,0,1.1-0.2,1.5-0.5c0.4-0.3,0.5-0.8,0.5-1.4V309.3z"/>
		<path class="st0" d="M137.7,301.6c0-0.9,0.5-1.3,1.4-1.3s1.4,0.4,1.4,1.3c0,0.4-0.1,0.7-0.4,0.9c-0.2,0.2-0.6,0.3-1.1,0.3
			C138.1,302.9,137.7,302.5,137.7,301.6z M140.4,313.7h-2.6v-9.6h2.6V313.7z"/>
		<path class="st0" d="M151.7,313.7h-2.6v-5.6c0-0.7-0.1-1.2-0.3-1.6c-0.2-0.3-0.6-0.5-1.1-0.5c-0.7,0-1.2,0.2-1.5,0.7
			c-0.3,0.5-0.5,1.3-0.5,2.4v4.5h-2.6v-9.6h2l0.4,1.2h0.1c0.3-0.4,0.6-0.8,1.1-1c0.5-0.2,1-0.4,1.7-0.4c1.4,0,2.4,0.5,2.9,1.4h0.2
			c0.3-0.4,0.6-0.8,1.1-1c0.5-0.2,1.1-0.4,1.7-0.4c1.1,0,1.9,0.3,2.5,0.8c0.6,0.6,0.8,1.5,0.8,2.7v6.3h-2.6v-5.6
			c0-0.7-0.1-1.2-0.3-1.6c-0.2-0.3-0.6-0.5-1.1-0.5c-0.6,0-1.1,0.2-1.4,0.7c-0.3,0.5-0.5,1.2-0.5,2.2V313.7z"/>
		<path class="st0" d="M164.7,313.9c-1.5,0-2.8-0.4-3.6-1.3c-0.9-0.9-1.3-2.1-1.3-3.6c0-1.6,0.4-2.8,1.2-3.7s1.9-1.3,3.3-1.3
			c1.4,0,2.4,0.4,3.2,1.2c0.8,0.8,1.1,1.8,1.1,3.2v1.3h-6.2c0,0.7,0.2,1.3,0.7,1.7s1,0.6,1.7,0.6c0.6,0,1.1-0.1,1.6-0.2
			s1.1-0.3,1.6-0.6v2c-0.5,0.2-0.9,0.4-1.5,0.5C166.1,313.8,165.5,313.9,164.7,313.9z M164.3,305.8c-0.6,0-1,0.2-1.3,0.5
			s-0.5,0.9-0.5,1.5h3.7c0-0.6-0.2-1.1-0.5-1.5C165.3,306,164.9,305.8,164.3,305.8z"/>
	</g>
</g>
<linearGradient id="SVGID_8_" gradientUnits="userSpaceOnUse" x1="17.9949" y1="244.0558" x2="133.7617" y2="125.6229">
	<stop  offset="0" style="stop-color:#F0A868"/>
	<stop  offset="1" style="stop-color:#EFCB67"/>
</linearGradient>
<circle class="st5" cx="52.2" cy="209.1" r="43.9"/>
<g>
	<defs>
		<circle id="SVGID_9_" cx="52.2" cy="209" r="40"/>
	</defs>
	<clipPath id="SVGID_10_">
		<use xlink:href="#SVGID_9_"  style="overflow:visible;"/>
	</clipPath>
	<g transform="matrix(1 0 0 1 0 0)" style="clip-path:url(#SVGID_10_);">
		
			<image style="overflow:visible;" width="233" height="390" xlink:href="9030A311B93C1E65.jpg"  transform="matrix(0.3997 0 0 0.3997 5.6197 165.8957)">
		</image>
	</g>
</g>
<linearGradient id="SVGID_11_" gradientUnits="userSpaceOnUse" x1="18.3753" y1="359.16" x2="134.1421" y2="240.7272">
	<stop  offset="0" style="stop-color:#F0A868"/>
	<stop  offset="1" style="stop-color:#EFCB67"/>
</linearGradient>
<circle class="st6" cx="52.6" cy="324.2" r="43.9"/>
<g>
	<defs>
		<circle id="SVGID_12_" cx="52.6" cy="324.1" r="40"/>
	</defs>
	<clipPath id="SVGID_13_">
		<use xlink:href="#SVGID_12_"  style="overflow:visible;"/>
	</clipPath>
	<g style="clip-path:url(#SVGID_13_);">
		
			<image style="overflow:visible;" width="182" height="180" xlink:href="jambo02.jpg"  transform="matrix(0.4777 0 0 0.4777 8 280)">
		</image>
	</g>
</g>
</svg>
